<svg width="375" height="375" viewBox="0 0 375 375" fill="none" xmlns="http://www.w3.org/2000/svg">
<g id="segment" class="segment"><path d="M375 187.451H359.837L359.642 178.595L358.962 169.835L357.893 161.173L356.337 152.706L354.393 144.433L352.158 136.257L349.436 128.179L346.326 120.393L342.924 112.802L339.036 105.308L334.953 98.1054L330.482 91.0978L325.622 84.3823L320.47 77.8614L315.124 71.6325L309.39 65.5982L303.363 59.9533L297.142 54.503L290.63 49.3447L283.826 44.5757L276.925 40.0986L269.635 35.9136L262.247 32.1178L254.568 28.7114L246.792 25.5969L238.725 22.8718L230.56 20.5359L222.201 18.6867L213.744 17.1295L205.093 16.0589L196.345 15.3776L187.5 15.183V0L197.123 0.194654L206.649 0.973268L216.077 2.14119L225.311 3.79574L234.351 5.83961L243.293 8.3701L251.944 11.3872L260.498 14.6963L268.76 18.4921L276.925 22.5798L284.701 27.1542L292.379 32.0205L299.67 37.1788L306.765 42.8238L313.569 48.6634L320.082 54.8923L326.302 61.4132L332.232 68.2261L337.772 75.2336L343.021 82.6304L347.881 90.2219L352.352 98.1054L356.532 106.183L360.323 114.456L363.628 123.021L366.641 131.683L369.168 140.637L371.209 149.689L372.862 158.935L374.028 168.278L374.806 177.816L375 187.451ZM187.5 375V359.817L196.345 359.525L205.093 358.941L213.744 357.773L222.201 356.313L230.56 354.367L238.725 352.031L246.792 349.306L254.568 346.289L262.247 342.785L269.635 338.989L276.925 334.804L283.826 330.327L290.63 325.558L297.142 320.4L303.363 315.047L309.39 309.304L315.124 303.368L320.47 297.041L325.622 290.52L330.482 283.805L334.953 276.797L339.036 269.595L342.924 262.198L346.326 254.509L349.436 246.723L352.158 238.743L354.393 230.567L356.337 222.197L357.893 213.73L358.962 205.067L359.642 196.308L359.837 187.451H375L374.806 197.087L374.028 206.625L372.862 215.968L371.209 225.214L369.168 234.363L366.641 243.22L363.628 251.979L360.323 260.446L356.532 268.719L352.352 276.895L347.881 284.681L343.021 292.272L337.772 299.669L332.232 306.774L326.302 313.587L320.082 320.01L313.569 326.239L306.765 332.176L299.67 337.724L292.379 342.979L284.701 347.846L276.925 352.323L268.76 356.508L260.498 360.206L251.944 363.613L243.293 366.533L234.351 369.063L225.311 371.204L216.077 372.761L206.649 374.027L197.123 374.708L187.5 375ZM0 187.451H15.1633L15.3577 196.308L16.0381 205.067L17.1073 213.73L18.6625 222.197L20.6065 230.567L22.8421 238.743L25.5638 246.723L28.6742 254.509L32.1734 262.198L35.9642 269.595L40.0467 276.797L44.5179 283.805L49.3779 290.52L54.5295 297.041L59.8756 303.368L65.6104 309.304L71.6369 315.047L77.8577 320.4L84.3701 325.558L91.1742 330.327L98.0754 334.804L105.365 338.989L112.753 342.785L120.432 346.289L128.208 349.306L136.275 352.031L144.44 354.367L152.799 356.313L161.256 357.773L169.907 358.941L178.655 359.525L187.5 359.817V375L177.877 374.708L168.351 374.027L158.923 372.761L149.689 371.204L140.649 369.063L131.707 366.533L123.056 363.613L114.502 360.206L106.24 356.508L98.0754 352.323L90.2994 347.846L82.6205 342.979L75.3305 337.724L68.2348 332.176L61.4308 326.239L54.9184 320.01L48.6975 313.587L42.7683 306.774L37.2278 299.669L31.979 292.272L27.119 284.681L22.6477 276.895L18.4681 268.719L14.6773 260.446L11.3725 251.979L8.35925 243.22L5.83204 234.363L3.79082 225.214L2.13841 215.968L0.972006 206.625L0.194401 197.087L0 187.451ZM187.5 0V15.183L178.655 15.3776L169.907 16.0589L161.256 17.1295L152.799 18.6867L144.44 20.5359L136.275 22.8718L128.208 25.5969L120.432 28.7114L112.753 32.1178L105.365 35.9136L98.0754 40.0986L91.1742 44.5757L84.3701 49.3447L77.8577 54.503L71.6369 59.9533L65.6104 65.5982L59.8756 71.6325L54.5295 77.8614L49.3779 84.3823L44.5179 91.0978L40.0467 98.1054L35.9642 105.308L32.1734 112.802L28.6742 120.393L25.5638 128.179L22.8421 136.257L20.6065 144.433L18.6625 152.706L17.1073 161.173L16.0381 169.835L15.3577 178.595L15.1633 187.451H0L0.194401 177.816L0.972006 168.278L2.13841 158.935L3.79082 149.689L5.83204 140.637L8.35925 131.683L11.3725 123.021L14.6773 114.456L18.4681 106.183L22.6477 98.1054L27.119 90.2219L31.979 82.6304L37.2278 75.2336L42.7683 68.2261L48.6975 61.4132L54.9184 54.8923L61.4308 48.6634L68.2348 42.8238L75.3305 37.1788L82.6205 32.0205L90.2994 27.1542L98.0754 22.5798L106.24 18.4921L114.502 14.6963L123.056 11.3872L131.707 8.3701L140.649 5.83961L149.689 3.79574L158.923 2.14119L168.351 0.973268L177.877 0.194654L187.5 0Z" />
<path fill-rule="evenodd" clip-rule="evenodd" d="M167.671 3.89307C77.214 3.89307 3.88803 77.2314 3.88803 167.694C3.88803 258.157 77.214 331.495 167.671 331.495C258.128 331.495 331.454 258.157 331.454 167.694C331.454 77.2314 258.128 3.89307 167.671 3.89307ZM0 167.694C0 75.077 75.0711 0 167.671 0C260.271 0 335.342 75.077 335.342 167.694C335.342 260.311 260.271 335.388 167.671 335.388C75.0711 335.388 0 260.311 0 167.694Z" transform="translate(19.8289 19.7574)" />
<path fill-rule="evenodd" clip-rule="evenodd" d="M127.916 3.89307C59.4144 3.89307 3.88802 59.41 3.88802 127.887C3.88802 196.365 59.4144 251.882 127.916 251.882C196.418 251.882 251.944 196.365 251.944 127.887C251.944 59.41 196.418 3.89307 127.916 3.89307ZM0 127.887C0 57.2543 57.2728 0 127.916 0C198.559 0 255.832 57.2543 255.832 127.887C255.832 198.52 198.559 255.775 127.916 255.775C57.2728 255.775 0 198.52 0 127.887Z" transform="translate(59.584 59.564)" />
<path d="M0 5.70675L0.891735 2.95043C2.9466 3.67509 4.43929 4.30271 5.3698 4.83326C5.12425 2.49104 4.99501 0.879952 4.98209 0H7.79299C7.75422 1.28111 7.6056 2.88572 7.34712 4.81385C8.67826 4.14095 10.2033 3.51981 11.9221 2.95043L12.8138 5.70675C11.1725 6.25025 9.56354 6.61258 7.98684 6.79375C8.77519 7.47959 9.88663 8.70246 11.3212 10.4624L8.99489 12.1123C8.24532 11.09 7.36005 9.69888 6.33907 7.93898C5.38272 9.76358 4.54268 11.1547 3.81895 12.1123L1.53146 10.4624C3.03061 8.61188 4.10327 7.38901 4.74946 6.79375C3.0823 6.47023 1.49915 6.1079 0 5.70675Z" transform="translate(117.187 43.9807) scale(1.00155 1)" />
<path d="M1.79423 19.0254H0L2.42748 0.99091H4.22171L1.79423 19.0254Z" transform="translate(88.2582 217.883)" />
<path d="M5.36898 17.1923C6.07899 16.35 6.65148 15.4086 7.08645 14.3682C7.52141 13.3277 7.84124 12.0891 8.04593 10.6523L8.85189 5.6234H15.3572L13.8028 17.1551H15.0981L14.3113 22.9643H12.5843L13.112 19.0254H6.09818L5.57047 22.9643H3.83381L4.63018 17.1551L5.36898 17.1923ZM7.43186 17.1923L12.0661 17.1551L13.3327 7.74147H10.2527L9.60029 11.767C9.16532 14.1039 8.44251 15.9123 7.43186 17.1923Z" transform="translate(88.2582 217.883)" />
<path d="M21.6807 19.2732C20.3886 19.2401 19.3779 18.6249 18.6487 17.4276C17.9195 16.2302 17.6125 14.6985 17.7276 12.8323L17.7756 12.2996C17.8843 10.9702 18.1882 9.75632 18.6871 8.65806C19.1924 7.5598 19.8065 6.73405 20.5293 6.18079C21.2521 5.61928 22.0325 5.3509 22.8704 5.37568C23.9387 5.40871 24.7766 5.867 25.3843 6.75056C25.9919 7.63412 26.3246 8.83147 26.3821 10.3426C26.4013 10.8793 26.3885 11.4161 26.3438 11.9528L26.2382 12.9809H19.4547C19.3395 14.1948 19.4931 15.227 19.9152 16.0775C20.3438 16.928 20.9803 17.3698 21.8246 17.4028C22.848 17.4359 23.7947 16.8413 24.6647 15.6192L25.6625 16.7092C25.2276 17.5184 24.6647 18.1543 23.9738 18.6167C23.2894 19.0709 22.525 19.2897 21.6807 19.2732ZM22.7841 7.24602C22.0677 7.22124 21.4408 7.53503 20.9035 8.18738C20.3726 8.83973 19.9504 9.80999 19.637 11.0982L24.6839 11.1106L24.7222 10.9124C24.8246 9.87192 24.6934 9.00901 24.3288 8.32363C23.9706 7.62999 23.4557 7.27079 22.7841 7.24602Z" transform="translate(88.2582 217.883)" />
<path d="M36.0271 19.0254H34.2905L35.0676 13.3029H30.4525L29.6754 19.0254H27.9387L29.7425 5.6234H31.4792L30.702 11.4326H35.3075L36.0943 5.6234H37.8309L36.0271 19.0254Z" transform="translate(88.2582 217.883)" />
<path d="M48.3028 7.48135H44.9254L43.371 19.0254H41.644L43.1887 7.48135H39.8785L40.128 5.6234H48.5522L48.3028 7.48135Z" transform="translate(88.2582 217.883)" />
<path d="M57.1388 5.6234H58.9331L57.1292 19.0254H55.3926L56.6975 9.40124L50.8255 19.0254H49.0312L50.8351 5.6234H52.5621L51.2668 15.26L57.1388 5.6234Z" transform="translate(88.2582 217.883)" />
<path d="M65.4339 5.3509C65.9584 5.36742 66.4286 5.49954 66.8443 5.74727L67.6791 0H69.4157L68.5618 5.82159C69.0543 5.53257 69.5597 5.39219 70.0778 5.40045C71.4402 5.42522 72.3294 6.40787 72.7451 8.3484C72.9242 9.19893 73.0074 10.1031 72.9946 11.061L72.9178 12.5474L72.8986 12.7456C72.6812 14.8017 72.1854 16.416 71.4115 17.5886C70.6439 18.7612 69.6716 19.3351 68.4946 19.3103C67.9381 19.2938 67.4168 19.1493 66.9307 18.8768L66.1631 24.1782H64.4264L65.2036 18.914C64.7367 19.1534 64.2761 19.269 63.822 19.2608C62.9009 19.2608 62.1845 18.8231 61.6727 17.9478C61.1674 17.0643 60.9051 15.8587 60.886 14.331C60.8796 13.8438 60.8956 13.3731 60.9339 12.919L61.0491 11.9033C61.3369 9.78935 61.855 8.16673 62.6034 7.03545C63.3582 5.8959 64.3017 5.33439 65.4339 5.3509ZM71.1812 12.4978C71.2515 11.6721 71.2771 10.9661 71.2579 10.3798C71.1556 8.37317 70.5735 7.34098 69.5117 7.28317C69.1855 7.26666 68.8273 7.34098 68.4371 7.50613L67.0746 17.2294C67.356 17.3615 67.6855 17.4359 68.0629 17.4524C68.8752 17.4689 69.5501 17.0684 70.0874 16.2509C70.6311 15.4251 70.9861 14.2608 71.1524 12.7579L71.1812 12.4978ZM62.6706 12.919C62.6322 13.3566 62.613 13.8314 62.613 14.3434L62.6322 14.9379C62.7537 16.5151 63.3166 17.3326 64.3209 17.3904C64.6215 17.407 64.9573 17.3409 65.3283 17.1923L66.6908 7.4442C66.3582 7.29556 66.0576 7.22124 65.7889 7.22124C64.9893 7.20473 64.3305 7.62174 63.8124 8.47226C63.3006 9.31454 62.9424 10.5903 62.7378 12.2996L62.6706 12.919Z" transform="translate(88.2582 217.883)" />
<path d="M76.6137 19.0254H74.8866L76.6904 5.62339H78.4175L76.6137 19.0254ZM78.0433 0.730786C78.3375 0.714271 78.5806 0.829877 78.7725 1.0776C78.9708 1.31707 79.0699 1.63499 79.0699 2.03135C79.0635 2.41946 78.9644 2.73738 78.7725 2.9851C78.587 3.23283 78.3439 3.36495 78.0433 3.38147C77.7427 3.39798 77.4964 3.2865 77.3045 3.04703C77.1126 2.80756 77.0198 2.49378 77.0262 2.10567C77.0326 1.71757 77.1286 1.39552 77.3141 1.13954C77.4996 0.883551 77.7427 0.747301 78.0433 0.730786Z" transform="translate(88.2582 217.883)" />
<path d="M83.7694 13.3153H82.4549L81.6777 19.0254H79.9411L81.7449 5.6234H83.4815L82.714 11.2963H83.7694L87.9143 5.6234H90.1499L85.2182 12.1758L88.5476 19.0254H86.4943L83.7694 13.3153Z" transform="translate(88.2582 217.883)" />
<path d="M96.9285 19.0254C96.8838 18.786 96.8614 18.5506 96.8614 18.3194L96.8902 17.6134C95.9371 18.7529 94.9264 19.3062 93.8582 19.2732C92.9435 19.2566 92.1983 18.8851 91.6226 18.1584C91.0533 17.4235 90.7943 16.5069 90.8454 15.4086C90.9094 13.9883 91.3891 12.8818 92.2847 12.0891C93.1866 11.2881 94.3699 10.8876 95.8347 10.8876L97.6481 10.9L97.7633 9.83476C97.8272 9.03377 97.7057 8.40207 97.3987 7.93965C97.098 7.46896 96.6439 7.22537 96.0362 7.20885C95.4413 7.19234 94.9136 7.38226 94.4531 7.77862C93.9989 8.16673 93.7207 8.68283 93.6183 9.32692L91.8721 9.3393C91.9296 8.55483 92.1663 7.8612 92.5821 7.2584C92.9979 6.64734 93.532 6.17665 94.1844 5.84635C94.8369 5.50779 95.5117 5.34677 96.2089 5.36328C97.2899 5.39631 98.1311 5.82158 98.7324 6.63908C99.3336 7.44832 99.5863 8.52593 99.4903 9.87192L98.646 16.511L98.598 17.4647C98.5852 17.9189 98.6236 18.369 98.7132 18.8149L98.694 19.0254H96.9285ZM94.2036 17.2913C94.7601 17.3079 95.2846 17.1386 95.7772 16.7835C96.2761 16.4202 96.7047 15.9206 97.0629 15.2848L97.4371 12.5226L96.1226 12.5102C95.0288 12.5102 94.1908 12.7332 93.6087 13.1791C93.0266 13.625 92.6972 14.2567 92.6205 15.0742C92.5629 15.7018 92.6748 16.2261 92.9563 16.6473C93.2441 17.0601 93.6599 17.2748 94.2036 17.2913Z" transform="translate(88.2582 217.883)" />
<path d="M103.323 5.6234H105.06L103.515 17.1551H108.13L109.685 5.6234H111.421L109.867 17.1551H111.076L110.117 23.0015H108.562L109.099 19.0254H101.52L103.323 5.6234Z" transform="translate(88.2582 217.883)" />
<path d="M115.105 19.0254H113.378L115.182 5.62339H116.909L115.105 19.0254ZM116.535 0.730786C116.829 0.714271 117.072 0.829877 117.264 1.0776C117.462 1.31707 117.561 1.63499 117.561 2.03135C117.555 2.41946 117.456 2.73738 117.264 2.9851C117.078 3.23283 116.835 3.36495 116.535 3.38147C116.234 3.39798 115.988 3.2865 115.796 3.04703C115.604 2.80756 115.511 2.49378 115.518 2.10567C115.524 1.71757 115.62 1.39552 115.806 1.13954C115.991 0.883551 116.234 0.747301 116.535 0.730786Z" transform="translate(88.2582 217.883)" />
<path d="M126.54 5.6234H128.334L126.53 19.0254H124.794L126.099 9.40124L120.227 19.0254H118.432L120.236 5.6234H121.963L120.668 15.26L126.54 5.6234ZM127.663 0.743181C127.586 1.77538 127.272 2.597 126.722 3.20806C126.179 3.81087 125.497 4.09575 124.679 4.06272C123.892 4.04621 123.262 3.73655 122.789 3.13375C122.322 2.53094 122.094 1.72996 122.107 0.730794L123.518 0.743181C123.473 1.94879 123.863 2.5681 124.688 2.60113C125.142 2.60939 125.501 2.44011 125.763 2.09329C126.025 1.73822 126.195 1.29231 126.271 0.755567L127.663 0.743181Z" transform="translate(88.2582 217.883)" />
<path d="M138.088 19.0254H136.351L137.128 13.3029H132.513L131.736 19.0254H129.999L131.803 5.6234H133.54L132.763 11.4326H137.368L138.155 5.6234H139.892L138.088 19.0254Z" transform="translate(88.2582 217.883)" />
<path d="M149.577 5.6234H151.371L149.567 19.0254H147.83L149.135 9.40124L143.263 19.0254H141.469L143.273 5.6234H145L143.705 15.26L149.577 5.6234Z" transform="translate(88.2582 217.883)" />
<path d="M161.143 5.6234H162.938L161.134 19.0254H159.397L160.702 9.40124L154.83 19.0254H153.036L154.84 5.6234H156.567L155.271 15.26L161.143 5.6234ZM162.266 0.743181C162.189 1.77538 161.876 2.597 161.326 3.20806C160.782 3.81087 160.101 4.09575 159.282 4.06272C158.495 4.04621 157.865 3.73655 157.392 3.13375C156.925 2.53094 156.698 1.72996 156.711 0.730794L158.121 0.743181C158.076 1.94879 158.467 2.5681 159.292 2.60113C159.746 2.60939 160.104 2.44011 160.366 2.09329C160.629 1.73822 160.798 1.29231 160.875 0.755567L162.266 0.743181Z" transform="translate(88.2582 217.883)" />
<path d="M3.82833 7.94219H2.51384L1.73666 13.6523H0L1.80382 0.250267H3.54048L2.7729 5.92322H3.82833L7.97328 0.250267H10.2089L5.27714 6.80265L8.60653 13.6523H6.55325L3.82833 7.94219Z" transform="translate(256.405 223.257)" />
<path d="M15.1123 0.00254079C15.9823 0.0190559 16.7275 0.324586 17.3479 0.919131C17.9684 1.51368 18.4257 2.3353 18.72 3.38402C19.0206 4.42447 19.123 5.56401 19.027 6.80265L19.0078 7.07515C18.8863 8.37984 18.5857 9.56067 18.1059 10.6176C17.6262 11.6664 17.0057 12.4839 16.2445 13.0701C15.4833 13.6564 14.6486 13.9331 13.7403 13.9C12.8768 13.8835 12.1316 13.578 11.5047 12.9834C10.8842 12.3889 10.4301 11.5797 10.1422 10.5557C9.85439 9.53177 9.75205 8.40462 9.8352 7.17424C9.93115 5.78697 10.2222 4.54007 10.7083 3.43356C11.1945 2.32705 11.8181 1.47239 12.5793 0.869585C13.3469 0.258525 14.1912 -0.0304895 15.1123 0.00254079ZM11.5815 7.18662C11.5367 7.70685 11.5367 8.24772 11.5815 8.80924C11.6454 9.78363 11.8693 10.5598 12.2531 11.1379C12.6433 11.7159 13.1614 12.0173 13.8075 12.0421C14.3831 12.0668 14.9141 11.8852 15.4002 11.4971C15.8863 11.1007 16.2957 10.5062 16.6283 9.71344C16.9609 8.92071 17.1752 8.04128 17.2712 7.07515C17.3223 6.31545 17.3319 5.67549 17.3 5.15526C17.2232 4.1561 16.9897 3.3675 16.5995 2.78947C16.2093 2.21144 15.6912 1.90591 15.0452 1.87288C14.1497 1.84811 13.3885 2.30227 12.7616 3.23538C12.1348 4.16848 11.7478 5.3906 11.6006 6.90174L11.5815 7.18662Z" transform="translate(256.405 223.257)" />
<path d="M20.2613 11.8191C20.9713 10.9768 21.5438 10.0355 21.9787 8.99503C22.4137 7.95458 22.7335 6.71594 22.9382 5.27913L23.7442 0.250267H30.2494L28.6951 11.782H29.9904L29.2036 17.5912H27.4765L28.0043 13.6523H20.9905L20.4628 17.5912H18.7261L19.5225 11.782L20.2613 11.8191ZM22.3241 11.8191L26.9584 11.782L28.2249 2.36833H25.145L24.4926 6.3939C24.0576 8.73079 23.3348 10.5392 22.3241 11.8191Z" transform="translate(256.405 223.257)" />
<path d="M4.22948 22.6516C2.79088 22.6112 1.71193 21.9551 0.992634 20.6834C0.273334 19.4016 -0.0550421 17.5595 0.00750574 15.1574C0.0231427 14.4105 0.0661444 13.6737 0.136511 12.9469L0.558708 9.26797C0.933995 6.12898 1.64939 3.78735 2.70488 2.24309C3.76037 0.698828 5.15206 -0.0480705 6.87994 0.00239554C8.33418 0.0427684 9.41704 0.688734 10.1285 1.94029C10.8478 3.18176 11.1801 4.98844 11.1254 7.36035C11.1019 8.11734 11.055 8.85919 10.9846 9.5859L10.5742 13.1438C10.1598 16.4644 9.42877 18.8918 8.38109 20.426C7.33342 21.9602 5.94955 22.702 4.22948 22.6516ZM8.9323 9.08629C9.04175 7.86501 9.09257 6.91625 9.08476 6.24C9.04566 3.67633 8.27554 2.35916 6.7744 2.28851C5.67981 2.23804 4.79241 2.76289 4.11221 3.86305C3.43982 4.95312 2.97071 6.66896 2.70488 9.01059L2.20059 13.4011C2.09113 14.572 2.04031 15.5258 2.04813 16.2626C2.08722 18.9373 2.85343 20.3099 4.34676 20.3806C5.38662 20.4412 6.24274 19.9466 6.91513 18.8969C7.59534 17.8472 8.08008 16.1818 8.36937 13.9008L8.9323 9.08629Z" transform="translate(136.567 250.479)" />
<path d="M17.1969 22.6516C15.7583 22.6112 14.6793 21.9551 13.96 20.6834C13.2407 19.4016 12.9124 17.5595 12.9749 15.1574C12.9906 14.4105 13.0336 13.6737 13.1039 12.9469L13.5261 9.26797C13.9014 6.12898 14.6168 3.78735 15.6723 2.24309C16.7278 0.698828 18.1195 -0.0480705 19.8474 0.00239554C21.3016 0.0427684 22.3844 0.688734 23.0959 1.94029C23.8152 3.18176 24.1475 4.98844 24.0928 7.36035C24.0693 8.11734 24.0224 8.85919 23.9521 9.5859L23.5416 13.1438C23.1272 16.4644 22.3962 18.8918 21.3485 20.426C20.3008 21.9602 18.917 22.702 17.1969 22.6516ZM21.8997 9.08629C22.0092 7.86501 22.06 6.91625 22.0522 6.24C22.0131 3.67633 21.243 2.35916 19.7418 2.28851C18.6472 2.23804 17.7598 2.76289 17.0796 3.86305C16.4072 4.95312 15.9381 6.66896 15.6723 9.01059L15.168 13.4011C15.0585 14.572 15.0077 15.5258 15.0155 16.2626C15.0546 18.9373 15.8208 20.3099 17.3142 20.3806C18.354 20.4412 19.2101 19.9466 19.8825 18.8969C20.5627 17.8472 21.0475 16.1818 21.3368 13.9008L21.8997 9.08629Z" transform="translate(136.567 250.479)" />
<path d="M30.0889 22.6516C28.6503 22.6112 27.5714 21.9551 26.8521 20.6834C26.1328 19.4016 25.8044 17.5595 25.8669 15.1574C25.8826 14.4105 25.9256 13.6737 25.9959 12.9469L26.4181 9.26797C26.7934 6.12898 27.5088 3.78735 28.5643 2.24309C29.6198 0.698828 31.0115 -0.0480705 32.7394 0.00239554C34.1936 0.0427684 35.2765 0.688734 35.9879 1.94029C36.7072 3.18176 37.0395 4.98844 36.9848 7.36035C36.9613 8.11734 36.9144 8.85919 36.8441 9.5859L36.4336 13.1438C36.0192 16.4644 35.2882 18.8918 34.2405 20.426C33.1928 21.9602 31.809 22.702 30.0889 22.6516ZM34.7917 9.08629C34.9012 7.86501 34.952 6.91625 34.9442 6.24C34.9051 3.67633 34.135 2.35916 32.6338 2.28851C31.5392 2.23804 30.6518 2.76289 29.9716 3.86305C29.2992 4.95312 28.8301 6.66896 28.5643 9.01059L28.06 13.4011C27.9506 14.572 27.8997 15.5258 27.9075 16.2626C27.9466 18.9373 28.7129 20.3099 30.2062 20.3806C31.246 20.4412 32.1022 19.9466 32.7746 18.8969C33.4548 17.8472 33.9395 16.1818 34.2288 13.9008L34.7917 9.08629Z" transform="translate(136.567 250.479)" />
<path d="M43.0563 22.6516C41.6177 22.6112 40.5388 21.9551 39.8195 20.6834C39.1002 19.4016 38.7718 17.5595 38.8343 15.1574C38.85 14.4105 38.893 13.6737 38.9633 12.9469L39.3855 9.26797C39.7608 6.12898 40.4762 3.78735 41.5317 2.24309C42.5872 0.698828 43.9789 -0.0480705 45.7068 0.00239554C47.161 0.0427684 48.2439 0.688734 48.9554 1.94029C49.6747 3.18176 50.0069 4.98844 49.9522 7.36035C49.9288 8.11734 49.8818 8.85919 49.8115 9.5859L49.401 13.1438C48.9866 16.4644 48.2556 18.8918 47.2079 20.426C46.1602 21.9602 44.7764 22.702 43.0563 22.6516ZM47.7591 9.08629C47.8686 7.86501 47.9194 6.91625 47.9116 6.24C47.8725 3.67633 47.1024 2.35916 45.6012 2.28851C44.5066 2.23804 43.6192 2.76289 42.939 3.86305C42.2666 4.95312 41.7975 6.66896 41.5317 9.01059L41.0274 13.4011C40.918 14.572 40.8671 15.5258 40.875 16.2626C40.914 18.9373 41.6803 20.3099 43.1736 20.3806C44.2134 20.4412 45.0696 19.9466 45.742 18.8969C46.4222 17.8472 46.9069 16.1818 47.1962 13.9008L47.7591 9.08629Z" transform="translate(136.567 250.479)" />
<path d="M56.0237 22.6516C54.5851 22.6112 53.5062 21.9551 52.7869 20.6834C52.0676 19.4016 51.7392 17.5595 51.8017 15.1574C51.8174 14.4105 51.8604 13.6737 51.9307 12.9469L52.3529 9.26797C52.7282 6.12898 53.4436 3.78735 54.4991 2.24309C55.5546 0.698828 56.9463 -0.0480705 58.6742 0.00239554C60.1284 0.0427684 61.2113 0.688734 61.9228 1.94029C62.6421 3.18176 62.9743 4.98844 62.9196 7.36035C62.8962 8.11734 62.8492 8.85919 62.7789 9.5859L62.3684 13.1438C61.954 16.4644 61.223 18.8918 60.1753 20.426C59.1277 21.9602 57.7438 22.702 56.0237 22.6516ZM60.7265 9.08629C60.836 7.86501 60.8868 6.91625 60.879 6.24C60.8399 3.67633 60.0698 2.35916 58.5686 2.28851C57.474 2.23804 56.5867 2.76289 55.9064 3.86305C55.2341 4.95312 54.7649 6.66896 54.4991 9.01059L53.9948 13.4011C53.8854 14.572 53.8345 15.5258 53.8424 16.2626C53.8815 18.9373 54.6477 20.3099 56.141 20.3806C57.1809 20.4412 58.037 19.9466 58.7094 18.8969C59.3896 17.8472 59.8743 16.1818 60.1636 13.9008L60.7265 9.08629Z" transform="translate(136.567 250.479)" />
<path d="M68.9911 22.6516C67.5525 22.6112 66.4736 21.9551 65.7543 20.6834C65.035 19.4016 64.7066 17.5595 64.7691 15.1574C64.7848 14.4105 64.8278 13.6737 64.8982 12.9469L65.3204 9.26797C65.6956 6.12898 66.411 3.78735 67.4665 2.24309C68.522 0.698828 69.9137 -0.0480705 71.6416 0.00239554C73.0958 0.0427684 74.1787 0.688734 74.8902 1.94029C75.6095 3.18176 75.9417 4.98844 75.887 7.36035C75.8636 8.11734 75.8167 8.85919 75.7463 9.5859L75.3358 13.1438C74.9214 16.4644 74.1904 18.8918 73.1427 20.426C72.0951 21.9602 70.7112 22.702 68.9911 22.6516ZM73.6939 9.08629C73.8034 7.86501 73.8542 6.91625 73.8464 6.24C73.8073 3.67633 73.0372 2.35916 71.536 2.28851C70.4415 2.23804 69.5541 2.76289 68.8739 3.86305C68.2015 4.95312 67.7324 6.66896 67.4665 9.01059L66.9622 13.4011C66.8528 14.572 66.802 15.5258 66.8098 16.2626C66.8489 18.9373 67.6151 20.3099 69.1084 20.3806C70.1483 20.4412 71.0044 19.9466 71.6768 18.8969C72.357 17.8472 72.8417 16.1818 73.131 13.9008L73.6939 9.08629Z" transform="translate(136.567 250.479)" />
<path d="M81.9585 22.6516C80.5199 22.6112 79.441 21.9551 78.7217 20.6834C78.0024 19.4016 77.674 17.5595 77.7366 15.1574C77.7522 14.4105 77.7952 13.6737 77.8656 12.9469L78.2878 9.26797C78.663 6.12898 79.3784 3.78735 80.4339 2.24309C81.4894 0.698828 82.8811 -0.0480705 84.609 0.00239554C86.0632 0.0427684 87.1461 0.688734 87.8576 1.94029C88.5769 3.18176 88.9092 4.98844 88.8544 7.36035C88.831 8.11734 88.7841 8.85919 88.7137 9.5859L88.3032 13.1438C87.8888 16.4644 87.1578 18.8918 86.1101 20.426C85.0625 21.9602 83.6786 22.702 81.9585 22.6516ZM86.6613 9.08629C86.7708 7.86501 86.8216 6.91625 86.8138 6.24C86.7747 3.67633 86.0046 2.35916 84.5034 2.28851C83.4089 2.23804 82.5215 2.76289 81.8413 3.86305C81.1689 4.95312 80.6998 6.66896 80.4339 9.01059L79.9296 13.4011C79.8202 14.572 79.7694 15.5258 79.7772 16.2626C79.8163 18.9373 80.5825 20.3099 82.0758 20.3806C83.1157 20.4412 83.9718 19.9466 84.6442 18.8969C85.3244 17.8472 85.8091 16.1818 86.0984 13.9008L86.6613 9.08629Z" transform="translate(136.567 250.479)" />
<path d="M94.9259 22.6516C93.4873 22.6112 92.4084 21.9551 91.6891 20.6834C90.9698 19.4016 90.6414 17.5595 90.704 15.1574C90.7196 14.4105 90.7626 13.6737 90.833 12.9469L91.2552 9.26797C91.6305 6.12898 92.3458 3.78735 93.4013 2.24309C94.4568 0.698828 95.8485 -0.0480705 97.5764 0.00239554C99.0306 0.0427684 100.114 0.688734 100.825 1.94029C101.544 3.18176 101.877 4.98844 101.822 7.36035C101.798 8.11734 101.751 8.85919 101.681 9.5859L101.271 13.1438C100.856 16.4644 100.125 18.8918 99.0775 20.426C98.0299 21.9602 96.646 22.702 94.9259 22.6516ZM99.6288 9.08629C99.7382 7.86501 99.789 6.91625 99.7812 6.24C99.7421 3.67633 98.972 2.35916 97.4709 2.28851C96.3763 2.23804 95.4889 2.76289 94.8087 3.86305C94.1363 4.95312 93.6672 6.66896 93.4013 9.01059L92.897 13.4011C92.7876 14.572 92.7368 15.5258 92.7446 16.2626C92.7837 18.9373 93.5499 20.3099 95.0432 20.3806C96.0831 20.4412 96.9392 19.9466 97.6116 18.8969C98.2918 17.8472 98.7765 16.1818 99.0658 13.9008L99.6288 9.08629Z" transform="translate(136.567 250.479)" />
<path d="M4.75597 0L8.30988 2.06708C6.81166 4.43943 6.03642 6.84666 5.98416 9.28879V13.6584H0V9.7336C0 8.09389 0.452949 6.34952 1.35885 4.50048C2.28217 2.634 3.41454 1.13384 4.75597 0ZM13.7191 0L17.273 2.06708C15.7748 4.43943 14.9996 6.84666 14.9473 9.28879V13.6584H8.96317V9.7336C8.96317 8.09389 9.41612 6.34952 10.322 4.50048C11.2453 2.634 12.3777 1.13384 13.7191 0Z" transform="translate(73.8725 141.847) scale(0.634126 1)" />
<path d="M26.8142 2.98288V34.7741H37.3714V2.98288H45.2371V34.7741H55.6898V2.98288H63.5293V41.08H18.9486V2.98288H26.8142Z" transform="translate(73.8725 141.847) scale(0.634126 1)" />
<path d="M94.9688 9.34112H83.3141V41.08H75.4746V9.34112H63.9766V2.98288H94.9688V9.34112Z" transform="translate(73.8725 141.847) scale(0.634126 1)" />
<path d="M114.597 33.2303H100.852L98.2384 41.08H89.9024L104.066 2.98288H111.33L125.572 41.08H117.236L114.597 33.2303ZM102.968 26.8721H112.48L107.698 12.6118L102.968 26.8721Z" transform="translate(73.8725 141.847) scale(0.634126 1)" />
<path d="M136.159 2.98288L145.932 30.6138L155.653 2.98288H165.949V41.08H158.083V30.6661L158.867 12.6903L148.597 41.08H143.214L132.971 12.7165L133.755 30.6661V41.08H125.915V2.98288H136.159Z" transform="translate(73.8725 141.847) scale(0.634126 1)" />
<path d="M200.576 41.08H192.711V9.34112H177.476V41.08H169.636V2.98288H200.576V41.08Z" transform="translate(73.8725 141.847) scale(0.634126 1)" />
<path d="M244.249 28.3897C243.953 32.4889 242.437 35.716 239.702 38.0709C236.984 40.4258 233.395 41.6033 228.936 41.6033C224.058 41.6033 220.216 39.9636 217.411 36.6842C214.624 33.3873 213.23 28.8694 213.23 23.1304V20.8017C213.23 17.1385 213.875 13.9114 215.164 11.1204C216.453 8.32938 218.291 6.19253 220.678 4.70981C223.082 3.20965 225.869 2.45957 229.04 2.45957C233.43 2.45957 236.967 3.63702 239.65 5.99192C242.332 8.34683 243.883 11.6524 244.301 15.9087H236.461C236.27 13.4491 235.582 11.6699 234.397 10.5709C233.23 9.4545 231.444 8.8963 229.04 8.8963C226.427 8.8963 224.467 9.83827 223.16 11.7222C221.871 13.5887 221.209 16.493 221.174 20.4353V23.3135C221.174 27.4303 221.793 30.4393 223.03 32.3407C224.284 34.242 226.253 35.1927 228.936 35.1927C231.357 35.1927 233.16 34.6432 234.345 33.5443C235.547 32.4279 236.235 30.7097 236.409 28.3897H244.249Z" transform="translate(73.8725 141.847) scale(0.634126 1)" />
<path d="M274.042 9.34112H262.387V41.08H254.548V9.34112H243.05V2.98288H274.042V9.34112Z" transform="translate(73.8725 141.847) scale(0.634126 1)" />
<path d="M305.847 22.8949C305.847 26.6453 305.185 29.9334 303.861 32.7593C302.537 35.5852 300.638 37.7657 298.165 39.3007C295.708 40.8358 292.886 41.6033 289.698 41.6033C286.545 41.6033 283.731 40.8445 281.257 39.3269C278.784 37.8093 276.867 35.6463 275.508 32.8378C274.15 30.0119 273.461 26.7674 273.444 23.1042V21.2203C273.444 17.4699 274.115 14.173 275.456 11.3297C276.815 8.46893 278.723 6.27974 281.179 4.76214C283.653 3.22709 286.475 2.45957 289.646 2.45957C292.816 2.45957 295.63 3.22709 298.086 4.76214C300.56 6.27974 302.468 8.46893 303.809 11.3297C305.168 14.173 305.847 17.4612 305.847 21.1941V22.8949ZM297.903 21.168C297.903 17.1734 297.189 14.1381 295.761 12.0623C294.332 9.98654 292.294 8.94863 289.646 8.94863C287.015 8.94863 284.986 9.97781 283.557 12.0362C282.129 14.0771 281.406 17.0774 281.388 21.0371V22.8949C281.388 26.7848 282.102 29.8026 283.531 31.9482C284.959 34.0938 287.015 35.1666 289.698 35.1666C292.329 35.1666 294.349 34.1374 295.761 32.079C297.172 30.0032 297.886 26.9855 297.903 23.0257V21.168Z" transform="translate(73.8725 141.847) scale(0.634126 1)" />
<path d="M316.173 27.657V41.08H308.333V2.98288H323.176C326.033 2.98288 328.542 3.50619 330.702 4.55281C332.879 5.59944 334.552 7.09088 335.719 9.02713C336.886 10.9459 337.47 13.1351 337.47 15.5947C337.47 19.3277 336.189 22.2756 333.629 24.4387C331.085 26.5842 327.557 27.657 323.045 27.657H316.173ZM316.173 21.2988H323.176C325.249 21.2988 326.826 20.8104 327.906 19.8335C329.003 18.8567 329.552 17.4612 329.552 15.647C329.552 13.7805 329.003 12.2717 327.906 11.1204C326.808 9.96909 325.292 9.37601 323.359 9.34112H316.173V21.2988Z" transform="translate(73.8725 141.847) scale(0.634126 1)" />
<path d="M341.706 14.6789L338.152 12.6118C339.651 10.2569 340.426 7.82351 340.478 5.31162V0.88963H346.488V4.9453C346.488 6.51523 346.053 8.216 345.182 10.0476C344.311 11.8792 343.152 13.423 341.706 14.6789ZM350.774 14.6789L347.22 12.6118C348.718 10.2569 349.494 7.82351 349.546 5.31162V0.88963H355.556V4.9453C355.556 6.51523 355.121 8.216 354.25 10.0476C353.378 11.8792 352.22 13.423 350.774 14.6789Z" transform="translate(73.8725 141.847) scale(0.634126 1)" />
<path d="M107.407 9.63535L109.545 8.95406L117.418 17.2268L119.168 6.22891L121.306 5.64495L118.876 19.66C118.488 21.4119 118.196 22.5798 117.904 23.2611C117.516 23.8451 116.932 24.2344 116.058 24.5263C115.474 24.6237 114.794 24.721 113.919 24.721L113.433 22.8718C114.114 23.0664 114.697 23.0664 115.377 22.8718C115.863 22.7745 116.252 22.4825 116.544 21.9958C116.835 21.6065 117.03 20.7306 117.127 19.4654L107.407 9.63535ZM124.806 5.25565L126.944 4.86634L128.208 11.9712C129.18 11.7765 129.86 11.4846 130.249 10.9979C130.54 10.5113 130.929 9.53802 131.221 7.98079C131.512 6.81287 131.707 6.03426 131.998 5.54763C132.193 5.06099 132.484 4.57436 132.97 4.18505C133.456 3.79574 134.04 3.50376 134.72 3.40644C135.498 3.30911 135.984 3.21178 135.984 3.21178L136.372 5.06099C136.275 5.06099 136.081 5.15832 135.886 5.15832C135.692 5.15832 135.498 5.15832 135.498 5.25565C134.817 5.35297 134.331 5.54763 134.04 5.93693C133.748 6.42357 133.456 7.20218 133.262 8.27277C132.97 9.83 132.679 10.7059 132.29 11.1926C131.998 11.5819 131.61 11.9712 131.124 12.2632C132.193 12.3605 133.456 13.1391 134.72 14.599L139.094 19.368L136.372 19.8547L132.873 15.9616C131.901 14.891 131.124 14.2097 130.54 13.8204C129.957 13.4311 129.277 13.3338 128.499 13.4311L129.86 21.0226L127.722 21.4119L124.806 5.25565ZM140.941 19.5627L139.677 3.11446L145.898 2.62782C146.967 2.5305 147.842 2.5305 148.425 2.62782C149.203 2.62782 149.883 2.82248 150.467 3.21178C151.05 3.50376 151.536 3.9904 151.925 4.67168C152.313 5.35297 152.508 6.03426 152.605 6.9102C152.702 8.27277 152.313 9.53802 151.536 10.5113C150.758 11.5819 149.106 12.1658 146.773 12.3605L142.593 12.6525L143.079 19.368L140.941 19.5627ZM142.496 10.7059L146.676 10.414C148.134 10.3166 149.106 9.92733 149.592 9.4407C150.175 8.85674 150.467 8.07812 150.369 7.10485C150.272 6.42357 150.078 5.83961 149.689 5.35297C149.3 4.96366 148.814 4.67168 148.231 4.57436C147.842 4.47703 147.162 4.47703 146.19 4.57436L142.01 4.86634L142.496 10.7059ZM152.897 18.8814L159.603 2.5305L162.033 2.62782L168.351 19.2707L165.824 19.1734L164.075 14.1124L157.173 13.9177L155.229 18.8814H152.897ZM157.854 12.1658L163.394 12.3605L161.839 7.68881C161.353 6.32624 160.964 5.15832 160.77 4.28238C160.478 5.35297 160.187 6.42357 159.798 7.39683L157.854 12.1658ZM170.393 19.8547L172.434 3.50376L174.67 3.79574L172.531 20.1466L170.393 19.8547ZM170.587 2.23852L170.879 0L173.017 0.29198L172.725 2.5305L170.587 2.23852ZM174.767 2.82248L175.058 0.486634L177.197 0.778614L176.905 3.01713L174.767 2.82248ZM176.516 20.4386L180.21 4.3797L182.348 4.86634L180.793 11.4846L189.152 13.4311L190.61 6.81287L192.749 7.29951L189.055 23.3584L186.917 22.8718L188.666 15.2803L180.404 13.3338L178.655 20.9253L176.516 20.4386ZM190.902 23.6504L202.177 10.0247L204.413 10.8033L205.482 28.6141L203.149 27.8355L202.955 22.4825L196.345 20.244L193.04 24.429L190.902 23.6504ZM197.512 18.7841L202.858 20.5359L202.663 15.6696C202.663 14.2097 202.663 12.9445 202.663 12.0685C202.08 12.9445 201.497 13.9177 200.816 14.7937L197.512 18.7841ZM233.087 43.797L241.446 31.9232L237.072 28.8087L238.142 27.2515L248.834 34.7457L247.667 36.3029L243.293 33.1884L234.837 45.0623L233.087 43.797ZM244.946 42.5318C246.695 40.4879 248.639 39.32 250.778 39.1254C252.916 38.9307 254.86 39.5147 256.61 41.0719C257.776 42.0452 258.554 43.2131 259.04 44.5757C259.428 45.9382 259.526 47.3008 259.137 48.7607C258.748 50.1233 258.068 51.4859 256.998 52.6538C255.929 53.919 254.666 54.8923 253.305 55.3789C251.944 55.9629 250.583 56.0602 249.125 55.7682C247.764 55.4763 246.598 54.8923 245.432 53.919C244.265 52.9458 243.488 51.7778 243.099 50.4153C242.613 49.0527 242.613 47.5928 243.002 46.2302C243.293 44.8676 243.974 43.6024 244.946 42.5318ZM246.598 43.9917C245.334 45.5489 244.654 47.0088 244.751 48.5661C244.848 50.1233 245.432 51.4859 246.695 52.5565C247.959 53.627 249.32 54.0164 250.875 53.919C252.43 53.7244 253.888 52.8484 255.249 51.1939C256.124 50.2206 256.707 49.15 257.096 48.0794C257.387 47.1062 257.387 46.0356 257.096 45.0623C256.804 44.089 256.221 43.2131 255.346 42.5318C254.18 41.4612 252.819 41.0719 251.361 41.0719C249.806 41.1692 248.25 42.1425 246.598 43.9917ZM253.402 60.9266L265.844 50.2206L269.926 54.8923C270.704 55.7682 271.287 56.6442 271.481 57.4228C271.773 58.2987 271.773 59.0773 271.481 59.856C271.287 60.6346 270.898 61.2185 270.315 61.7052C269.732 62.1918 269.149 62.4838 268.468 62.5811C267.69 62.7758 266.913 62.5811 266.135 62.2891C266.621 63.2624 266.718 64.1383 266.524 65.0143C266.33 65.8902 265.941 66.6688 265.163 67.2528C264.58 67.7394 263.9 68.1287 263.219 68.3234C262.539 68.518 261.858 68.518 261.275 68.4207C260.692 68.2261 260.109 67.9341 259.526 67.5448C258.845 67.1555 258.262 66.4742 257.582 65.6956L253.402 60.9266ZM262.053 56.3522L264.386 59.0773C265.066 59.7586 265.552 60.2453 265.941 60.5372C266.427 60.8292 266.816 60.9266 267.302 60.9266C267.788 60.9266 268.274 60.6346 268.663 60.2453C269.149 59.9533 269.44 59.564 269.537 59.0773C269.635 58.5907 269.635 58.1041 269.44 57.6174C269.246 57.1308 268.76 56.4495 267.982 55.5736L265.844 53.1404L262.053 56.3522ZM256.318 61.3159L259.04 64.4303C259.428 65.0143 259.817 65.3063 260.012 65.5009C260.4 65.8902 260.789 66.0849 261.178 66.1822C261.567 66.2795 261.956 66.2795 262.442 66.1822C262.928 66.0849 263.316 65.8902 263.705 65.5982C264.191 65.1116 264.483 64.7223 264.58 64.1383C264.774 63.6517 264.677 63.0677 264.483 62.4838C264.191 61.9971 263.802 61.3159 263.122 60.5372L260.595 57.6174L256.318 61.3159ZM261.956 70.6592L278.966 66.2795L280.424 68.2261L270.898 83.2144L269.44 81.1705L272.356 76.7908L268.371 71.1459L263.316 72.5084L261.956 70.6592ZM270.218 70.5619L273.425 75.1363L276.147 71.1459C277.022 69.8806 277.702 68.9073 278.285 68.1287C277.216 68.6154 276.244 69.0047 275.175 69.2967L270.218 70.5619ZM271.676 84.7716L285.867 76.5962L288.977 81.9491C289.561 82.9224 289.949 83.701 290.144 84.285C290.435 84.9663 290.533 85.7449 290.435 86.4262C290.435 87.1075 290.144 87.6914 289.755 88.3727C289.366 88.9567 288.783 89.4433 288.103 89.9299C286.839 90.6112 285.575 90.8059 284.312 90.5139C283.048 90.2219 281.785 89.054 280.618 87.0101L278.577 83.3117L272.745 86.7181L271.676 84.7716ZM280.229 82.4358L282.368 86.1342C283.048 87.3021 283.729 88.0807 284.506 88.2754C285.284 88.5674 286.061 88.47 286.839 87.9834C287.519 87.5941 287.908 87.2048 288.2 86.6208C288.394 86.0369 288.491 85.5502 288.297 84.9663C288.2 84.577 287.908 83.993 287.422 83.1171L285.284 79.4186L280.229 82.4358ZM294.421 92.2658L295.101 94.115L283.048 98.884L298.406 102.29L299.183 104.334L283.826 110.369L283.145 108.519L295.198 103.75L279.938 100.344L279.16 98.3L294.421 92.2658ZM293.837 123.41V125.746C291.991 125.746 290.533 125.357 289.269 124.481C288.005 123.605 287.228 122.34 286.742 120.685C286.256 118.933 286.159 117.473 286.547 116.208C286.936 114.943 287.714 113.872 288.88 112.899C290.047 111.926 291.407 111.244 292.865 110.855C294.518 110.369 296.073 110.271 297.434 110.563C298.892 110.855 300.058 111.439 301.03 112.51C302.002 113.483 302.683 114.651 303.072 116.014C303.558 117.668 303.46 119.031 302.974 120.393C302.488 121.658 301.614 122.729 300.253 123.605L299.183 121.658C300.253 120.977 300.933 120.199 301.225 119.323C301.614 118.544 301.614 117.571 301.322 116.5C300.933 115.332 300.35 114.359 299.572 113.678C298.697 113.094 297.823 112.704 296.656 112.607C295.587 112.607 294.518 112.704 293.546 112.996C292.185 113.386 291.019 113.97 290.144 114.651C289.269 115.332 288.686 116.111 288.394 117.084C288.2 118.057 288.2 119.031 288.491 120.004C288.783 121.172 289.366 122.048 290.338 122.632C291.213 123.313 292.379 123.508 293.837 123.41ZM289.755 133.24L304.044 130.71L303.072 125.357L305.016 124.968L307.251 137.815L305.404 138.204L304.432 132.851L290.144 135.382L289.755 133.24ZM291.019 142.973L307.446 141.708L307.932 147.839C308.029 149.105 307.932 150.078 307.64 150.954C307.348 151.732 306.96 152.316 306.279 152.803C305.599 153.29 304.918 153.582 304.141 153.582C303.46 153.679 302.78 153.484 302.1 153.192C301.516 152.9 300.933 152.316 300.544 151.635C300.253 152.608 299.864 153.387 299.183 153.971C298.503 154.555 297.725 154.944 296.753 155.042C295.976 155.042 295.295 154.944 294.615 154.652C293.935 154.36 293.351 154.068 292.963 153.582C292.574 153.095 292.282 152.511 291.991 151.83C291.796 151.148 291.602 150.273 291.505 149.202L291.019 142.973ZM300.739 144.336L301.03 147.937C301.03 148.91 301.225 149.591 301.322 149.981C301.516 150.565 301.905 150.954 302.294 151.148C302.683 151.44 303.169 151.538 303.752 151.538C304.238 151.44 304.724 151.343 305.113 150.954C305.502 150.662 305.793 150.273 305.89 149.786C305.988 149.299 306.085 148.521 305.988 147.255L305.696 144.044L300.739 144.336ZM293.157 144.92L293.449 149.105C293.546 149.786 293.546 150.273 293.643 150.565C293.74 151.051 293.935 151.44 294.226 151.732C294.421 152.122 294.712 152.316 295.198 152.511C295.587 152.706 296.073 152.803 296.559 152.706C297.239 152.706 297.725 152.511 298.114 152.122C298.6 151.83 298.892 151.343 298.989 150.759C299.183 150.175 299.183 149.397 299.086 148.326L298.795 144.53L293.157 144.92ZM300.058 157.572C302.78 157.767 304.821 158.643 306.279 160.297C307.64 161.854 308.32 163.801 308.126 166.137C308.029 167.597 307.543 168.959 306.765 170.127C305.89 171.295 304.821 172.171 303.46 172.658C302.197 173.242 300.642 173.436 298.989 173.339C297.337 173.144 295.879 172.755 294.615 171.976C293.351 171.198 292.477 170.127 291.893 168.862C291.31 167.597 291.019 166.234 291.213 164.774C291.31 163.217 291.796 161.854 292.574 160.686C293.449 159.616 294.518 158.74 295.879 158.156C297.239 157.669 298.6 157.475 300.058 157.572ZM299.864 159.811C297.823 159.616 296.267 160.103 295.004 161.076C293.837 162.049 293.157 163.314 293.06 164.969C292.865 166.526 293.351 167.986 294.421 169.154C295.49 170.225 297.045 170.906 299.183 171.1C300.544 171.198 301.711 171.003 302.78 170.614C303.752 170.322 304.627 169.641 305.21 168.862C305.793 167.986 306.182 167.013 306.279 165.942C306.376 164.482 305.89 163.022 304.918 161.854C304.044 160.686 302.294 160.005 299.864 159.811ZM292.865 188.522L292.768 190.663C291.991 190.566 291.116 190.76 290.144 191.15C289.172 191.636 288.589 192.415 288.297 193.486C288.005 194.556 288.005 195.529 288.394 196.308C288.783 197.184 289.366 197.671 290.144 197.865C291.019 198.157 291.796 197.963 292.574 197.476C293.254 196.989 293.74 196.113 294.129 194.946L294.421 193.972L296.17 194.459C295.976 195.432 295.781 196.211 295.781 196.697C295.684 197.281 295.879 197.768 296.267 198.352C296.559 198.839 297.045 199.228 297.628 199.325C298.309 199.52 298.989 199.423 299.669 199.033C300.253 198.644 300.739 198.06 301.03 197.087C301.225 196.308 301.225 195.529 301.03 194.946C300.739 194.264 300.35 193.68 299.767 193.291C299.086 192.902 298.697 192.61 298.309 192.512L299.378 190.663C302.586 192.123 303.752 194.459 302.877 197.671C302.391 199.228 301.614 200.298 300.544 200.98C299.378 201.661 298.211 201.758 297.142 201.466C295.587 201.077 294.712 200.006 294.323 198.352C293.837 199.131 293.157 199.715 292.379 200.006C291.505 200.396 290.63 200.396 289.658 200.104C288.297 199.715 287.325 198.936 286.645 197.573C286.061 196.308 285.964 194.751 286.45 192.999C287.325 189.982 289.463 188.522 292.865 188.522ZM286.936 216.455C289.366 217.623 290.921 219.277 291.699 221.321C292.379 223.365 292.185 225.311 291.116 227.453C290.435 228.815 289.463 229.886 288.297 230.567C287.033 231.346 285.77 231.735 284.312 231.735C282.854 231.638 281.396 231.248 279.938 230.567C278.48 229.788 277.313 228.815 276.439 227.647C275.564 226.382 275.078 225.117 275.078 223.657C275.078 222.294 275.369 220.932 275.953 219.667C276.73 218.304 277.702 217.233 278.869 216.455C280.132 215.676 281.493 215.384 282.854 215.384C284.312 215.384 285.673 215.773 286.936 216.455ZM285.867 218.401C284.117 217.525 282.562 217.233 281.007 217.72C279.549 218.109 278.383 219.083 277.702 220.445C276.925 221.905 276.827 223.462 277.313 224.922C277.897 226.382 279.063 227.55 281.007 228.523C282.173 229.107 283.34 229.497 284.409 229.497C285.478 229.594 286.45 229.302 287.325 228.815C288.297 228.329 288.977 227.55 289.463 226.577C290.144 225.214 290.241 223.754 289.852 222.294C289.463 220.834 288.103 219.569 285.867 218.401ZM284.506 238.84L278.285 247.599L276.73 246.431L281.687 239.521L277.508 236.504L275.272 239.716C274.397 240.981 273.62 241.76 272.842 242.344C272.162 242.928 271.384 243.122 270.412 243.122C269.537 243.122 268.663 242.83 267.788 242.149C267.107 241.662 266.621 241.078 266.232 240.397C265.844 239.618 265.649 238.84 265.746 237.964C265.746 237.185 266.33 236.017 267.399 234.557L271.093 229.302L284.506 238.84ZM271.384 232.124L268.857 235.725C268.177 236.699 267.788 237.477 267.885 238.256C267.885 239.035 268.371 239.716 269.149 240.202C269.635 240.689 270.218 240.786 270.801 240.786C271.384 240.786 271.87 240.592 272.356 240.202C272.842 239.813 273.425 239.035 274.3 237.867L275.953 235.433L271.384 232.124ZM262.442 241.468L274.786 252.271L272.648 254.704L261.372 250.032C260.303 249.643 259.526 249.254 258.942 249.059C259.331 249.546 259.817 250.422 260.4 251.492L266.427 262.004L264.58 264.145L252.138 253.342L253.499 251.784L263.9 260.836L256.61 248.183L257.873 246.626L271.579 252.271L260.984 243.025L262.442 241.468ZM249.514 255.775L260.206 268.233L251.264 276.019L250 274.559L257.29 268.233L253.985 264.339L247.084 270.374L245.918 268.914L252.722 262.88L249.125 258.695L241.446 265.313L240.183 263.853L249.514 255.775ZM238.53 285.265L234.642 279.23C233.67 279.717 233.184 280.301 233.087 280.885C232.893 281.469 232.99 282.442 233.281 283.999C233.476 285.167 233.573 286.043 233.573 286.627C233.573 287.114 233.379 287.698 233.087 288.185C232.795 288.769 232.407 289.255 231.823 289.547C231.24 289.936 230.851 290.228 230.657 290.228L229.685 288.671C229.685 288.671 229.879 288.574 230.074 288.477C230.268 288.379 230.365 288.282 230.365 288.185C231.046 287.893 231.337 287.406 231.435 286.919C231.532 286.53 231.532 285.654 231.24 284.486C231.046 283.221 230.949 282.345 231.046 281.761C231.046 281.177 231.337 280.69 231.726 280.009C230.657 280.398 229.199 280.106 227.449 279.23L221.715 276.505L223.95 275.045L228.713 277.284C229.977 277.868 230.949 278.257 231.629 278.452C232.309 278.549 232.99 278.355 233.767 277.868L229.588 271.444L231.532 270.179L235.614 276.7C236.295 276.311 236.684 275.824 236.975 275.143C237.17 274.559 237.267 273.488 237.267 272.126V271.834L237.17 266.578L239.405 265.118L239.502 271.542C239.6 273.488 239.211 274.948 238.433 275.727C239.114 275.629 239.697 275.629 240.183 275.727C240.766 275.921 241.544 276.408 242.71 277.187C243.779 277.965 244.46 278.355 244.946 278.355C245.334 278.452 245.918 278.355 246.404 277.965L247.181 277.479L248.153 279.036C248.153 279.133 247.764 279.328 247.084 279.717C246.501 280.106 245.918 280.398 245.334 280.398C244.654 280.398 244.168 280.301 243.682 280.106C243.196 279.912 242.418 279.522 241.446 278.841C240.086 277.868 239.211 277.381 238.628 277.284C238.142 277.187 237.364 277.381 236.489 277.965L240.377 284.097L238.53 285.265ZM219.868 277.284L227.449 291.883L216.855 297.333L215.98 295.581L224.533 291.202L222.298 286.725L214.23 290.812L213.258 289.158L221.423 284.973L218.896 280.009L209.856 284.583L208.981 282.832L219.868 277.284ZM206.065 283.999L211.314 299.669L209.273 300.35L207.135 293.927L199.067 296.652L201.205 303.076L199.164 303.757L193.818 288.185L195.956 287.503L198.386 294.803L206.454 292.078L204.024 284.778L206.065 283.999ZM192.846 296.847C193.429 299.572 193.235 301.81 192.068 303.659C190.999 305.411 189.347 306.579 187.111 307.163C185.556 307.455 184.195 307.455 182.834 306.969C181.474 306.579 180.307 305.801 179.432 304.633C178.558 303.562 177.877 302.2 177.488 300.642C177.1 298.988 177.1 297.431 177.488 295.971C177.877 294.608 178.558 293.343 179.627 292.467C180.696 291.494 181.862 290.91 183.32 290.52C184.778 290.228 186.236 290.228 187.597 290.715C188.958 291.202 190.027 291.98 190.999 293.051C191.874 294.219 192.457 295.484 192.846 296.847ZM190.61 297.333C190.124 295.387 189.25 294.024 187.986 293.148C186.722 292.272 185.264 291.98 183.709 292.37C182.057 292.759 180.89 293.635 180.113 294.997C179.335 296.36 179.238 298.015 179.724 300.058C180.016 301.421 180.502 302.492 181.182 303.368C181.765 304.243 182.64 304.827 183.612 305.217C184.584 305.509 185.556 305.509 186.625 305.314C188.18 304.925 189.347 304.146 190.124 302.881C190.999 301.616 191.194 299.766 190.61 297.333ZM173.989 309.304L171.851 309.499L171.267 302.102L168.06 302.394C168.06 304.73 167.477 306.579 166.213 308.137C164.949 309.596 163.297 310.375 161.256 310.57C159.117 310.764 157.271 310.083 155.813 308.72C154.257 307.358 153.383 305.314 153.188 302.686C152.994 300.058 153.577 297.917 154.841 296.263C156.104 294.608 157.854 293.732 160.089 293.538C162.033 293.44 163.783 293.927 165.144 295.192C166.602 296.36 167.477 298.112 167.963 300.448L171.073 300.156L170.587 293.051L172.725 292.856L173.989 309.304ZM165.824 301.616C165.727 299.572 165.144 297.917 164.075 296.847C163.005 295.776 161.742 295.289 160.187 295.484C158.631 295.581 157.368 296.263 156.493 297.431C155.618 298.696 155.327 300.35 155.424 302.492C155.618 304.535 156.201 306.19 157.271 307.261C158.243 308.331 159.603 308.818 161.159 308.72C162.714 308.623 163.977 307.942 164.852 306.677C165.63 305.411 166.019 303.757 165.824 301.616ZM136.956 293.051L134.04 309.304L128.013 308.137C126.75 307.942 125.778 307.65 125.097 307.163C124.417 306.677 123.931 306.093 123.542 305.314C123.25 304.535 123.153 303.854 123.348 303.076C123.445 302.394 123.736 301.713 124.222 301.226C124.708 300.642 125.389 300.253 126.166 300.058C125.292 299.572 124.611 298.89 124.222 298.112C123.834 297.333 123.639 296.457 123.834 295.581C124.028 294.803 124.32 294.121 124.708 293.538C125.194 292.954 125.583 292.467 126.166 292.175C126.652 291.98 127.333 291.786 128.11 291.688C128.791 291.688 129.763 291.786 130.735 291.98L136.956 293.051ZM133.068 302.005L129.568 301.421C128.694 301.226 127.916 301.226 127.527 301.226C126.944 301.324 126.458 301.518 126.166 301.81C125.778 302.2 125.583 302.589 125.486 303.173C125.389 303.757 125.389 304.243 125.583 304.633C125.778 305.119 126.069 305.509 126.555 305.703C127.041 305.995 127.819 306.19 128.985 306.385L132.193 306.969L133.068 302.005ZM134.428 294.511L130.443 293.829C129.763 293.732 129.18 293.635 128.888 293.635C128.402 293.635 128.013 293.732 127.624 293.829C127.236 294.024 126.944 294.316 126.652 294.608C126.361 294.997 126.166 295.387 126.069 295.971C125.972 296.555 126.069 297.139 126.264 297.625C126.458 298.112 126.847 298.501 127.333 298.793C127.916 299.085 128.694 299.28 129.666 299.474L133.456 300.156L134.428 294.511ZM121.404 290.034L117.71 306.093L115.572 305.606L119.265 289.547L121.404 290.034ZM108.865 303.659L99.339 300.448L104.005 286.725L102.644 286.238L104.491 280.788L106.337 281.372L105.074 284.973L115.377 288.477L116.641 284.875L118.488 285.459L116.641 291.007L115.474 290.52C113.53 291.98 111.586 295.679 109.642 301.421L108.865 303.659ZM102.061 299.377L107.504 301.226L107.795 300.35C108.281 299.085 108.962 297.236 110.031 295.095C111.003 292.856 112.072 291.104 113.336 289.839L106.143 287.406L102.061 299.377ZM94.0902 298.307L82.3289 292.954L89.133 277.965L91.077 278.841L85.1477 292.078L92.9238 295.581L98.853 282.345L100.894 283.318L94.0902 298.307ZM82.2317 283.221C80.7737 285.459 79.0241 286.919 76.9829 287.406C74.8445 287.893 72.9005 287.503 70.8592 286.335C69.5956 285.459 68.6236 284.389 68.0404 283.124C67.36 281.858 67.1656 280.496 67.2628 279.133C67.4572 277.673 67.9432 276.213 68.818 274.851C69.79 273.488 70.8592 272.418 72.1229 271.639C73.3865 270.86 74.7473 270.568 76.1081 270.666C77.5661 270.763 78.8297 271.152 80.0933 271.931C81.3569 272.807 82.3289 273.878 83.0093 275.143C83.5925 276.408 83.7869 277.771 83.6897 279.23C83.4953 280.69 83.0093 281.956 82.2317 283.221ZM80.3849 281.956C81.4541 280.301 81.8429 278.647 81.5513 277.187C81.2597 275.629 80.4821 274.364 79.1213 273.488C77.6633 272.612 76.3025 272.418 74.7473 272.807C73.1921 273.196 71.9285 274.267 70.762 276.116C70.0816 277.187 69.5956 278.355 69.4012 279.425C69.304 280.496 69.4012 281.469 69.8872 282.442C70.276 283.318 70.9564 284.097 71.9285 284.681C73.1921 285.557 74.6501 285.849 76.1081 285.557C77.6633 285.265 79.0241 283.999 80.3849 281.956ZM71.0537 266.383L60.2644 278.841L55.5988 274.753C54.6267 273.975 54.0435 273.196 53.6547 272.418C53.2659 271.639 53.1687 270.86 53.2659 270.082C53.4603 269.303 53.7519 268.622 54.2379 268.038C54.7239 267.454 55.3072 267.065 55.9876 266.87C56.668 266.675 57.4456 266.675 58.2232 266.87C57.64 265.994 57.4456 265.118 57.4456 264.242C57.5428 263.366 57.8344 262.588 58.5148 261.809C59.0008 261.225 59.584 260.836 60.2644 260.544C60.9448 260.252 61.6252 260.057 62.2084 260.154C62.7916 260.154 63.472 260.349 64.0552 260.738C64.7356 261.03 65.5132 261.517 66.2908 262.198L71.0537 266.383ZM63.1804 272.126L60.4588 269.79C59.6812 269.206 59.1952 268.817 58.8064 268.622C58.2232 268.33 57.7372 268.33 57.2512 268.427C56.7652 268.525 56.3764 268.817 55.9876 269.206C55.696 269.595 55.4044 270.082 55.4044 270.568C55.3072 271.055 55.4044 271.542 55.696 271.931C55.8904 272.418 56.4736 273.002 57.4456 273.78L59.8756 275.921L63.1804 272.126ZM68.1376 266.383L65.0272 263.658C64.444 263.269 64.0552 262.977 63.8608 262.782C63.3748 262.49 62.986 262.393 62.5972 262.296C62.2084 262.198 61.8196 262.296 61.3336 262.49C60.9448 262.588 60.556 262.88 60.2644 263.269C59.7784 263.756 59.584 264.242 59.4868 264.826C59.4868 265.41 59.584 265.897 59.8756 266.383C60.1672 266.87 60.7504 267.551 61.528 268.233L64.444 270.666L68.1376 266.383ZM59.1952 255.872L47.8227 267.843L46.2675 266.286L57.64 254.412L59.1952 255.872ZM41.4075 261.42L34.7978 253.828L45.7815 244.29L44.8095 243.22L49.1835 239.424L50.4471 240.884L47.5311 243.414L54.7239 251.59L57.5428 249.157L58.8064 250.616L54.5295 254.315L53.6547 253.439C51.3219 253.731 47.8227 255.872 43.1571 259.862L41.4075 261.42ZM37.7138 254.218L41.5047 258.597L42.0879 258.013C43.1571 257.137 44.7123 255.969 46.6563 254.509C48.6975 253.147 50.5443 252.174 52.1967 251.687L47.2395 245.945L37.7138 254.218ZM45.7815 241.273L28.6742 245.75L27.3134 243.804L36.839 228.718L38.297 230.762L35.2838 235.239L39.3662 240.884L44.4207 239.424L45.7815 241.273ZM37.5194 241.37L34.2146 236.796L31.493 240.884C30.7154 242.052 30.035 243.025 29.4518 243.804C30.4238 243.414 31.493 243.025 32.5622 242.733L37.5194 241.37ZM20.4121 233.195L15.7465 224.046L30.4238 216.552L31.3958 218.499L18.4681 225.117L21.1897 230.372L28.6742 226.479C30.2294 225.701 31.3958 225.214 32.1734 225.019C32.951 224.825 33.7286 224.825 34.3118 225.019C34.9922 225.311 35.4782 225.798 35.7698 226.479C36.0614 226.966 36.2558 227.55 36.353 228.231L34.409 228.718C34.409 228.329 34.409 228.037 34.3118 227.745C34.0202 227.355 33.7286 227.063 33.2426 227.063C32.8538 226.966 31.979 227.258 30.8126 227.939L20.4121 233.195ZM13.4137 219.277L12.5389 217.233L19.1485 214.703L17.6905 211.004C17.0101 209.35 16.7185 207.987 16.8157 207.111C16.9129 206.138 17.2045 205.359 17.7877 204.776C18.2737 204.192 18.9541 203.705 19.6345 203.51C20.8981 203.024 22.0645 203.024 23.2309 203.413C24.4946 203.9 25.5638 205.262 26.4386 207.403L28.6742 213.243L13.4137 219.277ZM26.147 211.88L24.689 208.182C24.1058 206.722 23.4253 205.846 22.7449 205.554C22.0645 205.359 21.2869 205.359 20.5093 205.651C19.9261 205.846 19.4401 206.235 19.1485 206.722C18.8569 207.306 18.7597 207.793 18.8569 208.377C18.9541 209.058 19.2457 209.934 19.8289 211.296L20.8981 214.022L26.147 211.88ZM23.2309 199.131L7.48445 203.608L6.90124 201.564L13.4137 199.715L11.0809 191.442L4.56843 193.291L3.88802 191.247L19.7317 186.77L20.3149 188.814L12.9277 190.955L15.2605 199.131L22.6477 196.989L23.2309 199.131ZM19.1485 182.78L2.91602 185.602L2.52722 183.461L18.7597 180.541L19.1485 182.78ZM10.8865 165.845L11.1781 163.606C13.0249 163.898 14.4829 164.482 15.5521 165.553C16.6213 166.623 17.2045 167.986 17.4961 169.738C17.6905 171.49 17.4961 172.95 16.9129 174.118C16.3297 175.285 15.4549 176.259 14.1913 177.037C12.8305 177.816 11.4697 178.303 9.91446 178.497C8.16485 178.692 6.70684 178.595 5.34603 178.108C3.98523 177.621 2.91602 176.745 2.04121 175.675C1.26361 174.507 0.777605 173.242 0.583204 171.782C0.388802 170.225 0.583204 168.765 1.36081 167.499C2.04121 166.331 3.11042 165.358 4.56843 164.774L5.24883 166.818C4.17963 167.305 3.40202 167.986 2.91602 168.765C2.43002 169.543 2.33281 170.516 2.43002 171.587C2.62442 172.852 3.01322 173.923 3.79082 174.604C4.47123 175.383 5.34603 175.869 6.41524 176.161C7.48445 176.356 8.55365 176.356 9.62286 176.259C10.9837 176.064 12.1501 175.675 13.1221 175.188C14.0941 174.604 14.8717 173.923 15.2605 172.95C15.6493 172.074 15.7465 171.1 15.6493 170.127C15.4549 168.862 14.9689 167.889 14.1913 167.207C13.4137 166.429 12.3445 166.039 10.8865 165.845ZM16.5241 156.793L2.04121 156.404L1.94401 161.854H0L0.291602 148.715L2.23561 148.813L2.13841 154.263L16.6213 154.652L16.5241 156.793ZM0.388802 144.725L0.680404 142.584L7.97045 143.46L8.35925 140.345C6.12364 139.859 4.37403 138.885 3.11042 137.328C1.94401 135.771 1.45801 134.019 1.74961 131.975C2.04121 129.931 3.01322 128.179 4.66563 127.011C6.31804 125.844 8.45645 125.357 10.9837 125.649C13.7053 126.038 15.6493 127.011 17.0101 128.569C18.3709 130.126 18.8569 132.072 18.5653 134.214C18.3709 136.257 17.4961 137.815 16.0381 138.885C14.5801 140.053 12.6361 140.637 10.3033 140.54L9.91446 143.752L17.0101 144.628L16.7185 146.769L0.388802 144.725ZM9.62286 138.301C11.6641 138.593 13.3165 138.301 14.5801 137.523C15.8437 136.647 16.5241 135.479 16.7185 134.019C16.9129 132.364 16.5241 131.099 15.5521 129.931C14.4829 128.861 12.9277 128.179 10.7893 127.887C8.74806 127.693 7.09564 127.985 5.83204 128.666C4.47123 129.445 3.79082 130.71 3.59642 132.267C3.40202 133.824 3.79082 135.187 4.86003 136.257C5.92924 137.328 7.48445 138.009 9.62286 138.301ZM31.3958 93.9203L17.1073 85.7449L18.7597 82.9224L30.8126 85.3556C31.8818 85.5502 32.7566 85.7449 33.3398 85.8422C32.8538 85.4529 32.2706 84.7716 31.493 83.7983L23.5225 74.6496L24.9806 72.1191L39.269 80.2946L38.1998 82.1438L26.2442 75.2336L35.7698 86.3288L34.7978 87.9834L20.3149 85.1609L32.465 92.1684L31.3958 93.9203ZM41.6019 77.2774L39.7551 76.0122L41.1159 74.0657L42.9627 75.4282L41.6019 77.2774ZM32.6594 61.5105L34.1174 59.856L39.5607 64.5276C40.2411 63.749 40.5327 63.1651 40.5327 62.5811C40.4355 61.9971 40.1439 61.0239 39.3662 59.564C38.8802 58.4934 38.5886 57.7148 38.3942 57.2281C38.297 56.7415 38.297 56.1575 38.3942 55.4763C38.4914 54.8923 38.783 54.3083 39.269 53.8217C39.7551 53.2377 40.0467 52.8484 40.1439 52.8484L41.5047 54.1137C41.5047 54.1137 41.4075 54.3083 41.2131 54.4057C41.1159 54.6003 41.0187 54.6976 40.9215 54.795C40.5327 55.2816 40.3383 55.7682 40.3383 56.2549C40.3383 56.7415 40.6299 57.5201 41.2131 58.5907C41.8935 59.856 42.1851 60.8292 42.2823 61.3159C42.2823 61.8998 42.1851 62.3865 41.9907 62.9704C42.9627 62.3865 44.3235 62.1918 46.2675 62.4838L52.6827 63.5544L50.9331 65.5982L45.6843 64.7223C44.3235 64.5276 43.2543 64.4303 42.5739 64.5276C41.8935 64.625 41.2131 64.917 40.7271 65.5982L46.5591 70.5619L45.1011 72.2165L32.6594 61.5105ZM42.4767 50.1233L43.9347 48.7607L52.8771 58.2014L50.2527 42.7264L51.8079 41.1692L63.1804 53.1404L61.7224 54.503L52.7799 45.0623L55.4044 60.5372L53.8491 62.0945L42.4767 50.1233ZM66.1936 50.6099L56.0848 37.6655L57.8344 36.3029L67.9432 49.2473L66.1936 50.6099ZM53.8491 38.0548L52.4883 36.3029L54.1407 34.9403L55.5016 36.7895L53.8491 38.0548ZM57.154 35.5243L55.7932 33.6751L57.4456 32.4098L58.8064 34.1617L57.154 35.5243ZM70.8592 46.9115L61.3336 33.4804L66.388 29.8793C67.36 29.1007 68.332 28.7114 69.1096 28.5167C69.9844 28.3221 70.762 28.4194 71.4425 28.7114C72.2201 29.1007 72.8033 29.49 73.2893 30.1713C73.6781 30.7553 73.8725 31.3392 73.9697 32.1178C73.9697 32.7991 73.8725 33.5777 73.3865 34.3563C74.3585 33.967 75.3305 33.967 76.1081 34.259C76.9829 34.4537 77.6633 35.0376 78.2465 35.8162C78.7325 36.4002 79.0241 37.0815 79.1213 37.8601C79.2185 38.5414 79.2185 39.2227 79.0241 39.8066C78.8297 40.2933 78.4409 40.8772 77.9549 41.4612C77.4689 42.0452 76.8857 42.6291 76.0109 43.2131L70.8592 46.9115ZM67.1656 37.8601L69.9844 35.8162C70.8592 35.2323 71.3453 34.7457 71.6369 34.4537C71.9285 33.967 72.1229 33.4804 72.1229 32.9938C72.1229 32.5071 72.0257 32.0205 71.6369 31.6312C71.3453 31.1446 70.9564 30.8526 70.4704 30.6579C70.0816 30.4633 69.5956 30.4633 69.1096 30.5606C68.6236 30.7553 67.846 31.1446 66.9712 31.8259L64.2496 33.7724L67.1656 37.8601ZM71.5397 44.089L74.8445 41.6559C75.4277 41.2665 75.8165 40.9746 76.0109 40.7799C76.3997 40.3906 76.6913 40.0013 76.7885 39.612C76.9829 39.32 76.9829 38.8334 76.9829 38.4441C76.8857 37.9574 76.6913 37.4708 76.3997 37.0815C76.1081 36.5949 75.6221 36.2056 75.1361 36.0109C74.5529 35.9136 74.0669 35.8162 73.4837 36.0109C72.9005 36.2056 72.2201 36.5949 71.3453 37.1788L68.2348 39.4173L71.5397 44.089Z" transform="translate(33.3398 31.0472)" />
<path d="M0 5.70675L0.891735 2.95043C2.9466 3.67509 4.43929 4.30271 5.3698 4.83326C5.12425 2.49104 4.99501 0.879952 4.98209 0H7.79299C7.75422 1.28111 7.6056 2.88572 7.34712 4.81385C8.67826 4.14095 10.2033 3.51981 11.9221 2.95043L12.8138 5.70675C11.1725 6.25025 9.56354 6.61258 7.98684 6.79375C8.77519 7.47959 9.88663 8.70246 11.3212 10.4624L8.99489 12.1123C8.24532 11.09 7.36005 9.69888 6.33907 7.93898C5.38272 9.76358 4.54268 11.1547 3.81895 12.1123L1.53146 10.4624C3.03061 8.61188 4.10327 7.38901 4.74946 6.79375C3.0823 6.47023 1.49915 6.1079 0 5.70675Z" transform="translate(42.2169 129.784) scale(1.00155 1)" />
<path d="M0 5.70675L0.891735 2.95043C2.9466 3.67509 4.43929 4.30271 5.3698 4.83326C5.12425 2.49104 4.99501 0.879952 4.98209 0H7.79299C7.75422 1.28111 7.6056 2.88572 7.34712 4.81385C8.67826 4.14095 10.2033 3.51981 11.9221 2.95043L12.8138 5.70675C11.1725 6.25025 9.56354 6.61258 7.98684 6.79375C8.77519 7.47959 9.88663 8.70246 11.3212 10.4624L8.99489 12.1123C8.24532 11.09 7.36005 9.69888 6.33907 7.93898C5.38272 9.76358 4.54268 11.1547 3.81895 12.1123L1.53146 10.4624C3.03061 8.61188 4.10327 7.38901 4.74946 6.79375C3.0823 6.47023 1.49915 6.1079 0 5.70675Z" transform="translate(247.889 49.8982) scale(1.00155 1)" />
<path d="M155.715 367.895L153.577 367.506L152.216 362.25L149.495 366.825L147.551 366.435L152.022 359.817C152.508 359.136 152.897 358.552 153.383 358.26C153.771 357.87 154.257 357.773 154.841 357.87C155.424 357.968 155.813 358.065 156.201 358.26L155.91 359.622C155.618 359.622 155.424 359.525 155.229 359.525C154.743 359.428 154.452 359.428 154.16 359.525C153.966 359.72 153.771 360.012 153.48 360.498L155.715 367.895ZM143.468 365.559L141.621 365.073L142.496 361.082C142.107 361.082 141.719 361.082 141.621 361.277C141.427 361.374 141.038 361.861 140.552 362.542C139.969 363.418 139.386 364.002 138.997 364.197C138.511 364.294 137.83 364.294 136.956 364.099C136.956 364.099 136.858 364.099 136.664 364.002L137.053 362.639L137.247 362.737C137.636 362.834 137.928 362.834 138.122 362.737C138.414 362.737 138.511 362.639 138.705 362.445C138.9 362.25 139.094 361.861 139.483 361.374C139.677 361.082 139.872 360.79 140.066 360.596C140.163 360.401 140.455 360.304 140.844 360.206C140.455 359.914 140.163 359.622 139.969 359.233C139.774 358.746 139.58 358.162 139.483 357.481L138.802 354.659L140.941 355.145L141.524 357.773C141.524 357.87 141.621 357.87 141.621 358.065C141.621 358.065 141.719 358.26 141.719 358.552C141.913 359.038 142.01 359.33 142.107 359.525C142.302 359.622 142.496 359.817 142.788 359.817L143.76 355.729L145.607 356.216L143.468 365.559ZM135.206 353.491L132.484 362.737L129.568 361.861C128.402 361.472 127.722 361.277 127.43 361.082C126.944 360.79 126.555 360.304 126.361 359.817C126.069 359.233 126.069 358.552 126.264 357.87C126.458 357.287 126.75 356.8 127.041 356.508C127.333 356.216 127.722 355.924 128.013 355.827C128.402 355.729 128.791 355.632 129.18 355.632C129.568 355.729 130.249 355.827 131.124 356.119L132.29 356.411L133.262 353.004L135.206 353.491ZM131.124 360.596L131.901 357.968L130.832 357.676C130.152 357.481 129.666 357.384 129.374 357.384C129.082 357.481 128.791 357.578 128.596 357.676C128.402 357.87 128.305 358.065 128.208 358.357C128.11 358.649 128.11 359.038 128.305 359.233C128.402 359.525 128.596 359.72 128.888 359.914C129.082 360.012 129.568 360.109 130.249 360.304L131.124 360.596ZM117.224 347.262L119.168 347.943V350.279L122.667 351.739L124.222 349.987L126.166 350.766L119.168 358.26L117.321 357.481L117.224 347.262ZM119.168 352.031L119.071 355.827L121.598 353.004L119.168 352.031ZM113.919 345.802L109.934 354.464L108.184 353.685L112.072 345.023L113.919 345.802ZM110.712 355.827L110.031 357.189L108.67 356.605L109.253 355.145L110.712 355.827ZM108.184 354.659L107.504 356.119L106.046 355.437L106.726 353.977L108.184 354.659ZM107.99 343.077L103.713 351.642L101.963 350.766L103.713 347.359L100.311 345.705L98.5614 349.014L96.909 348.138L101.186 339.573L102.935 340.546L101.089 344.245L104.393 345.899L106.337 342.201L107.99 343.077ZM89.7162 332.955L91.4658 334.025L91.1742 336.361L94.479 338.21L96.2286 336.751L97.9782 337.821L90.0078 344.245L88.2582 343.174L89.7162 332.955ZM90.8826 338.016L90.2994 341.812L93.1182 339.378L90.8826 338.016ZM68.0404 323.125L68.2348 324.39C67.846 324.39 67.36 324.487 66.874 324.487C66.6796 324.487 66.5824 324.487 66.4852 324.487C66.5824 324.585 66.7768 324.877 67.0684 325.266C67.2628 325.558 67.4572 325.753 67.4572 325.85L66.4852 326.531C66.1936 325.947 65.9992 325.461 65.8048 324.974C65.416 325.558 65.1244 326.045 64.8328 326.337L63.958 325.558C64.1524 325.363 64.5412 324.974 65.2216 324.39C65.1244 324.39 64.93 324.293 64.6384 324.195C64.1524 324.098 63.8608 324.001 63.472 323.903L63.958 322.736C64.444 322.93 64.93 323.222 65.5132 323.611V322.444C65.5132 322.152 65.5132 321.957 65.5132 321.86L66.6796 321.957L66.388 323.709C66.874 323.514 67.4572 323.319 68.0404 323.125ZM46.3647 308.136L45.0039 306.482L47.2395 301.616L42.2823 303.367L40.9215 301.81L48.6003 299.572C49.3779 299.28 50.0583 299.182 50.6415 299.182C51.1275 299.182 51.6135 299.377 52.0023 299.864C52.3911 300.253 52.6827 300.642 52.7799 300.934L51.7107 301.908C51.5163 301.616 51.4191 301.421 51.2247 301.324C50.9331 300.934 50.6415 300.74 50.4471 300.74C50.1555 300.642 49.7667 300.74 49.2807 301.032L46.3647 308.136ZM38.1026 298.306L37.0334 296.749L40.3383 294.316C40.0467 294.024 39.7551 293.829 39.5607 293.829C39.2691 293.829 38.783 293.927 37.9082 294.121C36.839 294.413 36.0614 294.413 35.6726 294.219C35.1866 294.121 34.7006 293.635 34.2146 292.954C34.2146 292.856 34.1174 292.759 34.0202 292.662L35.1866 291.883L35.381 292.078C35.5754 292.37 35.7698 292.564 35.9642 292.662C36.1586 292.759 36.353 292.856 36.5474 292.759C36.839 292.759 37.2278 292.662 37.9082 292.467C38.1998 292.37 38.4914 292.37 38.783 292.272C39.0746 292.272 39.3663 292.37 39.7551 292.564C39.5607 292.078 39.5607 291.688 39.6579 291.202C39.8523 290.812 40.0467 290.228 40.4355 289.547L41.7963 287.017L43.1571 288.866L41.7963 291.202C41.7963 291.202 41.6991 291.299 41.6991 291.396C41.6991 291.494 41.6019 291.591 41.5047 291.883C41.2131 292.37 41.1159 292.662 41.1159 292.856C41.1159 293.051 41.2131 293.343 41.4075 293.537L44.8095 291.104L45.8787 292.662L38.1026 298.306ZM39.5607 283.902L31.493 289.06L29.8406 286.433C29.2574 285.459 28.8686 284.778 28.7714 284.486C28.577 283.902 28.577 283.416 28.7714 282.832C28.9658 282.248 29.4518 281.761 30.035 281.372C30.521 280.982 31.007 280.788 31.493 280.788C31.8818 280.788 32.3678 280.788 32.6594 280.982C33.0482 281.08 33.3398 281.372 33.6314 281.566C33.923 281.956 34.3118 282.442 34.7978 283.221L35.4782 284.291L38.4914 282.345L39.5607 283.902ZM31.8818 286.627L34.1174 285.07L33.5342 284.194C33.1454 283.61 32.8538 283.221 32.6594 283.026C32.3678 282.832 32.1734 282.734 31.8818 282.734C31.6874 282.734 31.3958 282.832 31.2014 283.026C30.8126 283.221 30.7154 283.416 30.6182 283.707C30.521 283.999 30.521 284.291 30.6182 284.583C30.7154 284.778 31.007 285.167 31.2986 285.849L31.8818 286.627ZM29.7434 267.649L30.8126 269.4L29.2574 271.25L31.2014 274.559L33.5342 274.169L34.5062 275.921L24.3974 277.479L23.3281 275.727L29.7434 267.649ZM28.1882 272.612L25.8554 275.532L29.549 274.851L28.1882 272.612ZM28.1882 264.339L19.6345 268.719L18.7597 266.967L27.2162 262.588L28.1882 264.339ZM19.4401 270.276L18.0793 270.958L17.3017 269.595L18.7597 268.816L19.4401 270.276ZM18.1765 267.746L16.7185 268.427L16.0381 267.065L17.3989 266.286L18.1765 267.746ZM25.3694 258.597L16.6213 262.49L15.8437 260.738L19.2457 259.181L17.6905 255.775L14.2885 257.332L13.5109 255.58L22.1617 251.59L23.0365 253.342L19.1485 255.093L20.8009 258.5L24.5918 256.748L25.3694 258.597ZM17.7877 239.035L18.4681 240.981L16.6213 242.441L17.8849 246.139H20.2177L20.8009 248.086L10.5949 247.697L9.91446 245.75L17.7877 239.035ZM15.3577 243.609L12.4417 245.945L16.1353 246.042L15.3577 243.609ZM7.29005 217.72L6.70684 218.791C6.31804 218.499 5.92924 218.304 5.54044 218.012C5.34603 217.915 5.24883 217.817 5.24883 217.817C5.24883 217.915 5.24883 218.207 5.15163 218.791C5.15163 219.083 5.15163 219.374 5.15163 219.472L3.88802 219.277C3.98523 218.693 4.17963 218.207 4.37403 217.72C3.69362 217.915 3.11042 218.109 2.72162 218.109L2.52722 217.039C2.81882 216.941 3.40202 216.941 4.27683 216.844C4.17963 216.747 4.08243 216.649 3.88802 216.357C3.69362 215.968 3.49922 215.676 3.30482 215.384L4.37403 214.8C4.56843 215.287 4.76283 215.871 4.95723 216.455L5.73484 215.481C5.83204 215.287 6.02644 215.189 6.12364 215.092L6.90124 215.968L5.63764 217.039C6.12364 217.233 6.70684 217.428 7.29005 217.72ZM0.194401 192.318L0.0972006 190.079L5.05443 187.743L0 185.991V183.948L7.29005 187.062C8.16485 187.354 8.74806 187.743 9.13686 188.035C9.52566 188.425 9.81726 188.911 9.81726 189.495C9.81726 190.079 9.81726 190.468 9.72006 190.858H8.26205C8.26205 190.566 8.26205 190.371 8.26205 190.079C8.26205 189.69 8.16485 189.301 8.06765 189.106C7.87325 189.009 7.48445 188.814 6.99844 188.619L0.194401 192.318ZM0.0972006 179.373L0.194401 177.427L4.27683 177.719C4.27683 177.329 4.17963 176.94 3.98523 176.843C3.79082 176.648 3.40202 176.356 2.52722 175.967C1.55521 175.48 0.972006 175.091 0.777605 174.604C0.486003 174.215 0.486003 173.534 0.486003 172.658C0.486003 172.658 0.486003 172.56 0.486003 172.366L1.94401 172.56V172.755C1.84681 173.144 1.94401 173.436 2.04121 173.631C2.04121 173.826 2.23561 174.02 2.43002 174.118C2.62442 174.312 3.01322 174.507 3.59642 174.702C3.88802 174.896 4.17963 174.993 4.37403 175.188C4.56843 175.383 4.76283 175.577 4.95723 175.967C5.15163 175.577 5.44323 175.188 5.83204 174.993C6.22084 174.702 6.70684 174.41 7.38725 174.118L10.1089 173.047L9.91446 175.285L7.38725 176.259C7.38725 176.259 7.29005 176.356 7.19285 176.356C7.19285 176.356 6.99844 176.453 6.70684 176.551C6.22084 176.745 5.92924 176.94 5.83204 177.135C5.63764 177.232 5.63764 177.524 5.54044 177.816L9.72006 178.108L9.62286 180.054L0.0972006 179.373ZM10.4005 169.251L0.874806 168.083L1.26361 164.969C1.45801 163.801 1.55521 163.022 1.74961 162.73C1.94401 162.146 2.33281 161.757 2.81882 161.465C3.30482 161.173 3.98523 161.076 4.76283 161.173C5.34603 161.27 5.83204 161.368 6.12364 161.66C6.51244 161.952 6.80404 162.244 6.99844 162.633C7.19285 162.925 7.29005 163.314 7.29005 163.606C7.38725 164.093 7.29005 164.774 7.19285 165.65L6.99844 166.915L10.5949 167.305L10.4005 169.251ZM2.72162 166.331L5.44323 166.721L5.54044 165.65C5.63764 164.872 5.63764 164.385 5.63764 164.093C5.54044 163.801 5.44323 163.606 5.24883 163.412C5.05443 163.314 4.76283 163.217 4.47123 163.12C4.17963 163.12 3.88802 163.12 3.59642 163.314C3.40202 163.509 3.20762 163.704 3.11042 164.093C3.01322 164.288 2.91602 164.677 2.81882 165.455L2.72162 166.331ZM13.2193 150.467L12.8305 152.511L10.5949 152.9L9.91446 156.696L11.8585 157.864L11.5669 159.908L2.81882 154.555L3.11042 152.511L13.2193 150.467ZM8.84526 153.29L5.15163 153.971L8.45645 155.82L8.84526 153.29ZM14.0941 146.866L4.76283 144.725L5.15163 142.876L14.4829 145.017L14.0941 146.866ZM3.59642 145.795L2.13841 145.406L2.43002 143.849L3.98523 144.238L3.59642 145.795ZM4.27683 143.07L2.72162 142.681L3.11042 141.124L4.56843 141.513L4.27683 143.07ZM15.6493 140.637L6.41524 138.009L6.99844 136.16L10.5949 137.231L11.5669 133.532L7.97045 132.559L8.55365 130.71L17.6905 133.338L17.2045 135.187L13.1221 134.019L12.1501 137.62L16.1353 138.788L15.6493 140.637ZM22.2589 120.782L21.4813 122.729H19.2457L17.7877 126.33L19.5373 127.79L18.7597 129.737L11.2753 122.729L11.9557 120.88L22.2589 120.782ZM17.4961 122.729L13.7053 122.632L16.5241 125.162L17.4961 122.729ZM27.7994 97.6187L26.633 98.1054C26.5358 97.6187 26.3414 97.2294 26.2442 96.7428C26.2442 96.5481 26.147 96.4508 26.147 96.4508C26.0498 96.4508 25.8554 96.7428 25.4666 97.1321C25.2722 97.4241 25.0778 97.5214 24.9806 97.6187L24.203 96.7428C24.689 96.3535 25.0778 96.0615 25.5638 95.7695C24.8834 95.5749 24.3974 95.2829 24.0086 95.0882L24.5918 94.115C24.8834 94.2123 25.3694 94.6016 26.0498 95.0882C26.0498 94.9909 26.0498 94.7963 26.0498 94.5043C26.147 94.0176 26.147 93.6283 26.2442 93.3364L27.4106 93.6283C27.2162 94.115 27.0218 94.6016 26.8274 95.1856L27.9938 94.9909C28.1882 94.8936 28.3826 94.8936 28.577 94.8936L28.6742 96.0615H26.9246C27.2162 96.5481 27.5078 97.0348 27.7994 97.6187ZM41.0187 70.2699L42.4767 68.6154L47.6283 70.1726L45.1983 65.5009L46.4619 63.9437L49.8639 71.1459C50.2527 71.9245 50.4471 72.6058 50.5443 73.1897C50.5443 73.7737 50.4471 74.2603 50.0583 74.6496C49.6695 75.0389 49.3779 75.4282 49.0863 75.6229L48.0171 74.6496C48.2115 74.455 48.4059 74.2603 48.5031 74.0657C48.7947 73.7737 48.9891 73.4817 48.9891 73.1897C48.9891 72.9951 48.7947 72.6058 48.5031 72.1191L41.0187 70.2699ZM49.2807 60.9265L50.6415 59.564L53.5575 62.3864C53.8491 61.9971 53.9463 61.7052 53.9463 61.5105C53.8491 61.2185 53.6547 60.7319 53.3631 59.9533C52.8771 58.98 52.6827 58.2014 52.7799 57.7148C52.8771 57.2281 53.1687 56.7415 53.8491 56.0602C53.8491 56.0602 53.9463 55.9629 54.0435 55.8656L55.0156 56.8388L54.8212 57.0335C54.5295 57.3255 54.4323 57.6174 54.3351 57.8121C54.3351 58.0067 54.3351 58.2014 54.3351 58.3961C54.4323 58.5907 54.6267 59.0773 54.9184 59.6613C55.1128 59.9533 55.21 60.2453 55.21 60.4399C55.3072 60.7319 55.3072 61.0239 55.21 61.4132C55.5988 61.2185 55.9876 61.1212 56.4736 61.2185C56.9596 61.2185 57.5428 61.3159 58.2232 61.6078L61.042 62.4838L59.4868 64.1383L56.8624 63.2624C56.8624 63.1651 56.7652 63.1651 56.668 63.1651C56.668 63.1651 56.4736 63.0677 56.182 63.0677C55.696 62.8731 55.3072 62.7758 55.1128 62.8731C54.9184 62.8731 54.7239 62.9704 54.5295 63.2624L57.5428 66.1822L56.182 67.5448L49.2807 60.9265ZM63.7636 59.856L57.154 52.9458L59.3896 50.8046C60.2644 50.026 60.8476 49.442 61.1392 49.3447C61.7224 49.0527 62.2084 48.9554 62.7916 49.0527C63.472 49.15 63.958 49.442 64.5412 50.026C64.93 50.4153 65.2216 50.9019 65.3188 51.2912C65.416 51.7778 65.416 52.1671 65.416 52.5564C65.3188 52.9458 65.1244 53.2377 64.93 53.5297C64.6384 53.919 64.2496 54.4057 63.5692 55.0869L62.6944 55.8656L65.2216 58.4934L63.7636 59.856ZM59.6812 52.7511L61.6252 54.6976L62.3056 54.0163C62.8888 53.5297 63.1804 53.1404 63.3748 52.8484C63.472 52.5564 63.472 52.3618 63.472 52.0698C63.3748 51.8752 63.2776 51.5832 63.0832 51.3885C62.8888 51.1939 62.5972 50.9992 62.3056 50.9992C62.014 50.9992 61.7224 50.9992 61.4308 51.1939C61.2364 51.3885 60.8476 51.6805 60.3616 52.1671L59.6812 52.7511ZM78.2465 47.4955L76.5941 48.7607L74.6501 47.5928L71.6369 49.9286L72.3173 52.1671L70.6649 53.4324L67.7488 43.6024L69.304 42.3371L78.2465 47.4955ZM73.0949 46.7168L69.8872 44.7703L71.0537 48.2741L73.0949 46.7168ZM81.1625 45.3543L75.6221 37.4708L77.1773 36.4002L82.7177 44.1863L81.1625 45.3543ZM74.1641 37.5681L73.1921 36.2056L74.4557 35.3296L75.4277 36.5949L74.1641 37.5681ZM76.3997 35.9136L75.5249 34.6483L76.7885 33.6751L77.6633 34.9403L76.3997 35.9136ZM86.4114 41.5585L81.2597 33.5777L82.8149 32.5071L84.8561 35.6216L88.0638 33.6751L86.0225 30.4633L87.675 29.3927L92.8266 37.4708L91.1742 38.5414L88.9386 34.9403L85.7309 36.9842L88.0638 40.5853L86.4114 41.5585ZM104.393 30.8526L102.547 31.8258L100.7 30.3659L97.395 32.3125L97.7838 34.551L96.0342 35.6216L94.479 25.4023L96.3258 24.429L104.393 30.8526ZM99.4362 29.2954L96.5202 26.8622L97.1034 30.5606L99.4362 29.2954ZM123.736 16.9349L122.57 16.5455C122.764 16.1562 122.959 15.6696 123.25 15.2803C123.25 15.0856 123.348 14.9883 123.348 14.9883C123.25 14.9883 122.959 14.9883 122.376 15.0856C122.084 15.0856 121.792 15.0856 121.695 15.0856V13.9177C122.278 13.9177 122.862 14.0151 123.348 14.1124C123.056 13.5284 122.764 12.9445 122.667 12.5552L123.736 12.1658C123.834 12.4578 123.931 13.0418 124.125 13.9177C124.222 13.8204 124.32 13.7231 124.611 13.4311C124.903 13.1391 125.194 12.9445 125.486 12.6525L126.166 13.7231C125.68 13.9177 125.194 14.2097 124.708 14.5017L125.68 15.0856C125.875 15.2803 126.069 15.3776 126.166 15.3776L125.486 16.3509L124.125 15.2803C124.028 15.7669 123.931 16.3509 123.736 16.9349ZM147.648 5.74228L149.786 5.4503L152.897 9.92733L153.869 4.67168L155.91 4.3797L153.966 12.0685C153.771 12.8471 153.48 13.5284 153.188 14.0151C152.897 14.5017 152.508 14.7937 151.925 14.891C151.341 14.9883 150.855 14.9883 150.564 14.9883L150.272 13.5284C150.564 13.5284 150.855 13.5284 151.05 13.4311C151.536 13.4311 151.827 13.2364 151.925 13.0418C152.119 12.8471 152.216 12.4578 152.313 11.9712L147.648 5.74228ZM159.992 3.79574L161.839 3.60109L162.422 7.59149C162.811 7.49416 163.103 7.39683 163.2 7.20218C163.297 6.9102 163.491 6.42357 163.686 5.54762C163.977 4.47703 164.269 3.79574 164.658 3.50376C165.047 3.21178 165.63 3.01713 166.505 2.9198C166.602 2.9198 166.699 2.9198 166.796 2.82248L166.991 4.28238H166.699C166.31 4.3797 166.019 4.47703 165.921 4.57436C165.727 4.67168 165.63 4.86634 165.533 5.06099C165.435 5.25564 165.338 5.74228 165.144 6.32624C165.047 6.71555 164.949 7.00753 164.852 7.20218C164.755 7.49416 164.561 7.68881 164.269 7.88347C164.658 7.98079 165.047 8.17545 165.435 8.56475C165.727 8.85673 166.116 9.34337 166.505 9.92733L168.157 12.3605L165.921 12.6525L164.463 10.414C164.366 10.3166 164.366 10.3166 164.269 10.2193C164.269 10.122 164.172 10.0247 163.977 9.83C163.686 9.34337 163.491 9.05139 163.297 8.95406C163.103 8.85673 162.908 8.85673 162.519 8.85673L163.103 13.0418L161.159 13.3338L159.992 3.79574ZM171.948 12.1658L171.17 2.62782L174.281 2.43317C175.447 2.33584 176.225 2.33584 176.614 2.43317C177.1 2.5305 177.586 2.82248 177.974 3.21178C178.46 3.69842 178.655 4.28238 178.752 5.06099C178.752 5.64495 178.655 6.13159 178.46 6.52089C178.363 7.00753 178.072 7.29951 177.78 7.59149C177.488 7.78614 177.1 7.98079 176.808 8.07812C176.322 8.17545 175.642 8.27277 174.864 8.3701L173.6 8.46743L173.795 12.0685L171.948 12.1658ZM173.212 4.18505L173.406 6.81287H174.475C175.253 6.71555 175.739 6.61822 176.03 6.52089C176.225 6.42357 176.419 6.22891 176.516 6.03426C176.711 5.74228 176.711 5.54762 176.711 5.25564C176.711 4.86634 176.614 4.57436 176.322 4.3797C176.128 4.18505 175.836 4.08772 175.544 3.9904C175.35 3.9904 174.864 3.9904 174.184 4.08772L173.212 4.18505ZM190.902 11.9712L188.861 11.8739L188.083 9.63535L184.195 9.53802L183.418 11.7765L181.376 11.6792L185.264 2.23852H187.306L190.902 11.9712ZM187.5 8.07812L186.236 4.47703L184.876 7.98079L187.5 8.07812ZM194.596 12.0685L195.276 2.5305L197.22 2.72515L196.442 12.2632L194.596 12.0685ZM194.11 1.55723L194.207 0L195.762 0.0973268L195.665 1.75188L194.11 1.55723ZM196.928 1.84921L197.026 0.194654L198.581 0.389307L198.484 1.94654L196.928 1.84921ZM201.011 12.5552L202.177 3.01713L204.121 3.30911L203.635 7.00753L207.329 7.49416L207.815 3.79574L209.759 3.9904L208.593 13.5284L206.649 13.2364L207.135 9.14871L203.441 8.66208L202.858 12.7498L201.011 12.5552ZM221.617 15.7669L219.576 15.3776L219.187 13.0418L215.397 12.3605L214.23 14.4044L212.189 14.0151L217.535 5.25564L219.576 5.64495L221.617 15.7669ZM218.799 11.3872L218.118 7.68881L216.271 10.9006L218.799 11.3872ZM245.529 17.4215L244.848 16.3509C245.237 16.0589 245.723 15.8643 246.112 15.7669C246.306 15.6696 246.404 15.5723 246.501 15.5723C246.404 15.5723 246.112 15.3776 245.626 15.0856C245.334 14.7937 245.14 14.6963 245.043 14.599L245.82 13.6257C246.306 14.1124 246.695 14.5017 246.987 14.891C247.181 14.2097 247.278 13.6257 247.473 13.2364L248.542 13.7231C248.445 14.0151 248.153 14.5017 247.764 15.2803C247.862 15.2803 248.056 15.2803 248.348 15.183C248.736 15.183 249.125 15.183 249.514 15.183L249.417 16.4482C248.931 16.3509 248.348 16.2536 247.764 16.0589L248.153 17.2268C248.25 17.4215 248.25 17.6161 248.348 17.7135L247.181 18.0054L246.89 16.3509C246.501 16.6429 246.015 17.0322 245.529 17.4215ZM271.093 24.0397L272.939 25.1103L272.356 30.4633L276.536 27.1542L278.285 28.1274L271.87 32.7991C271.093 33.3831 270.509 33.6751 270.023 33.8697C269.44 34.0644 268.954 33.967 268.468 33.6751C267.982 33.3831 267.593 33.1884 267.399 32.8964L268.079 31.7285C268.274 31.8258 268.565 31.9232 268.76 32.1178C269.149 32.3125 269.44 32.4098 269.635 32.3125C269.926 32.3125 270.218 32.1178 270.704 31.7285L271.093 24.0397ZM281.785 30.3659L283.437 31.3392L281.201 34.843C281.59 35.0376 281.882 35.0376 282.076 35.0376C282.368 34.9403 282.854 34.6483 283.534 34.1617C284.409 33.4804 285.089 33.1884 285.575 33.1884C286.061 33.1884 286.645 33.3831 287.422 33.8697C287.422 33.8697 287.519 33.967 287.617 34.0644L286.839 35.2323L286.645 35.0376C286.353 34.843 286.061 34.7457 285.867 34.7457C285.673 34.7457 285.381 34.7457 285.187 34.843C284.992 34.9403 284.701 35.2323 284.117 35.6216C283.826 35.8162 283.631 36.0109 283.34 36.1082C283.145 36.2056 282.854 36.3029 282.368 36.3029C282.757 36.5949 282.854 36.9842 282.951 37.4708C282.951 37.9574 282.951 38.5414 282.854 39.32L282.562 42.1425L280.618 40.9746L281.007 38.2494C281.007 38.2494 281.007 38.1521 281.007 38.0548C281.007 37.9574 281.007 37.8601 281.007 37.5681C281.104 36.9842 281.104 36.5949 281.007 36.4975C280.91 36.3029 280.813 36.1082 280.521 35.9136L278.285 39.4173L276.633 38.3467L281.785 30.3659ZM285.575 44.381L291.116 36.5949L293.643 38.3467C294.615 39.028 295.198 39.5147 295.393 39.8066C295.781 40.2933 295.976 40.7799 295.976 41.3639C296.073 42.0452 295.781 42.6291 295.393 43.2131C295.004 43.6997 294.712 44.089 294.226 44.2837C293.837 44.4783 293.449 44.5757 293.06 44.5757C292.671 44.5757 292.282 44.4783 291.991 44.381C291.602 44.1863 291.019 43.797 290.241 43.3104L289.269 42.6291L287.131 45.5489L285.575 44.381ZM291.796 39.028L290.144 41.2665L291.019 41.8505C291.699 42.3371 292.088 42.5318 292.379 42.6291C292.671 42.7264 292.865 42.7264 293.157 42.6291C293.351 42.5318 293.546 42.3371 293.74 42.1425C293.935 41.8505 294.032 41.5585 294.032 41.2665C293.935 40.8772 293.837 40.6826 293.643 40.3906C293.449 40.2933 293.06 40.0013 292.477 39.612L291.796 39.028ZM300.447 56.3522L298.892 54.9896L299.67 52.7511L296.753 50.2206L294.712 51.3885L293.157 50.026L302.294 45.2569L303.752 46.5222L300.447 56.3522ZM300.253 51.0965L301.516 47.5928L298.212 49.442L300.253 51.0965ZM303.072 58.7854L309.681 51.8752L311.042 53.1404L304.53 60.1479L303.072 58.7854ZM309.39 50.3179L310.459 49.2473L311.625 50.3179L310.556 51.4859L309.39 50.3179ZM311.431 52.2645L312.5 51.1939L313.666 52.2645L312.597 53.4324L311.431 52.2645ZM307.737 63.2624L314.638 56.6442L315.999 58.0067L313.278 60.6346L315.902 63.3597L318.624 60.7319L319.887 62.1918L312.986 68.81L311.722 67.3501L314.736 64.5276L312.111 61.7052L309.098 64.625L307.737 63.2624ZM321.54 78.932L320.276 77.2774L321.442 75.3309L319.11 72.3138L316.874 72.9951L315.61 71.4378L325.428 68.4207L326.691 70.0753L321.54 78.932ZM322.317 73.871L324.358 70.5619L320.762 71.7298L322.317 73.871ZM338.939 95.2829L339.036 94.115C339.522 94.2123 340.008 94.3096 340.494 94.4069C340.591 94.5043 340.785 94.5043 340.785 94.5043C340.785 94.4069 340.688 94.115 340.494 93.6283C340.397 93.239 340.299 93.0444 340.299 92.8497L341.466 92.6551C341.563 93.239 341.66 93.823 341.563 94.3096C342.146 93.9203 342.632 93.531 343.021 93.3364L343.604 94.3096C343.313 94.5043 342.827 94.6989 341.952 95.0882C342.049 95.0882 342.243 95.2829 342.535 95.3802C342.827 95.6722 343.118 95.8669 343.41 96.1588L342.535 97.0348C342.243 96.6455 341.855 96.2562 341.466 95.7695L341.077 96.8401C340.98 97.0348 340.98 97.2294 340.883 97.4241L339.813 96.8401L340.688 95.3802C340.105 95.3802 339.522 95.3802 338.939 95.2829ZM356.046 120.491L356.726 122.534L352.741 126.233L358.087 126.525L358.67 128.374L350.797 127.595C349.922 127.595 349.242 127.401 348.756 127.206C348.27 127.011 347.881 126.622 347.687 126.038C347.492 125.552 347.395 125.065 347.395 124.773L348.756 124.286C348.853 124.578 348.853 124.773 348.95 124.968C349.145 125.454 349.242 125.746 349.533 125.843C349.728 125.941 350.117 126.038 350.7 126.038L356.046 120.491ZM359.934 132.267L360.517 134.214L356.629 135.284C356.726 135.673 356.921 135.965 357.115 136.063C357.309 136.16 357.893 136.257 358.767 136.355C359.837 136.452 360.614 136.647 360.906 136.939C361.295 137.231 361.586 137.815 361.878 138.691C361.878 138.788 361.878 138.788 361.975 138.983L360.517 139.372V139.08C360.42 138.691 360.226 138.399 360.128 138.301C359.934 138.107 359.739 138.009 359.545 138.009C359.351 137.912 358.865 137.912 358.281 137.815C357.893 137.815 357.601 137.815 357.309 137.717C357.115 137.62 356.823 137.425 356.532 137.231C356.532 137.62 356.435 138.009 356.143 138.399C355.851 138.788 355.463 139.177 354.879 139.761L352.741 141.708L352.061 139.469L354.102 137.717C354.199 137.717 354.199 137.62 354.296 137.523C354.296 137.523 354.491 137.425 354.685 137.231C355.074 136.841 355.268 136.549 355.365 136.355C355.463 136.257 355.365 135.965 355.365 135.673L351.283 136.841L350.797 134.895L359.934 132.267ZM353.616 145.406L362.947 143.168L363.628 146.282C363.919 147.353 364.016 148.131 364.016 148.521C364.016 149.105 363.725 149.591 363.336 150.078C363.044 150.564 362.461 150.856 361.684 151.051C361.1 151.148 360.614 151.148 360.226 151.051C359.739 150.954 359.351 150.759 359.059 150.467C358.767 150.175 358.573 149.883 358.379 149.591C358.184 149.202 357.99 148.521 357.795 147.645L357.504 146.477L354.005 147.255L353.616 145.406ZM361.781 145.503L359.156 146.087L359.351 147.158C359.545 147.839 359.739 148.326 359.837 148.521C360.031 148.813 360.226 148.91 360.42 149.007C360.712 149.105 360.906 149.105 361.198 149.105C361.586 149.007 361.781 148.813 361.975 148.618C362.17 148.326 362.267 148.034 362.267 147.742C362.267 147.547 362.17 147.061 361.975 146.379L361.781 145.503ZM357.212 164.093L356.823 162.049L358.865 160.784L358.184 157.085L355.851 156.599L355.56 154.652L365.572 156.599L365.96 158.643L357.212 164.093ZM360.323 159.908L363.53 157.961L359.837 157.377L360.323 159.908ZM357.504 167.694L367.03 167.013L367.127 168.959L357.601 169.641L357.504 167.694ZM367.807 165.65L369.362 165.553L369.46 167.11L367.904 167.207L367.807 165.65ZM368.002 168.473L369.557 168.375L369.654 169.933L368.099 170.03L368.002 168.473ZM358.184 174.118L367.71 173.923V175.869L364.016 175.967V179.665L367.807 179.568L367.904 181.514L358.281 181.806V179.86L362.461 179.763L362.364 175.967L358.184 176.064V174.118ZM358.184 195.043L358.281 192.999L360.42 192.22L360.517 188.425L358.379 187.549L358.476 185.505L367.904 189.398L367.807 191.442L358.184 195.043ZM362.072 191.636L365.669 190.371L362.17 189.009L362.072 191.636ZM360.614 218.693L361.489 217.915C361.781 218.304 362.072 218.596 362.364 218.985C362.461 219.18 362.461 219.277 362.558 219.374C362.558 219.18 362.656 218.888 362.947 218.401C363.044 218.109 363.142 217.915 363.239 217.72L364.308 218.304C363.919 218.888 363.628 219.277 363.239 219.666C364.016 219.764 364.6 219.764 364.988 219.861L364.794 221.029C364.502 220.932 363.919 220.737 363.142 220.542C363.142 220.64 363.142 220.834 363.239 221.126C363.336 221.516 363.433 221.905 363.53 222.294L362.267 222.392C362.267 221.905 362.267 221.321 362.267 220.64L361.295 221.321C361.1 221.418 360.906 221.516 360.809 221.613L360.323 220.445L361.878 219.861C361.489 219.569 361.003 219.18 360.614 218.693ZM357.018 248.865L356.24 250.908L350.797 251.2L354.685 254.801L353.907 256.651L348.367 251.006C347.784 250.324 347.395 249.838 347.103 249.351C346.812 248.865 346.812 248.281 347.006 247.794C347.298 247.21 347.492 246.821 347.589 246.529L348.95 247.113C348.853 247.307 348.756 247.599 348.659 247.794C348.561 248.183 348.464 248.573 348.561 248.767C348.659 248.962 348.853 249.351 349.339 249.643L357.018 248.865ZM352.255 260.446L351.477 262.198L347.784 260.544C347.687 260.933 347.589 261.225 347.687 261.517C347.784 261.712 348.173 262.101 348.756 262.782C349.533 263.561 350.019 264.145 350.019 264.631C350.117 265.118 349.922 265.702 349.631 266.578C349.533 266.578 349.533 266.675 349.533 266.773L348.173 266.189L348.27 265.994C348.464 265.605 348.561 265.313 348.561 265.118C348.561 264.923 348.464 264.729 348.27 264.534C348.173 264.339 347.881 264.047 347.395 263.561C347.103 263.366 346.909 263.074 346.812 262.88C346.617 262.685 346.52 262.393 346.52 262.004C346.229 262.296 345.84 262.49 345.451 262.588C344.965 262.685 344.382 262.782 343.604 262.782L340.688 262.977L341.66 260.836H344.382C344.382 260.836 344.479 260.836 344.576 260.836C344.576 260.836 344.771 260.836 345.062 260.738C345.645 260.738 345.937 260.641 346.131 260.544C346.326 260.544 346.423 260.349 346.617 260.057L342.827 258.305L343.604 256.553L352.255 260.446ZM338.939 266.286L347.395 270.666L345.937 273.391C345.451 274.461 345.062 275.143 344.771 275.337C344.382 275.824 343.896 276.019 343.313 276.213C342.729 276.311 342.146 276.116 341.466 275.824C340.883 275.532 340.494 275.24 340.299 274.851C340.008 274.461 339.813 274.072 339.813 273.683C339.716 273.294 339.716 272.904 339.813 272.612C340.008 272.126 340.202 271.542 340.591 270.763L341.174 269.595L337.967 267.941L338.939 266.286ZM345.062 271.639L342.632 270.374L342.146 271.347C341.855 272.028 341.66 272.418 341.563 272.71C341.563 273.002 341.66 273.294 341.757 273.488C341.855 273.683 342.049 273.877 342.341 274.072C342.632 274.169 342.924 274.267 343.215 274.169C343.507 274.072 343.799 273.877 343.993 273.683C344.09 273.488 344.285 273.099 344.673 272.418L345.062 271.639ZM329.219 282.637L330.385 280.885L332.621 281.372L334.759 278.16L333.301 276.311L334.467 274.559L340.494 282.929L339.327 284.681L329.219 282.637ZM334.37 281.761L338.064 282.54L335.731 279.522L334.37 281.761ZM327.177 285.654L334.953 291.202L333.884 292.759L326.011 287.211L327.177 285.654ZM336.411 290.618L337.675 291.591L336.8 292.856L335.537 291.98L336.411 290.618ZM334.759 292.954L336.023 293.829L335.148 295.192L333.884 294.219L334.759 292.954ZM323.484 290.91L330.968 296.847L329.705 298.306L326.788 295.971L324.456 298.988L327.372 301.324L326.205 302.784L318.721 296.944L319.887 295.387L323.192 298.015L325.525 294.997L322.22 292.37L323.484 290.91ZM309.778 306.774L311.236 305.314L313.375 306.19L316.096 303.465L315.027 301.324L316.485 299.864L320.762 309.11L319.401 310.667L309.778 306.774ZM315.027 306.871L318.526 308.331L316.777 304.925L315.027 306.871ZM296.073 326.337H297.337C297.337 326.823 297.239 327.213 297.239 327.699C297.142 327.894 297.142 327.991 297.142 328.088C297.239 327.991 297.531 327.894 298.017 327.699C298.406 327.505 298.6 327.407 298.698 327.407L299.086 328.478C298.503 328.672 298.017 328.77 297.434 328.867C298.017 329.354 298.406 329.743 298.698 330.132L297.726 330.814C297.531 330.619 297.239 330.132 296.851 329.354C296.753 329.451 296.656 329.646 296.559 329.938C296.365 330.23 296.17 330.619 295.976 330.911L295.004 330.23C295.295 329.84 295.684 329.354 296.073 328.964L294.907 328.672C294.712 328.672 294.518 328.575 294.323 328.575L294.712 327.407L296.365 328.088C296.267 327.505 296.17 326.921 296.073 326.337ZM277.216 344.634L275.369 345.705L270.995 342.59L271.773 347.846L270.023 348.819L269.246 340.838C269.149 340.06 269.149 339.281 269.246 338.794C269.343 338.21 269.732 337.821 270.218 337.529C270.704 337.237 271.093 337.043 271.384 336.945L272.162 338.21C271.87 338.308 271.676 338.502 271.481 338.6C271.093 338.794 270.801 338.989 270.801 339.281C270.704 339.476 270.704 339.865 270.801 340.449L277.216 344.634ZM265.941 350.96L264.191 351.739L262.539 348.04C262.15 348.235 261.956 348.43 261.858 348.722C261.761 348.916 261.761 349.5 261.858 350.279C261.858 351.447 261.761 352.226 261.567 352.615C261.275 353.004 260.692 353.393 259.914 353.685C259.914 353.783 259.817 353.783 259.72 353.88L259.04 352.517L259.331 352.42C259.72 352.323 259.914 352.128 260.109 351.934C260.206 351.739 260.303 351.544 260.303 351.35C260.303 351.155 260.303 350.668 260.206 349.987C260.206 349.695 260.206 349.403 260.206 349.111C260.303 348.819 260.4 348.527 260.692 348.235C260.206 348.332 259.817 348.235 259.331 348.04C258.942 347.748 258.456 347.457 257.873 346.97L255.638 345.121L257.679 344.147L259.72 345.899C259.817 345.997 259.817 345.997 259.914 346.094C260.012 346.094 260.109 346.191 260.303 346.386C260.789 346.678 261.081 346.873 261.275 346.97C261.47 346.97 261.664 346.97 261.956 346.775L260.303 342.979L262.053 342.201L265.941 350.96ZM252.236 346.678L255.638 355.632L252.819 356.703C251.652 357.189 250.972 357.384 250.583 357.384C250 357.481 249.514 357.384 248.931 357.092C248.445 356.703 248.056 356.216 247.764 355.535C247.57 354.951 247.473 354.464 247.57 353.977C247.57 353.588 247.764 353.199 247.959 352.809C248.153 352.517 248.445 352.226 248.736 352.031C249.125 351.836 249.708 351.544 250.486 351.155L251.75 350.766L250.389 347.359L252.236 346.678ZM253.305 354.756L252.333 352.226L251.264 352.615C250.583 352.907 250.194 353.101 249.903 353.296C249.708 353.491 249.611 353.685 249.514 353.977C249.514 354.269 249.514 354.464 249.611 354.756C249.708 355.048 250 355.34 250.194 355.437C250.486 355.632 250.778 355.632 251.069 355.535C251.361 355.535 251.75 355.34 252.43 355.145L253.305 354.756ZM234.351 353.199L236.295 352.517L237.753 354.269L241.446 353.101V350.766L243.39 350.084L243.002 360.304L241.058 360.985L234.351 353.199ZM238.919 355.632L241.252 358.552L241.349 354.756L238.919 355.632ZM230.754 354.075L233.379 363.321L231.532 363.807L228.907 354.659L230.754 354.075ZM234.837 363.807L235.323 365.267L233.767 365.754L233.379 364.197L234.837 363.807ZM232.115 364.586L232.601 366.046L231.046 366.533L230.657 364.975L232.115 364.586ZM224.533 355.729L226.672 365.073L224.825 365.462L223.95 361.764L220.354 362.639L221.131 366.338L219.285 366.727L217.146 357.384L218.993 356.995L219.965 361.082L223.659 360.206L222.687 356.119L224.533 355.729ZM203.927 359.33L206.065 359.038L207.135 361.082L210.925 360.596L211.411 358.357L213.453 358.065L211.023 368.09L208.981 368.284L203.927 359.33ZM207.912 362.639L209.759 365.949L210.537 362.25L207.912 362.639ZM180.988 365.559L181.96 366.338C181.668 366.727 181.279 367.019 180.988 367.311C180.793 367.506 180.696 367.506 180.696 367.603C180.793 367.603 181.085 367.7 181.668 367.798C181.96 367.895 182.251 367.992 182.348 367.992L181.96 369.16C181.376 368.966 180.89 368.674 180.404 368.382C180.502 369.063 180.599 369.647 180.502 370.134H179.432C179.432 369.744 179.432 369.16 179.627 368.382C179.53 368.382 179.335 368.479 179.044 368.576C178.655 368.771 178.266 368.868 177.974 369.063L177.683 367.798C178.169 367.7 178.655 367.603 179.335 367.506L178.558 366.63C178.46 366.435 178.266 366.338 178.169 366.241L179.238 365.559L180.016 367.019C180.307 366.63 180.599 366.046 180.988 365.559Z" transform="translate(3.49921 1.36258)" />
</g></svg>
