<svg width="375" height="375" viewBox="0 0 375 375" fill="none" xmlns="http://www.w3.org/2000/svg">
<g id="segment" class="segment"><path d="M271.302 135.603H257.703L257.511 129.334L257.028 123.065L256.257 116.989L255.196 111.009L253.846 105.126L252.206 99.3393L250.277 93.649L248.059 88.1516L245.648 82.7506L242.947 77.4461L240.054 72.3344L236.871 67.4157L233.399 62.5934L229.831 57.964L225.973 53.5275L221.922 49.3803L217.678 45.3296L213.242 41.4717L208.709 37.8068L203.887 34.4312L198.968 31.2485L193.856 28.3551L188.552 25.6546L183.151 23.147L177.653 21.0252L171.963 19.0963L166.176 17.4567L160.293 16.1065L154.217 15.0456L148.141 14.274L141.968 13.7918L135.699 13.5989V0L142.643 0.192892L149.491 0.675121L156.339 1.54313L162.994 2.70049L169.552 4.24362L176.014 6.07609L182.283 8.1979L188.455 10.609L194.435 13.406L200.318 16.3958L206.008 19.5785L211.506 23.147L216.81 26.9084L221.922 30.9591L226.841 35.2028L231.567 39.7357L236.003 44.3651L240.343 49.2839L244.297 54.4919L248.155 59.7965L251.627 65.2939L254.907 70.9842L257.896 76.7709L260.597 82.847L263.008 88.9231L265.226 95.2885L267.059 101.75L268.505 108.309L269.759 114.964L270.627 121.715L271.109 128.659L271.302 135.603ZM135.699 271.206V257.607L141.968 257.414L148.141 256.932L154.217 256.16L160.293 255.099L166.176 253.749L171.963 252.11L177.653 250.181L183.151 247.962L188.552 245.551L193.856 242.851L198.968 239.957L203.887 236.775L208.709 233.303L213.242 229.734L217.678 225.876L221.922 221.826L225.973 217.582L229.831 213.145L233.399 208.612L236.871 203.79L240.054 198.871L242.947 193.76L245.648 188.455L248.059 183.054L250.277 177.557L252.206 171.867L253.846 166.08L255.196 160.197L256.257 154.217L257.028 148.044L257.511 141.872L257.703 135.603H271.302L271.109 142.547L270.627 149.491L269.759 156.242L268.505 162.897L267.059 169.455L265.226 175.917L263.008 182.186L260.597 188.359L257.896 194.338L254.907 200.222L251.627 205.912L248.155 211.409L244.297 216.714L240.343 221.826L236.003 226.744L231.567 231.47L226.841 236.003L221.922 240.247L216.81 244.297L211.506 248.059L206.008 251.531L200.318 254.81L194.435 257.8L188.455 260.5L182.283 263.008L176.014 265.13L169.552 266.962L162.994 268.409L156.339 269.663L149.491 270.531L142.643 271.013L135.699 271.206ZM0 135.603H13.5989L13.7918 141.872L14.274 148.044L15.0456 154.217L16.1065 160.197L17.4567 166.08L19.0963 171.867L21.0252 177.557L23.2435 183.054L25.6546 188.455L28.3551 193.76L31.3449 198.871L34.4312 203.79L37.9032 208.612L41.4717 213.145L45.3296 217.582L49.3803 221.826L53.6239 225.876L58.0604 229.734L62.6898 233.303L67.4157 236.775L72.4309 239.957L77.5425 242.851L82.7506 245.551L88.1516 247.962L93.7454 250.181L99.3393 252.11L105.126 253.749L111.106 255.099L117.085 256.16L123.161 256.932L129.334 257.414L135.699 257.607V271.206L128.659 271.013L121.811 270.531L115.06 269.663L108.309 268.409L101.75 266.962L95.2886 265.13L89.0196 263.008L82.847 260.5L76.8674 257.8L70.9842 254.81L65.2939 251.531L59.7965 248.059L54.4919 244.297L49.3803 240.247L44.4616 236.003L39.7357 231.47L35.2992 226.744L30.9591 221.826L27.0049 216.714L23.2435 211.409L19.675 205.912L16.3958 200.222L13.406 194.338L10.7055 188.359L8.29435 182.186L6.17254 175.917L4.34007 169.455L2.79693 162.897L1.63958 156.242L0.771567 149.491L0.192892 142.547L0 135.603ZM135.699 0V13.5989L129.334 13.7918L123.161 14.274L117.085 15.0456L111.106 16.1065L105.126 17.4567L99.3393 19.0963L93.7454 21.0252L88.1516 23.147L82.7506 25.6546L77.5425 28.3551L72.4309 31.2485L67.4157 34.4312L62.6898 37.8068L58.0604 41.4717L53.6239 45.3296L49.3803 49.3803L45.3296 53.5275L41.4717 57.964L37.9032 62.5934L34.4312 67.4157L31.3449 72.3344L28.3551 77.4461L25.6546 82.7506L23.2435 88.1516L21.0252 93.649L19.0963 99.3393L17.4567 105.126L16.1065 111.009L15.0456 116.989L14.274 123.065L13.7918 129.334L13.5989 135.603H0L0.192892 128.659L0.771567 121.715L1.63958 114.964L2.79693 108.309L4.34007 101.75L6.17254 95.2885L8.29435 88.9231L10.7055 82.847L13.406 76.7709L16.3958 70.9842L19.675 65.2939L23.2435 59.7965L27.0049 54.4919L30.9591 49.2839L35.2992 44.3651L39.7357 39.7357L44.4616 35.2028L49.3803 30.9591L54.4919 26.9084L59.7965 23.147L65.2939 19.5785L70.9842 16.3958L76.8674 13.406L82.847 10.609L89.0196 8.1979L95.2886 6.07609L101.75 4.24362L108.309 2.70049L115.06 1.54313L121.811 0.675121L128.659 0.192892L135.699 0Z" transform="translate(51.9935 51.6077)" />
<path fill-rule="evenodd" clip-rule="evenodd" d="M175.532 3.85784C80.7188 3.85784 3.85784 80.7188 3.85784 175.532C3.85784 270.344 80.7188 347.205 175.532 347.205C270.344 347.205 347.205 270.344 347.205 175.532C347.205 80.7188 270.344 3.85784 175.532 3.85784ZM0 175.532C0 78.5882 78.5882 0 175.532 0C272.475 0 351.063 78.5882 351.063 175.532C351.063 272.475 272.475 351.063 175.532 351.063C78.5882 351.063 0 272.475 0 175.532Z" transform="translate(11.872 11.9684)" />
<path d="M0 5.81127L0.909247 3.00447C3.00447 3.74241 4.52647 4.38151 5.47525 4.92179C5.22487 2.53667 5.0931 0.896069 5.07992 0H7.94602C7.90649 1.30457 7.75495 2.93858 7.4914 4.90203C8.84868 4.2168 10.4036 3.58428 12.1562 3.00447L13.0655 5.81127C11.3919 6.36473 9.75134 6.7337 8.14369 6.91818C8.94751 7.61659 10.0808 8.86186 11.5435 10.654L9.17153 12.3341C8.40724 11.2931 7.50458 9.87653 6.46356 8.08439C5.48842 9.94241 4.63189 11.359 3.89395 12.3341L1.56153 10.654C3.09012 8.76962 4.18385 7.52435 4.84273 6.91818C3.14283 6.58874 1.52859 6.21977 0 5.81127Z" transform="translate(117.385 34.1987) scale(1.00021 1)" />
<path d="M1.82709 19.3748H0L2.47194 1.0091H4.29903L1.82709 19.3748Z" transform="translate(87 218.378)" />
<path d="M5.41674 17.5079C6.13975 16.6502 6.72273 15.6916 7.16566 14.632C7.60859 13.5724 7.93427 12.3111 8.14271 10.8479L8.96344 5.72666H15.5879L14.005 17.4701H15.324L14.5229 23.386H12.7642L13.3016 19.3748H6.1593L5.62192 23.386H3.85345L4.6644 17.4701L5.41674 17.5079ZM7.5174 17.5079L12.2366 17.4701L13.5263 7.88362H10.3899L9.72554 11.9831C9.28261 14.3629 8.54656 16.2045 7.5174 17.5079Z" transform="translate(87 218.378)" />
<path d="M22.1012 19.6271C20.7854 19.5934 19.7563 18.9669 19.0137 17.7476C18.2711 16.5283 17.9585 14.9684 18.0757 13.0679L18.1246 12.5255C18.2353 11.1716 18.5447 9.93546 19.0528 8.81704C19.5674 7.69862 20.1927 6.8577 20.9287 6.29428C21.6648 5.72246 22.4594 5.44916 23.3127 5.47439C24.4005 5.50802 25.2538 5.97473 25.8726 6.87452C26.4914 7.7743 26.8301 8.99363 26.8887 10.5325C26.9083 11.0791 26.8953 11.6257 26.8497 12.1723L26.7422 13.2193H19.8344C19.7172 14.4554 19.8735 15.5066 20.3034 16.3727C20.7398 17.2388 21.3879 17.6887 22.2477 17.7224C23.2899 17.756 24.254 17.1505 25.1398 15.906L26.156 17.016C25.713 17.8401 25.1398 18.4876 24.4363 18.9585C23.7394 19.421 22.961 19.6439 22.1012 19.6271ZM23.2248 7.37907C22.4953 7.35384 21.8569 7.67339 21.3098 8.33772C20.7691 9.00204 20.3392 9.99012 20.0201 11.302L25.1594 11.3146L25.1984 11.1127C25.3027 10.0532 25.1691 9.17443 24.7978 8.47647C24.4331 7.7701 23.9087 7.4043 23.2248 7.37907Z" transform="translate(87 218.378)" />
<path d="M36.627 19.3748H34.8585L35.6499 13.5472H30.9503L30.1589 19.3748H28.3904L30.2273 5.72666H31.9957L31.2043 11.6425H35.8942L36.6953 5.72666H38.4638L36.627 19.3748Z" transform="translate(87 218.378)" />
<path d="M49.2141 7.61873H45.7749L44.192 19.3748H42.4333L44.0064 7.61873H40.6356L40.8896 5.72666H49.4681L49.2141 7.61873Z" transform="translate(87 218.378)" />
<path d="M58.2504 5.72666H60.0775L58.2406 19.3748H56.4721L57.8009 9.57387L51.8214 19.3748H49.9943L51.8311 5.72666H53.5898L52.2708 15.5402L58.2504 5.72666Z" transform="translate(87 218.378)" />
<path d="M66.5886 5.44916C67.1227 5.46597 67.6015 5.60052 68.0249 5.8528L68.8749 0H70.6434L69.7738 5.92848C70.2753 5.63416 70.7899 5.4912 71.3175 5.49961C72.7049 5.52484 73.6103 6.52553 74.0337 8.50169C74.2161 9.36784 74.3008 10.2886 74.2878 11.2641L74.2096 12.7778L74.1901 12.9796C73.9686 15.0735 73.4638 16.7175 72.6756 17.9116C71.894 19.1057 70.9039 19.6901 69.7054 19.6649C69.1387 19.6481 68.6078 19.5009 68.1128 19.2234L67.3312 24.6221H65.5627L66.3541 19.2613C65.8786 19.5051 65.4096 19.6228 64.9471 19.6144C64.0092 19.6144 63.2796 19.1688 62.7585 18.2774C62.244 17.3776 61.9769 16.1499 61.9574 14.5942C61.9508 14.098 61.9671 13.6187 62.0062 13.1562L62.1235 12.1219C62.4166 9.9691 62.9442 8.31669 63.7063 7.16463C64.4749 6.00416 65.4357 5.43234 66.5886 5.44916ZM72.4411 12.7273C72.5128 11.8864 72.5388 11.1674 72.5193 10.5704C72.4151 8.52692 71.8223 7.47577 70.7411 7.41691C70.4089 7.40009 70.0441 7.47577 69.6468 7.64396L68.2594 17.5458C68.546 17.6803 68.8814 17.756 69.2657 17.7728C70.093 17.7896 70.7801 17.3818 71.3273 16.5493C71.881 15.7084 72.2425 14.5227 72.4118 12.9922L72.4411 12.7273ZM63.7747 13.1562C63.7356 13.6019 63.7161 14.0854 63.7161 14.6068L63.7356 15.2122C63.8594 16.8184 64.4326 17.6509 65.4552 17.7098C65.7614 17.7266 66.1033 17.6593 66.4811 17.5079L67.8685 7.58089C67.5298 7.42952 67.2237 7.35384 66.9501 7.35384C66.1359 7.33702 65.465 7.76168 64.9374 8.62783C64.4163 9.48557 64.0515 10.7848 63.8431 12.5255L63.7747 13.1562Z" transform="translate(87 218.378)" />
<path d="M77.9863 19.3748H76.2276L78.0644 5.72665H79.8231L77.9863 19.3748ZM79.4421 0.744206C79.7417 0.727387 79.9892 0.845116 80.1846 1.09739C80.3866 1.34126 80.4875 1.66501 80.4875 2.06865C80.481 2.46389 80.38 2.78764 80.1846 3.03991C79.9957 3.29219 79.7482 3.42674 79.4421 3.44356C79.1359 3.46037 78.8852 3.34685 78.6897 3.10298C78.4943 2.85912 78.3999 2.53957 78.4064 2.14434C78.4129 1.7491 78.5106 1.42115 78.6995 1.16046C78.8884 0.899776 79.1359 0.761024 79.4421 0.744206Z" transform="translate(87 218.378)" />
<path d="M85.3341 13.5598H83.9955L83.2041 19.3748H81.4357L83.2725 5.72666H85.041L84.2593 11.5038H85.3341L89.555 5.72666H91.8315L86.8094 12.3994L90.1998 19.3748H88.1089L85.3341 13.5598Z" transform="translate(87 218.378)" />
<path d="M98.6458 19.3748C98.6002 19.1309 98.5774 18.8912 98.5774 18.6558L98.6067 17.9368C97.6362 19.0973 96.607 19.6607 95.5192 19.627C94.5878 19.6102 93.8289 19.2318 93.2427 18.4918C92.663 17.7434 92.3992 16.81 92.4513 15.6915C92.5164 14.2452 93.0049 13.1183 93.9169 12.3111C94.8353 11.4954 96.0403 11.0875 97.532 11.0875L99.3786 11.1001L99.4958 10.0153C99.561 9.19965 99.4372 8.55635 99.1246 8.08543C98.8184 7.60611 98.3559 7.35804 97.7371 7.34122C97.1314 7.3244 96.594 7.51781 96.125 7.92145C95.6625 8.31668 95.3792 8.84226 95.275 9.49818L93.4967 9.51079C93.5554 8.71192 93.7964 8.00555 94.2197 7.39167C94.6431 6.76939 95.187 6.29007 95.8514 5.9537C96.5158 5.60892 97.203 5.44495 97.913 5.46176C99.0138 5.4954 99.8704 5.92847 100.483 6.76098C101.095 7.58509 101.352 8.68248 101.255 10.0532L100.395 16.8142L100.346 17.7854C100.333 18.2479 100.372 18.7062 100.463 19.1603L100.444 19.3748H98.6458ZM95.871 17.6088C96.4377 17.6257 96.9718 17.4533 97.4733 17.0917C97.9814 16.7217 98.4178 16.2129 98.7826 15.5654L99.1636 12.7525L97.8251 12.7399C96.7112 12.7399 95.8579 12.967 95.2652 13.4211C94.6725 13.8752 94.337 14.5185 94.2588 15.351C94.2002 15.9901 94.3142 16.5241 94.6008 16.9529C94.8939 17.3734 95.3173 17.592 95.871 17.6088Z" transform="translate(87 218.378)" />
<path d="M105.262 5.72666H107.031L105.458 17.4701H110.157L111.74 5.72666H113.509L111.926 17.4701H113.157L112.18 23.4238H110.597L111.144 19.3748H103.425L105.262 5.72666Z" transform="translate(87 218.378)" />
<path d="M117.143 19.3748H115.385L117.221 5.72665H118.98L117.143 19.3748ZM118.599 0.744206C118.899 0.727387 119.146 0.845116 119.342 1.09739C119.544 1.34126 119.645 1.66501 119.645 2.06865C119.638 2.46389 119.537 2.78764 119.342 3.03991C119.153 3.29219 118.905 3.42674 118.599 3.44356C118.293 3.46037 118.042 3.34685 117.847 3.10298C117.651 2.85912 117.557 2.53957 117.563 2.14434C117.57 1.7491 117.668 1.42115 117.857 1.16046C118.045 0.899776 118.293 0.761024 118.599 0.744206Z" transform="translate(87 218.378)" />
<path d="M128.849 5.72665H130.676L128.839 19.3748H127.071L128.399 9.57386L122.42 19.3748H120.593L122.43 5.72665H124.188L122.869 15.5402L128.849 5.72665ZM129.992 0.75682C129.914 1.80797 129.595 2.64468 129.034 3.26696C128.481 3.88084 127.787 4.17095 126.953 4.13732C126.152 4.1205 125.511 3.80515 125.029 3.19128C124.553 2.57741 124.322 1.76172 124.335 0.744206L125.771 0.75682C125.725 1.98456 126.123 2.61525 126.963 2.64889C127.426 2.6573 127.79 2.48491 128.057 2.13172C128.324 1.77013 128.497 1.31603 128.575 0.769434L129.992 0.75682Z" transform="translate(87 218.378)" />
<path d="M140.596 19.3748H138.827L139.619 13.5472H134.919L134.128 19.3748H132.359L134.196 5.72666H135.964L135.173 11.6425H139.863L140.664 5.72666H142.433L140.596 19.3748Z" transform="translate(87 218.378)" />
<path d="M152.285 5.72666H154.112L152.275 19.3748H150.507L151.836 9.57387L145.856 19.3748H144.029L145.866 5.72666H147.625L146.306 15.5402L152.285 5.72666Z" transform="translate(87 218.378)" />
<path d="M163.955 5.72665H165.782L163.945 19.3748H162.177L163.506 9.57386L157.526 19.3748H155.699L157.536 5.72665H159.295L157.976 15.5402L163.955 5.72665ZM165.098 0.75682C165.02 1.80797 164.701 2.64468 164.141 3.26696C163.587 3.88084 162.893 4.17095 162.06 4.13732C161.258 4.1205 160.617 3.80515 160.135 3.19128C159.659 2.57741 159.428 1.76172 159.441 0.744206L160.877 0.75682C160.832 1.98456 161.229 2.61525 162.069 2.64889C162.532 2.6573 162.897 2.48491 163.164 2.13172C163.431 1.77013 163.603 1.31603 163.682 0.769434L165.098 0.75682Z" transform="translate(87 218.378)" />
<path d="M3.89844 8.08803H2.55988L1.76847 13.903H0L1.83686 0.254866H3.60532L2.82368 6.03198H3.89844L8.11931 0.254866H10.3958L5.37379 6.92756L8.76416 13.903H6.67327L3.89844 8.08803Z" transform="translate(258.227 223.85)" />
<path d="M15.6497 0.00258744C16.5355 0.0194058 17.2944 0.330545 17.9262 0.936007C18.558 1.54147 19.0238 2.37818 19.3234 3.44615C19.6295 4.50571 19.7338 5.66618 19.6361 6.92756L19.6165 7.20506C19.4928 8.53371 19.1866 9.73623 18.6981 10.8126C18.2096 11.8806 17.5777 12.7131 16.8026 13.3101C16.0275 13.9072 15.1774 14.1889 14.2525 14.1553C13.3731 14.1384 12.6143 13.8273 11.976 13.2218C11.3441 12.6164 10.8817 11.7923 10.5886 10.7495C10.2954 9.70679 10.1912 8.55894 10.2759 7.30597C10.3736 5.89323 10.67 4.62344 11.165 3.49661C11.6601 2.36977 12.2951 1.49942 13.0703 0.885553C13.8519 0.263272 14.7117 -0.0310493 15.6497 0.00258744ZM12.0541 7.31858C12.0085 7.84836 12.0085 8.39917 12.0541 8.97099C12.1193 9.96327 12.3472 10.7537 12.7381 11.3424C13.1354 11.931 13.663 12.238 14.3209 12.2632C14.9071 12.2884 15.4478 12.1034 15.9428 11.7082C16.4378 11.3045 16.8547 10.6991 17.1934 9.8918C17.5321 9.08451 17.7503 8.18894 17.8481 7.20506C17.9002 6.43141 17.9099 5.7797 17.8774 5.24992C17.7992 4.23241 17.5614 3.42933 17.1641 2.84069C16.7668 2.25205 16.2392 1.94091 15.5813 1.90727C14.6694 1.88204 13.8942 2.34455 13.2559 3.29479C12.6176 4.24502 12.2235 5.48958 12.0737 7.02847L12.0541 7.31858Z" transform="translate(258.227 223.85)" />
<path d="M20.5234 12.0361C21.2464 11.1784 21.8294 10.2198 22.2724 9.1602C22.7153 8.10064 23.041 6.83926 23.2494 5.37606L24.0701 0.254866H30.6945L29.1117 11.9983H30.4307L29.6296 17.9142H27.8709L28.4082 13.903H21.266L20.7286 17.9142H18.9601L19.7711 11.9983L20.5234 12.0361ZM22.6241 12.0361L27.3433 11.9983L28.633 2.41182H25.4966L24.8322 6.5113C24.3893 8.89111 23.6533 10.7327 22.6241 12.0361Z" transform="translate(258.227 223.85)" />
<path d="M4.30691 23.0673C2.84197 23.0262 1.74327 22.3581 1.0108 21.063C0.278338 19.7576 -0.0560497 17.8818 0.00764314 15.4355C0.0235663 14.6749 0.0673553 13.9246 0.13901 13.1846L0.568936 9.43806C0.951093 6.24146 1.67958 3.85686 2.7544 2.28426C3.82921 0.711653 5.24638 -0.0489528 7.00589 0.00243951C8.48675 0.0435533 9.58943 0.701375 10.3139 1.9759C11.0464 3.24015 11.3848 5.08 11.329 7.49544C11.3052 8.26632 11.2574 9.02179 11.1857 9.76184L10.7677 13.385C10.3458 16.7666 9.60137 19.2386 8.53452 20.8009C7.46766 22.3632 6.05846 23.1187 4.30691 23.0673ZM9.09581 9.25305C9.20727 8.00936 9.25903 7.04318 9.25106 6.35453C9.21126 3.7438 8.42704 2.40246 6.89841 2.33051C5.78379 2.27912 4.88014 2.8136 4.18748 3.93395C3.50279 5.04402 3.02509 6.79136 2.7544 9.17596L2.24087 13.6471C2.12941 14.8394 2.07766 15.8107 2.08562 16.561C2.12543 19.2848 2.90567 20.6827 4.42633 20.7546C5.48523 20.8163 6.35702 20.3127 7.04172 19.2437C7.73438 18.1748 8.228 16.4788 8.52258 14.1559L9.09581 9.25305Z" transform="translate(136 251.688)" />
<path d="M17.5299 23.0673C16.065 23.0262 14.9663 22.3581 14.2338 21.063C13.5013 19.7576 13.1669 17.8818 13.2306 15.4355C13.2466 14.6749 13.2903 13.9246 13.362 13.1846L13.7919 9.43806C14.1741 6.24146 14.9026 3.85686 15.9774 2.28426C17.0522 0.711653 18.4694 -0.0489528 20.2289 0.00243951C21.7097 0.0435533 22.8124 0.701375 23.5369 1.9759C24.2694 3.24015 24.6078 5.08 24.552 7.49544C24.5281 8.26632 24.4804 9.02179 24.4087 9.76184L23.9907 13.385C23.5688 16.7666 22.8244 19.2386 21.7575 20.8009C20.6907 22.3632 19.2815 23.1187 17.5299 23.0673ZM22.3188 9.25305C22.4303 8.00936 22.482 7.04318 22.4741 6.35453C22.4342 3.7438 21.65 2.40246 20.1214 2.33051C19.0068 2.27912 18.1031 2.8136 17.4105 3.93395C16.7258 5.04402 16.2481 6.79136 15.9774 9.17596L15.4639 13.6471C15.3524 14.8394 15.3007 15.8107 15.3086 16.561C15.3484 19.2848 16.1287 20.6827 17.6493 20.7546C18.7082 20.8163 19.58 20.3127 20.2647 19.2437C20.9574 18.1748 21.451 16.4788 21.7456 14.1559L22.3188 9.25305Z" transform="translate(136 251.688)" />
<path d="M30.7529 23.0673C29.2879 23.0262 28.1892 22.3581 27.4568 21.063C26.7243 19.7576 26.3899 17.8818 26.4536 15.4355C26.4695 14.6749 26.5133 13.9246 26.585 13.1846L27.0149 9.43806C27.3971 6.24146 28.1255 3.85686 29.2004 2.28426C30.2752 0.711653 31.6923 -0.0489528 33.4519 0.00243951C34.9327 0.0435533 36.0354 0.701375 36.7599 1.9759C37.4924 3.24015 37.8307 5.08 37.775 7.49544C37.7511 8.26632 37.7034 9.02179 37.6317 9.76184L37.2137 13.385C36.7918 16.7666 36.0473 19.2386 34.9805 20.8009C33.9136 22.3632 32.5044 23.1187 30.7529 23.0673ZM35.5418 9.25305C35.6532 8.00936 35.705 7.04318 35.697 6.35453C35.6572 3.7438 34.873 2.40246 33.3444 2.33051C32.2298 2.27912 31.3261 2.8136 30.6335 3.93395C29.9488 5.04402 29.4711 6.79136 29.2004 9.17596L28.6868 13.6471C28.5754 14.8394 28.5236 15.8107 28.5316 16.561C28.5714 19.2848 29.3516 20.6827 30.8723 20.7546C31.9312 20.8163 32.803 20.3127 33.4877 19.2437C34.1803 18.1748 34.674 16.4788 34.9685 14.1559L35.5418 9.25305Z" transform="translate(136 251.688)" />
<path d="M43.9012 23.0673C42.4362 23.0262 41.3375 22.3581 40.605 21.063C39.8726 19.7576 39.5382 17.8818 39.6019 15.4355C39.6178 14.6749 39.6616 13.9246 39.7333 13.1846L40.1632 9.43806C40.5453 6.24146 41.2738 3.85686 42.3486 2.28426C43.4235 0.711653 44.8406 -0.0489528 46.6001 0.00243951C48.081 0.0435533 49.1837 0.701375 49.9082 1.9759C50.6406 3.24015 50.979 5.08 50.9233 7.49544C50.8994 8.26632 50.8516 9.02179 50.78 9.76184L50.362 13.385C49.94 16.7666 49.1956 19.2386 48.1288 20.8009C47.0619 22.3632 45.6527 23.1187 43.9012 23.0673ZM48.6901 9.25305C48.8015 8.00936 48.8533 7.04318 48.8453 6.35453C48.8055 3.7438 48.0213 2.40246 46.4927 2.33051C45.378 2.27912 44.4744 2.8136 43.7817 3.93395C43.097 5.04402 42.6193 6.79136 42.3486 9.17596L41.8351 13.6471C41.7237 14.8394 41.6719 15.8107 41.6799 16.561C41.7197 19.2848 42.4999 20.6827 44.0206 20.7546C45.0795 20.8163 45.9513 20.3127 46.636 19.2437C47.3286 18.1748 47.8222 16.4788 48.1168 14.1559L48.6901 9.25305Z" transform="translate(136 251.688)" />
<path d="M57.1241 23.0673C55.6592 23.0262 54.5605 22.3581 53.828 21.063C53.0956 19.7576 52.7612 17.8818 52.8249 15.4355C52.8408 14.6749 52.8846 13.9246 52.9562 13.1846L53.3862 9.43806C53.7683 6.24146 54.4968 3.85686 55.5716 2.28426C56.6464 0.711653 58.0636 -0.0489528 59.8231 0.00243951C61.304 0.0435533 62.4067 0.701375 63.1312 1.9759C63.8636 3.24015 64.202 5.08 64.1463 7.49544C64.1224 8.26632 64.0746 9.02179 64.003 9.76184L63.585 13.385C63.163 16.7666 62.4186 19.2386 61.3518 20.8009C60.2849 22.3632 58.8757 23.1187 57.1241 23.0673ZM61.913 9.25305C62.0245 8.00936 62.0763 7.04318 62.0683 6.35453C62.0285 3.7438 61.2443 2.40246 59.7156 2.33051C58.601 2.27912 57.6974 2.8136 57.0047 3.93395C56.32 5.04402 55.8423 6.79136 55.5716 9.17596L55.0581 13.6471C54.9466 14.8394 54.8949 15.8107 54.9029 16.561C54.9427 19.2848 55.7229 20.6827 57.2436 20.7546C58.3025 20.8163 59.1743 20.3127 59.859 19.2437C60.5516 18.1748 61.0452 16.4788 61.3398 14.1559L61.913 9.25305Z" transform="translate(136 251.688)" />
<path d="M70.3471 23.0673C68.8822 23.0262 67.7835 22.3581 67.051 21.063C66.3186 19.7576 65.9842 17.8818 66.0479 15.4355C66.0638 14.6749 66.1076 13.9246 66.1792 13.1846L66.6092 9.43806C66.9913 6.24146 67.7198 3.85686 68.7946 2.28426C69.8694 0.711653 71.2866 -0.0489528 73.0461 0.00243951C74.527 0.0435533 75.6296 0.701375 76.3542 1.9759C77.0866 3.24015 77.425 5.08 77.3693 7.49544C77.3454 8.26632 77.2976 9.02179 77.2259 9.76184L76.808 13.385C76.386 16.7666 75.6416 19.2386 74.5747 20.8009C73.5079 22.3632 72.0987 23.1187 70.3471 23.0673ZM75.136 9.25305C75.2475 8.00936 75.2992 7.04318 75.2913 6.35453C75.2515 3.7438 74.4672 2.40246 72.9386 2.33051C71.824 2.27912 70.9204 2.8136 70.2277 3.93395C69.543 5.04402 69.0653 6.79136 68.7946 9.17596L68.2811 13.6471C68.1696 14.8394 68.1179 15.8107 68.1258 16.561C68.1656 19.2848 68.9459 20.6827 70.4665 20.7546C71.5254 20.8163 72.3972 20.3127 73.0819 19.2437C73.7746 18.1748 74.2682 16.4788 74.5628 14.1559L75.136 9.25305Z" transform="translate(136 251.688)" />
<path d="M83.5701 23.0673C82.1052 23.0262 81.0065 22.3581 80.274 21.063C79.5415 19.7576 79.2071 17.8818 79.2708 15.4355C79.2868 14.6749 79.3305 13.9246 79.4022 13.1846L79.8321 9.43806C80.2143 6.24146 80.9428 3.85686 82.0176 2.28426C83.0924 0.711653 84.5096 -0.0489528 86.2691 0.00243951C87.7499 0.0435533 88.8526 0.701375 89.5771 1.9759C90.3096 3.24015 90.648 5.08 90.5922 7.49544C90.5683 8.26632 90.5206 9.02179 90.4489 9.76184L90.0309 13.385C89.609 16.7666 88.8646 19.2386 87.7977 20.8009C86.7309 22.3632 85.3217 23.1187 83.5701 23.0673ZM88.359 9.25305C88.4705 8.00936 88.5222 7.04318 88.5143 6.35453C88.4744 3.7438 87.6902 2.40246 86.1616 2.33051C85.047 2.27912 84.1433 2.8136 83.4507 3.93395C82.766 5.04402 82.2883 6.79136 82.0176 9.17596L81.5041 13.6471C81.3926 14.8394 81.3408 15.8107 81.3488 16.561C81.3886 19.2848 82.1689 20.6827 83.6895 20.7546C84.7484 20.8163 85.6202 20.3127 86.3049 19.2437C86.9976 18.1748 87.4912 16.4788 87.7858 14.1559L88.359 9.25305Z" transform="translate(136 251.688)" />
<path d="M96.7184 23.0673C95.2535 23.0262 94.1548 22.3581 93.4223 21.063C92.6898 19.7576 92.3554 17.8818 92.4191 15.4355C92.435 14.6749 92.4788 13.9246 92.5505 13.1846L92.9804 9.43806C93.3626 6.24146 94.0911 3.85686 95.1659 2.28426C96.2407 0.711653 97.6579 -0.0489528 99.4174 0.00243951C100.898 0.0435533 102.001 0.701375 102.725 1.9759C103.458 3.24015 103.796 5.08 103.741 7.49544C103.717 8.26632 103.669 9.02179 103.597 9.76184L103.179 13.385C102.757 16.7666 102.013 19.2386 100.946 20.8009C99.8791 22.3632 98.4699 23.1187 96.7184 23.0673ZM101.507 9.25305C101.619 8.00936 101.671 7.04318 101.663 6.35453C101.623 3.7438 100.839 2.40246 99.3099 2.33051C98.1953 2.27912 97.2916 2.8136 96.599 3.93395C95.9143 5.04402 95.4366 6.79136 95.1659 9.17596L94.6524 13.6471C94.5409 14.8394 94.4891 15.8107 94.4971 16.561C94.5369 19.2848 95.3171 20.6827 96.8378 20.7546C97.8967 20.8163 98.7685 20.3127 99.4532 19.2437C100.146 18.1748 100.639 16.4788 100.934 14.1559L101.507 9.25305Z" transform="translate(136 251.688)" />
<path d="M2.93822 0L5.13381 1.83126C4.20822 3.93295 3.72928 6.06555 3.69699 8.22906V12.1002H0V8.62313C0 7.17049 0.27983 5.62512 0.83949 3.98704C1.40991 2.3335 2.10949 1.00449 2.93822 0ZM8.47563 0L10.6712 1.83126C9.74563 3.93295 9.26668 6.06555 9.2344 8.22906V12.1002H5.53741V8.62313C5.53741 7.17049 5.81724 5.62512 6.3769 3.98704C6.94732 2.3335 7.6469 1.00449 8.47563 0Z" transform="translate(72 152.261)" />
<path d="M17.5576 2.64257V30.8068H24.0798V2.64257H28.9392V30.8068H35.3968V2.64257H40.24V36.3933H12.6983V2.64257H17.5576Z" transform="translate(72 152.261)" />
<path d="M60.6551 8.27542H53.4549V36.3933H48.6117V8.27542H41.5083V2.64257H60.6551V8.27542Z" transform="translate(72 152.261)" />
<path d="M73.7731 29.4392H65.2814L63.667 36.3933H58.517L67.2671 2.64257H71.7551L80.5536 36.3933H75.4037L73.7731 29.4392ZM66.589 23.8063H72.4655L69.5111 11.173L66.589 23.8063Z" transform="translate(72 152.261)" />
<path d="M88.0858 2.64257L94.1237 27.1211L100.129 2.64257H106.49V36.3933H101.631V27.1675L102.115 11.2425L95.7704 36.3933H92.4447L86.1162 11.2657L86.6006 27.1675V36.3933H81.7573V2.64257H88.0858Z" transform="translate(72 152.261)" />
<path d="M128.875 36.3933H124.015V8.27542H114.603V36.3933H109.76V2.64257H128.875V36.3933Z" transform="translate(72 152.261)" />
<path d="M157.839 25.1508C157.656 28.7824 156.72 31.6413 155.03 33.7276C153.351 35.8138 151.134 36.8569 148.379 36.8569C145.365 36.8569 142.992 35.4043 141.259 32.499C139.537 29.5783 138.676 25.5758 138.676 20.4915V18.4285C138.676 15.1832 139.074 12.3243 139.871 9.85169C140.667 7.37911 141.803 5.48604 143.277 4.17248C144.762 2.84347 146.484 2.17896 148.443 2.17896C151.155 2.17896 153.34 3.22208 154.998 5.30832C156.655 7.39457 157.613 10.323 157.871 14.0937H153.028C152.91 11.9148 152.485 10.3385 151.753 9.3649C151.032 8.37587 149.928 7.88135 148.443 7.88135C146.829 7.88135 145.618 8.71585 144.811 10.3848C144.014 12.0384 143.605 14.6114 143.584 18.1039V20.6538C143.584 24.3008 143.966 26.9666 144.73 28.651C145.505 30.3355 146.721 31.1777 148.379 31.1777C149.875 31.1777 150.989 30.6909 151.72 29.7173C152.463 28.7283 152.888 27.2061 152.996 25.1508H157.839Z" transform="translate(72 152.261)" />
<path d="M177.237 8.27542H170.037V36.3933H165.194V8.27542H158.09V2.64257H177.237V8.27542Z" transform="translate(72 152.261)" />
<path d="M197.878 20.2829C197.878 23.6054 197.469 26.5184 196.651 29.0219C195.833 31.5254 194.66 33.4571 193.132 34.817C191.614 36.177 189.871 36.8569 187.901 36.8569C185.953 36.8569 184.215 36.1847 182.687 34.8402C181.158 33.4958 179.974 31.5795 179.135 29.0915C178.296 26.588 177.87 23.7136 177.86 20.4683V18.7993C177.86 15.4768 178.274 12.5561 179.103 10.0371C179.942 7.50274 181.121 5.56331 182.638 4.21884C184.167 2.85892 185.91 2.17896 187.869 2.17896C189.828 2.17896 191.566 2.85892 193.083 4.21884C194.612 5.56331 195.79 7.50274 196.619 10.0371C197.459 12.5561 197.878 15.4691 197.878 18.7762V20.2829ZM192.97 18.753C192.97 15.2141 192.529 12.5252 191.647 10.6862C190.764 8.84721 189.505 7.92771 187.869 7.92771C186.244 7.92771 184.99 8.83948 184.107 10.663C183.225 12.4711 182.778 15.1291 182.767 18.6371V20.2829C182.767 23.7291 183.209 26.4025 184.091 28.3033C184.974 30.2041 186.244 31.1545 187.901 31.1545C189.526 31.1545 190.775 30.2428 191.647 28.4192C192.518 26.5803 192.96 23.9068 192.97 20.3988V18.753Z" transform="translate(72 152.261)" />
<path d="M205.249 24.5017V36.3933H200.406V2.64257H209.576C211.341 2.64257 212.89 3.10618 214.225 4.0334C215.57 4.96062 216.604 6.2819 217.325 7.99726C218.046 9.69716 218.406 11.6366 218.406 13.8156C218.406 17.1226 217.615 19.7343 216.033 21.6505C214.462 23.5513 212.282 24.5017 209.495 24.5017H205.249ZM205.249 18.8689H209.576C210.856 18.8689 211.83 18.4362 212.498 17.5708C213.176 16.7054 213.515 15.4691 213.515 13.8619C213.515 12.2084 213.176 10.8716 212.498 9.85169C211.82 8.83175 210.883 8.30633 209.689 8.27542H205.249V18.8689Z" transform="translate(72 152.261)" />
<path d="M222.016 13.0042L219.82 11.173C220.746 9.08674 221.224 6.93096 221.257 4.70563V0.788136H224.97V4.38111C224.97 5.77193 224.701 7.27866 224.163 8.90129C223.625 10.5239 222.909 11.8916 222.016 13.0042ZM227.618 13.0042L225.422 11.173C226.348 9.08674 226.826 6.93096 226.859 4.70563V0.788136H230.572V4.38111C230.572 5.77193 230.303 7.27866 229.765 8.90129C229.227 10.5239 228.511 11.8916 227.618 13.0042Z" transform="translate(72 152.261)" />
<path d="M113.903 10.0304L116.121 9.35525L124.512 18.1318L126.441 6.46188L128.562 5.8832L125.958 20.6394C125.669 22.4719 125.38 23.7257 124.994 24.4008C124.608 25.0759 123.933 25.5582 123.065 25.7511C122.486 25.9439 121.715 26.0404 120.847 25.9439L120.268 24.1115C120.943 24.3044 121.618 24.2079 122.293 24.1115C122.872 23.9186 123.258 23.6292 123.547 23.147C123.837 22.6648 124.029 21.7968 124.222 20.4465L113.903 10.0304ZM132.324 5.40097L134.638 5.01519L135.989 12.538C136.953 12.3451 137.725 12.0557 138.014 11.5735C138.4 11.0913 138.786 10.0304 139.171 8.39079C139.364 7.137 139.654 6.26898 139.847 5.78675C140.136 5.20808 140.425 4.72585 141.004 4.34007C141.486 3.95428 142.065 3.66494 142.74 3.5685C143.704 3.37561 144.09 3.27916 144.187 3.27916L144.476 5.30452C144.476 5.30452 144.283 5.30452 144.09 5.30452C143.801 5.40097 143.704 5.40097 143.608 5.40097C142.836 5.49742 142.354 5.78675 142.065 6.26898C141.775 6.65477 141.486 7.42633 141.293 8.68013C140.907 10.2233 140.618 11.2842 140.329 11.67C139.943 12.1522 139.557 12.538 138.979 12.8273C140.232 13.0202 141.486 13.7918 142.836 15.3349L147.369 20.4465L144.572 20.9288L140.907 16.7816C139.847 15.6242 139.075 14.8527 138.4 14.4669C137.821 14.0811 137.05 13.9847 136.278 14.1775L137.725 22.1826L135.41 22.5683L132.324 5.40097ZM149.395 20.543L148.044 3.18271L154.603 2.70049C155.76 2.60404 156.628 2.60404 157.303 2.70049C158.171 2.79693 158.846 2.98982 159.522 3.27916C160.1 3.66494 160.582 4.24362 160.968 4.91874C161.45 5.59386 161.643 6.36543 161.74 7.23344C161.836 8.68013 161.45 9.93393 160.582 11.0913C159.714 12.1522 158.075 12.8273 155.567 13.0202L151.131 13.3095L151.709 20.4465L149.395 20.543ZM151.034 11.2842L155.471 10.8984C156.917 10.8019 157.978 10.5126 158.557 9.83748C159.136 9.25881 159.425 8.48724 159.329 7.42633C159.232 6.75121 159.039 6.17254 158.654 5.59386C158.268 5.11163 157.689 4.8223 157.11 4.72585C156.725 4.6294 155.953 4.6294 154.989 4.72585L150.552 5.11163L151.034 11.2842ZM162.029 19.8679L169.166 2.60404L171.674 2.70049L178.328 20.2536H175.724L173.892 14.9491L166.562 14.7562L164.537 19.9643L162.029 19.8679ZM167.237 12.8273L173.217 13.0202L171.481 8.10146C170.999 6.65477 170.613 5.40097 170.323 4.43651C170.034 5.59386 169.745 6.75121 169.263 7.81212L167.237 12.8273ZM180.547 21.0252L182.765 3.76139L184.983 4.05073L182.861 21.3145L180.547 21.0252ZM180.74 2.41115L181.029 0L183.247 0.289338L182.958 2.70049L180.74 2.41115ZM185.176 2.98982L185.465 0.578675L187.684 0.868013L187.394 3.27916L185.176 2.98982ZM187.009 21.6039L190.866 4.6294L193.181 5.20808L191.542 12.1522L200.318 14.1775L201.958 7.23344L204.176 7.71567L200.222 24.6902L198.003 24.2079L199.836 16.2029L191.059 14.1775L189.227 22.1826L187.009 21.6039ZM202.151 25.0759L214.11 10.7055L216.521 11.4771L217.582 30.284L215.171 29.416L214.881 23.8221L207.937 21.411L204.465 25.8475L202.151 25.0759ZM209.191 19.8679L214.881 21.7968L214.689 16.6851C214.592 15.0456 214.592 13.7918 214.689 12.8273C214.013 13.7918 213.435 14.7562 212.663 15.6242L209.191 19.8679ZM246.709 46.3905L255.582 33.8525L250.952 30.5734L252.11 28.9338L263.394 36.9388L262.14 38.5784L257.511 35.2028L248.541 47.7407L246.709 46.3905ZM259.247 45.1367C261.079 42.9184 263.201 41.7611 265.419 41.4717C267.637 41.2788 269.759 41.954 271.592 43.5936C272.845 44.6545 273.617 45.9083 274.099 47.2585C274.582 48.7052 274.678 50.1519 274.292 51.695C273.906 53.1417 273.135 54.5884 271.977 55.8422C270.82 57.1924 269.47 58.1569 268.023 58.7356C266.576 59.3142 265.13 59.4107 263.683 59.1213C262.236 58.832 260.886 58.1569 259.825 57.1924C258.571 56.1315 257.703 54.8777 257.221 53.431C256.739 51.9843 256.739 50.5377 257.125 48.9945C257.511 47.5478 258.186 46.294 259.247 45.1367ZM260.983 46.6798C259.632 48.3194 258.957 49.8625 259.054 51.5021C259.15 53.1417 259.825 54.5884 261.079 55.6493C262.333 56.8066 263.876 57.2889 265.516 57.096C267.155 56.9031 268.698 55.9386 270.145 54.299C271.109 53.2381 271.688 52.1772 272.074 51.0199C272.363 49.959 272.363 48.8016 272.074 47.8372C271.785 46.7763 271.109 45.8118 270.241 45.1367C269.084 44.0758 267.637 43.4971 265.998 43.5936C264.358 43.69 262.719 44.7509 260.983 46.6798ZM268.12 64.6188L281.333 53.2381L285.576 58.1569C286.444 59.2178 287.023 60.0858 287.312 60.9538C287.602 61.7254 287.602 62.5934 287.312 63.4614C287.023 64.233 286.637 64.9081 285.962 65.4868C285.48 65.969 284.805 66.2583 284.033 66.3548C283.262 66.4512 282.49 66.3548 281.622 66.0654C282.104 67.0299 282.201 67.9944 282.008 68.8624C281.815 69.8268 281.333 70.5984 280.561 71.2735C279.982 71.8522 279.307 72.1415 278.536 72.3344C277.764 72.5273 277.089 72.6238 276.51 72.4309C275.835 72.3344 275.257 72.0451 274.582 71.5629C273.906 71.1771 273.231 70.502 272.46 69.6339L268.12 64.6188ZM277.282 59.7965L279.79 62.5934C280.465 63.365 280.947 63.8472 281.333 64.1365C281.911 64.4259 282.394 64.6188 282.876 64.6188C283.358 64.5223 283.84 64.3294 284.323 63.9436C284.805 63.5579 285.094 63.0756 285.191 62.5934C285.383 62.1112 285.287 61.6289 285.094 61.1467C284.901 60.568 284.419 59.8929 283.551 58.9285L281.236 56.3244L277.282 59.7965ZM271.206 65.0045L274.003 68.2837C274.582 68.8624 274.871 69.2482 275.16 69.4411C275.546 69.8268 275.932 70.0197 276.414 70.1162C276.8 70.3091 277.186 70.3091 277.668 70.2126C278.15 70.0197 278.632 69.8268 279.018 69.4411C279.5 69.0553 279.79 68.573 279.982 67.9944C280.079 67.4157 280.079 66.837 279.79 66.2583C279.597 65.6797 279.114 65.0045 278.343 64.1365L275.739 61.1467L271.206 65.0045ZM277.089 74.842L295.221 70.2126L296.668 72.3344L286.541 88.1516L285.094 86.0298L288.18 81.3039L283.937 75.3243L278.536 76.8674L277.089 74.842ZM285.866 74.842L289.338 79.6643L292.135 75.4207C293.099 74.0705 293.774 73.0096 294.449 72.238C293.388 72.7202 292.231 73.106 291.17 73.3953L285.866 74.842ZM287.409 89.8876L302.454 81.111L305.734 86.8978C306.312 87.8622 306.698 88.6338 306.891 89.2125C307.18 90.0805 307.373 90.852 307.277 91.5272C307.277 92.2023 306.987 92.8774 306.505 93.5525C306.119 94.2277 305.444 94.8063 304.769 95.1921C303.419 95.9637 302.165 96.1566 300.815 95.8672C299.465 95.5779 298.114 94.3241 296.861 92.2023L294.642 88.3445L288.47 91.8165L287.409 89.8876ZM296.475 87.2835L298.693 91.1414C299.465 92.4916 300.236 93.2632 301.008 93.5525C301.779 93.7454 302.647 93.649 303.515 93.1667C304.094 92.781 304.576 92.2987 304.866 91.7201C305.058 91.1414 305.155 90.5627 304.962 89.984C304.866 89.5982 304.576 88.9231 304.094 88.0551L301.876 84.1973L296.475 87.2835ZM311.424 97.6997L312.195 99.6286L299.368 104.74L315.571 108.309L316.439 110.431L300.236 116.796L299.465 114.867L312.292 109.852L296.089 106.283L295.221 104.065L311.424 97.6997ZM310.749 130.684V132.999C308.82 133.095 307.18 132.613 305.926 131.745C304.576 130.781 303.708 129.43 303.226 127.694C302.744 125.862 302.647 124.319 303.033 122.969C303.515 121.618 304.287 120.461 305.541 119.496C306.794 118.532 308.145 117.76 309.784 117.375C311.52 116.892 313.16 116.796 314.607 117.085C316.15 117.375 317.403 118.05 318.368 119.014C319.429 120.075 320.104 121.329 320.586 122.872C321.068 124.512 320.972 126.055 320.49 127.405C319.911 128.755 318.947 129.913 317.596 130.781L316.439 128.755C317.5 128.08 318.272 127.212 318.561 126.344C318.947 125.476 318.947 124.415 318.657 123.354C318.272 122.004 317.693 121.04 316.825 120.364C315.957 119.689 314.896 119.304 313.835 119.207C312.678 119.207 311.52 119.304 310.459 119.689C309.013 120.075 307.855 120.654 306.891 121.329C305.926 122.004 305.348 122.872 305.058 123.933C304.769 124.994 304.769 125.958 305.058 127.019C305.444 128.273 306.119 129.141 306.987 129.816C307.952 130.491 309.206 130.781 310.749 130.684ZM306.409 141.004L321.551 138.303L320.49 132.613L322.515 132.227L324.926 145.826L322.901 146.212L321.936 140.522L306.794 143.222L306.409 141.004ZM307.759 151.227L325.119 149.877L325.601 156.435C325.698 157.786 325.601 158.846 325.312 159.618C325.023 160.486 324.54 161.161 323.865 161.643C323.19 162.126 322.419 162.415 321.647 162.511C320.876 162.608 320.2 162.415 319.525 162.029C318.85 161.74 318.272 161.161 317.789 160.39C317.5 161.45 317.114 162.318 316.343 162.897C315.667 163.572 314.799 163.862 313.835 163.958C312.967 164.054 312.195 163.958 311.52 163.572C310.749 163.283 310.17 162.994 309.784 162.511C309.398 162.029 309.013 161.354 308.82 160.679C308.53 159.907 308.338 158.943 308.241 157.882L307.759 151.227ZM317.982 152.77L318.272 156.532C318.368 157.496 318.464 158.268 318.657 158.654C318.85 159.232 319.236 159.714 319.622 159.907C320.104 160.197 320.586 160.293 321.165 160.293C321.744 160.197 322.226 160.1 322.708 159.714C323.094 159.425 323.383 159.039 323.48 158.461C323.576 157.978 323.672 157.11 323.576 155.857L323.287 152.385L317.982 152.77ZM309.977 153.349L310.266 157.689C310.363 158.461 310.459 158.943 310.556 159.232C310.652 159.811 310.845 160.197 311.135 160.582C311.327 160.872 311.713 161.161 312.099 161.354C312.581 161.547 313.063 161.643 313.642 161.547C314.317 161.547 314.799 161.354 315.282 160.968C315.764 160.582 316.053 160.1 316.15 159.522C316.343 158.943 316.343 158.075 316.246 156.917L315.957 152.963L309.977 153.349ZM317.211 166.659C320.104 166.851 322.322 167.816 323.865 169.552C325.312 171.191 325.987 173.217 325.794 175.724C325.698 177.268 325.216 178.714 324.348 179.968C323.48 181.222 322.322 182.09 320.876 182.669C319.525 183.247 317.886 183.44 316.15 183.344C314.414 183.151 312.871 182.669 311.52 181.897C310.17 181.029 309.206 179.968 308.627 178.618C308.048 177.268 307.759 175.821 307.855 174.278C307.952 172.638 308.53 171.288 309.398 170.034C310.266 168.78 311.424 167.912 312.871 167.334C314.221 166.755 315.764 166.562 317.211 166.659ZM317.018 169.07C314.896 168.877 313.256 169.359 312.003 170.323C310.652 171.384 309.977 172.735 309.784 174.471C309.688 176.207 310.17 177.653 311.327 178.907C312.485 180.065 314.124 180.74 316.343 180.933C317.789 181.029 319.043 180.933 320.104 180.45C321.165 180.065 322.033 179.486 322.708 178.618C323.383 177.75 323.769 176.689 323.865 175.532C323.962 173.892 323.48 172.445 322.515 171.191C321.454 169.938 319.622 169.263 317.018 169.07ZM309.688 199.354L309.591 201.572C308.723 201.476 307.759 201.668 306.794 202.151C305.83 202.633 305.155 203.404 304.769 204.562C304.48 205.719 304.48 206.78 304.866 207.648C305.348 208.516 305.926 208.998 306.794 209.288C307.759 209.481 308.53 209.384 309.302 208.805C310.074 208.227 310.652 207.359 310.942 206.105L311.231 205.044L313.16 205.623C312.871 206.684 312.774 207.455 312.678 208.034C312.678 208.613 312.871 209.191 313.16 209.673C313.546 210.252 314.028 210.638 314.703 210.831C315.378 211.024 316.15 210.927 316.825 210.445C317.5 210.059 317.982 209.384 318.272 208.42C318.464 207.552 318.464 206.78 318.272 206.105C317.982 205.333 317.5 204.851 316.921 204.369C316.246 203.983 315.764 203.694 315.475 203.597L316.535 201.572C319.911 203.115 321.165 205.623 320.2 208.998C319.718 210.638 318.947 211.795 317.789 212.47C316.535 213.145 315.378 213.338 314.124 213.049C312.581 212.567 311.617 211.506 311.135 209.77C310.652 210.541 309.977 211.12 309.109 211.506C308.241 211.892 307.277 211.892 306.216 211.602C304.769 211.217 303.708 210.349 303.129 208.902C302.454 207.552 302.358 205.912 302.937 204.08C303.805 200.897 306.023 199.354 309.688 199.354ZM303.419 228.77C306.023 230.12 307.662 231.856 308.434 233.978C309.109 236.1 308.916 238.221 307.855 240.44C307.084 241.886 306.119 242.947 304.866 243.815C303.515 244.587 302.165 244.973 300.622 244.973C299.079 244.973 297.536 244.49 295.993 243.719C294.449 242.947 293.196 241.886 292.231 240.633C291.363 239.379 290.881 237.932 290.881 236.485C290.784 234.942 291.17 233.592 291.845 232.242C292.52 230.795 293.581 229.638 294.835 228.866C296.185 228.095 297.536 227.709 299.079 227.709C300.622 227.709 302.069 228.095 303.419 228.77ZM302.261 230.892C300.429 229.927 298.693 229.734 297.15 230.12C295.51 230.602 294.353 231.567 293.581 233.11C292.81 234.653 292.713 236.196 293.196 237.739C293.774 239.282 295.124 240.633 297.053 241.597C298.307 242.272 299.561 242.561 300.718 242.658C301.876 242.754 302.937 242.465 303.901 241.886C304.769 241.308 305.541 240.536 306.023 239.572C306.794 238.125 306.891 236.582 306.505 235.039C306.023 233.496 304.576 232.145 302.261 230.892ZM300.815 252.495L294.256 261.658L292.617 260.5L297.825 253.171L293.485 250.084L291.074 253.46C290.109 254.714 289.338 255.582 288.566 256.16C287.795 256.739 286.927 257.028 285.962 257.028C284.901 256.932 284.033 256.643 283.165 256.064C282.394 255.485 281.911 254.907 281.429 254.135C281.043 253.363 280.947 252.495 280.947 251.627C281.043 250.663 281.622 249.506 282.683 247.962L286.637 242.369L300.815 252.495ZM286.927 245.455L284.226 249.12C283.551 250.181 283.165 251.049 283.262 251.917C283.262 252.688 283.744 253.363 284.515 253.942C285.094 254.424 285.673 254.617 286.348 254.617C286.927 254.521 287.505 254.328 287.987 253.942C288.47 253.46 289.145 252.688 290.013 251.434L291.845 248.927L286.927 245.455ZM277.475 255.292L290.592 266.673L288.373 269.277L276.318 264.358C275.257 263.876 274.389 263.49 273.81 263.297C274.196 263.876 274.678 264.648 275.353 265.805L281.719 276.896L279.693 279.211L266.576 267.83L268.023 266.191L279.018 275.739L271.302 262.333L272.749 260.79L287.216 266.673L276.028 256.932L277.475 255.292ZM263.78 270.338L275.16 283.551L265.708 291.749L264.358 290.206L272.074 283.551L268.602 279.5L261.368 285.769L260.018 284.226L267.252 277.957L263.394 273.424L255.292 280.465L253.942 278.922L263.78 270.338ZM252.206 301.49L248.059 295.124C247.094 295.703 246.612 296.282 246.419 296.861C246.323 297.439 246.419 298.597 246.709 300.236C246.902 301.49 246.998 302.358 246.998 302.937C246.998 303.515 246.805 304.094 246.516 304.673C246.226 305.251 245.744 305.734 245.166 306.023C244.49 306.505 244.105 306.698 244.008 306.794L242.851 305.155C242.947 305.058 243.044 305.058 243.237 304.866C243.526 304.769 243.622 304.673 243.719 304.673C244.297 304.287 244.683 303.805 244.78 303.322C244.876 302.84 244.78 301.972 244.587 300.718C244.297 299.368 244.201 298.404 244.297 297.825C244.394 297.246 244.587 296.668 245.069 295.992C243.912 296.378 242.465 296.089 240.536 295.221L234.46 292.231L236.871 290.688L241.79 293.099C243.14 293.774 244.201 294.16 244.876 294.256C245.648 294.449 246.419 294.256 247.191 293.774L242.851 286.83L244.78 285.576L249.216 292.424C249.795 292.038 250.277 291.556 250.566 290.881C250.856 290.206 250.952 289.145 250.856 287.602V287.312L250.759 281.719L253.171 280.175L253.267 287.023C253.363 289.145 252.978 290.592 252.206 291.46C252.785 291.363 253.46 291.363 254.039 291.46C254.617 291.652 255.485 292.135 256.643 293.003C257.703 293.774 258.571 294.16 258.957 294.256C259.439 294.353 260.018 294.16 260.597 293.774L261.368 293.292L262.429 294.932C262.333 295.028 262.044 295.317 261.368 295.703C260.693 296.089 260.018 296.378 259.439 296.378C258.764 296.378 258.186 296.282 257.703 296.089C257.125 295.896 256.353 295.414 255.292 294.739C253.942 293.774 252.978 293.196 252.399 293.099C251.82 293.003 251.049 293.196 250.084 293.871L254.231 300.236L252.206 301.49ZM232.531 293.099L240.536 308.53L229.252 314.317L228.384 312.485L237.546 307.759L235.039 303.033L226.551 307.373L225.587 305.637L234.171 301.201L231.47 295.896L221.922 300.815L220.958 298.982L232.531 293.099ZM217.968 300.236L223.465 316.728L221.343 317.5L219.029 310.652L210.541 313.546L212.76 320.393L210.638 321.068L205.044 304.576L207.166 303.901L209.866 311.617L218.354 308.723L215.75 301.008L217.968 300.236ZM203.887 313.739C204.562 316.632 204.272 318.947 203.212 320.876C202.054 322.901 200.222 324.058 197.907 324.637C196.267 325.023 194.821 324.926 193.374 324.54C191.927 324.058 190.77 323.19 189.806 322.033C188.841 320.876 188.166 319.429 187.684 317.693C187.298 316.053 187.298 314.414 187.684 312.871C188.07 311.327 188.841 310.074 189.902 309.109C191.059 308.145 192.313 307.47 193.856 307.084C195.399 306.698 196.943 306.794 198.389 307.277C199.836 307.759 200.993 308.627 201.958 309.784C202.922 310.942 203.597 312.292 203.887 313.739ZM201.572 314.317C201.09 312.195 200.222 310.749 198.871 309.881C197.425 308.916 195.978 308.627 194.242 309.013C192.602 309.398 191.349 310.363 190.481 311.81C189.709 313.256 189.516 314.992 190.095 317.211C190.384 318.561 190.866 319.718 191.542 320.683C192.313 321.551 193.181 322.226 194.146 322.612C195.207 322.901 196.267 322.997 197.425 322.708C198.968 322.322 200.222 321.454 201.09 320.104C202.054 318.754 202.151 316.825 201.572 314.317ZM184.019 326.952L181.704 327.145L181.125 319.332L177.75 319.622C177.846 322.033 177.171 324.058 175.821 325.698C174.471 327.241 172.735 328.109 170.613 328.302C168.298 328.495 166.369 327.82 164.826 326.277C163.186 324.83 162.318 322.708 162.029 320.008C161.836 317.114 162.415 314.896 163.765 313.16C165.115 311.424 166.948 310.459 169.263 310.363C171.384 310.17 173.217 310.749 174.664 312.003C176.207 313.256 177.171 315.185 177.557 317.596L180.933 317.307L180.354 309.784L182.669 309.591L184.019 326.952ZM175.435 318.754C175.242 316.632 174.664 314.896 173.506 313.835C172.445 312.678 171.095 312.195 169.455 312.292C167.719 312.388 166.466 313.16 165.501 314.414C164.633 315.667 164.247 317.5 164.44 319.815C164.633 321.936 165.212 323.576 166.273 324.733C167.43 325.987 168.78 326.469 170.42 326.373C172.156 326.18 173.41 325.505 174.374 324.155C175.242 322.804 175.628 321.068 175.435 318.754ZM144.862 309.784L141.775 326.855L135.314 325.698C134.06 325.505 132.999 325.119 132.324 324.637C131.552 324.155 131.07 323.48 130.684 322.708C130.395 321.936 130.298 321.165 130.491 320.297C130.588 319.622 130.877 318.947 131.456 318.368C131.938 317.789 132.613 317.403 133.481 317.114C132.517 316.632 131.842 315.957 131.359 315.185C130.974 314.317 130.877 313.449 130.974 312.388C131.166 311.617 131.456 310.845 131.938 310.266C132.42 309.591 132.902 309.206 133.481 308.916C134.06 308.627 134.735 308.434 135.507 308.338C136.278 308.338 137.243 308.338 138.303 308.53L144.862 309.784ZM140.811 319.236L137.05 318.657C136.085 318.464 135.314 318.368 134.928 318.464C134.253 318.464 133.77 318.754 133.481 319.043C133.095 319.429 132.806 319.911 132.71 320.49C132.613 321.068 132.71 321.551 132.902 322.033C133.095 322.515 133.385 322.901 133.867 323.19C134.349 323.383 135.217 323.672 136.471 323.865L139.847 324.444L140.811 319.236ZM142.258 311.327L137.918 310.556C137.243 310.459 136.664 310.363 136.375 310.363C135.892 310.363 135.41 310.459 135.024 310.652C134.638 310.749 134.253 311.038 133.963 311.424C133.674 311.81 133.481 312.292 133.385 312.774C133.288 313.449 133.288 314.028 133.578 314.607C133.77 315.089 134.156 315.571 134.735 315.86C135.314 316.15 136.085 316.343 137.243 316.535L141.197 317.307L142.258 311.327ZM128.466 306.505L124.512 323.48L122.293 322.997L126.248 306.023L128.466 306.505ZM115.156 320.972L105.126 317.596L110.045 303.033L108.598 302.551L110.527 296.764L112.456 297.439L111.202 301.297L122.101 304.962L123.451 301.104L125.38 301.779L123.354 307.566L122.101 307.084C120.075 308.627 118.05 312.485 116.024 318.561L115.156 320.972ZM108.019 316.439L113.71 318.368L113.999 317.5C114.481 316.15 115.253 314.221 116.41 311.906C117.471 309.495 118.628 307.662 119.882 306.409L112.263 303.805L108.019 316.439ZM99.5322 315.282L87.0907 309.688L94.3241 293.774L96.3495 294.739L90.0805 308.723L98.2784 312.485L104.644 298.5L106.766 299.465L99.5322 315.282ZM86.9942 299.368C85.4511 301.779 83.6186 303.226 81.4003 303.805C79.1821 304.383 77.0603 303.901 75.0349 302.647C73.6847 301.779 72.6238 300.622 71.9486 299.272C71.2735 297.921 71.0806 296.571 71.2735 295.028C71.37 293.485 71.9486 292.038 72.9131 290.495C73.8776 289.048 75.0349 287.891 76.3852 287.119C77.7354 286.348 79.0856 285.962 80.6288 286.059C82.0755 286.155 83.5222 286.637 84.776 287.505C86.1262 288.373 87.1871 289.531 87.8622 290.881C88.4409 292.231 88.7302 293.678 88.5373 295.124C88.3445 296.668 87.8622 298.114 86.9942 299.368ZM85.0653 298.018C86.2226 296.282 86.6084 294.546 86.3191 292.906C86.0298 291.363 85.1617 290.013 83.7151 289.145C82.2684 288.18 80.7252 287.987 79.0856 288.373C77.5425 288.759 76.0958 289.916 74.9385 291.845C74.1669 293.003 73.6847 294.16 73.4918 295.317C73.2989 296.475 73.4918 297.536 73.974 298.5C74.4562 299.561 75.1314 300.333 76.0958 300.911C77.4461 301.779 78.9892 302.069 80.5323 301.779C82.1719 301.49 83.6186 300.236 85.0653 298.018ZM75.2278 281.526L63.8472 294.739L58.832 290.495C57.8675 289.627 57.1924 288.759 56.8066 287.987C56.4209 287.119 56.3244 286.348 56.4209 285.48C56.6137 284.612 56.9031 283.937 57.3853 283.262C57.8675 282.779 58.5427 282.297 59.2178 282.104C59.9894 281.911 60.7609 281.911 61.6289 282.104C61.0503 281.14 60.8574 280.272 60.8574 279.307C60.9538 278.343 61.3396 277.571 61.9183 276.8C62.497 276.125 63.0756 275.642 63.8472 275.353C64.5223 275.064 65.1974 274.967 65.8726 274.967C66.4512 275.064 67.1264 275.257 67.8979 275.546C68.573 275.932 69.3446 276.51 70.2126 277.186L75.2278 281.526ZM66.837 287.698L64.0401 285.191C63.2685 284.515 62.5934 284.13 62.2076 283.937C61.6289 283.647 61.1467 283.647 60.6645 283.744C60.1822 283.84 59.7 284.13 59.3142 284.612C58.9285 284.998 58.7356 285.48 58.6391 286.059C58.5427 286.541 58.6391 287.023 58.9285 287.505C59.2178 287.891 59.7965 288.566 60.7609 289.434L63.365 291.652L66.837 287.698ZM72.1415 281.622L68.8624 278.729C68.2837 278.246 67.8979 277.957 67.6086 277.764C67.1264 277.475 66.7406 277.378 66.2583 277.282C65.8726 277.186 65.3903 277.282 65.0045 277.475C64.5223 277.571 64.1365 277.861 63.7507 278.343C63.365 278.825 63.0756 279.307 63.0756 279.982C62.9792 280.561 63.0756 281.043 63.365 281.622C63.7507 282.104 64.3294 282.779 65.101 283.455L68.1873 286.155L72.1415 281.622ZM62.6898 270.531L50.6341 283.069L48.9945 281.526L61.0503 268.891L62.6898 270.531ZM43.8829 276.318L36.9388 268.313L48.5123 258.282L47.4514 257.125L52.0808 253.074L53.431 254.617L50.3448 257.318L57.964 265.998L60.9538 263.394L62.3041 264.937L57.6747 268.891L56.8066 267.83C54.299 268.216 50.6341 270.434 45.7154 274.678L43.8829 276.318ZM39.9286 268.698L43.9793 273.328L44.558 272.749C45.7154 271.785 47.3549 270.531 49.4768 269.084C51.5986 267.541 53.5275 266.576 55.2635 266.094L50.0554 260.018L39.9286 268.698ZM48.5123 255.099L30.4769 259.729L28.9338 257.703L39.0606 241.79L40.6037 244.008L37.421 248.638L41.6646 254.617L47.0656 253.171L48.5123 255.099ZM39.7357 255.196L36.3601 250.374L33.4667 254.617C32.5987 255.967 31.8272 256.932 31.2485 257.703C32.3094 257.318 33.3703 256.932 34.5276 256.546L39.7357 255.196ZM21.7003 246.612L16.7816 236.871L32.2129 228.963L33.2738 230.988L19.675 238.029L22.4719 243.622L30.4769 239.475C32.1165 238.704 33.2738 238.125 34.1419 237.932C35.0099 237.643 35.685 237.643 36.3601 237.932C37.0352 238.221 37.6139 238.704 37.9997 239.475C38.1926 239.957 38.3855 240.536 38.5784 241.308L36.553 241.79C36.553 241.404 36.4566 241.115 36.3601 240.825C36.0708 240.343 35.7814 240.15 35.2992 240.054C34.817 240.054 33.949 240.343 32.5987 241.018L21.7003 246.612ZM14.274 231.856L13.406 229.734L20.2536 227.034L18.807 223.176C18.0354 221.343 17.746 219.993 17.8425 219.029C17.9389 217.968 18.3247 217.196 18.9034 216.521C19.4821 215.942 20.1572 215.46 20.9288 215.171C22.1826 214.689 23.4364 214.689 24.6902 215.171C26.0404 215.653 27.1013 217.003 28.0658 219.318L30.4769 225.491L14.274 231.856ZM27.7764 224.044L26.2333 220.186C25.5582 218.546 24.883 217.678 24.1115 217.389C23.4364 217.1 22.6648 217.196 21.7968 217.486C21.2181 217.678 20.7359 218.064 20.3501 218.643C20.0607 219.125 19.9643 219.704 20.0607 220.379C20.1572 221.054 20.4465 222.018 21.0252 223.369L22.1826 226.262L27.7764 224.044ZM24.6902 210.541L8.00501 215.364L7.32989 213.145L14.274 211.12L11.7664 202.536L4.91874 204.465L4.24362 202.247L21.0252 197.521L21.6039 199.739L13.7918 201.958L16.2029 210.638L24.1115 208.323L24.6902 210.541ZM20.3501 193.278L3.18272 196.364L2.79693 194.049L19.9643 190.963L20.3501 193.278ZM11.5735 175.435L11.8628 173.12C13.7918 173.313 15.3349 173.988 16.4923 175.146C17.6496 176.303 18.3247 177.75 18.6141 179.486C18.807 181.415 18.6141 182.958 18.0354 184.212C17.3603 185.465 16.3958 186.526 15.0456 187.298C13.6953 188.07 12.1522 188.552 10.5126 188.745C8.77658 189.034 7.137 188.841 5.69031 188.359C4.24362 187.78 3.18272 187.009 2.3147 185.755C1.44669 184.597 0.868013 183.247 0.675121 181.704C0.48223 180.065 0.771567 178.521 1.44669 177.268C2.21826 175.917 3.37561 174.953 4.8223 174.278L5.69031 176.496C4.43651 177.075 3.66494 177.75 3.18272 178.521C2.70049 179.389 2.50759 180.354 2.70049 181.511C2.79693 182.861 3.27916 183.922 4.05073 184.694C4.8223 185.562 5.69031 186.044 6.84766 186.333C8.00501 186.526 9.06592 186.526 10.2233 186.43C11.67 186.237 12.9238 185.851 13.9847 185.273C15.0456 184.694 15.7207 183.922 16.2029 182.958C16.5887 181.993 16.7816 181.029 16.6851 179.968C16.4923 178.714 16.01 177.653 15.142 176.882C14.274 176.11 13.1166 175.628 11.5735 175.435ZM17.5532 165.887L2.21826 165.501L2.12181 171.288L0 171.191L0.385784 157.4L2.41115 157.496L2.3147 163.186L17.6496 163.572L17.5532 165.887ZM0.48223 153.156L0.771567 150.841L8.48724 151.806L8.87302 148.527C6.46188 148.044 4.6294 146.984 3.37561 145.344C2.12181 143.704 1.63958 141.872 1.83247 139.75C2.12181 137.532 3.18272 135.699 4.91874 134.446C6.75121 133.192 8.96947 132.71 11.67 133.095C14.5633 133.385 16.5887 134.446 18.0354 136.085C19.4821 137.821 19.9643 139.75 19.675 142.065C19.4821 144.187 18.5176 145.826 16.9745 146.984C15.4313 148.237 13.406 148.816 10.9948 148.72L10.5126 152.095L18.0354 153.06L17.746 155.374L0.48223 153.156ZM10.2233 146.405C12.3451 146.694 14.0811 146.405 15.4313 145.537C16.7816 144.669 17.5532 143.415 17.746 141.775C17.9389 140.136 17.5532 138.689 16.4923 137.628C15.3349 136.471 13.6953 135.699 11.3806 135.41C9.25881 135.121 7.52278 135.41 6.17254 136.278C4.8223 137.05 4.05073 138.303 3.76139 139.943C3.5685 141.679 4.05073 143.126 5.20808 144.283C6.26898 145.344 8.00501 146.116 10.2233 146.405ZM33.1774 99.5322L18.0354 90.852L19.7714 87.8622L32.5023 90.4663C33.6596 90.6592 34.5276 90.852 35.1063 90.9485C34.7205 90.4663 34.0454 89.7911 33.1774 88.8267L24.7866 79.0856L26.3297 76.4816L41.3753 85.1617L40.3144 86.9942L27.68 79.7608L37.8068 91.4307L36.7459 93.2632L21.411 90.1769L34.2383 97.6033L33.1774 99.5322ZM43.8829 81.979L41.954 80.5323L43.4007 78.507L45.3296 79.9537L43.8829 81.979ZM34.4312 65.1974L35.8779 63.4614L41.6646 68.3801C42.3398 67.6086 42.7255 66.9335 42.7255 66.3548C42.6291 65.7761 42.2433 64.7152 41.5682 63.1721C40.9895 62.0147 40.6037 61.2432 40.5073 60.6645C40.3144 60.1822 40.3144 59.5071 40.4108 58.9285C40.6037 58.2533 40.8931 57.6747 41.3753 57.096C41.954 56.4209 42.2433 56.1315 42.2433 56.1315L43.7864 57.3853C43.69 57.4818 43.5936 57.5782 43.4971 57.7711C43.3042 57.964 43.2078 58.0604 43.2078 58.0604C42.7255 58.6391 42.4362 59.1213 42.5326 59.7C42.5326 60.1822 42.822 60.9538 43.4007 62.1112C44.1722 63.4614 44.558 64.5223 44.558 65.0045C44.558 65.5832 44.4616 66.1619 44.2687 66.7406C45.2331 66.0654 46.7763 65.969 48.8016 66.2583L55.5528 67.3192L53.7204 69.5375L48.223 68.6695C46.6798 68.3801 45.5225 68.2837 44.8473 68.3801C44.1722 68.4766 43.4971 68.8624 42.9184 69.4411L49.091 74.842L47.5478 76.5781L34.4312 65.1974ZM44.7509 53.1417L46.294 51.695L55.7457 61.7254L52.9488 45.3296L54.5884 43.7864L66.6441 56.3244L65.101 57.7711L55.6493 47.8372L58.4462 64.1365L56.8066 65.7761L44.7509 53.1417ZM69.8268 53.6239L59.1213 39.9286L60.8574 38.5784L71.6593 52.2737L69.8268 53.6239ZM56.8066 40.4108L55.2635 38.4819L56.9995 37.1317L58.5427 39.0606L56.8066 40.4108ZM60.2787 37.7104L58.7356 35.7814L60.4716 34.4312L62.0147 36.2637L60.2787 37.7104ZM74.7456 49.7661L64.6188 35.4921L69.9233 31.7307C71.0806 30.9591 72.0451 30.4769 72.9131 30.284C73.7811 30.0911 74.5527 30.1876 75.3243 30.5734C76.1923 30.8627 76.7709 31.3449 77.2532 32.02C77.639 32.5987 77.9283 33.2738 78.0247 34.0454C78.0247 34.817 77.8318 35.685 77.4461 36.4566C78.4105 36.0708 79.375 36.0708 80.3394 36.3601C81.2075 36.553 81.979 37.1317 82.5577 37.9997C83.0399 38.6748 83.3293 39.3499 83.4257 40.1215C83.5222 40.8931 83.5222 41.5682 83.3293 42.1469C83.1364 42.822 82.7506 43.4007 82.2684 43.9793C81.7861 44.558 81.0146 45.2331 80.1466 45.9083L74.7456 49.7661ZM70.7913 40.1215L73.8776 37.9997C74.6491 37.421 75.2278 36.9388 75.5171 36.553C75.9029 36.0708 76.0958 35.5885 76.0958 35.0099C76.0958 34.5276 75.9029 34.0454 75.5171 33.5632C75.2278 33.0809 74.842 32.7916 74.3598 32.5023C73.8776 32.3094 73.3953 32.3094 72.8167 32.5023C72.3344 32.6952 71.5629 33.0809 70.502 33.8525L67.705 35.8779L70.7913 40.1215ZM75.4207 46.6798L78.9892 44.1722C79.5679 43.7864 79.9537 43.4007 80.243 43.2078C80.5323 42.822 80.8217 42.4362 81.0146 42.0504C81.2075 41.6646 81.2075 41.2788 81.2075 40.7966C81.111 40.3144 80.9181 39.8322 80.6288 39.3499C80.243 38.8677 79.7608 38.4819 79.1821 38.289C78.6034 38.0961 78.0247 38.0961 77.4461 38.289C76.8674 38.3855 76.0958 38.8677 75.2278 39.4464L71.9486 41.8575L75.4207 46.6798Z" transform="translate(24.41 22.1917)" />
<path d="M0 5.81141L0.909268 3.00454C3.00454 3.7425 4.52657 4.38162 5.47538 4.92191C5.225 2.53673 5.09322 0.89609 5.08004 0H7.94621C7.90668 1.3046 7.75514 2.93865 7.49158 4.90214C8.84889 4.2169 10.4039 3.58436 12.1565 3.00454L13.0658 5.81141C11.3922 6.36488 9.75157 6.73386 8.14388 6.91834C8.94773 7.61677 10.081 8.86207 11.5438 10.6543L9.17175 12.3344C8.40744 11.2934 7.50476 9.87676 6.46371 8.08458C5.48855 9.94265 4.632 11.3593 3.89404 12.3344L1.56157 10.6543C3.09019 8.76983 4.18395 7.52452 4.84284 6.91834C3.14291 6.5889 1.52862 6.21992 0 5.81141Z" transform="translate(33.1224 125.406) scale(1.00021 1)" />
<path d="M0 5.81127L0.909247 3.00447C3.00447 3.74241 4.52647 4.38151 5.47525 4.92179C5.22487 2.53667 5.0931 0.896069 5.07992 0H7.94602C7.90649 1.30457 7.75495 2.93858 7.4914 4.90203C8.84868 4.2168 10.4036 3.58428 12.1562 3.00447L13.0655 5.81127C11.3919 6.36473 9.75134 6.7337 8.14369 6.91818C8.94751 7.61659 10.0808 8.86186 11.5435 10.654L9.17153 12.3341C8.40724 11.2931 7.50458 9.87653 6.46356 8.08439C5.48842 9.94241 4.63189 11.359 3.89395 12.3341L1.56153 10.654C3.09012 8.76962 4.18385 7.52435 4.84273 6.91818C3.14283 6.58874 1.52859 6.21977 0 5.81127Z" transform="translate(252.066 38.6641) scale(1.00021 1)" />
<path d="M111.202 263.297L109.659 263.008L108.695 259.247L106.766 262.429L105.319 262.236L108.502 257.511C108.791 257.028 109.177 256.643 109.466 256.353C109.755 256.16 110.141 256.064 110.527 256.064C110.913 256.16 111.299 256.257 111.491 256.353L111.299 257.318C111.106 257.318 110.913 257.318 110.816 257.221C110.431 257.221 110.238 257.221 110.045 257.318C109.948 257.414 109.755 257.607 109.563 257.993L111.202 263.297ZM102.426 261.561L101.075 261.272L101.75 258.379C101.365 258.379 101.172 258.379 101.075 258.475C100.882 258.571 100.69 258.861 100.304 259.439C99.8215 260.115 99.4357 260.5 99.1464 260.597C98.857 260.693 98.3748 260.693 97.7961 260.5C97.6997 260.5 97.6997 260.5 97.5068 260.5L97.7961 259.536H97.989C98.2784 259.632 98.4713 259.632 98.5677 259.536C98.7606 259.536 98.857 259.439 98.9535 259.343C99.0499 259.247 99.2428 258.957 99.5322 258.571C99.6286 258.379 99.8215 258.186 99.918 257.993C100.111 257.896 100.304 257.8 100.497 257.703C100.304 257.607 100.014 257.318 99.918 257.028C99.8215 256.739 99.6286 256.353 99.5322 255.775L99.0499 253.749L100.593 254.135L100.979 256.064C101.075 256.064 101.075 256.064 101.075 256.16C101.075 256.16 101.075 256.353 101.172 256.546C101.268 256.932 101.365 257.125 101.461 257.221C101.558 257.318 101.654 257.414 101.943 257.511L102.618 254.521L103.969 254.907L102.426 261.561ZM96.4459 252.978L94.2276 259.536L92.1058 258.764C91.3343 258.571 90.852 258.282 90.6591 258.186C90.2734 257.993 90.0805 257.607 89.8876 257.221C89.7911 256.835 89.7911 256.353 89.984 255.871C90.0805 255.389 90.2734 255.099 90.4663 254.907C90.7556 254.714 91.0449 254.521 91.2378 254.424C91.5272 254.328 91.8165 254.328 92.0094 254.328C92.3952 254.424 92.8774 254.521 93.4561 254.714L94.3241 255.003L95.0957 252.592L96.4459 252.978ZM93.2632 257.993L93.9383 256.064L93.1667 255.871C92.6845 255.678 92.2987 255.582 92.1058 255.582C91.9129 255.678 91.8165 255.678 91.6236 255.775C91.5272 255.967 91.3343 256.064 91.3343 256.257C91.2378 256.546 91.2378 256.739 91.3343 256.932C91.4307 257.125 91.5272 257.318 91.7201 257.414C91.9129 257.511 92.2023 257.607 92.6845 257.703L93.2632 257.993ZM83.6186 248.445L84.9688 248.927V250.663L87.5729 251.627L88.6338 250.374L89.984 250.952L85.0653 256.353L83.715 255.775L83.6186 248.445ZM84.9688 251.82V254.521L86.7049 252.592L84.9688 251.82ZM81.2074 247.384L78.4105 253.556L77.1567 252.978L79.9537 246.805L81.2074 247.384ZM78.9892 254.521L78.507 255.582L77.4461 255.099L77.9283 254.039L78.9892 254.521ZM77.1567 253.653L76.6745 254.714L75.6136 254.231L76.0958 253.267L77.1567 253.653ZM77.0603 245.455L73.974 251.531L72.7202 250.856L73.974 248.541L71.5629 247.287L70.3091 249.698L69.0553 249.023L72.238 242.947L73.3953 243.526L72.0451 246.226L74.4562 247.48L75.8065 244.78L77.0603 245.455ZM64.0401 238.028L65.2939 238.896L64.9081 240.536L67.2228 241.983L68.573 240.922L69.8268 241.79L63.8472 246.13L62.6898 245.262L64.0401 238.028ZM64.7152 241.693L64.1365 244.394L66.2583 242.754L64.7152 241.693ZM48.5123 231.084L48.7052 231.952C48.3194 231.952 48.0301 232.049 47.6443 232.049C47.5478 232.049 47.4514 232.049 47.4514 232.049C47.4514 232.145 47.5478 232.338 47.8372 232.628C47.9336 232.82 48.0301 233.013 48.1265 233.013L47.3549 233.496C47.162 233.11 46.9692 232.724 46.8727 232.338C46.5834 232.82 46.3905 233.11 46.1976 233.399L45.5225 232.82C45.7154 232.724 46.0047 232.435 46.4869 231.952C46.3905 231.952 46.294 231.952 46.0047 231.856C45.7154 231.759 45.5225 231.663 45.2331 231.567L45.6189 230.795C45.9082 230.988 46.294 231.181 46.6798 231.374V230.602C46.6798 230.409 46.6798 230.313 46.6798 230.12L47.5478 230.313L47.2585 231.47C47.6443 231.374 48.0301 231.181 48.5123 231.084ZM33.0809 220.379L32.02 219.222L33.6596 215.653L30.0911 216.907L29.1267 215.846L34.6241 214.206C35.2028 214.013 35.685 213.917 36.0708 213.917C36.4566 213.917 36.7459 214.11 37.0352 214.399C37.3246 214.689 37.5175 214.978 37.6139 215.171L36.8423 215.846C36.7459 215.653 36.6494 215.557 36.553 215.46C36.2637 215.171 36.0708 215.074 35.8779 215.074C35.7814 214.978 35.4921 215.074 35.1063 215.267L33.0809 220.379ZM27.1013 213.242L26.3297 212.181L28.6444 210.445C28.4515 210.252 28.2586 210.059 28.1622 210.059C27.9693 210.059 27.5835 210.156 27.0049 210.252C26.2333 210.445 25.6546 210.541 25.3653 210.349C24.9795 210.252 24.6902 209.963 24.3044 209.384C24.3044 209.384 24.2079 209.384 24.2079 209.288L24.9795 208.709L25.1724 208.805C25.2688 209.095 25.4617 209.191 25.5582 209.288C25.7511 209.384 25.8475 209.384 26.0404 209.384C26.2333 209.288 26.5226 209.288 26.9084 209.095C27.1977 209.095 27.3906 208.998 27.5835 208.998C27.7764 208.998 27.9693 208.998 28.2586 209.191C28.1622 208.902 28.1622 208.516 28.2586 208.227C28.3551 207.937 28.548 207.552 28.7409 207.069L29.8018 205.237L30.6698 206.491L29.7053 208.227V208.323C29.7053 208.42 29.6089 208.516 29.5124 208.709C29.3196 208.998 29.2231 209.288 29.2231 209.384C29.2231 209.577 29.3196 209.673 29.416 209.866L31.9236 208.13L32.6952 209.288L27.1013 213.242ZM28.1622 203.019L22.3754 206.684L21.2181 204.851C20.7359 204.08 20.543 203.597 20.4465 203.404C20.2536 203.019 20.3501 202.633 20.4465 202.151C20.6394 201.765 20.9288 201.475 21.411 201.09C21.7003 200.897 22.0861 200.8 22.3754 200.8C22.6648 200.704 22.9541 200.8 23.2435 200.897C23.5328 200.993 23.7257 201.09 23.9186 201.283C24.1115 201.572 24.4008 201.958 24.7866 202.44L25.2688 203.212L27.4871 201.861L28.1622 203.019ZM22.6648 204.851L24.3044 203.887L23.9186 203.212C23.6292 202.729 23.3399 202.44 23.2435 202.343C23.0506 202.247 22.8577 202.151 22.6648 202.151C22.4719 202.151 22.279 202.247 22.1826 202.343C21.9897 202.44 21.7968 202.633 21.7968 202.826C21.7003 203.019 21.7003 203.308 21.7968 203.501C21.8932 203.597 21.9897 203.887 22.279 204.369L22.6648 204.851ZM21.1217 191.349L21.8932 192.602L20.8323 193.953L22.1826 196.267L23.8221 195.978L24.5937 197.328L17.3603 198.389L16.5887 197.135L21.1217 191.349ZM20.0607 194.917L18.3247 196.943L21.0252 196.557L20.0607 194.917ZM20.0607 189.034L13.9847 192.12L13.3095 190.866L19.3856 187.78L20.0607 189.034ZM13.7918 193.181L12.8273 193.76L12.2486 192.699L13.3095 192.217L13.7918 193.181ZM12.9238 191.445L11.8628 191.927L11.3806 190.963L12.3451 190.384L12.9238 191.445ZM18.0354 184.887L11.7664 187.684L11.2842 186.43L13.6953 185.273L12.538 182.861L10.1268 183.922L9.54814 182.669L15.8171 179.872L16.3958 181.125L13.5989 182.379L14.7562 184.79L17.4567 183.537L18.0354 184.887ZM12.6344 170.902L13.1166 172.252L11.8628 173.313L12.7309 175.917L14.3704 176.014L14.8527 177.364L7.52278 177.075L7.04055 175.628L12.6344 170.902ZM10.8984 174.085L8.77658 175.821L11.4771 175.917L10.8984 174.085ZM5.11163 155.567L4.72585 156.435C4.43651 156.242 4.14717 156.049 3.85784 155.857C3.76139 155.76 3.76139 155.664 3.66494 155.664C3.66494 155.76 3.66494 155.953 3.66494 156.339C3.66494 156.628 3.66494 156.821 3.5685 156.917L2.79693 156.725C2.79693 156.339 2.98982 155.953 3.08627 155.567C2.60404 155.76 2.21826 155.857 1.92892 155.953L1.73603 155.085C1.92892 155.085 2.41115 155.085 2.98982 154.989C2.98982 154.989 2.89338 154.892 2.79693 154.699C2.60404 154.41 2.41115 154.217 2.3147 153.928L3.08627 153.542C3.18271 153.928 3.37561 154.313 3.5685 154.699L4.05073 154.024C4.14717 153.928 4.24362 153.831 4.34007 153.735L4.91874 154.313L3.95428 155.181C4.34007 155.278 4.72585 155.471 5.11163 155.567ZM0.0964459 137.435V135.892L3.5685 134.253L0 132.902V131.456L5.20808 133.674C5.78675 133.963 6.26898 134.156 6.55832 134.446C6.84766 134.735 7.04055 135.024 7.04055 135.41C7.04055 135.796 7.04055 136.182 6.9441 136.375H5.8832C5.8832 136.182 5.8832 136.085 5.8832 135.892C5.8832 135.603 5.8832 135.314 5.69031 135.217C5.59386 135.024 5.40097 134.928 4.91874 134.831L0.0964459 137.435ZM0 128.177L0.192892 126.826L3.08627 127.019C3.08627 126.73 2.98982 126.537 2.89338 126.344C2.70049 126.248 2.41115 126.055 1.83247 125.765C1.15735 125.476 0.675121 125.187 0.48223 124.801C0.385784 124.512 0.289338 124.029 0.385784 123.451C0.385784 123.451 0.385784 123.354 0.385784 123.258L1.35024 123.354V123.547C1.35024 123.837 1.35024 124.029 1.44669 124.126C1.44669 124.319 1.54313 124.415 1.73603 124.512C1.83247 124.608 2.12181 124.705 2.60404 124.897C2.79693 124.994 2.98982 125.09 3.18271 125.187C3.27916 125.283 3.47205 125.476 3.5685 125.765C3.66494 125.476 3.85784 125.187 4.14717 125.09C4.43651 124.897 4.8223 124.705 5.30452 124.512L7.23344 123.74L7.137 125.283L5.30452 125.958C5.30452 126.055 5.20808 126.055 5.11163 126.055C5.11163 126.055 5.01519 126.151 4.8223 126.248C4.43651 126.344 4.24362 126.537 4.14717 126.633C4.05073 126.73 4.05073 126.826 3.95428 127.116L6.9441 127.309L6.84766 128.755L0 128.177ZM7.42633 121.04L0.675121 120.172L0.868013 117.953C1.0609 117.085 1.15735 116.507 1.2538 116.314C1.35024 115.928 1.63958 115.639 2.02536 115.446C2.41115 115.156 2.89338 115.156 3.37561 115.156C3.76139 115.253 4.14717 115.349 4.43651 115.542C4.6294 115.735 4.91874 115.928 5.01519 116.217C5.11163 116.507 5.20808 116.7 5.20808 116.989C5.30452 117.278 5.20808 117.76 5.11163 118.436L5.01519 119.304L7.61923 119.593L7.42633 121.04ZM1.92892 118.918L3.85784 119.111L3.95428 118.436C4.05073 117.857 4.05073 117.471 4.05073 117.278C3.95428 117.085 3.85784 116.989 3.76139 116.796C3.5685 116.7 3.47205 116.603 3.18271 116.603C2.98982 116.603 2.79693 116.603 2.60404 116.796C2.41115 116.892 2.3147 117.085 2.21826 117.278C2.12181 117.375 2.12181 117.76 2.02536 118.243L1.92892 118.918ZM9.4517 107.537L9.25881 108.984L7.61923 109.273L7.137 112.07L8.58369 112.842L8.29435 114.288L2.02536 110.527L2.21826 109.08L9.4517 107.537ZM6.36543 109.563L3.66494 110.045L6.07609 111.395L6.36543 109.563ZM10.1268 105.03L3.37561 103.486L3.76139 102.136L10.4162 103.679L10.1268 105.03ZM2.60404 104.162L1.54313 103.969L1.73603 102.811L2.89338 103.101L2.60404 104.162ZM3.08627 102.233L1.92892 101.943L2.21826 100.882L3.27916 101.172L3.08627 102.233ZM11.1877 100.497L4.6294 98.6642L5.01519 97.3139L7.61923 98.0855L8.29435 95.4814L5.69031 94.7099L6.07609 93.3596L12.7309 95.2886L12.3451 96.6388L9.4517 95.7708L8.68013 98.3748L11.5735 99.2428L11.1877 100.497ZM16.01 86.3191L15.4313 87.7658H13.7918L12.7309 90.2734L13.9847 91.3343L13.5024 92.781L8.10146 87.7658L8.58369 86.4155L16.01 86.3191ZM12.538 87.6693H9.83748L11.8628 89.5018L12.538 87.6693ZM19.8679 69.8268L19.0963 70.1162C18.9998 69.8268 18.9034 69.441 18.807 69.1517C18.807 69.0553 18.7105 68.9588 18.7105 68.9588C18.7105 68.9588 18.5176 69.1517 18.2283 69.441C18.1318 69.6339 17.9389 69.7304 17.9389 69.8268L17.3603 69.1517C17.6496 68.8624 18.0354 68.6695 18.3247 68.4766C17.8425 68.2837 17.4567 68.0908 17.1674 67.9944L17.5532 67.2228C17.8425 67.3192 18.1318 67.6086 18.6141 67.9944C18.6141 67.8979 18.6141 67.8015 18.7105 67.5121C18.7105 67.2228 18.7105 66.9335 18.807 66.7406L19.5785 66.9335C19.4821 67.2228 19.3856 67.6086 19.1927 68.0908L20.0607 67.8979C20.2536 67.8979 20.3501 67.8015 20.4465 67.8015L20.543 68.6695H19.2892C19.4821 69.0553 19.675 69.3446 19.8679 69.8268ZM29.416 50.2483L30.3805 49.091L34.1418 50.1519L32.3094 46.7763L33.2738 45.7154L35.685 50.9234C35.9743 51.4057 36.1672 51.8879 36.1672 52.2737C36.2637 52.6595 36.0708 53.0452 35.8779 53.3346C35.5885 53.7204 35.2992 53.9133 35.1063 54.0097L34.3347 53.3346C34.5276 53.2381 34.6241 53.0452 34.7205 52.9488C34.9134 52.7559 35.0099 52.563 35.0099 52.3701C35.0099 52.1772 34.9134 51.8879 34.7205 51.5021L29.416 50.2483ZM35.2992 43.5935L36.2637 42.5326L38.3855 44.558C38.4819 44.2687 38.5784 44.0758 38.5784 43.9793C38.5784 43.7864 38.4819 43.4007 38.1926 42.822C37.8068 42.1469 37.7103 41.5682 37.8068 41.2788C37.8068 40.8931 38.0961 40.5073 38.4819 40.1215C38.5784 40.025 38.5784 40.025 38.6748 39.9286L39.4464 40.6037L39.2535 40.7966C39.0606 40.9895 38.9641 41.1824 38.8677 41.2788C38.8677 41.4717 38.8677 41.5682 38.9641 41.7611C38.9641 41.8575 39.0606 42.1469 39.3499 42.6291C39.4464 42.822 39.5428 43.0149 39.5428 43.2078C39.6393 43.4007 39.6393 43.5935 39.5428 43.8829C39.8322 43.7864 40.1215 43.69 40.4108 43.69C40.7966 43.7864 41.1824 43.8829 41.6646 43.9793L43.69 44.6545L42.5326 45.8118L40.7002 45.2331C40.7002 45.1367 40.7002 45.1367 40.6037 45.1367C40.5073 45.1367 40.4108 45.1367 40.2179 45.0402C39.8322 44.9438 39.6393 44.9438 39.4464 44.9438C39.3499 44.9438 39.157 45.0402 39.0606 45.2331L41.1824 47.2585L40.2179 48.3194L35.2992 43.5935ZM45.7154 42.822L40.9895 37.8068L42.5326 36.2637C43.2078 35.685 43.5935 35.3956 43.7864 35.2028C44.1722 35.0099 44.558 35.0099 44.9438 35.0099C45.426 35.1063 45.8118 35.2992 46.1976 35.7814C46.4869 36.0708 46.6798 36.3601 46.7763 36.6494C46.8727 36.9388 46.8727 37.2281 46.7763 37.5175C46.7763 37.8068 46.6798 38.0961 46.4869 38.289C46.294 38.5784 46.0047 38.8677 45.5225 39.3499L44.8473 39.9286L46.6798 41.8575L45.7154 42.822ZM42.7255 37.7103L44.0758 39.157L44.6545 38.5784C45.0402 38.1926 45.2331 37.9032 45.3296 37.8068C45.426 37.6139 45.426 37.421 45.426 37.2281C45.426 37.0352 45.3296 36.8423 45.1367 36.7459C45.0402 36.553 44.8473 36.4566 44.558 36.4566C44.3651 36.4566 44.1722 36.4566 43.9793 36.553C43.8829 36.6494 43.5935 36.9388 43.2078 37.2281L42.7255 37.7103ZM56.0351 33.949L54.8777 34.817L53.431 34.0454L51.2128 35.685L51.7914 37.2281L50.6341 38.1926L48.5123 31.152L49.6696 30.284L56.0351 33.949ZM52.3701 33.3703L50.0554 31.9236L50.827 34.5276L52.3701 33.3703ZM58.0604 32.4058L54.1062 26.812L55.2635 26.0404L59.2178 31.5378L58.0604 32.4058ZM53.0452 26.812L52.3701 25.8475L53.3346 25.2688L54.0097 26.1368L53.0452 26.812ZM54.6848 25.6546L54.0097 24.6902L54.9742 24.1115L55.6493 24.9795L54.6848 25.6546ZM61.8218 29.7053L58.1569 23.9186L59.3142 23.2435L60.7609 25.4617L63.0756 24.015L61.6289 21.7968L62.7863 21.0252L66.4512 26.7155L65.2939 27.4871L63.6543 24.9795L61.436 26.4262L62.9792 28.9338L61.8218 29.7053ZM74.6491 21.9897L73.3953 22.7612L72.1415 21.7003L69.7304 23.0506L70.0197 24.6902L68.7659 25.4617L67.6086 18.1318L68.9588 17.4567L74.6491 21.9897ZM71.1771 20.9288L69.0553 19.1927L69.5375 21.7968L71.1771 20.9288ZM88.6338 12.0557L87.7658 11.7664C87.8622 11.4771 88.0551 11.1877 88.1516 10.8984C88.248 10.8019 88.248 10.7055 88.248 10.7055C88.248 10.7055 87.9587 10.7055 87.5729 10.7055C87.38 10.8019 87.1871 10.8019 87.0906 10.8019V9.93393C87.4764 9.93393 87.9587 9.93393 88.248 10.0304C88.0551 9.64459 87.8622 9.25881 87.7658 8.96947L88.5373 8.68013C88.6338 8.87302 88.7302 9.25881 88.8267 9.93393C88.9231 9.83748 89.0196 9.74104 89.116 9.54814C89.4054 9.35525 89.5982 9.16236 89.7911 9.06591L90.2734 9.74104C89.984 9.93393 89.5982 10.1268 89.2125 10.3197L89.984 10.8019C90.0805 10.8984 90.1769 10.8984 90.2734 10.9948L89.7911 11.67L88.8267 10.8984C88.8267 11.2842 88.7302 11.67 88.6338 12.0557ZM105.705 4.05073L107.248 3.85784L109.37 7.04055L110.141 3.27916L111.588 3.08627L110.141 8.58369C110.045 9.16236 109.852 9.64459 109.659 9.93393C109.466 10.3197 109.177 10.5126 108.695 10.609C108.309 10.7055 108.019 10.7055 107.73 10.7055L107.634 9.64459C107.827 9.64459 107.923 9.64459 108.116 9.54814C108.405 9.54814 108.695 9.4517 108.791 9.25881C108.887 9.16236 108.984 8.87302 108.984 8.48724L105.705 4.05073ZM114.481 2.70049L115.832 2.50759L116.217 5.40097C116.507 5.30452 116.7 5.20808 116.796 5.11163C116.892 4.91874 116.989 4.53296 117.182 3.95428C117.375 3.18271 117.568 2.70049 117.857 2.50759C118.146 2.21826 118.532 2.12181 119.207 2.02536C119.207 2.02536 119.304 2.02536 119.4 2.02536L119.496 2.98982H119.304C119.014 3.08627 118.821 3.08627 118.725 3.18271C118.628 3.27916 118.532 3.37561 118.436 3.5685C118.436 3.76139 118.339 4.05073 118.243 4.53296C118.146 4.72585 118.05 4.91874 118.05 5.11163C117.953 5.30452 117.76 5.49742 117.568 5.59386C117.857 5.69031 118.146 5.78675 118.339 6.07609C118.628 6.26898 118.918 6.65477 119.207 7.04055L120.364 8.77658L118.725 9.06591L117.664 7.42633C117.664 7.32989 117.664 7.32989 117.568 7.23344C117.568 7.23344 117.471 7.137 117.375 6.9441C117.182 6.65477 116.989 6.46188 116.892 6.36543C116.796 6.26898 116.603 6.26898 116.314 6.26898L116.7 9.25881L115.349 9.4517L114.481 2.70049ZM123.065 8.68013L122.486 1.83247L124.705 1.73603C125.573 1.63958 126.151 1.63958 126.344 1.63958C126.826 1.73603 127.116 1.92892 127.405 2.3147C127.694 2.60404 127.887 2.98982 127.887 3.5685C127.984 3.95428 127.887 4.34007 127.791 4.6294C127.598 4.91874 127.501 5.20808 127.212 5.40097C127.019 5.49742 126.826 5.69031 126.537 5.69031C126.248 5.78675 125.765 5.8832 125.09 5.97965H124.222L124.415 8.58369L123.065 8.68013ZM124.029 2.89338L124.126 4.8223H124.897C125.476 4.72585 125.765 4.72585 125.958 4.6294C126.151 4.53296 126.248 4.43651 126.344 4.24362C126.441 4.05073 126.537 3.85784 126.537 3.66494C126.441 3.47205 126.344 3.27916 126.248 3.08627C126.055 2.98982 125.862 2.89338 125.669 2.79693C125.476 2.79693 125.187 2.79693 124.705 2.89338H124.029ZM136.664 8.48724H135.121L134.638 6.84766H131.842L131.263 8.39079L129.816 8.29435L132.613 1.54313H134.06L136.664 8.48724ZM134.156 5.69031L133.288 3.18271L132.324 5.69031H134.156ZM139.268 8.58369L139.75 1.73603L141.197 1.83247L140.618 8.68013L139.268 8.58369ZM138.882 1.0609L138.979 0L140.136 0.0964459L140.039 1.15735L138.882 1.0609ZM140.907 1.2538L141.004 0.0964459L142.161 0.192892L142.065 1.35024L140.907 1.2538ZM143.801 8.87302L144.669 2.12181L146.116 2.3147L145.73 5.01519L148.43 5.30452L148.72 2.60404L150.166 2.79693L149.298 9.64459L147.852 9.4517L148.237 6.46188L145.633 6.17254L145.248 9.06591L143.801 8.87302ZM158.654 11.1877L157.207 10.8984L156.917 9.25881L154.121 8.87302L153.349 10.2233L151.902 10.0304L155.664 3.76139L157.11 3.95428L158.654 11.1877ZM156.628 8.10146L156.146 5.40097L154.796 7.71567L156.628 8.10146ZM175.724 12.3451L175.242 11.67C175.532 11.4771 175.821 11.2842 176.207 11.1877C176.303 11.1877 176.4 11.0913 176.4 11.0913C176.303 11.0913 176.11 10.8984 175.821 10.7055C175.628 10.5126 175.435 10.4162 175.435 10.4162L176.014 9.74104C176.303 10.0304 176.592 10.3197 176.785 10.609C176.882 10.1268 176.978 9.74104 177.171 9.4517L177.943 9.74104C177.846 9.93393 177.653 10.3197 177.364 10.8984C177.364 10.8984 177.557 10.8019 177.75 10.8019C178.039 10.8019 178.328 10.8019 178.618 10.8019L178.521 11.67C178.136 11.67 177.75 11.5735 177.364 11.4771L177.653 12.2486C177.653 12.4415 177.75 12.538 177.75 12.6344L176.882 12.8273L176.689 11.67C176.4 11.8628 176.11 12.1522 175.724 12.3451ZM193.953 17.1674L195.303 17.9389L194.917 21.7968L197.907 19.3856L199.161 20.0607L194.531 23.4364C194.049 23.8221 193.663 24.1115 193.278 24.2079C192.892 24.3044 192.506 24.3044 192.12 24.1115C191.831 23.8221 191.542 23.7257 191.349 23.5328L191.831 22.6648C192.024 22.7612 192.217 22.8577 192.313 22.9541C192.602 23.0506 192.795 23.147 192.988 23.147C193.181 23.0506 193.47 22.9541 193.76 22.6648L193.953 17.1674ZM201.668 21.6039L202.826 22.3754L201.283 24.883C201.572 24.9795 201.765 25.0759 201.958 24.9795C202.054 24.9795 202.44 24.6902 202.922 24.4008C203.597 23.9186 204.08 23.6292 204.369 23.6292C204.755 23.6292 205.14 23.8221 205.719 24.2079C205.719 24.2079 205.816 24.2079 205.912 24.3044L205.333 25.1724L205.14 25.0759C204.948 24.883 204.755 24.7866 204.562 24.7866C204.465 24.7866 204.272 24.7866 204.176 24.883C203.983 24.9795 203.694 25.1724 203.404 25.4617C203.212 25.5582 203.019 25.7511 202.826 25.7511C202.633 25.8475 202.44 25.9439 202.151 25.8475C202.344 26.1368 202.44 26.4262 202.536 26.7155C202.536 27.1013 202.536 27.4871 202.44 28.0658L202.247 30.0911L200.897 29.2231L201.09 27.2942V27.1977C201.09 27.1013 201.09 27.0049 201.186 26.812C201.186 26.4262 201.186 26.1368 201.09 26.0404C201.09 25.8475 200.993 25.7511 200.8 25.6546L199.161 28.1622L198.003 27.3906L201.668 21.6039ZM204.369 31.7307L208.323 26.1368L210.156 27.3906C210.831 27.8729 211.313 28.2586 211.409 28.4515C211.699 28.7409 211.892 29.1267 211.892 29.6089C211.892 29.9947 211.699 30.4769 211.409 30.8627C211.217 31.2485 210.927 31.4414 210.638 31.6343C210.349 31.7307 210.059 31.8271 209.77 31.8271C209.48 31.8271 209.191 31.8271 208.998 31.7307C208.709 31.5378 208.227 31.3449 207.744 30.9591L207.069 30.3805L205.526 32.5023L204.369 31.7307ZM208.805 27.8729L207.744 29.5124L208.323 29.8982C208.709 30.1876 209.095 30.3805 209.288 30.4769C209.48 30.4769 209.673 30.4769 209.77 30.4769C209.963 30.3805 210.156 30.284 210.252 30.0911C210.349 29.8982 210.445 29.7053 210.445 29.416C210.445 29.2231 210.349 29.0302 210.156 28.8373C210.059 28.7409 209.77 28.548 209.384 28.2586L208.805 27.8729ZM214.978 40.2179L213.917 39.2535L214.496 37.7103L212.374 35.8779L210.927 36.7459L209.866 35.7814L216.328 32.3094L217.389 33.2738L214.978 40.2179ZM214.881 36.553L215.846 33.949L213.435 35.2992L214.881 36.553ZM216.907 42.0504L221.633 37.0352L222.694 37.9997L217.968 42.9184L216.907 42.0504ZM221.44 35.9743L222.211 35.2028L222.983 35.9743L222.211 36.7459L221.44 35.9743ZM222.886 37.3246L223.658 36.553L224.526 37.3246L223.754 38.1926L222.886 37.3246ZM220.282 45.2331L225.201 40.5073L226.166 41.4717L224.237 43.3042L226.069 45.3296L227.998 43.4007L228.963 44.4616L224.044 49.1874L223.079 48.1265L225.201 46.1011L223.369 44.1722L221.247 46.1976L220.282 45.2331ZM230.313 56.3244L229.252 55.1671L230.12 53.7204L228.287 51.695L226.744 52.2737L225.78 51.1163L232.724 48.7052L233.688 49.7661L230.313 56.3244ZM230.699 52.6595L231.952 50.2483L229.445 51.2128L230.699 52.6595ZM242.561 68.0908L242.658 67.2228C243.044 67.3192 243.333 67.4157 243.622 67.5121C243.815 67.5121 243.912 67.5121 243.912 67.6086C243.912 67.5121 243.815 67.2228 243.719 66.9335C243.622 66.6441 243.622 66.4512 243.526 66.3548L244.394 66.2583C244.49 66.6441 244.49 67.0299 244.49 67.4157C244.876 67.1263 245.262 66.837 245.551 66.7406L245.937 67.4157C245.744 67.5121 245.358 67.705 244.78 67.8979C244.78 67.9944 244.973 68.0908 245.165 68.1873C245.358 68.3801 245.648 68.573 245.841 68.6695L245.165 69.3446C244.973 69.0553 244.683 68.7659 244.394 68.3801L244.105 69.2482C244.105 69.3446 244.008 69.5375 244.008 69.6339L243.237 69.2482L243.815 68.1873C243.429 68.1873 243.044 68.1873 242.561 68.0908ZM254.81 86.1262L255.292 87.5729L252.495 90.2734L256.257 90.3698L256.739 91.8165L251.049 91.2378C250.47 91.1414 249.988 91.0449 249.602 90.9485C249.216 90.7556 249.023 90.4663 248.83 90.0805C248.734 89.6947 248.638 89.4054 248.638 89.116L249.602 88.8267C249.698 89.0196 249.698 89.2125 249.795 89.3089C249.891 89.5982 249.988 89.8876 250.181 89.8876C250.277 89.984 250.566 90.0805 250.952 90.0805L254.81 86.1262ZM257.607 94.517L257.993 95.8672L255.196 96.7352C255.292 97.0246 255.485 97.121 255.582 97.2175C255.775 97.3139 256.16 97.4104 256.739 97.4104C257.607 97.5068 258.089 97.6033 258.379 97.8926C258.571 98.0855 258.861 98.5677 258.957 99.1464C258.957 99.1464 259.054 99.2428 259.054 99.3393L258.089 99.6286L257.993 99.4357C257.896 99.1464 257.8 98.9535 257.703 98.857C257.607 98.7606 257.511 98.6642 257.318 98.6642C257.221 98.5677 256.835 98.5677 256.353 98.5677C256.16 98.4713 255.967 98.4713 255.775 98.4713C255.582 98.3748 255.389 98.2784 255.196 98.0855C255.196 98.3748 255.099 98.6642 254.907 98.9535C254.714 99.1464 254.424 99.5322 253.942 99.8215L252.399 101.268L252.013 99.7251L253.46 98.4713L253.556 98.3748C253.556 98.2784 253.653 98.1819 253.846 98.0855C254.135 97.7961 254.328 97.6033 254.328 97.5068C254.424 97.3139 254.328 97.2175 254.328 96.9281L251.434 97.7961L251.049 96.4459L257.607 94.517ZM253.074 103.872L259.729 102.329L260.211 104.547C260.404 105.319 260.5 105.898 260.5 106.187C260.5 106.573 260.404 106.959 260.115 107.248C259.825 107.634 259.439 107.827 258.861 107.923C258.475 108.019 258.089 108.019 257.8 107.923C257.511 107.923 257.221 107.73 257.028 107.537C256.835 107.344 256.643 107.151 256.546 106.959C256.353 106.573 256.257 106.187 256.064 105.512L255.871 104.644L253.363 105.222L253.074 103.872ZM258.957 103.969L257.028 104.451L257.221 105.126C257.318 105.705 257.414 105.994 257.511 106.187C257.703 106.38 257.8 106.476 257.993 106.573C258.186 106.573 258.379 106.573 258.571 106.573C258.764 106.476 258.957 106.38 259.054 106.187C259.247 105.994 259.247 105.801 259.247 105.608C259.247 105.415 259.247 105.126 259.054 104.644L258.957 103.969ZM255.678 117.278L255.389 115.832L256.835 114.964L256.353 112.263L254.714 111.974L254.424 110.527L261.658 111.974L261.947 113.42L255.678 117.278ZM257.896 114.288L260.211 112.938L257.607 112.456L257.896 114.288ZM255.871 119.882L262.719 119.4L262.815 120.75L255.967 121.232L255.871 119.882ZM263.297 118.436L264.358 118.339L264.455 119.496H263.394L263.297 118.436ZM263.394 120.461L264.551 120.364L264.648 121.425L263.49 121.522L263.394 120.461ZM256.353 124.415L263.201 124.319V125.669L260.5 125.765L260.597 128.466L263.297 128.369V129.72L256.45 129.913V128.562L259.439 128.466L259.343 125.765L256.353 125.862V124.415ZM256.45 139.461V137.918L257.993 137.435L258.089 134.638L256.546 134.06V132.613L263.394 135.41L263.297 136.857L256.45 139.461ZM259.15 136.953L261.754 136.085L259.247 135.121L259.15 136.953ZM258.089 156.339L258.764 155.76C259.054 156.049 259.247 156.242 259.439 156.532C259.439 156.628 259.536 156.725 259.536 156.725C259.536 156.725 259.632 156.532 259.825 156.146C259.922 155.857 260.018 155.76 260.018 155.664L260.79 156.049C260.597 156.435 260.307 156.725 260.115 157.014C260.597 157.014 260.983 157.11 261.272 157.11L261.176 157.978C260.983 157.882 260.5 157.785 259.922 157.593C260.018 157.689 260.018 157.785 260.115 158.075C260.115 158.364 260.211 158.654 260.211 158.846L259.343 158.943C259.343 158.557 259.343 158.171 259.343 157.785L258.668 158.171C258.475 158.268 258.379 158.364 258.282 158.364L257.896 157.593L259.054 157.207C258.764 156.917 258.475 156.628 258.089 156.339ZM255.678 177.943L255.099 179.389L251.145 179.582L253.942 182.09L253.46 183.44L249.409 179.389C249.023 179.004 248.734 178.618 248.541 178.232C248.348 177.846 248.348 177.46 248.541 177.075C248.638 176.785 248.83 176.496 248.927 176.303L249.891 176.592C249.795 176.785 249.698 176.978 249.698 177.075C249.506 177.46 249.506 177.653 249.602 177.846C249.602 178.039 249.795 178.232 250.181 178.425L255.678 177.943ZM252.302 186.237L251.724 187.491L249.023 186.237C248.927 186.526 248.927 186.816 249.023 186.912C249.12 187.105 249.313 187.394 249.795 187.78C250.277 188.359 250.663 188.841 250.663 189.227C250.759 189.516 250.566 189.998 250.374 190.577C250.374 190.577 250.277 190.674 250.277 190.77L249.313 190.288L249.409 190.191C249.506 189.902 249.602 189.709 249.602 189.516C249.602 189.42 249.506 189.227 249.409 189.13C249.313 188.938 249.12 188.745 248.734 188.455C248.541 188.262 248.445 188.07 248.348 187.973C248.252 187.78 248.155 187.587 248.155 187.298C247.962 187.491 247.673 187.684 247.384 187.78C246.998 187.78 246.612 187.877 246.033 187.877L243.912 187.973L244.587 186.43H246.612C246.612 186.43 246.612 186.43 246.709 186.43C246.805 186.43 246.902 186.43 247.094 186.43C247.48 186.43 247.77 186.333 247.866 186.333C247.962 186.237 248.059 186.044 248.155 185.851L245.455 184.597L246.033 183.344L252.302 186.237ZM242.658 190.384L248.734 193.47L247.77 195.399C247.384 196.171 247.094 196.653 246.902 196.846C246.612 197.135 246.323 197.328 245.841 197.425C245.455 197.521 244.973 197.425 244.49 197.135C244.105 196.943 243.815 196.75 243.719 196.46C243.526 196.171 243.333 195.978 243.333 195.689C243.333 195.399 243.333 195.11 243.333 194.917C243.429 194.531 243.622 194.146 243.912 193.567L244.394 192.795L242.079 191.542L242.658 190.384ZM247.094 194.146L245.358 193.278L245.069 193.953C244.78 194.435 244.683 194.821 244.683 195.014C244.587 195.207 244.683 195.303 244.78 195.496C244.876 195.689 244.973 195.785 245.165 195.882C245.358 195.978 245.551 196.075 245.841 195.978C246.033 195.882 246.226 195.785 246.323 195.592C246.419 195.496 246.612 195.207 246.805 194.724L247.094 194.146ZM235.81 202.054L236.582 200.8L238.221 201.186L239.765 198.871L238.704 197.521L239.572 196.267L243.815 202.247L243.044 203.501L235.81 202.054ZM239.475 201.475L242.079 201.958L240.44 199.836L239.475 201.475ZM234.364 204.272L239.957 208.227L239.089 209.288L233.496 205.333L234.364 204.272ZM240.922 207.841L241.886 208.516L241.211 209.384L240.343 208.709L240.922 207.841ZM239.765 209.48L240.729 210.156L240.054 211.024L239.089 210.349L239.765 209.48ZM231.663 207.937L237.064 212.181L236.196 213.338L234.074 211.602L232.435 213.724L234.556 215.46L233.688 216.521L228.287 212.277L229.155 211.217L231.47 213.049L233.206 210.927L230.795 209.095L231.663 207.937ZM222.115 219.511L223.079 218.354L224.623 218.932L226.455 216.81L225.587 215.364L226.551 214.303L230.023 220.765L229.059 221.922L222.115 219.511ZM225.78 219.318L228.287 220.282L227.034 217.968L225.78 219.318ZM212.181 233.399H213.049C213.049 233.688 213.049 234.074 212.953 234.364C212.953 234.46 212.953 234.556 212.953 234.653C213.049 234.556 213.242 234.46 213.531 234.364C213.821 234.267 214.013 234.171 214.013 234.171L214.303 234.942C213.917 235.039 213.531 235.135 213.145 235.232C213.531 235.521 213.821 235.81 214.013 236.1L213.338 236.582C213.242 236.389 212.953 236.1 212.663 235.521C212.663 235.617 212.567 235.714 212.47 235.907C212.374 236.196 212.181 236.485 212.085 236.678L211.409 236.196C211.602 235.907 211.892 235.617 212.181 235.232L211.313 235.039C211.217 235.039 211.024 235.039 210.927 234.942L211.217 234.171L212.374 234.653C212.277 234.267 212.277 233.785 212.181 233.399ZM198.775 246.516L197.328 247.287L194.242 244.973L194.821 248.734L193.567 249.506L192.988 243.815C192.892 243.237 192.892 242.754 192.988 242.369C193.085 241.983 193.278 241.597 193.663 241.404C194.049 241.211 194.338 241.115 194.531 241.018L195.014 241.886C194.917 241.983 194.724 242.079 194.531 242.176C194.338 242.369 194.146 242.465 194.049 242.658C194.049 242.851 194.049 243.14 194.146 243.526L198.775 246.516ZM190.674 251.049L189.42 251.627L188.166 248.927C187.973 249.12 187.78 249.313 187.684 249.409C187.684 249.602 187.684 249.988 187.684 250.566C187.78 251.434 187.684 251.917 187.491 252.206C187.298 252.495 186.912 252.785 186.333 253.074C186.333 253.074 186.237 253.074 186.141 253.17L185.755 252.206L185.948 252.11C186.141 252.013 186.333 251.917 186.43 251.82C186.526 251.627 186.623 251.531 186.623 251.338C186.623 251.145 186.623 250.856 186.526 250.374C186.526 250.181 186.526 249.891 186.526 249.698C186.623 249.602 186.719 249.313 186.816 249.12C186.526 249.12 186.237 249.12 185.948 248.927C185.658 248.83 185.273 248.541 184.887 248.155L183.247 246.902L184.694 246.226L186.237 247.48C186.237 247.48 186.237 247.48 186.333 247.577C186.333 247.577 186.43 247.673 186.623 247.77C186.912 248.059 187.105 248.155 187.298 248.155C187.394 248.252 187.587 248.155 187.78 248.059L186.623 245.358L187.877 244.78L190.674 251.049ZM180.836 248.059L183.344 254.424L181.222 255.196C180.45 255.485 179.968 255.678 179.679 255.678C179.293 255.775 178.907 255.678 178.521 255.389C178.136 255.196 177.846 254.81 177.653 254.328C177.46 253.942 177.46 253.556 177.46 253.267C177.557 252.978 177.653 252.688 177.75 252.399C177.943 252.206 178.136 252.013 178.328 251.82C178.618 251.724 179.004 251.434 179.582 251.242L180.45 250.952L179.486 248.541L180.836 248.059ZM181.608 253.846L180.836 252.013L180.161 252.302C179.679 252.495 179.389 252.688 179.196 252.785C179.1 252.881 179.004 253.074 178.907 253.267C178.907 253.46 178.907 253.653 179.004 253.846C179.1 254.039 179.196 254.231 179.389 254.328C179.582 254.424 179.775 254.424 180.064 254.424C180.161 254.328 180.547 254.231 180.933 254.039L181.608 253.846ZM168.009 252.688L169.455 252.206L170.516 253.46L173.12 252.592V250.952L174.471 250.47L174.181 257.8L172.831 258.282L168.009 252.688ZM171.288 254.424L173.024 256.546V253.846L171.288 254.424ZM165.501 253.363L167.334 259.922L166.08 260.307L164.151 253.749L165.501 253.363ZM168.395 260.307L168.684 261.368L167.623 261.658L167.334 260.597L168.395 260.307ZM166.466 260.886L166.755 261.947L165.694 262.236L165.405 261.175L166.466 260.886ZM161.065 254.521L162.608 261.175L161.258 261.465L160.679 258.861L157.978 259.439L158.654 262.14L157.303 262.429L155.76 255.775L157.11 255.389L157.785 258.379L160.39 257.703L159.714 254.81L161.065 254.521ZM146.308 257.125L147.755 256.932L148.527 258.379L151.324 258.089L151.613 256.45L153.156 256.257L151.324 263.394L149.877 263.587L146.308 257.125ZM149.202 259.536L150.456 261.851L151.034 259.247L149.202 259.536ZM129.913 261.658L130.588 262.236C130.298 262.429 130.106 262.719 129.816 262.912C129.72 263.008 129.72 263.104 129.623 263.104C129.72 263.104 129.913 263.201 130.298 263.297C130.588 263.297 130.781 263.394 130.877 263.394L130.491 264.262C130.106 264.069 129.816 263.876 129.43 263.683C129.527 264.165 129.527 264.551 129.527 264.937H128.755C128.755 264.648 128.755 264.262 128.852 263.683C128.852 263.683 128.659 263.683 128.466 263.78C128.177 263.972 127.887 264.069 127.694 264.165L127.501 263.297C127.791 263.201 128.177 263.104 128.659 263.104L128.177 262.429C127.984 262.333 127.887 262.236 127.887 262.14L128.562 261.658L129.238 262.719C129.43 262.429 129.623 262.044 129.913 261.658Z" transform="translate(55.9478 54.0189)" fill="#FEFEFE"/>
<path fill-rule="evenodd" clip-rule="evenodd" d="M187.5 8.50556C88.6441 8.50556 8.50556 88.6441 8.50556 187.5C8.50556 286.356 88.6441 366.494 187.5 366.494C286.356 366.494 366.494 286.356 366.494 187.5C366.494 88.6441 286.356 8.50556 187.5 8.50556ZM0 187.5C0 83.9466 83.9466 0 187.5 0C291.053 0 375 83.9466 375 187.5C375 291.053 291.053 375 187.5 375C83.9466 375 0 291.053 0 187.5Z" />
</g></svg>
