<svg width="375" height="375" viewBox="0 0 375 375" id="pechat" fill="none" xmlns="http://www.w3.org/2000/svg">
<g id="segment" class="segment"><path d="M375 187.5H367.259V178.469L366.399 169.008L365.539 160.407L363.819 151.376L361.669 142.775L359.518 134.174L356.508 125.573L353.498 117.403L349.627 109.662L345.757 101.921L341.456 94.18L336.726 86.8693L331.565 79.9885L326.405 73.1078L320.814 66.6571L314.794 60.6365L308.343 54.6158L301.892 49.0252L295.011 43.4346L288.131 38.2741L280.82 33.9736L273.509 29.2431L265.768 25.3727L257.597 21.9323L249.427 18.492L241.256 15.9117L232.655 13.3314L224.054 11.6112L215.023 9.89106L205.992 8.60092L196.961 8.17087L187.5 7.74083V0L197.391 0.430046L206.852 0.860092L216.313 2.15023L225.344 3.87041L234.375 6.02064L243.406 8.60092L252.007 11.1812L260.608 14.6216L268.779 18.492L276.95 22.7924L284.69 27.0929L292.431 32.2534L299.742 37.414L307.053 43.0046L313.933 48.5952L320.384 55.0459L326.405 61.4966L332.425 68.3773L338.016 75.258L343.177 82.5688L347.907 90.3096L352.638 98.0505L356.508 106.221L360.378 114.392L363.819 122.993L366.829 132.024L369.409 140.625L371.56 149.656L372.85 159.117L374.14 168.578L375 178.039V187.5ZM187.5 375V367.259H196.961L205.992 366.399L215.023 365.539L224.054 363.819L232.655 361.669L241.256 359.518L249.427 356.508L257.597 353.498L265.768 349.627L273.509 345.757L280.82 341.456L288.131 336.726L295.011 331.565L301.892 326.405L308.343 320.814L314.794 314.794L320.814 308.343L326.405 301.892L331.565 295.011L336.726 288.131L341.456 280.82L345.757 273.509L349.627 265.768L353.498 257.597L356.508 249.427L359.518 241.256L361.669 232.655L363.819 224.054L365.539 215.023L366.399 205.992L367.259 196.961V187.5H375V197.391L374.14 206.852L372.85 216.313L371.56 225.344L369.409 234.375L366.829 243.406L363.819 252.007L360.378 260.608L356.508 268.779L352.638 276.95L347.907 284.69L343.177 292.431L338.016 299.742L332.425 307.053L326.405 313.933L320.384 320.384L313.933 326.405L307.053 332.425L299.742 338.016L292.431 343.177L284.69 347.907L276.95 352.638L268.779 356.508L260.608 360.378L252.007 363.819L243.406 366.829L234.375 369.409L225.344 371.56L216.313 372.85L206.852 374.14L197.391 375H187.5ZM0 187.5H7.74083L8.17087 196.961L8.60092 205.992L9.89106 215.023L11.1812 224.054L13.3314 232.655L15.9117 241.256L18.492 249.427L21.9323 257.597L25.3727 265.768L29.2431 273.509L33.9736 280.82L38.2741 288.131L43.4346 295.011L48.5952 301.892L54.6158 308.343L60.2064 314.794L66.6571 320.814L73.1078 326.405L79.9885 331.565L86.8693 336.726L94.18 341.456L101.921 345.757L109.662 349.627L117.403 353.498L125.573 356.508L134.174 359.518L142.775 361.669L151.376 363.819L160.407 365.539L169.008 366.399L178.469 367.259H187.5V375H178.039L168.578 374.14L159.117 372.85L149.656 371.56L140.625 369.409L132.024 366.829L122.993 363.819L114.392 360.378L106.221 356.508L98.0505 352.638L90.3096 347.907L82.5688 343.177L75.258 338.016L68.3773 332.425L61.4966 326.405L55.0459 320.384L48.5952 313.933L43.0046 307.053L37.414 299.742L32.2534 292.431L27.0929 284.69L22.7924 276.95L18.492 268.779L14.6216 260.608L11.1812 252.007L8.60092 243.406L6.02064 234.375L3.87041 225.344L2.15023 216.313L0.860092 206.852L0.430046 197.391L0 187.5ZM187.5 0V7.74083L178.469 8.17087L169.008 8.60092L160.407 9.89106L151.376 11.6112L142.775 13.3314L134.174 15.9117L125.573 18.492L117.403 21.9323L109.662 25.3727L101.921 29.2431L94.18 33.9736L86.8693 38.2741L79.9885 43.4346L73.1078 49.0252L66.6571 54.6158L60.2064 60.6365L54.6158 66.6571L48.5952 73.1078L43.4346 79.9885L38.2741 86.8693L33.9736 94.18L29.2431 101.921L25.3727 109.662L21.9323 117.403L18.492 125.573L15.9117 134.174L13.3314 142.775L11.1812 151.376L9.89106 160.407L8.60092 169.008L8.17087 178.469L7.74083 187.5H0L0.430046 178.039L0.860092 168.578L2.15023 159.117L3.87041 149.656L6.02064 140.625L8.60092 132.024L11.1812 122.993L14.6216 114.392L18.492 106.221L22.7924 98.0505L27.0929 90.3096L32.2534 82.5688L37.414 75.258L43.0046 68.3773L48.5952 61.4966L55.0459 55.0459L61.4966 48.5952L68.3773 43.0046L75.258 37.414L82.5688 32.2534L90.3096 27.0929L98.0505 22.7924L106.221 18.492L114.392 14.6216L122.993 11.1812L132.024 8.60092L140.625 6.02064L149.656 3.87041L159.117 2.15023L168.578 0.860092L178.039 0.430046L187.5 0Z" />
<path fill-rule="evenodd" clip-rule="evenodd" d="M173.952 3.86798C80.0173 3.86798 3.86798 80.0173 3.86798 173.952C3.86798 267.887 80.0173 344.037 173.952 344.037C267.887 344.037 344.037 267.887 344.037 173.952C344.037 80.0173 267.887 3.86798 173.952 3.86798ZM0 173.952C0 77.8811 77.8811 0 173.952 0C270.024 0 347.905 77.8811 347.905 173.952C347.905 270.024 270.024 347.905 173.952 347.905C77.8811 347.905 0 270.024 0 173.952Z" transform="translate(13.5476 13.5477)" />
<path fill-rule="evenodd" clip-rule="evenodd" d="M132.668 3.86798C61.5337 3.86798 3.86798 61.5337 3.86798 132.668C3.86798 203.802 61.5337 261.468 132.668 261.468C203.802 261.468 261.468 203.802 261.468 132.668C261.468 61.5337 203.802 3.86798 132.668 3.86798ZM0 132.668C0 59.3975 59.3975 0 132.668 0C205.938 0 265.336 59.3975 265.336 132.668C265.336 205.938 205.938 265.336 132.668 265.336C59.3975 265.336 0 205.938 0 132.668Z" transform="translate(54.832 54.8321)" />
<path d="M117.833 4.7305L119.983 3.87041L128.154 15.0516L130.304 1.72018L132.454 1.29014L129.874 18.0619C129.444 19.7821 129.014 21.5023 128.584 21.9323C128.154 22.7924 127.724 23.2225 126.864 23.6525C126.003 23.6525 125.573 23.6525 124.713 23.6525L123.853 21.0722C124.713 21.5023 125.573 21.5023 126.003 21.5023C126.433 21.5023 126.864 21.0722 127.294 20.6422C127.724 20.2122 127.724 18.922 128.154 17.2018L117.833 4.7305ZM135.464 6.45069L137.615 6.02064L138.475 12.0413C138.905 12.0413 139.335 12.0413 139.765 11.6112C139.765 11.1812 140.195 10.3211 140.625 9.03096C140.625 7.74083 141.055 6.88073 141.055 6.45069C141.485 6.02064 141.915 5.5906 141.915 5.5906C142.345 5.5906 142.775 5.16055 143.635 5.16055H144.065L144.495 7.31078H143.635C143.205 7.31078 142.775 7.31078 142.775 7.74083C142.345 7.74083 142.345 8.60092 142.345 9.46101C141.915 10.7511 141.915 11.1812 141.485 11.6112C141.485 12.0413 141.055 12.4713 140.625 12.9014C141.485 12.9014 142.345 13.7615 143.635 15.4817L146.216 19.7821H144.065L141.055 15.4817C140.625 15.0516 140.195 14.1915 139.765 14.1915C139.335 13.7615 138.905 13.7615 138.475 13.7615L139.335 20.6422H137.185L135.464 6.45069ZM147.506 24.9427L146.216 4.7305H147.936L148.366 6.45069C148.796 6.02064 149.226 5.16055 149.656 4.7305C150.086 4.30046 150.946 4.30046 151.806 4.30046C152.666 3.87041 153.956 4.30046 154.817 4.7305C155.677 5.5906 156.107 6.45069 156.537 7.31078C156.967 8.60092 157.397 9.89106 157.397 11.1812C157.827 12.9014 157.397 14.1915 157.397 15.4817C156.967 16.3417 156.107 17.6319 155.247 18.0619C154.386 18.922 153.526 19.3521 152.666 19.3521C151.806 19.3521 151.376 19.3521 150.946 18.922C150.086 18.492 149.656 18.0619 149.226 17.6319L149.656 24.9427H147.506ZM148.796 12.0413C148.796 13.7615 149.226 15.4817 150.086 16.3417C150.516 17.2018 151.376 17.2018 152.236 17.2018C153.526 17.2018 153.956 16.7718 154.817 15.9117C155.247 14.6216 155.677 13.3314 155.247 11.1812C155.247 9.46101 154.817 8.17087 153.956 7.31078C153.526 6.45069 152.666 6.02064 151.806 6.02064C150.946 6.02064 150.086 6.88073 149.226 7.74083C148.796 8.60092 148.366 10.3211 148.796 12.0413ZM168.578 16.7718C167.718 17.6319 166.858 18.0619 165.998 18.492C165.568 18.922 164.708 18.922 163.847 18.922C162.557 18.922 161.267 18.492 160.837 17.6319C159.977 16.7718 159.547 15.9117 159.547 14.6216C159.547 14.1915 159.977 13.3314 159.977 12.9014C160.407 12.0413 160.837 11.6112 161.267 11.1812C161.697 11.1812 162.127 10.7511 162.987 10.7511C163.417 10.3211 163.847 10.3211 164.708 10.3211C166.428 9.89106 167.718 9.89106 168.578 9.46101C168.578 9.03096 168.578 9.03096 168.578 9.03096C168.578 7.74083 168.578 7.31078 168.148 6.88073C167.288 6.02064 166.858 6.02064 165.568 6.02064C164.708 6.02064 163.847 6.02064 163.417 6.45069C162.987 6.88073 162.557 7.31078 162.127 8.60092L159.977 8.17087C160.407 7.31078 160.837 6.45069 161.267 5.5906C161.697 5.16055 162.127 4.7305 162.987 4.30046C163.847 3.87041 164.708 3.87041 165.998 3.87041C166.858 3.87041 167.718 3.87041 168.578 4.30046C169.438 4.7305 169.868 5.16055 169.868 5.5906C170.298 6.02064 170.728 6.45069 170.728 7.31078C170.728 7.74083 170.728 8.17087 170.728 9.46101V12.9014C170.728 15.0516 170.728 16.3417 170.728 17.2018C170.728 17.6319 170.728 18.0619 171.158 18.922H169.008C168.578 18.0619 168.578 17.6319 168.578 16.7718ZM168.578 11.6112C167.718 11.6112 166.428 12.0413 165.138 12.4713C164.278 12.4713 163.417 12.4713 162.987 12.9014C162.557 12.9014 162.557 13.3314 162.127 13.3314C162.127 13.7615 162.127 14.1915 162.127 14.6216C161.697 15.4817 162.127 15.9117 162.557 16.3417C162.987 16.7718 163.417 17.2018 164.278 17.2018C165.138 17.2018 165.998 16.7718 166.428 16.3417C167.288 15.9117 167.718 15.4817 168.148 14.6216C168.148 14.1915 168.578 13.3314 168.578 12.4713V11.6112ZM174.169 18.922L175.029 4.7305H177.179L176.319 19.3521L174.169 18.922ZM172.878 2.58028L173.308 0H175.459L175.029 2.58028H172.878ZM177.179 3.01032L177.609 0L179.759 0.430046V3.01032H177.179ZM181.909 5.16055L184.06 5.5906L183.2 11.1812L188.79 12.4713L190.08 6.45069L192.231 6.88073L189.65 21.0722L187.5 20.6422L188.36 14.6216L182.769 13.3314L181.479 19.7821L179.329 19.3521L181.909 5.16055ZM200.831 21.9323C199.541 22.3624 198.681 22.7924 197.821 22.7924C197.391 23.2225 196.531 23.2225 195.671 22.7924C194.381 22.3624 193.521 21.9323 192.661 21.0722C192.231 20.2122 192.231 18.922 192.231 17.6319C192.661 17.2018 192.661 16.3417 193.091 15.9117C193.521 15.4817 193.951 15.0516 194.811 15.0516C195.241 14.6216 195.671 14.6216 196.101 14.6216C196.531 14.1915 197.391 14.1915 198.251 14.6216C199.971 14.6216 201.261 14.6216 202.122 14.6216C202.122 14.1915 202.122 13.7615 202.122 13.7615C202.552 12.9014 202.552 12.0413 202.122 11.6112C201.692 11.1812 200.831 10.7511 199.971 10.3211C199.111 9.89106 198.251 10.3211 197.821 10.3211C196.961 10.7511 196.531 11.1812 196.101 12.4713L194.381 11.6112C194.811 10.3211 195.241 9.89106 195.671 9.46101C196.101 8.60092 196.961 8.60092 197.821 8.17087C198.681 8.17087 199.541 8.17087 200.831 8.17087C201.692 8.60092 202.552 9.03096 203.412 9.46101C203.842 9.89106 204.272 10.3211 204.272 10.7511C204.702 11.1812 204.702 12.0413 204.702 12.4713C204.702 12.9014 204.702 13.7615 204.272 15.0516L203.412 18.0619C202.982 20.2122 202.552 21.5023 202.552 22.3624C202.552 22.7924 202.552 23.6525 202.982 24.0826L200.401 23.6525C200.401 23.2225 200.401 22.3624 200.831 21.9323ZM201.692 16.3417C200.831 16.7718 199.541 16.7718 198.251 16.3417C197.391 16.3417 196.531 16.3417 196.101 16.7718C195.671 16.7718 195.241 16.7718 195.241 17.2018C194.811 17.6319 194.811 17.6319 194.811 18.0619C194.381 18.922 194.381 19.3521 194.811 19.7821C195.241 20.6422 195.671 21.0722 196.531 21.0722C197.391 21.0722 198.251 21.0722 198.681 21.0722C199.541 20.6422 199.971 20.2122 200.401 19.7821C200.831 18.922 201.261 18.492 201.261 17.2018L201.692 16.3417ZM246.416 21.9323L248.567 22.7924L243.836 30.5333C244.696 30.9633 245.556 30.9633 245.986 30.9633C246.416 30.9633 247.706 30.1032 249.427 28.8131C250.287 27.953 251.147 27.5229 251.577 27.0929C252.437 27.0929 252.867 26.6628 253.727 26.6628C254.157 26.6628 255.017 27.0929 255.447 27.5229C256.307 27.953 256.737 27.953 256.737 28.383L255.447 30.1032C255.447 30.1032 255.017 30.1032 255.017 29.6732H254.587C254.157 29.2431 253.297 29.2431 252.867 29.2431C252.437 29.2431 251.577 30.1032 250.287 30.9633C248.997 31.8234 248.136 32.6835 247.276 32.6835C246.846 32.6835 246.416 33.1135 245.556 32.6835C246.416 33.5436 246.846 35.2638 246.416 37.844L245.986 45.1548L243.406 43.8647L243.836 37.414C244.266 35.6938 244.266 34.4037 243.836 33.9736C243.836 33.1135 243.406 32.2534 242.546 31.8234L237.815 39.9943L235.665 38.7041L246.416 21.9323ZM255.877 34.4037L257.597 35.6938L250.717 44.7248L262.328 39.5642L264.048 40.8544L255.017 52.4656L253.297 51.1755L260.178 42.5745L248.567 47.305L246.846 46.0149L255.877 34.4037ZM257.597 54.6158L267.058 43.8647L268.779 45.1548L259.318 56.336L257.597 54.6158ZM266.628 40.8544L268.349 38.7041L270.069 40.4243L268.349 42.1445L266.628 40.8544ZM270.069 43.8647L271.789 41.7145L273.509 43.0046L271.359 45.1548L270.069 43.8647ZM272.219 48.1651L275.659 52.0356C276.519 52.8956 276.95 53.3257 277.38 54.1858C277.38 54.6158 277.38 55.4759 277.38 55.906C276.95 56.7661 276.95 57.6261 276.089 58.0562C275.659 58.4862 275.229 58.9163 274.369 58.9163C273.939 59.3463 273.509 59.3463 272.649 59.3463C273.079 59.7764 273.079 60.2064 273.079 61.0665C272.649 61.9266 272.219 62.3567 271.789 63.2167C270.499 64.0768 269.639 64.5069 268.779 64.0768C267.489 64.0768 266.628 63.6468 265.768 62.3567L261.468 58.4862L272.219 48.1651ZM269.209 54.1858L270.929 55.906C271.359 56.336 271.789 56.7661 272.219 57.1961C272.649 57.1961 273.079 57.1961 273.509 57.1961C273.939 57.1961 273.939 57.1961 274.369 56.7661C275.229 56.336 275.229 55.4759 275.229 55.0459C275.229 54.6158 274.799 53.7557 273.939 52.8956L272.219 51.1755L269.209 54.1858ZM264.478 58.4862L266.628 60.6365C267.489 61.4966 267.919 61.9266 268.779 61.9266C269.209 62.3567 269.639 61.9266 270.499 61.4966C270.499 61.0665 270.929 60.6365 270.929 60.2064C270.929 59.7764 270.929 59.3463 270.929 58.9163C270.499 58.4862 270.069 58.0562 269.639 57.1961L267.919 55.4759L264.478 58.4862ZM279.53 70.0975L280.39 72.2477C279.1 73.1078 277.38 73.5378 276.089 73.1078C274.799 73.1078 273.939 72.2477 273.079 71.3876C271.789 70.0975 271.789 68.3773 271.789 67.0872C272.219 65.367 273.509 63.6468 275.229 62.3567C276.519 61.0665 277.81 60.6365 279.1 60.2064C280.39 59.7764 281.25 59.7764 282.54 60.2064C283.4 60.6365 284.26 61.0665 285.12 61.9266C285.981 63.2167 285.981 64.0768 285.981 65.367C285.981 66.6571 285.55 67.5172 284.26 68.8073L282.97 67.5172C283.4 66.6571 283.83 65.797 283.83 64.9369C283.83 64.5069 283.83 63.6468 283.4 63.2167C282.97 62.3567 281.68 61.9266 280.82 61.9266C279.53 61.9266 278.24 62.7867 276.95 63.6468C275.229 64.9369 274.369 66.2271 273.939 67.0872C273.939 68.3773 273.939 69.2374 274.369 70.0975C275.229 70.5275 275.659 70.9576 276.519 70.9576C277.38 71.3876 278.24 70.9576 279.53 70.0975ZM288.991 67.9472L290.281 69.6674L285.55 72.6778L287.271 75.258C288.131 76.5482 288.561 77.8383 288.561 79.1284C288.561 80.4186 288.131 81.2787 286.841 82.1388C285.981 82.9989 284.69 82.9989 283.4 82.9989C282.54 82.9989 281.25 82.1388 280.39 80.4186L277.38 76.1181L288.991 67.9472ZM279.96 76.9782L281.25 78.6984C282.11 79.5585 282.97 80.4186 283.4 80.8486C284.26 80.8486 284.69 80.8486 285.55 80.4186C285.981 79.9885 286.411 79.5585 286.411 78.6984C286.841 78.2684 286.411 77.4083 285.55 76.1181L284.26 73.9679L279.96 76.9782ZM296.732 79.1284L298.022 80.8486L292.431 83.8589C292.861 84.719 293.291 85.1491 293.291 85.1491C293.721 85.1491 295.011 85.1491 296.302 84.719C297.592 84.719 298.452 84.289 298.882 84.719C299.312 84.719 299.742 84.719 299.742 84.719C300.172 85.1491 300.602 85.5791 301.032 86.4392L299.312 87.7294L298.882 87.2993C298.882 86.4392 298.452 86.4392 298.452 86.4392C298.022 86.4392 297.592 86.4392 296.302 86.4392C295.442 86.8693 294.581 86.8693 294.151 86.8693C293.721 86.8693 293.291 86.4392 292.861 86.0092C292.861 87.2993 292.431 88.5895 291.571 89.8796L288.561 94.18L287.701 92.4599L290.281 88.1594C290.711 87.2993 291.141 86.4392 291.141 86.0092C291.141 85.5791 291.141 85.1491 291.141 84.719L285.12 88.1594L284.26 86.4392L296.732 79.1284ZM294.581 102.351C293.721 101.921 292.861 101.491 292.001 101.061C291.571 100.201 291.141 99.7706 290.711 98.9106C290.281 97.6204 289.851 96.7603 290.281 95.4702C290.711 94.6101 291.571 93.75 292.861 93.32C293.291 92.8899 294.151 92.8899 294.581 92.8899C295.442 92.8899 295.872 92.8899 296.302 93.32C297.162 93.75 297.592 93.75 297.592 94.18C298.022 94.6101 298.452 95.0401 298.882 95.9002C299.742 97.6204 300.602 98.4805 301.462 98.9106H301.892C302.752 98.4805 303.182 98.0505 303.612 97.1904C303.612 96.7603 303.612 95.9002 303.182 94.6101C302.752 93.75 302.322 93.32 301.892 92.8899C301.462 92.8899 300.602 92.8899 299.312 92.8899L298.882 90.7397C299.742 90.7397 300.602 90.7397 301.462 90.7397C302.322 90.7397 303.182 91.1697 303.612 92.0298C304.472 92.4599 304.903 93.32 305.333 94.18C305.763 95.0401 305.763 95.9002 306.193 96.7603C306.193 97.6204 305.763 98.0505 305.763 98.4805C305.333 98.9106 304.903 99.3406 304.472 99.7706C304.042 100.201 303.182 100.631 302.322 101.061L299.312 102.351C297.162 103.211 295.872 104.071 295.442 104.071C295.011 104.501 294.581 104.931 294.151 105.361L292.861 103.211C293.291 103.211 294.151 102.781 294.581 102.351ZM299.312 99.7706C298.882 99.3406 298.022 98.4805 297.162 97.1904C296.732 96.3303 296.302 95.9002 295.872 95.4702C295.872 95.4702 295.442 95.0401 295.011 95.0401C294.581 95.0401 294.151 95.0401 293.721 95.4702C293.291 95.4702 292.861 95.9002 292.431 96.7603C292.431 97.1904 292.431 98.0505 292.861 98.4805C292.861 99.3406 293.721 99.7706 294.151 100.201C295.011 100.631 295.442 101.061 296.302 101.061C296.732 101.061 297.592 100.631 298.882 100.201L299.312 99.7706ZM313.933 116.972L314.364 119.983L304.042 126.003L316.084 126.864L316.944 129.874L302.752 132.884L301.892 131.164L313.503 128.154L301.462 127.294L301.032 125.573L312.213 119.553L300.172 122.133L299.742 119.983L313.933 116.972ZM319.954 132.884L322.964 132.454L323.395 134.174L320.384 135.034L319.954 132.884ZM303.182 135.894L317.374 133.314L317.804 135.464L303.612 138.045L303.182 135.894ZM310.063 147.936V150.086C308.343 150.086 307.053 149.656 306.193 148.796C304.903 148.366 304.472 147.076 304.042 145.786C304.042 144.065 304.472 142.775 305.763 141.485C306.623 140.195 308.773 139.335 310.923 139.335C312.643 138.905 313.933 138.905 315.224 139.335C316.514 139.765 317.374 140.195 318.234 141.055C318.664 141.915 319.094 142.775 319.094 143.635C319.524 145.356 319.094 146.216 318.664 147.076C317.804 148.366 316.944 148.796 315.224 149.226L314.794 147.506C315.654 147.076 316.514 146.646 316.944 146.216C317.374 145.356 317.374 144.925 317.374 144.065C317.374 143.205 316.514 142.345 315.654 141.915C314.794 141.055 313.073 141.055 311.353 141.485C309.203 141.485 307.913 141.915 307.053 142.775C306.193 143.635 306.193 144.495 306.193 145.356C306.193 146.216 306.623 147.076 307.483 147.506C307.913 147.936 308.773 147.936 310.063 147.936ZM319.954 151.806V153.956H313.933L314.364 156.967C314.364 158.687 313.933 159.977 313.073 160.837C312.213 161.697 311.353 162.127 309.633 162.557C308.773 162.557 307.483 162.127 306.623 161.267C305.763 160.407 305.333 159.117 305.333 157.397V152.236L319.954 151.806ZM307.053 154.386L307.483 156.537C307.483 157.827 307.483 158.687 307.913 159.547C308.343 159.977 308.773 160.407 309.633 160.407C310.493 159.977 310.923 159.977 311.353 159.547C311.783 159.117 312.213 158.257 312.213 156.537V153.956L307.053 154.386ZM319.954 164.708V166.858H313.503C313.503 167.288 313.503 167.718 313.933 168.148C314.364 168.578 315.224 169.008 316.514 169.438C317.804 169.868 318.664 170.298 318.664 170.298C319.094 170.728 319.524 171.158 319.524 171.588C319.524 171.588 319.524 172.448 319.524 172.878V173.308H317.804V172.878C317.804 172.448 317.804 172.018 317.374 171.588C317.374 171.588 316.514 171.158 315.654 170.728C314.794 170.728 313.933 170.298 313.503 169.868C313.503 169.868 313.073 169.438 312.643 168.578C312.213 169.438 311.353 170.298 309.633 171.158L304.903 173.739L305.333 171.158L309.633 169.008C310.493 168.578 311.353 168.148 311.353 167.718C311.783 167.718 311.783 167.288 311.783 166.858L305.333 166.428V164.278L319.954 164.708ZM305.333 183.2C304.903 182.339 304.472 181.479 304.042 181.049C304.042 180.189 304.042 179.329 304.042 178.469C304.042 177.179 304.903 176.319 305.763 175.459C306.623 175.029 307.483 174.599 308.773 174.599C309.203 175.029 310.063 175.029 310.493 175.459C310.923 175.889 311.353 176.319 311.783 176.749C312.213 177.179 312.213 177.609 312.643 178.469C312.643 178.899 312.643 179.329 312.643 180.189C312.643 181.909 312.643 183.2 313.073 184.06H313.503C314.364 184.49 315.224 184.06 315.654 184.06C316.514 183.63 316.944 182.77 316.944 181.479C316.944 180.619 316.944 179.759 316.514 179.329C316.084 178.899 315.654 178.469 314.364 178.039L315.224 175.889C316.084 176.319 316.944 176.749 317.374 177.179C318.234 177.609 318.664 178.469 318.664 179.329C319.094 180.189 319.094 181.049 319.094 182.339C318.664 183.2 318.664 184.06 318.234 184.92C317.804 185.35 317.374 185.78 316.944 186.21C316.514 186.21 315.654 186.64 315.224 186.64C314.794 186.64 313.933 186.64 312.643 186.21L309.633 185.78C307.053 185.78 305.763 185.35 305.333 185.35C304.472 185.35 304.042 185.78 303.182 185.78L303.612 183.63C304.042 183.63 304.903 183.2 305.333 183.2ZM310.923 184.06C310.923 183.2 310.493 181.909 310.493 180.189C310.493 179.329 310.493 178.899 310.063 178.469C310.063 178.039 310.063 177.609 309.633 177.609C309.203 177.179 308.773 177.179 308.343 177.179C307.913 177.179 307.053 177.179 306.623 177.609C306.193 178.039 305.763 178.469 305.763 179.329C305.763 180.189 305.763 181.049 306.193 181.479C306.623 182.339 307.053 182.77 307.913 183.2C308.343 183.63 309.203 183.63 310.063 183.63L310.923 184.06ZM313.933 205.562L313.073 207.712L307.053 205.562C307.053 206.422 307.053 206.852 307.053 207.282C307.483 207.282 307.913 208.142 309.203 209.002C310.063 209.862 310.923 210.292 310.923 210.722C311.353 211.153 311.353 211.583 311.353 212.013C311.353 212.443 311.353 212.873 310.923 213.303V213.733L309.203 213.303V212.873C309.203 212.013 309.633 212.013 309.203 211.583C309.203 211.583 308.773 211.153 307.913 210.292C307.053 209.862 306.623 209.002 306.193 209.002C305.763 208.572 305.763 208.142 305.763 207.282C305.333 208.142 304.042 208.572 301.892 209.002L297.162 209.862L297.592 207.282L302.752 206.852C303.612 206.422 304.472 206.422 304.903 205.992C305.333 205.992 305.333 205.562 305.763 205.132L299.312 202.982L299.742 200.831L313.933 205.562ZM310.063 215.883L308.343 220.614C307.913 221.474 307.483 222.334 307.053 222.764C306.623 223.194 306.193 223.624 305.333 223.624C304.472 224.054 304.042 224.054 303.182 223.624C302.322 223.194 301.892 222.764 301.462 222.334C301.032 222.334 301.032 221.474 300.602 221.044C300.172 221.474 299.742 221.904 298.882 221.904C298.452 221.904 297.592 221.904 296.732 221.474C295.442 221.044 294.581 220.183 294.151 219.323C294.151 218.463 294.151 217.173 294.581 215.883L296.732 210.722L310.063 215.883ZM303.612 215.453L302.752 217.603C302.752 218.463 302.322 219.323 302.322 219.753C302.322 219.753 302.322 220.183 302.752 220.614C302.752 221.044 303.182 221.474 303.612 221.474C304.472 221.904 304.903 221.904 305.333 221.474C305.763 221.044 306.193 220.183 306.623 219.323L307.483 217.173L303.612 215.453ZM297.592 213.303L296.732 215.883C296.302 217.173 296.302 218.033 296.302 218.463C296.302 218.893 296.732 219.323 297.592 219.753C298.022 219.753 298.452 219.753 298.882 219.753C299.312 219.753 299.742 219.323 300.172 218.893C300.172 218.893 300.602 218.033 301.032 217.173L301.892 215.023L297.592 213.303ZM289.851 230.075C289.421 228.784 289.421 227.924 289.421 227.064C289.421 226.204 289.851 225.774 290.281 224.914C290.711 223.624 291.571 222.764 292.431 222.334C293.721 222.334 294.581 222.334 295.872 222.764C296.302 223.194 297.162 223.624 297.162 224.054C297.592 224.484 298.022 225.344 298.022 225.774C298.022 226.204 298.022 227.064 298.022 227.494C298.022 227.924 298.022 228.784 297.592 229.214C297.162 230.935 296.732 232.225 296.732 233.085C296.732 233.515 297.162 233.515 297.162 233.515C298.022 233.945 298.882 233.945 299.312 233.945C300.172 233.515 300.602 233.085 301.032 232.225C301.462 231.365 301.892 230.505 301.462 229.645C301.462 229.214 301.032 228.784 300.172 227.924L301.462 226.204C302.322 227.064 302.752 227.494 303.182 228.354C303.612 228.784 303.612 229.645 303.612 230.505C303.612 231.365 303.182 232.225 302.752 233.515C302.322 234.375 301.892 234.805 301.462 235.665C300.602 236.095 300.172 236.095 299.742 236.095C299.312 236.525 298.452 236.095 298.022 236.095C297.592 236.095 296.732 235.665 295.872 235.235L292.861 233.515C290.711 232.655 289.421 231.795 288.991 231.795C288.131 231.365 287.701 231.365 287.271 231.365L288.131 229.645C288.561 229.645 289.421 229.645 289.851 230.075ZM295.011 232.225C295.011 231.365 295.011 230.075 295.442 228.784C295.872 227.924 295.872 227.064 295.872 227.064C295.872 226.634 295.872 226.204 295.872 225.774C295.442 225.344 295.011 225.344 295.011 224.914C294.151 224.484 293.721 224.484 293.291 224.914C292.431 224.914 292.001 225.344 291.571 226.204C291.141 227.064 291.141 227.494 291.141 228.354C291.141 229.214 291.571 229.645 292.001 230.505C292.431 230.935 293.291 231.365 294.151 231.795L295.011 232.225ZM297.592 242.116L292.431 250.287L279.96 242.546L281.25 240.826L292.001 247.706L295.011 242.546L288.561 238.675C287.271 237.815 286.411 237.385 285.981 236.955C285.55 236.525 285.55 236.095 285.12 235.665C285.12 234.805 285.12 234.375 285.55 233.515C285.981 233.085 286.411 232.655 286.841 232.225L288.561 233.515L288.131 233.945C287.701 234.375 287.701 234.805 287.701 234.805C287.701 235.235 287.701 235.235 287.701 235.665C288.131 235.665 288.561 236.095 289.851 236.955L297.592 242.116ZM292.431 254.587L295.011 256.307L293.721 258.028L291.571 256.307L292.431 254.587ZM278.67 244.696L290.281 253.297L288.991 255.017L277.38 246.416L278.67 244.696ZM285.981 267.489L284.69 269.209L279.53 264.478C279.53 265.338 279.53 265.768 279.53 266.628C279.53 267.058 279.1 267.489 278.67 267.919C277.81 269.209 276.519 269.639 274.799 269.209C273.079 269.209 271.359 268.349 269.639 266.628C267.919 265.338 267.058 263.618 266.628 261.898C266.198 260.608 266.198 258.888 267.058 258.028C267.489 257.597 267.919 257.597 268.349 257.167C268.779 256.737 269.639 256.737 270.499 256.737L265.338 252.437L266.628 250.717L271.789 255.017C271.789 254.587 271.789 253.727 271.789 253.297C272.219 252.867 272.219 252.007 272.649 251.577C273.509 250.717 274.799 250.287 276.519 250.287C278.24 250.717 279.96 251.577 281.68 253.297C283.4 254.587 284.26 255.877 285.12 257.597C285.55 259.318 285.12 260.608 284.26 261.898C283.83 262.328 283.4 262.758 282.97 262.758C282.11 262.758 281.68 263.188 280.82 262.758L285.981 267.489ZM274.799 260.608C273.509 259.318 272.219 258.458 271.359 258.458C270.069 258.028 269.639 258.458 269.209 258.888C268.349 259.748 268.349 260.608 268.779 261.468C268.779 262.758 269.639 264.048 271.359 265.338C272.649 266.198 273.939 267.058 274.799 267.058C276.089 267.489 276.95 267.058 277.38 266.628C278.24 265.768 278.24 264.908 277.81 264.048C277.38 263.188 276.519 261.898 274.799 260.608ZM280.39 255.017C278.67 253.297 277.38 252.867 276.519 252.437C275.229 252.437 274.369 252.867 273.939 253.297C273.509 254.157 273.509 255.017 273.509 255.877C273.939 256.737 274.799 257.597 276.089 258.888C277.81 260.178 279.1 261.038 279.96 261.468C281.25 261.468 282.11 261.468 282.54 260.608C282.97 259.748 283.4 258.888 282.97 258.028C282.54 257.167 281.68 255.877 280.39 255.017ZM274.799 275.659L276.519 277.81L274.799 279.1L273.079 277.38L274.799 275.659ZM262.758 263.188L272.649 273.939L271.359 275.229L261.038 264.478L262.758 263.188ZM268.779 277.81L267.058 279.1L262.758 274.369C262.328 274.799 262.328 275.229 262.328 275.659C262.328 276.089 262.328 276.95 263.188 278.24C263.618 279.53 263.618 280.39 263.618 280.82C263.618 281.25 263.618 281.68 263.618 281.68C263.188 282.11 262.758 282.54 262.328 282.97L261.898 283.4L260.608 281.68L261.038 281.25C261.468 281.25 261.898 280.82 261.898 280.39C261.898 280.39 261.468 279.53 261.038 278.67C261.038 277.81 260.608 276.95 260.608 276.52C260.608 276.089 260.608 275.659 261.038 274.799C260.178 275.229 258.458 275.229 256.737 274.369L252.007 272.649L253.727 270.929L258.458 273.079C259.748 273.509 260.178 273.509 260.608 273.509C261.038 273.509 261.468 273.509 261.898 273.079L257.597 267.919L259.318 266.628L268.779 277.81ZM245.556 279.96C245.556 278.67 245.986 277.81 246.416 277.38C246.846 276.52 247.276 276.089 248.136 275.229C248.997 274.799 250.287 274.369 251.147 274.369C252.437 274.799 253.297 275.229 253.727 276.52C254.157 276.95 254.587 277.38 254.587 278.24C254.587 278.67 254.587 279.53 254.587 279.96C254.587 280.39 254.157 280.82 253.727 281.68C253.727 281.68 253.297 282.11 252.437 282.97C251.147 284.26 250.287 285.12 249.857 285.981C250.287 285.981 250.287 286.411 250.287 286.411C250.717 287.271 251.577 287.701 252.007 287.701C252.867 287.701 253.727 287.701 254.587 286.841C255.447 286.411 255.877 285.981 255.877 285.12C255.877 284.69 255.877 283.83 255.447 282.97L257.167 281.68C258.028 282.97 258.028 283.83 258.028 284.26C258.028 285.12 258.028 285.981 257.597 286.841C256.737 287.701 256.307 288.131 255.447 288.991C254.587 289.421 253.727 289.851 252.867 289.851C252.437 290.281 251.577 290.281 251.147 289.851C250.717 289.851 250.287 289.421 249.427 288.991C249.427 288.561 248.997 288.131 248.136 287.271L246.416 284.69C245.126 282.54 244.266 281.25 243.836 280.82C243.406 280.39 242.546 280.39 242.116 279.96L243.836 278.67C244.696 278.67 245.126 279.1 245.556 279.96ZM248.567 284.26C248.997 283.4 249.857 282.54 251.147 281.25C251.577 280.82 252.007 280.39 252.437 279.96C252.437 279.53 252.437 279.1 252.437 278.67C252.437 278.24 252.437 278.24 252.007 277.81C251.577 276.95 251.147 276.95 250.717 276.52C249.857 276.52 249.427 276.95 248.567 277.38C248.136 277.81 247.706 278.24 247.276 279.1C246.846 279.96 246.846 280.39 247.276 281.25C247.276 281.68 247.706 282.54 248.136 283.4L248.567 284.26ZM247.706 293.721L245.986 295.011L239.536 283.83L234.375 286.841L240.826 298.022L239.106 298.882L232.655 288.131L231.365 288.561L228.354 283.4L230.075 282.54L231.795 285.981L240.396 281.25L247.706 293.721ZM236.955 303.182L237.815 305.763L236.095 306.623L234.805 304.042L236.955 303.182ZM228.784 287.701L235.665 300.602L233.515 301.892L227.064 288.561L228.784 287.701ZM230.505 303.182L228.354 304.042L224.054 294.151L223.194 306.623L221.044 307.483L215.023 294.151L217.173 293.291L221.474 303.612L222.334 291.141L224.484 289.851L230.505 303.182ZM226.204 311.353L224.484 311.783C224.484 310.923 224.484 309.633 224.484 309.203C224.914 308.343 225.344 307.483 226.204 307.053C227.494 306.623 228.354 306.623 228.784 307.053C229.644 307.483 230.505 307.913 230.935 309.203L229.644 309.633C229.214 309.203 228.784 308.773 228.354 308.773C227.924 308.343 227.494 308.343 227.064 308.773C226.634 308.773 226.204 309.203 226.204 309.633C225.774 310.063 225.774 310.493 226.204 311.353ZM217.173 309.203L215.023 309.633L213.303 304.042L207.712 305.763L209.432 311.783L207.712 312.213L202.982 298.452L204.702 297.592L206.852 304.042L212.443 301.892L210.292 295.872L212.443 295.011L217.173 309.203ZM202.552 306.193C203.412 308.773 202.982 310.923 202.122 312.213C201.261 313.503 199.971 314.364 198.681 314.794C196.961 315.224 195.241 314.794 193.951 313.933C192.661 312.643 191.8 311.353 191.37 308.773C190.94 307.053 190.51 305.763 190.94 304.472C190.94 303.182 191.8 302.322 192.231 301.462C193.091 300.602 193.951 300.172 195.241 300.172C196.961 299.742 198.251 299.742 199.541 301.032C201.261 301.892 202.122 303.612 202.552 306.193ZM200.401 306.623C199.971 304.903 199.541 303.612 198.681 302.752C197.821 301.892 196.531 301.892 195.671 301.892C194.381 302.322 193.951 302.752 193.521 304.042C193.091 304.903 192.661 306.623 193.091 308.343C193.521 310.063 194.381 311.353 195.241 312.213C196.101 312.643 196.961 313.073 198.251 312.643C199.111 312.643 199.971 311.783 200.401 310.923C200.831 309.633 200.831 308.343 200.401 306.623ZM189.22 307.913L189.65 310.063L183.2 311.353L182.769 308.773L189.22 307.913ZM179.329 317.804L170.728 318.664L169.868 305.763L168.578 306.193L167.718 299.742H169.868V304.042L179.759 303.182L179.329 298.882H181.049L181.909 304.903L180.619 305.333C179.329 307.483 178.899 311.783 179.329 317.804ZM177.609 316.084C177.179 311.353 177.609 307.483 178.469 305.333L172.018 305.763L172.448 316.084H177.609ZM165.998 318.664H163.847L164.278 307.483L157.827 318.664H155.677L156.107 304.042H158.257L157.827 315.224L163.847 304.042H166.428L165.998 318.664ZM144.925 308.343L142.775 307.913C143.205 306.193 143.635 304.903 144.925 304.042C145.786 303.182 147.076 302.752 148.366 303.182C150.086 303.182 151.376 304.042 152.236 305.333C153.096 306.623 153.526 308.773 153.526 310.923C153.096 312.643 153.096 313.933 152.236 315.224C151.806 316.084 150.946 316.944 150.086 317.374C149.226 318.234 148.366 318.234 147.076 318.234C145.786 318.234 144.495 317.804 144.065 316.944C143.205 316.084 142.775 314.794 142.345 313.073H144.495C144.495 313.933 144.925 314.794 145.356 315.224C145.786 315.654 146.646 316.084 147.076 316.084C148.366 316.084 149.226 316.084 150.086 315.224C150.516 314.364 150.946 312.643 151.376 310.923C151.376 308.773 150.946 307.483 150.516 306.623C150.086 305.763 149.226 305.333 147.936 304.903C147.506 304.903 146.646 305.333 145.786 305.763C145.356 306.193 144.925 307.053 144.925 308.343ZM139.335 316.944L137.185 316.514L139.335 304.042L133.314 303.182L131.164 315.654L129.014 315.224L131.164 302.752H129.874L131.164 296.302L132.884 296.732L132.024 301.032L141.485 302.752L139.335 316.944ZM124.713 313.933L122.563 313.503L125.573 302.752L116.972 311.783L114.822 311.353L118.693 297.162L120.843 298.022L117.833 308.343L126.433 299.312L128.584 300.172L124.713 313.933ZM110.522 310.063L101.491 306.193L106.651 292.861L108.802 293.721L104.071 305.333L109.232 307.483L113.962 295.442L116.112 296.302L110.522 310.063ZM96.7603 304.472L87.7294 299.742L94.6101 286.841L96.3303 287.701L90.7397 298.882L95.9002 301.462L98.9106 295.011C99.7706 293.721 100.201 292.431 100.631 292.001C101.061 291.571 101.491 291.571 101.921 291.141C102.351 291.141 103.211 291.141 104.071 291.571C104.501 291.571 104.931 292.001 105.361 292.431L104.501 294.151L103.641 293.721C103.211 293.721 102.781 293.721 102.781 293.721C102.351 293.721 102.351 293.721 102.351 293.721C101.921 294.151 101.491 294.581 101.061 295.872L96.7603 304.472ZM83.4289 300.602L82.1388 302.752L80.4186 301.892L81.7087 299.312L83.4289 300.602ZM92.0298 285.55L84.719 298.022L82.9989 297.162L90.3096 284.26L92.0298 285.55ZM79.9885 295.442L78.2683 294.151L81.7087 288.991L76.5482 285.981L73.1078 290.711L71.3876 289.851L79.5585 277.38L81.2787 278.67L77.8383 284.26L82.5688 287.271L86.0092 281.68L87.7294 282.97L79.9885 295.442ZM69.6674 272.219C70.9576 271.789 71.8177 272.219 72.6778 272.219C73.1078 272.219 73.9679 272.649 74.828 273.079C75.6881 273.939 76.1181 275.229 76.5482 276.089C76.5482 277.38 76.1181 278.24 75.258 279.1C74.828 279.96 74.3979 280.39 73.9679 280.39C73.1078 280.82 72.6778 280.82 72.2477 280.82C71.3876 280.82 70.9576 280.82 70.5275 280.82C70.0975 280.39 69.6674 279.96 68.8073 279.53C67.0872 278.67 66.2271 278.24 65.367 278.24C64.9369 278.24 64.9369 278.67 64.9369 278.67C64.0768 279.53 64.0768 279.96 64.0768 280.39C64.0768 281.25 64.5069 282.11 65.367 282.54C66.2271 283.4 66.6571 283.83 67.5172 283.83C67.9472 283.4 68.8073 283.4 69.6674 282.54L70.9576 284.26C70.0975 284.69 69.6674 285.12 68.8073 285.55C67.9472 285.55 67.0872 285.55 66.2271 285.55C65.367 285.12 64.5069 284.69 63.6468 284.26C62.7867 283.4 62.3567 282.97 61.9266 282.11C61.4966 281.68 61.4966 280.82 61.4966 280.39C61.4966 279.96 61.9266 279.1 61.9266 278.67C62.3567 278.24 62.7867 277.81 63.2167 276.95L65.367 274.369C66.6571 272.649 67.5172 271.359 67.9472 270.929C68.3773 270.069 68.3773 269.639 68.8073 269.209L70.5275 270.499C70.0975 270.929 70.0975 271.359 69.6674 272.219ZM66.2271 276.52C67.0872 276.52 68.3773 277.38 69.6674 277.81C70.5275 278.24 70.9576 278.67 71.3876 278.67C71.8177 278.67 72.2477 278.67 72.6778 278.67C73.1078 278.24 73.1078 278.24 73.5378 277.81C73.9679 277.38 73.9679 276.95 73.9679 276.089C73.9679 275.659 73.5378 274.799 73.1078 274.369C72.2477 273.939 71.8177 273.509 70.9576 273.509C70.0975 273.509 69.2374 273.509 68.8073 273.939C68.3773 274.369 67.5172 274.799 67.0872 275.659L66.2271 276.52ZM70.9576 263.618L57.1961 278.24L55.906 276.52L57.1961 275.229C56.336 275.659 55.4759 275.659 54.6158 275.659C54.1858 275.229 53.3257 274.799 52.8956 274.369C52.0356 273.509 51.6055 272.649 51.6055 271.789C51.1755 270.929 51.6055 269.639 52.0356 268.349C52.4656 267.489 53.3257 266.198 54.1858 265.338C55.0459 264.478 56.336 263.618 57.6261 262.758C58.4862 262.328 59.7764 262.328 60.6365 262.328C61.9266 262.328 62.7867 262.758 63.6468 263.618C64.0768 264.048 64.5069 264.478 64.5069 265.338C64.5069 265.768 64.5069 266.628 64.5069 267.058L69.6674 261.898L70.9576 263.618ZM60.6365 271.359C61.9266 270.069 62.7867 268.779 62.7867 267.489C63.2167 266.628 62.7867 265.768 62.3567 264.908C61.4966 264.478 60.6365 264.048 59.3463 264.478C58.4862 264.478 57.1961 265.338 55.906 267.058C54.6158 268.349 53.7557 269.639 53.7557 270.499C53.3257 271.789 53.7557 272.649 54.1858 273.079C55.0459 273.939 55.906 273.939 57.1961 273.939C58.0562 273.509 59.3463 272.649 60.6365 271.359ZM46.875 267.919L45.5849 266.198L49.8853 262.328L46.0149 258.028L41.7145 261.898L40.4243 260.178L51.1755 250.717L52.4656 252.437L47.7351 256.737L51.6055 261.038L56.336 256.737L58.0562 258.458L46.875 267.919ZM43.4346 242.976C44.2947 242.976 45.1548 243.406 46.0149 243.836C46.875 244.266 47.305 244.696 47.7351 245.556C48.5952 246.416 49.0252 247.706 48.5952 248.567C48.5952 249.857 47.7351 250.717 46.875 251.577C46.445 251.577 45.5849 252.007 45.1548 252.007C44.2947 252.437 43.8647 252.437 43.0046 252.007C42.5745 252.007 42.1445 251.577 41.7145 251.147C41.2844 251.147 40.8544 250.717 40.4243 249.857C39.1342 248.567 38.2741 247.706 37.414 247.276C36.9839 247.706 36.9839 247.706 36.9839 247.706C36.1239 248.136 35.6938 248.997 35.2638 249.427C35.2638 250.287 35.6938 251.147 36.1239 252.007C36.5539 252.867 37.414 253.297 37.844 253.297C38.7041 253.727 39.5642 253.297 40.4243 252.867L41.2844 255.017C40.4243 255.447 39.5642 255.447 38.7041 255.447C37.844 255.447 36.9839 255.447 36.5539 255.017C35.6938 254.587 34.8337 253.727 34.4037 252.867C33.5436 252.007 33.1135 251.147 33.1135 250.287C33.1135 249.857 33.1135 248.997 33.1135 248.567C33.5436 248.136 33.5436 247.706 33.9736 247.276C34.4037 246.846 35.2638 246.416 36.1239 245.556L38.7041 243.836C40.4243 242.546 41.7145 241.686 42.1445 241.256C42.5745 240.826 43.0046 240.396 43.4346 239.536L44.7248 241.686C44.2947 242.116 43.8647 242.546 43.4346 242.976ZM39.1342 246.416C39.5642 246.846 40.4243 247.276 41.7145 248.567C42.1445 248.997 43.0046 249.427 43.0046 249.857C43.4346 249.857 43.8647 249.857 44.2947 249.857C44.7248 249.857 45.1548 249.857 45.5849 249.427C46.0149 248.997 46.445 248.567 46.445 248.136C46.445 247.276 46.445 246.846 46.0149 245.986C45.5849 245.556 44.7248 245.126 43.8647 244.696C43.4346 244.266 42.5745 244.266 41.7145 244.696C41.2844 244.696 40.4243 245.126 39.5642 245.556L39.1342 246.416ZM21.9323 232.225L21.0722 230.505L27.0929 227.924C26.6628 227.064 26.2328 226.634 25.8028 226.634C25.3727 226.634 24.5126 226.634 23.2225 226.634C21.9323 226.634 21.0722 226.634 20.6422 226.634C20.2122 226.634 19.7821 226.204 19.3521 226.204C19.3521 225.774 18.922 225.344 18.492 224.914V224.484L20.2122 223.624L20.6422 224.054C20.6422 224.484 21.0722 224.914 21.0722 224.914C21.5023 224.914 22.3624 224.914 23.2225 224.914C24.0826 224.914 24.9427 224.914 25.3727 224.914C25.8028 224.914 26.2328 225.344 26.6628 225.774C26.6628 224.484 27.0929 223.194 28.383 221.904L31.3933 218.033L32.6835 220.183L29.2431 224.054C28.8131 224.914 28.383 225.344 28.383 225.774C27.953 226.204 27.953 226.634 28.383 227.064L34.4037 224.484L35.2638 226.204L21.9323 232.225ZM24.5126 220.183C21.9323 221.044 19.7821 221.474 18.492 220.614C16.7718 220.183 15.9117 218.893 15.4817 217.603C14.6216 215.883 14.6216 214.163 15.4817 212.873C16.3417 211.583 18.0619 210.292 20.2122 209.432C21.9323 208.572 23.2225 208.142 24.5126 208.572C25.8028 208.572 26.6628 209.002 27.5229 209.432C28.383 210.292 29.2431 210.722 29.6732 212.013C30.1032 213.733 30.1032 215.023 29.2431 216.743C28.383 218.033 26.6628 219.323 24.5126 220.183ZM23.6525 218.033C25.3727 217.603 26.6628 216.743 27.0929 215.453C27.953 214.593 27.953 213.733 27.5229 212.873C27.0929 211.583 26.6628 211.153 25.3727 210.722C24.0826 210.292 22.7924 210.722 21.0722 211.153C19.3521 212.013 18.0619 212.873 17.6319 213.733C16.7718 215.023 16.7718 215.883 17.2018 216.743C17.6319 217.603 18.492 218.463 19.3521 218.893C20.6422 218.893 21.9323 218.893 23.6525 218.033ZM12.4713 208.572L11.6112 205.562L21.9323 199.111L9.89106 198.681L9.03096 195.671L22.7924 191.8L23.6525 193.951L12.0413 196.961L24.5126 197.391L24.9427 199.111L14.1915 205.992L25.8028 202.552L26.6628 204.702L12.4713 208.572ZM5.5906 191.8L2.58028 192.661V190.51L5.16055 190.08L5.5906 191.8ZM22.7924 188.79L8.17087 191.37L7.74083 189.22L22.3624 186.64L22.7924 188.79ZM15.4817 176.749V174.599C17.2018 174.599 18.492 175.029 19.3521 175.889C20.6422 176.749 21.0722 177.609 21.5023 178.899C21.5023 180.619 21.0722 182.339 19.7821 183.2C18.922 184.49 17.2018 185.35 14.6216 185.78C12.9014 185.78 11.6112 185.78 10.3211 185.35C9.03096 185.35 8.17087 184.49 7.31078 183.63C6.88073 182.77 6.45069 181.909 6.45069 181.049C6.02064 179.759 6.45069 178.469 6.88073 177.609C7.74083 176.319 8.60092 175.889 10.3211 175.459L10.7511 177.179C9.89106 177.609 9.03096 178.039 8.60092 178.899C8.17087 179.329 8.17087 179.759 8.17087 180.619C8.60092 181.479 9.03096 182.339 9.89106 183.2C10.7511 183.63 12.4713 183.63 14.1915 183.63C16.3417 183.2 17.6319 182.77 18.492 181.909C19.3521 181.049 19.3521 180.189 19.3521 179.329C19.3521 178.469 18.922 177.609 18.0619 177.179C17.6319 176.749 16.7718 176.749 15.4817 176.749ZM3.01032 173.739L0.430046 174.169L0 172.018L3.01032 171.588V173.739ZM20.2122 172.448L6.02064 173.739L5.5906 171.588L20.2122 170.298V172.448ZM5.16055 158.257L19.7821 157.827V159.977H14.1915V161.267C14.1915 162.127 14.1915 162.557 14.6216 162.987C15.0516 163.417 15.4817 163.847 16.7718 164.278L20.2122 166.428V169.008L16.3417 166.858C15.0516 165.998 14.1915 165.138 14.1915 164.708C13.7615 165.998 13.3314 166.858 12.4713 167.288C11.6112 168.148 10.7511 168.148 9.89106 168.148C8.60092 168.148 7.31078 168.148 6.45069 167.288C6.02064 166.428 5.5906 165.568 5.16055 163.847V158.257ZM7.31078 159.977V162.987C7.31078 164.278 7.74083 165.138 8.17087 165.568C8.60092 165.998 9.03096 165.998 9.89106 165.998C10.7511 165.998 11.1812 165.998 11.6112 165.138C12.0413 164.708 12.4713 163.847 12.0413 162.557V159.977H7.31078ZM20.6422 133.314C21.5023 134.174 21.9323 135.034 21.9323 135.894C22.3624 136.325 22.3624 137.185 21.9323 138.045C21.9323 139.335 21.5023 140.625 20.6422 141.055C19.3521 141.485 18.492 141.915 17.2018 141.485C16.7718 141.485 15.9117 141.055 15.4817 141.055C15.0516 140.625 14.6216 140.195 14.1915 139.335C13.7615 138.905 13.7615 138.475 13.7615 138.045C13.7615 137.615 13.7615 136.755 13.7615 135.894C13.7615 134.174 13.7615 132.884 13.3314 132.024H12.9014C12.0413 131.594 11.1812 132.024 10.7511 132.024C9.89106 132.454 9.46101 133.314 9.46101 134.604C9.46101 135.464 9.46101 136.325 9.46101 136.755C9.89106 137.185 10.7511 137.615 11.6112 138.045L10.7511 140.195C9.89106 139.765 9.03096 139.335 8.60092 138.905C8.17087 138.045 7.74083 137.615 7.31078 136.755C7.31078 135.894 7.31078 134.604 7.31078 133.744C7.74083 132.884 7.74083 132.024 8.17087 131.164C8.60092 130.734 9.03096 130.304 9.89106 129.874C10.3211 129.874 10.7511 129.444 11.6112 129.444C12.0413 129.444 12.4713 129.874 13.7615 129.874L16.7718 130.304C19.3521 130.734 20.6422 131.164 21.0722 131.164C21.9323 131.164 22.3624 131.164 23.2225 130.734L22.7924 133.314C22.3624 133.314 21.5023 133.314 20.6422 133.314ZM15.4817 132.454C15.4817 133.314 15.9117 134.604 15.9117 135.894C15.9117 136.755 15.9117 137.615 15.9117 138.045C15.9117 138.475 16.3417 138.475 16.3417 138.905C16.7718 139.335 17.2018 139.335 17.6319 139.335C18.0619 139.335 18.922 139.335 19.3521 138.905C19.7821 138.475 20.2122 138.045 20.2122 137.185C20.6422 136.325 20.2122 135.894 20.2122 135.034C19.7821 134.174 19.3521 133.744 18.492 133.314C18.0619 132.884 17.2018 132.884 16.3417 132.454H15.4817ZM9.89106 122.993L12.4713 114.822L24.5126 118.263L24.9427 116.972L30.5333 118.693L30.1032 120.413L26.2328 119.123L23.6525 128.584L27.5229 129.874L27.0929 131.594L21.0722 129.874L21.5023 128.584C19.7821 126.433 15.9117 124.713 9.89106 122.993ZM12.4713 122.133C16.7718 123.423 20.2122 125.143 21.9323 126.864L23.6525 120.413L13.7615 117.403L12.4713 122.133ZM13.7615 110.092L15.4817 105.791C15.9117 104.501 16.3417 103.641 16.7718 103.211C17.2018 102.781 17.6319 102.781 18.492 102.351C19.3521 102.351 20.2122 102.351 20.6422 102.781C21.5023 102.781 21.9323 103.211 22.3624 103.641C22.7924 104.071 23.2225 104.501 23.2225 105.361C23.6525 104.931 24.0826 104.501 24.9427 104.501C25.8028 104.071 26.2328 104.071 27.0929 104.501C28.383 105.361 29.2431 105.791 29.6732 107.081C30.1032 107.942 29.6732 109.232 29.2431 110.522L27.0929 115.682L13.7615 110.092ZM20.2122 110.522L21.0722 108.372C21.5023 107.511 21.5023 107.081 21.5023 106.651C21.5023 106.221 21.5023 105.791 21.0722 105.791C21.0722 105.361 20.6422 104.931 20.2122 104.931C19.3521 104.501 18.922 104.501 18.492 104.931C18.0619 105.361 17.6319 105.791 17.2018 107.081L16.3417 109.232L20.2122 110.522ZM26.2328 113.102L27.0929 110.522C27.5229 109.232 27.953 108.372 27.5229 107.942C27.5229 107.511 27.0929 107.081 26.2328 106.651C25.8028 106.221 25.3727 106.221 24.9427 106.651C24.5126 106.651 24.0826 106.651 24.0826 107.081C23.6525 107.511 23.2225 107.942 22.7924 108.802L21.9323 111.382L26.2328 113.102ZM24.9427 101.921C22.3624 101.061 20.6422 99.7706 20.2122 98.0505C19.7821 96.3303 19.7821 95.0401 20.2122 93.75C21.0722 92.0298 22.3624 91.1697 23.6525 90.7397C25.3727 90.3096 27.5229 90.3096 29.2431 91.1697C30.9633 92.0298 32.2534 92.8899 33.1135 93.75C33.9736 94.6101 34.4037 95.4702 34.4037 96.7603C34.8337 98.0505 34.4037 98.9106 33.9736 99.7706C33.5436 101.491 32.2534 102.351 30.5333 102.781C28.8131 103.211 27.0929 103.211 24.9427 101.921ZM25.8028 100.201C27.5229 101.061 28.8131 101.061 30.1032 101.061C30.9633 100.631 31.8234 100.201 32.2534 98.9106C32.6835 98.0505 32.6835 97.1904 32.2534 95.9002C31.3933 95.0401 30.5333 94.18 28.8131 93.32C27.0929 92.4599 25.8028 92.4599 24.5126 92.4599C23.2225 92.8899 22.7924 93.32 21.9323 94.6101C21.5023 95.4702 21.9323 96.3303 22.3624 97.6204C22.7924 98.4805 24.0826 99.3406 25.8028 100.201ZM24.9427 85.5791L25.8028 83.4289L31.3933 86.8693C31.8234 86.0092 31.8234 85.5791 31.8234 85.1491C31.3933 84.719 30.9633 84.289 30.1032 82.9989C29.2431 82.1388 28.8131 81.2787 28.383 80.8486C28.383 80.4186 28.383 79.9885 28.383 79.9885C28.383 79.5585 28.383 79.1284 28.8131 78.2684L29.2431 77.8383L30.9633 79.1284L30.5333 79.5585C30.5333 79.9885 30.1032 80.4186 30.5333 80.4186C30.5333 80.8486 30.9633 81.2787 31.3933 82.1388C32.2534 82.9989 32.6835 83.4289 32.6835 83.8589C33.1135 84.289 33.1135 84.719 33.1135 85.5791C33.9736 84.719 35.2638 84.289 36.9839 84.719H42.1445L40.8544 86.8693L35.6938 86.4392C34.8337 86.4392 33.9736 86.4392 33.5436 86.8693C33.1135 86.8693 33.1135 87.2993 32.6835 87.7294L38.7041 90.7397L37.414 92.8899L24.9427 85.5791ZM46.0149 75.6881C46.445 76.9782 46.445 77.8383 46.0149 78.6984C46.0149 79.5585 45.5849 79.9885 45.1548 80.8486C44.2947 82.1388 43.4346 82.5688 42.5745 82.5688C41.2844 82.9989 40.4243 82.5688 39.1342 81.7087C38.7041 81.2787 38.2741 80.8486 37.844 80.4186C37.844 79.9885 37.414 79.1284 37.414 78.6984C37.414 78.2684 37.414 77.4083 37.844 76.9782C37.844 76.5482 38.2741 76.1181 38.2741 75.258C39.1342 73.5378 39.9943 72.6778 39.9943 71.8177C39.5642 71.3876 39.5642 71.3876 39.5642 71.3876C38.7041 70.5275 37.844 70.5275 37.414 70.5275C36.5539 70.5275 36.1239 70.9576 35.2638 71.8177C34.8337 72.6778 34.4037 73.5378 34.4037 73.9679C34.4037 74.828 34.8337 75.6881 35.6938 76.1181L34.4037 77.8383C33.5436 76.9782 33.1135 76.1181 32.6835 75.6881C32.2534 74.828 32.2534 73.9679 32.6835 73.1078C32.6835 72.2477 33.1135 71.3876 33.9736 70.5275C34.4037 69.6674 35.2638 69.2374 35.6938 68.8073C36.1239 68.3773 36.9839 67.9472 37.414 67.9472C37.844 67.9472 38.7041 68.3773 39.1342 68.3773C39.5642 68.8073 40.4243 69.2374 41.2844 69.6674L43.8647 71.8177C45.5849 73.1078 46.875 73.9679 47.305 73.9679C48.1651 74.3979 48.5952 74.3979 49.0252 74.828L47.7351 76.5482C47.305 76.5482 46.875 76.1181 46.0149 75.6881ZM41.7145 72.6778C41.2844 73.5378 40.8544 74.828 40.4243 76.1181C39.9943 76.9782 39.5642 77.4083 39.5642 77.8383C39.5642 78.2684 39.5642 78.6984 39.9943 79.1284C39.9943 79.5585 40.4243 79.5585 40.4243 79.9885C41.2844 80.4186 41.7145 80.4186 42.1445 80.4186C43.0046 80.4186 43.4346 79.9885 43.8647 79.1284C44.2947 78.6984 44.7248 77.8383 44.7248 76.9782C44.7248 76.5482 44.7248 75.6881 44.2947 74.828C43.8647 74.3979 43.0046 73.9679 42.1445 73.1078L41.7145 72.6778ZM38.2741 64.5069L45.1548 56.7661L46.445 58.4862L43.8647 61.4966L53.3257 69.6674L52.0356 70.9576L42.5745 62.7867L39.9943 65.797L38.2741 64.5069ZM61.0665 69.2374L59.3463 67.5172C59.7764 67.5172 60.2064 67.0872 60.2064 67.0872C60.6365 66.6571 61.0665 66.2271 61.0665 65.797C61.0665 65.797 61.0665 65.367 61.0665 64.9369C60.6365 64.5069 60.6365 64.0768 60.2064 63.2167C59.7764 63.2167 59.7764 62.7867 59.7764 62.7867L46.0149 55.906L47.305 54.1858L55.4759 58.0562C56.336 58.4862 57.1961 59.3463 58.4862 59.7764C57.6261 58.9163 57.1961 58.0562 56.7661 56.7661L52.4656 49.0252L53.7557 47.7351L61.0665 61.4966C61.9266 62.7867 62.3567 63.6468 62.7867 64.5069C63.2167 65.367 63.2167 65.797 63.2167 66.6571C63.2167 67.0872 62.7867 67.9472 62.3567 68.3773C61.9266 68.3773 61.9266 68.8073 61.0665 69.2374ZM68.8073 61.0665L55.4759 46.0149L57.1961 44.7248L58.4862 46.0149C58.0562 45.1548 58.0562 44.7248 58.4862 43.8647C58.4862 43.0046 58.9163 42.5745 59.7764 42.1445C60.6365 41.2844 61.4966 40.8544 62.3567 40.8544C63.6468 40.8544 64.5069 41.2844 65.367 41.7145C66.6571 42.5745 67.5172 43.4346 68.3773 44.2947C69.6674 45.5849 70.0975 46.445 70.5275 47.7351C70.9576 49.0252 71.3876 49.8853 70.9576 51.1755C70.5275 52.0356 70.0975 52.8956 69.6674 53.7557C68.8073 54.1858 68.3773 54.6158 67.5172 54.6158C67.0872 54.6158 66.2271 54.6158 65.797 54.6158L70.5275 59.7764L68.8073 61.0665ZM61.9266 50.3154C63.2167 51.6055 64.5069 52.4656 65.367 52.8956C66.6571 52.8956 67.5172 52.8956 67.9472 52.0356C68.8073 51.6055 69.2374 50.7454 68.8073 49.4553C68.8073 48.5952 68.3773 47.305 67.0872 45.5849C65.797 44.2947 64.5069 43.4346 63.6468 43.0046C62.3567 43.0046 61.4966 43.0046 60.6365 43.8647C60.2064 44.2947 59.7764 45.1548 59.7764 46.445C60.2064 47.7351 60.6365 49.0252 61.9266 50.3154ZM66.6571 36.5539L68.3773 35.2638L74.828 44.2947L73.1078 31.8234L74.828 30.5333L83.4289 42.5745L81.7087 43.8647L75.258 34.8337L76.9782 47.305L75.258 48.5952L66.6571 36.5539Z" transform="translate(24.9426 26.2328)" />
<path d="M0 5.92234L0.926625 3.06189C3.06189 3.81393 4.61298 4.46526 5.57989 5.01586C5.32474 2.58515 5.19044 0.913196 5.17701 0H8.0979C8.05761 1.32951 7.90317 2.99474 7.63458 4.99572C9.0178 4.29739 10.6025 3.65278 12.3886 3.06189L13.3152 5.92234C11.6097 6.48637 9.93771 6.8624 8.29933 7.05041C9.11852 7.76216 10.2734 9.03123 11.7641 10.8576L9.34682 12.5699C8.56792 11.5089 7.64801 10.0653 6.58709 8.2389C5.59332 10.1324 4.72042 11.5761 3.96837 12.5699L1.59138 10.8576C3.14918 8.93723 4.26382 7.66816 4.93528 7.05041C3.2029 6.71467 1.5578 6.33865 0 5.92234Z" transform="translate(118.262 38.372)" />
<path d="M2.57008 19.0812H0V0.993799H2.57008V19.0812Z" transform="translate(87.7294 227.614)" />
<path d="M4.84463 16.1867C5.40433 15.3254 5.78413 14.4724 5.98403 13.6277C6.18392 12.7829 6.29529 11.5862 6.31814 10.0375L6.38667 5.63989H13.2059V16.1867H14.5424V23.1186H12.0665V19.0812H6.57514V23.1186H4.0479V16.1867H4.84463ZM7.76595 16.1867H10.7387V8.60891H8.81111L8.79398 10.2239C8.74258 12.6918 8.3999 14.6795 7.76595 16.1867Z" transform="translate(87.7294 227.614)" />
<path d="M19.6589 19.3297C18.2996 19.3297 17.1916 18.7252 16.335 17.516C15.484 16.3069 15.0585 14.6961 15.0585 12.6836V12.3358C15.0585 10.9858 15.2384 9.78083 15.5982 8.72076C15.958 7.65241 16.4663 6.83251 17.1231 6.26107C17.7856 5.68134 18.5395 5.39148 19.3848 5.39148C20.6527 5.39148 21.6493 5.9712 22.3746 7.13065C23.1057 8.2901 23.4712 9.93404 23.4712 12.0625V13.5283H17.5686C17.6485 14.4062 17.8884 15.1102 18.2882 15.6402C18.6937 16.1702 19.2049 16.4352 19.8217 16.4352C20.7755 16.4352 21.5208 15.9342 22.0577 14.9321L23.2742 16.9073C22.9029 17.6692 22.4003 18.2655 21.7664 18.6962C21.1324 19.1185 20.4299 19.3297 19.6589 19.3297ZM19.3762 8.29839C18.885 8.29839 18.4853 8.53856 18.1768 9.0189C17.8741 9.49924 17.68 10.1866 17.5943 11.0811H21.0382V10.7953C21.0268 10.0003 20.8783 9.38744 20.5927 8.95679C20.3072 8.51785 19.9017 8.29839 19.3762 8.29839Z" transform="translate(87.7294 227.614)" />
<path d="M32.9185 19.0812H30.4341V13.9134H27.3586V19.0812H24.8828V5.63989H27.3586V11.0313H30.4341V5.63989H32.9185V19.0812Z" transform="translate(87.7294 227.614)" />
<path d="M42.6592 8.52195H39.6865V19.0812H37.202V8.52195H34.2807V5.63989H42.6592V8.52195Z" transform="translate(87.7294 227.614)" />
<path d="M47.9659 5.63989H50.4417V19.0812H47.9659V10.7829L44.8647 19.0812H42.3803V5.63989H44.8647V13.9258L47.9659 5.63989Z" transform="translate(87.7294 227.614)" />
<path d="M52.3918 12.4599C52.3918 10.2984 52.6945 8.57993 53.2999 7.30453C53.911 6.02914 54.7505 5.39144 55.8186 5.39144C56.2355 5.39144 56.6153 5.51153 56.958 5.7517V0H59.4338V5.76412C59.7879 5.51567 60.1791 5.39144 60.6075 5.39144C61.6812 5.39144 62.5208 6.02914 63.1261 7.30453C63.7373 8.57165 64.0428 10.3771 64.0428 12.7208C64.0428 14.7499 63.7373 16.3607 63.1261 17.5532C62.515 18.7375 61.6812 19.3297 60.6246 19.3297C60.1848 19.3297 59.7879 19.2137 59.4338 18.9819V24.2491H56.958V18.9943C56.6153 19.2179 56.2298 19.3297 55.8014 19.3297C54.8019 19.3297 53.9995 18.7872 53.3941 17.7023C52.7887 16.6174 52.4575 15.1308 52.4004 13.2426L52.3918 12.4599ZM61.5584 12.4599C61.5584 11.1183 61.4185 10.0914 61.1386 9.37912C60.8588 8.65861 60.4647 8.29835 59.9564 8.29835C59.7965 8.29835 59.6223 8.32733 59.4338 8.38531V16.3731C59.5937 16.4228 59.7736 16.4476 59.9735 16.4476C60.9444 16.4476 61.4699 15.3793 61.5498 13.2426L61.5584 12.4599ZM54.8676 12.7208C54.8676 15.1971 55.3902 16.4352 56.4354 16.4352C56.6524 16.4352 56.8266 16.4145 56.958 16.3731V8.38531C56.7695 8.32733 56.601 8.29835 56.4525 8.29835C55.9442 8.29835 55.553 8.65032 55.2788 9.35428C55.0047 10.0499 54.8676 11.1721 54.8676 12.7208Z" transform="translate(87.7294 227.614)" />
<path d="M67.829 19.0812H65.3446V5.63989H67.829V19.0812ZM65.1989 2.16154C65.1989 1.62323 65.3217 1.18015 65.5673 0.832318C65.8186 0.484483 66.1584 0.310565 66.5868 0.310565C67.0094 0.310565 67.3464 0.484483 67.5977 0.832318C67.849 1.18015 67.9746 1.62323 67.9746 2.16154C67.9746 2.70814 67.8461 3.15536 67.5891 3.50319C67.3378 3.85103 67.0037 4.02495 66.5868 4.02495C66.1698 4.02495 65.8329 3.85103 65.5759 3.50319C65.3246 3.15536 65.1989 2.70814 65.1989 2.16154Z" transform="translate(87.7294 227.614)" />
<path d="M73.5935 14.1246H72.5997V19.0812H70.1239V5.63989H72.5997V10.6959H73.4821L75.5039 5.63989H78.6308L75.5981 12.0376L78.9135 19.0812H75.6153L73.5935 14.1246Z" transform="translate(87.7294 227.614)" />
<path d="M84.5262 19.0813C84.412 18.7583 84.3292 18.3566 84.2778 17.8763C83.6781 18.8452 82.8985 19.3297 81.939 19.3297C81.0309 19.3297 80.277 18.9488 79.6773 18.1868C79.0834 17.4249 78.7864 16.4642 78.7864 15.3048C78.7864 13.8803 79.149 12.7871 79.8744 12.0252C80.6054 11.2633 81.6592 10.8782 83.0356 10.8699H84.175V10.0997C84.175 9.47854 84.0636 8.98163 83.8409 8.60895C83.6238 8.23627 83.2783 8.04993 82.8043 8.04993C82.3873 8.04993 82.0589 8.19486 81.8191 8.48473C81.5849 8.77459 81.4678 9.17211 81.4678 9.6773H78.992C78.992 8.89881 79.1576 8.1783 79.4889 7.51576C79.8201 6.85321 80.2884 6.3356 80.8938 5.96292C81.4992 5.58196 82.1789 5.39148 82.9328 5.39148C84.075 5.39148 84.9803 5.80971 85.6485 6.64617C86.3224 7.47435 86.6594 8.64208 86.6594 10.1494V15.9756C86.6651 17.251 86.7879 18.2158 87.0278 18.8701V19.0813H84.5262ZM82.4787 16.5843C82.8442 16.5843 83.1812 16.4684 83.4896 16.2365C83.798 15.9963 84.0265 15.6775 84.175 15.2799V12.9693H83.2497C82.0104 12.9693 81.3507 13.5904 81.2708 14.8327L81.2622 15.0439C81.2622 15.4911 81.3707 15.8597 81.5878 16.1495C81.8048 16.4394 82.1018 16.5843 82.4787 16.5843Z" transform="translate(87.7294 227.614)" />
<path d="M88.3483 5.63989H90.8242V16.1867H93.9254V5.63989H96.4098V16.2116H97.7977L97.6263 23.0689H95.3218V19.0812H88.3483V5.63989Z" transform="translate(87.7294 227.614)" />
<path d="M101.341 19.0812H98.8568V5.63989H101.341V19.0812ZM98.7111 2.16154C98.7111 1.62323 98.8339 1.18015 99.0795 0.832318C99.3308 0.484483 99.6706 0.310565 100.099 0.310565C100.522 0.310565 100.859 0.484483 101.11 0.832318C101.361 1.18015 101.487 1.62323 101.487 2.16154C101.487 2.70814 101.358 3.15536 101.101 3.50319C100.85 3.85103 100.516 4.02495 100.099 4.02495C99.682 4.02495 99.3451 3.85103 99.0881 3.50319C98.8368 3.15536 98.7111 2.70814 98.7111 2.16154Z" transform="translate(87.7294 227.614)" />
<path d="M109.356 5.63986H111.831V19.0812H109.356V10.7829L106.254 19.0812H103.77V5.63986H106.254V13.9258L109.356 5.63986ZM110.812 0.186308C110.812 1.28779 110.538 2.17808 109.99 2.85718C109.447 3.53629 108.733 3.87584 107.848 3.87584C106.963 3.87584 106.246 3.54043 105.697 2.86961C105.155 2.19878 104.884 1.30435 104.884 0.186308H106.64C106.64 0.70806 106.746 1.11387 106.957 1.40373C107.174 1.68531 107.471 1.8261 107.848 1.8261C108.219 1.8261 108.51 1.68531 108.722 1.40373C108.933 1.11387 109.039 0.70806 109.039 0.186308H110.812Z" transform="translate(87.7294 227.614)" />
<path d="M122.186 19.0812H119.701V13.9134H116.626V19.0812H114.15V5.63989H116.626V11.0313H119.701V5.63989H122.186V19.0812Z" transform="translate(87.7294 227.614)" />
<path d="M129.819 5.63989H132.295V19.0812H129.819V10.7829L126.718 19.0812H124.233V5.63989H126.718V13.9258L129.819 5.63989Z" transform="translate(87.7294 227.614)" />
<path d="M140.199 5.63986H142.674V19.0812H140.199V10.7829L137.097 19.0812H134.613V5.63986H137.097V13.9258L140.199 5.63986ZM141.655 0.186308C141.655 1.28779 141.381 2.17808 140.833 2.85718C140.29 3.53629 139.576 3.87584 138.691 3.87584C137.806 3.87584 137.089 3.54043 136.541 2.86961C135.998 2.19878 135.727 1.30435 135.727 0.186308H137.483C137.483 0.70806 137.589 1.11387 137.8 1.40373C138.017 1.68531 138.314 1.8261 138.691 1.8261C139.062 1.8261 139.353 1.68531 139.565 1.40373C139.776 1.11387 139.882 0.70806 139.882 0.186308H141.655Z" transform="translate(87.7294 227.614)" />
<path d="M8.03578 13.6897H5.55137V8.52191H2.47584V13.6897H0V0.24841H2.47584V5.63985H5.55137V0.24841H8.03578V13.6897Z" transform="translate(236.578 233.006)" />
<path d="M9.69777 6.84489C9.69777 5.51153 9.87482 4.32309 10.2289 3.27959C10.583 2.23608 11.0913 1.42861 11.7538 0.857165C12.422 0.285722 13.1959 0 14.0755 0C15.3262 0 16.3457 0.55488 17.1339 1.66464C17.9277 2.7744 18.3704 4.28168 18.4617 6.18649L18.4789 7.10577C18.4789 9.16794 18.0819 10.8243 17.2881 12.0748C16.4942 13.3171 15.429 13.9382 14.0926 13.9382C12.7562 13.9382 11.6881 13.3171 10.8886 12.0748C10.0947 10.8326 9.69777 9.14309 9.69777 7.00639V6.84489ZM12.1736 7.10577C12.1736 8.38117 12.3392 9.35842 12.6705 10.0375C13.0017 10.7083 13.4758 11.0438 14.0926 11.0438C14.6923 11.0438 15.1606 10.7125 15.4976 10.0499C15.8345 9.37912 16.003 8.31077 16.003 6.84489C16.003 5.59435 15.8345 4.62538 15.4976 3.93799C15.1606 3.2506 14.6866 2.90691 14.0755 2.90691C13.4701 2.90691 13.0017 3.2506 12.6705 3.93799C12.3392 4.6171 12.1736 5.67302 12.1736 7.10577Z" transform="translate(236.578 233.006)" />
<path d="M25.8122 9.45361L28.2367 0.24841H31.3379V13.6897H28.862V5.44109L26.6432 13.6897H24.9812L22.8052 5.57774V13.6897H20.3294V0.24841H23.4049L25.8122 9.45361Z" transform="translate(236.578 233.006)" />
<path d="M37.4819 13.9382C36.1227 13.9382 35.0147 13.3337 34.158 12.1245C33.307 10.9154 32.8815 9.30459 32.8815 7.29211V6.94428C32.8815 5.59435 33.0614 4.38935 33.4212 3.32928C33.781 2.26093 34.2893 1.44103 34.9461 0.869588C35.6086 0.289863 36.3625 0 37.2078 0C38.4757 0 39.4723 0.579725 40.1977 1.73917C40.9287 2.89862 41.2942 4.54256 41.2942 6.67098V8.13685H35.3916C35.4716 9.01472 35.7114 9.71867 36.1112 10.2487C36.5167 10.7787 37.0279 11.0438 37.6447 11.0438C38.5985 11.0438 39.3438 10.5427 39.8807 9.54062L41.0972 11.5158C40.726 12.2777 40.2234 12.874 39.5894 13.3047C38.9555 13.7271 38.253 13.9382 37.4819 13.9382ZM37.1992 2.90691C36.7081 2.90691 36.3083 3.14708 35.9999 3.62742C35.6972 4.10777 35.503 4.79515 35.4173 5.68959H38.8612V5.40386C38.8498 4.60881 38.7013 3.99596 38.4157 3.56531C38.1302 3.12637 37.7247 2.90691 37.1992 2.90691Z" transform="translate(236.578 233.006)" />
<path d="M51.05 7.09335C51.05 9.1638 50.7244 10.8243 50.0733 12.0748C49.428 13.3171 48.5541 13.9382 47.4519 13.9382C46.5152 13.9382 45.7585 13.4662 45.1816 12.5221V18.8576H42.7058V0.248454H45.0017L45.0874 1.56526C45.6871 0.521753 46.4695 0 47.4347 0C48.577 0 49.4651 0.612852 50.099 1.83856C50.733 3.06426 51.05 4.75374 51.05 6.90701V7.09335ZM48.5741 6.83247C48.5741 5.58192 48.4199 4.6171 48.1115 3.93799C47.8088 3.25888 47.3662 2.91933 46.7836 2.91933C46.0069 2.91933 45.4729 3.34998 45.1816 4.21129V9.71453C45.4843 10.6007 46.024 11.0438 46.8008 11.0438C47.983 11.0438 48.5741 9.64 48.5741 6.83247Z" transform="translate(236.578 233.006)" />
<path d="M10.3039 13.2711C10.3039 16.3283 9.8676 18.6667 8.99498 20.2863C8.12236 21.906 6.84484 22.7158 5.16243 22.7158C3.50096 22.7158 2.23042 21.9212 1.35082 20.3319C0.471215 18.7426 0.0209429 16.4649 0 13.4989V9.4295C0 6.34201 0.439801 3.99855 1.3194 2.39913C2.20599 0.799711 3.48001 0 5.14148 0C6.80295 0 8.07349 0.794649 8.95309 2.38395C9.83269 3.96312 10.283 6.23572 10.3039 9.20173V13.2711ZM7.27766 8.80694C7.27766 6.97469 7.10313 5.64353 6.75409 4.81345C6.41202 3.97325 5.87448 3.55314 5.14148 3.55314C4.42942 3.55314 3.90236 3.953 3.56029 4.75271C3.22521 5.5423 3.04719 6.78236 3.02625 8.47288V13.8482C3.02625 15.65 3.19379 16.9913 3.52888 17.872C3.87095 18.7426 4.41546 19.1779 5.16243 19.1779C5.90241 19.1779 6.43645 18.7578 6.76456 17.9176C7.09266 17.0774 7.2637 15.7918 7.27766 14.0607V8.80694Z" transform="translate(132.435 260.342)" />
<path d="M21.8701 13.2711C21.8701 16.3283 21.4338 18.6667 20.5612 20.2863C19.6886 21.906 18.411 22.7158 16.7286 22.7158C15.0672 22.7158 13.7966 21.9212 12.917 20.3319C12.0374 18.7426 11.5871 16.4649 11.5662 13.4989V9.4295C11.5662 6.34201 12.006 3.99855 12.8856 2.39913C13.7722 0.799711 15.0462 0 16.7077 0C18.3692 0 19.6397 0.794649 20.5193 2.38395C21.3989 3.96312 21.8492 6.23572 21.8701 9.20173V13.2711ZM18.8439 8.80694C18.8439 6.97469 18.6693 5.64353 18.3203 4.81345C17.9782 3.97325 17.4407 3.55314 16.7077 3.55314C15.9956 3.55314 15.4686 3.953 15.1265 4.75271C14.7914 5.5423 14.6134 6.78236 14.5924 8.47288V13.8482C14.5924 15.65 14.76 16.9913 15.0951 17.872C15.4371 18.7426 15.9817 19.1779 16.7286 19.1779C17.4686 19.1779 18.0026 18.7578 18.3308 17.9176C18.6589 17.0774 18.8299 15.7918 18.8439 14.0607V8.80694Z" transform="translate(132.435 260.342)" />
<path d="M33.4363 13.2711C33.4363 16.3283 32.9999 18.6667 32.1273 20.2863C31.2547 21.906 29.9772 22.7158 28.2948 22.7158C26.6333 22.7158 25.3628 21.9212 24.4832 20.3319C23.6036 18.7426 23.1533 16.4649 23.1323 13.4989V9.4295C23.1323 6.34201 23.5721 3.99855 24.4517 2.39913C25.3383 0.799711 26.6124 0 28.2738 0C29.9353 0 31.2058 0.794649 32.0854 2.38395C32.965 3.96312 33.4153 6.23572 33.4363 9.20173V13.2711ZM30.41 8.80694C30.41 6.97469 30.2355 5.64353 29.8864 4.81345C29.5444 3.97325 29.0068 3.55314 28.2738 3.55314C27.5618 3.55314 27.0347 3.953 26.6926 4.75271C26.3575 5.5423 26.1795 6.78236 26.1586 8.47288V13.8482C26.1586 15.65 26.3261 16.9913 26.6612 17.872C27.0033 18.7426 27.5478 19.1779 28.2948 19.1779C29.0347 19.1779 29.5688 18.7578 29.8969 17.9176C30.225 17.0774 30.396 15.7918 30.41 14.0607V8.80694Z" transform="translate(132.435 260.342)" />
<path d="M45.0024 13.2711C45.0024 16.3283 44.5661 18.6667 43.6935 20.2863C42.8208 21.906 41.5433 22.7158 39.8609 22.7158C38.1994 22.7158 36.9289 21.9212 36.0493 20.3319C35.1697 18.7426 34.7194 16.4649 34.6985 13.4989V9.4295C34.6985 6.34201 35.1383 3.99855 36.0179 2.39913C36.9045 0.799711 38.1785 0 39.84 0C41.5014 0 42.772 0.794649 43.6516 2.38395C44.5312 3.96312 44.9815 6.23572 45.0024 9.20173V13.2711ZM41.9761 8.80694C41.9761 6.97469 41.8016 5.64353 41.4526 4.81345C41.1105 3.97325 40.573 3.55314 39.84 3.55314C39.1279 3.55314 38.6008 3.953 38.2588 4.75271C37.9237 5.5423 37.7457 6.78236 37.7247 8.47288V13.8482C37.7247 15.65 37.8923 16.9913 38.2274 17.872C38.5694 18.7426 39.1139 19.1779 39.8609 19.1779C40.6009 19.1779 41.1349 18.7578 41.463 17.9176C41.7911 17.0774 41.9622 15.7918 41.9761 14.0607V8.80694Z" transform="translate(132.435 260.342)" />
<path d="M56.5686 13.2711C56.5686 16.3283 56.1323 18.6667 55.2597 20.2863C54.387 21.906 53.1095 22.7158 51.4271 22.7158C49.7656 22.7158 48.4951 21.9212 47.6155 20.3319C46.7359 18.7426 46.2856 16.4649 46.2647 13.4989V9.4295C46.2647 6.34201 46.7045 3.99855 47.5841 2.39913C48.4707 0.799711 49.7447 0 51.4062 0C53.0676 0 54.3382 0.794649 55.2178 2.38395C56.0974 3.96312 56.5476 6.23572 56.5686 9.20173V13.2711ZM53.5423 8.80694C53.5423 6.97469 53.3678 5.64353 53.0188 4.81345C52.6767 3.97325 52.1392 3.55314 51.4062 3.55314C50.6941 3.55314 50.167 3.953 49.825 4.75271C49.4899 5.5423 49.3119 6.78236 49.2909 8.47288V13.8482C49.2909 15.65 49.4585 16.9913 49.7936 17.872C50.1356 18.7426 50.6801 19.1779 51.4271 19.1779C52.1671 19.1779 52.7011 18.7578 53.0292 17.9176C53.3573 17.0774 53.5284 15.7918 53.5423 14.0607V8.80694Z" transform="translate(132.435 260.342)" />
<path d="M68.1347 13.2711C68.1347 16.3283 67.6984 18.6667 66.8258 20.2863C65.9532 21.906 64.6757 22.7158 62.9933 22.7158C61.3318 22.7158 60.0612 21.9212 59.1816 20.3319C58.302 18.7426 57.8518 16.4649 57.8308 13.4989V9.4295C57.8308 6.34201 58.2706 3.99855 59.1502 2.39913C60.0368 0.799711 61.3108 0 62.9723 0C64.6338 0 65.9043 0.794649 66.7839 2.38395C67.6635 3.96312 68.1138 6.23572 68.1347 9.20173V13.2711ZM65.1085 8.80694C65.1085 6.97469 64.934 5.64353 64.5849 4.81345C64.2428 3.97325 63.7053 3.55314 62.9723 3.55314C62.2603 3.55314 61.7332 3.953 61.3911 4.75271C61.056 5.5423 60.878 6.78236 60.8571 8.47288V13.8482C60.8571 15.65 61.0246 16.9913 61.3597 17.872C61.7018 18.7426 62.2463 19.1779 62.9933 19.1779C63.7332 19.1779 64.2673 18.7578 64.5954 17.9176C64.9235 17.0774 65.0945 15.7918 65.1085 14.0607V8.80694Z" transform="translate(132.435 260.342)" />
<path d="M79.7009 13.2711C79.7009 16.3283 79.2646 18.6667 78.3919 20.2863C77.5193 21.906 76.2418 22.7158 74.5594 22.7158C72.8979 22.7158 71.6274 21.9212 70.7478 20.3319C69.8682 18.7426 69.4179 16.4649 69.397 13.4989V9.4295C69.397 6.34201 69.8368 3.99855 70.7164 2.39913C71.603 0.799711 72.877 0 74.5385 0C76.1999 0 77.4705 0.794649 78.3501 2.38395C79.2297 3.96312 79.6799 6.23572 79.7009 9.20173V13.2711ZM76.6746 8.80694C76.6746 6.97469 76.5001 5.64353 76.1511 4.81345C75.809 3.97325 75.2715 3.55314 74.5385 3.55314C73.8264 3.55314 73.2993 3.953 72.9573 4.75271C72.6222 5.5423 72.4442 6.78236 72.4232 8.47288V13.8482C72.4232 15.65 72.5908 16.9913 72.9259 17.872C73.2679 18.7426 73.8124 19.1779 74.5594 19.1779C75.2994 19.1779 75.8334 18.7578 76.1615 17.9176C76.4896 17.0774 76.6607 15.7918 76.6746 14.0607V8.80694Z" transform="translate(132.435 260.342)" />
<path d="M91.2671 13.2711C91.2671 16.3283 90.8308 18.6667 89.9581 20.2863C89.0855 21.906 87.808 22.7158 86.1256 22.7158C84.4641 22.7158 83.1936 21.9212 82.314 20.3319C81.4344 18.7426 80.9841 16.4649 80.9632 13.4989V9.4295C80.9632 6.34201 81.403 3.99855 82.2826 2.39913C83.1692 0.799711 84.4432 0 86.1047 0C87.7661 0 89.0367 0.794649 89.9163 2.38395C90.7959 3.96312 91.2461 6.23572 91.2671 9.20173V13.2711ZM88.2408 8.80694C88.2408 6.97469 88.0663 5.64353 87.7173 4.81345C87.3752 3.97325 86.8377 3.55314 86.1047 3.55314C85.3926 3.55314 84.8655 3.953 84.5235 4.75271C84.1884 5.5423 84.0104 6.78236 83.9894 8.47288V13.8482C83.9894 15.65 84.157 16.9913 84.4921 17.872C84.8341 18.7426 85.3786 19.1779 86.1256 19.1779C86.8656 19.1779 87.3996 18.7578 87.7277 17.9176C88.0558 17.0774 88.2269 15.7918 88.2408 14.0607V8.80694Z" transform="translate(132.435 260.342)" />
<path d="M103.13 13.2711C103.13 16.3283 102.693 18.6667 101.821 20.2863C100.948 21.906 99.6707 22.7158 97.9883 22.7158C96.3268 22.7158 95.0563 21.9212 94.1767 20.3319C93.2971 18.7426 92.8468 16.4649 92.8259 13.4989V9.4295C92.8259 6.34201 93.2657 3.99855 94.1453 2.39913C95.0318 0.799711 96.3059 0 97.9673 0C99.6288 0 100.899 0.794649 101.779 2.38395C102.659 3.96312 103.109 6.23572 103.13 9.20173V13.2711ZM100.104 8.80694C100.104 6.97469 99.929 5.64353 99.58 4.81345C99.2379 3.97325 98.7003 3.55314 97.9673 3.55314C97.2553 3.55314 96.7282 3.953 96.3862 4.75271C96.0511 5.5423 95.8731 6.78236 95.8521 8.47288V13.8482C95.8521 15.65 96.0197 16.9913 96.3547 17.872C96.6968 18.7426 97.2413 19.1779 97.9883 19.1779C98.7283 19.1779 99.2623 18.7578 99.5904 17.9176C99.9185 17.0774 100.09 15.7918 100.104 14.0607V8.80694Z" transform="translate(132.435 260.342)" />
<path d="M114.696 13.2711C114.696 16.3283 114.26 18.6667 113.387 20.2863C112.514 21.906 111.237 22.7158 109.554 22.7158C107.893 22.7158 106.622 21.9212 105.743 20.3319C104.863 18.7426 104.413 16.4649 104.392 13.4989V9.4295C104.392 6.34201 104.832 3.99855 105.711 2.39913C106.598 0.799711 107.872 0 109.534 0C111.195 0 112.466 0.794649 113.345 2.38395C114.225 3.96312 114.675 6.23572 114.696 9.20173V13.2711ZM111.67 8.80694C111.67 6.97469 111.495 5.64353 111.146 4.81345C110.804 3.97325 110.267 3.55314 109.534 3.55314C108.821 3.55314 108.294 3.953 107.952 4.75271C107.617 5.5423 107.439 6.78236 107.418 8.47288V13.8482C107.418 15.65 107.586 16.9913 107.921 17.872C108.263 18.7426 108.808 19.1779 109.554 19.1779C110.294 19.1779 110.829 18.7578 111.157 17.9176C111.485 17.0774 111.656 15.7918 111.67 14.0607V8.80694Z" transform="translate(132.435 260.342)" />
<path d="M0 5.92234L0.926625 3.06189C3.06189 3.81393 4.61298 4.46526 5.57989 5.01586C5.32474 2.58515 5.19044 0.913196 5.17701 0H8.0979C8.05761 1.32951 7.90317 2.99474 7.63458 4.99572C9.0178 4.29739 10.6025 3.65278 12.3886 3.06189L13.3152 5.92234C11.6097 6.48637 9.93771 6.8624 8.29933 7.05041C9.11852 7.76216 10.2734 9.03123 11.7641 10.8576L9.34682 12.5699C8.56792 11.5089 7.64801 10.0653 6.58709 8.2389C5.59332 10.1324 4.72042 11.5761 3.96837 12.5699L1.59138 10.8576C3.14918 8.93723 4.26382 7.66816 4.93528 7.05041C3.2029 6.71467 1.5578 6.33865 0 5.92234Z" transform="translate(239.965 38.372)" />
<path d="M13.655 11.3367H4.84068L2.86106 15.2674H0L8.03408 0.206886H10.4616L18.5102 15.2674H15.6636L13.655 11.3367ZM5.67877 9.70244H12.8314L9.24786 2.65835L5.67877 9.70244Z" transform="translate(123.398 78.8611)" />
<path d="M39.0285 18.9601H36.2686V15.2674H21.1686V18.9704H18.3942L18.3798 13.6434H20.0993C21.0048 12.9124 21.7225 11.9332 22.2523 10.7058C22.7918 9.47143 23.129 8.11985 23.2638 6.65103L23.7262 0.206886H36.312V13.6434H39.0574L39.0285 18.9601ZM23.2638 13.6434H33.5232V1.8412H26.3994L26.096 6.26832C25.9707 7.99917 25.648 9.47488 25.1278 10.6954C24.6173 11.916 23.9959 12.8987 23.2638 13.6434Z" transform="translate(123.398 78.8611)" />
<path d="M41.1716 15.2674V0.206886H48.0497C50.3328 0.206886 52.0475 0.544782 53.1938 1.22057C54.3498 1.89636 54.9278 2.89626 54.9278 4.22026C54.9278 4.92363 54.6484 5.5477 54.0897 6.09247C53.531 6.63035 52.77 7.04754 51.8066 7.34406C52.9433 7.57163 53.8392 8.00606 54.4943 8.64738C55.159 9.28179 55.4913 10.0403 55.4913 10.923C55.4913 12.2746 54.8796 13.3365 53.6562 14.1089C52.4328 14.8812 50.7036 15.2674 48.4687 15.2674H41.1716ZM43.9459 8.22328V13.6434H48.5265C49.8174 13.6434 50.8337 13.4055 51.5754 12.9297C52.3268 12.447 52.7025 11.785 52.7025 10.9437C52.7025 9.13008 51.325 8.22328 48.5699 8.22328H43.9459ZM43.9459 6.63035H48.1364C49.3502 6.63035 50.3183 6.41313 51.0408 5.97869C51.7729 5.54425 52.139 4.95466 52.139 4.20991C52.139 3.38241 51.8018 2.78248 51.1275 2.4101C50.4532 2.03083 49.4272 1.8412 48.0497 1.8412H43.9459V6.63035Z" transform="translate(123.398 78.8611)" />
<path d="M74.1271 8.22327C74.1271 9.69898 73.7803 10.9885 73.0868 12.0918C72.3932 13.1883 71.4106 14.0261 70.139 14.6054C68.8674 15.1846 67.3839 15.4742 65.6885 15.4742C64.0316 15.4742 62.5625 15.1846 61.2813 14.6054C60.0001 14.0192 59.003 13.1883 58.2902 12.1125C57.587 11.0299 57.2257 9.77828 57.2064 8.35774V7.27165C57.2064 5.82352 57.5581 4.54435 58.2613 3.43412C58.9645 2.32389 59.9567 1.47571 61.2379 0.889562C62.5288 0.296521 64.0027 0 65.6596 0C67.3454 0 68.8289 0.293073 70.1101 0.879218C71.4009 1.45847 72.3932 2.30321 73.0868 3.41343C73.7803 4.51677 74.1271 5.80284 74.1271 7.27165V8.22327ZM71.3672 7.25096C71.3672 5.46494 70.8663 4.09612 69.8645 3.1445C68.8626 2.18598 67.461 1.70672 65.6596 1.70672C63.9063 1.70672 62.524 2.18598 61.5125 3.1445C60.5106 4.09612 59.9953 5.42012 59.9664 7.11649V8.22327C59.9664 9.95412 60.4721 11.316 61.4836 12.309C62.5047 13.2952 63.9063 13.7882 65.6885 13.7882C67.4802 13.7882 68.8674 13.3227 69.85 12.3918C70.8326 11.454 71.3383 10.1127 71.3672 8.36808V7.25096Z" transform="translate(123.398 78.8611)" />
<path d="M81.8974 8.50256H79.3397V15.2674H76.5654V0.206886H79.3397V6.84757H81.5072L88.8622 0.206886H92.3156L84.2816 7.50956L92.9081 15.2674H89.5124L81.8974 8.50256Z" transform="translate(123.398 78.8611)" />
<path d="M105.255 11.3367H96.4405L94.4608 15.2674H91.5998L99.6339 0.206886H102.061L110.11 15.2674H107.263L105.255 11.3367ZM97.2785 9.70244H104.431L100.848 2.65835L97.2785 9.70244Z" transform="translate(123.398 78.8611)" />
<path d="M126.236 1.8412H119.473V15.2674H116.713V1.8412H109.965V0.206886H126.236V1.8412Z" transform="translate(123.398 78.8611)" />
<path d="M24.2619 15.6345C24.0302 18.1061 22.8447 20.0519 20.7054 21.4718C18.5797 22.8917 15.7726 23.6016 12.2842 23.6016C8.46884 23.6016 5.46421 22.6129 3.27035 20.6356C1.09012 18.6478 0 15.9237 0 12.4634V11.0593C0 8.8506 0.504179 6.90483 1.51254 5.22201C2.52089 3.53919 3.95848 2.25078 5.82531 1.35678C7.70576 0.452259 9.88599 0 12.366 0C15.7999 0 18.566 0.709941 20.6645 2.12982C22.763 3.54971 23.9757 5.5428 24.3028 8.10911H18.1709C18.021 6.62612 17.4827 5.55332 16.5561 4.89071C15.6432 4.21758 14.2465 3.88101 12.366 3.88101C10.322 3.88101 8.78906 4.44896 7.76708 5.58487C6.75872 6.71026 6.24091 8.46145 6.21366 10.8384V12.5738C6.21366 15.056 6.6974 16.8703 7.66488 18.0167C8.64598 19.1632 10.1858 19.7364 12.2842 19.7364C14.1783 19.7364 15.5887 19.4051 16.5153 18.7424C17.4555 18.0693 17.9937 17.0333 18.13 15.6345H24.2619Z" transform="translate(107.979 111.79)" />
<path d="M40.9306 6.21593H46.8376V23.2861H40.9306V12.7474L33.5314 23.2861H27.6039V6.21593H33.5314V16.7388L40.9306 6.21593Z" transform="translate(107.979 111.79)" />
<path d="M51.133 19.6101C52.4683 18.5163 53.3745 17.433 53.8514 16.3602C54.3284 15.2874 54.5941 13.7676 54.6486 11.8008L54.8121 6.21593H71.0821V19.6101H74.2707V28.4134H68.3636V23.2861H55.2618V28.4134H49.2321V19.6101H51.133ZM58.1029 19.6101H65.1954V9.9865H60.5965L60.5556 12.0374C60.433 15.1717 59.6154 17.6959 58.1029 19.6101Z" transform="translate(107.979 111.79)" />
<path d="M75.7093 14.5511C75.7093 12.8578 76.1318 11.3485 76.9766 10.0233C77.8214 8.69804 79.0342 7.67257 80.6149 6.94685C82.2091 6.22113 84.0555 5.85827 86.154 5.85827C89.1382 5.85827 91.5705 6.56295 93.451 7.97232C95.3451 9.38168 96.4011 11.2959 96.6191 13.715L96.66 14.8824C96.66 17.5013 95.713 19.6048 93.8189 21.193C91.9248 22.7706 89.3835 23.5595 86.1949 23.5595C83.0063 23.5595 80.4581 22.7706 78.5504 21.193C76.6564 19.6154 75.7093 17.4698 75.7093 14.7562V14.5511ZM81.6164 14.8824C81.6164 16.5021 82.0116 17.7432 82.8019 18.6057C83.5922 19.4576 84.7232 19.8836 86.1949 19.8836C87.6257 19.8836 88.743 19.4628 89.547 18.6214C90.351 17.7695 90.7529 16.4127 90.7529 14.5511C90.7529 12.9629 90.351 11.7324 89.547 10.8594C88.743 9.98645 87.612 9.54997 86.154 9.54997C84.7096 9.54997 83.5922 9.98645 82.8019 10.8594C82.0116 11.7219 81.6164 13.0629 81.6164 14.8824Z" transform="translate(107.979 111.79)" />
<path d="M119.76 14.9087C119.76 17.5381 118.983 19.6469 117.43 21.2351C115.89 22.8127 113.805 23.6016 111.175 23.6016C108.94 23.6016 107.135 23.0021 105.759 21.8031V29.8491H99.8516V6.2159H105.329L105.534 7.88821C106.965 6.56299 108.831 5.90037 111.134 5.90037C113.86 5.90037 115.978 6.67868 117.491 8.23529C119.004 9.7919 119.76 11.9375 119.76 14.6721V14.9087ZM113.853 14.5774C113.853 12.9893 113.485 11.764 112.749 10.9015C112.027 10.0391 110.971 9.60784 109.581 9.60784C107.728 9.60784 106.454 10.1548 105.759 11.2486V18.2376C106.481 19.363 107.769 19.9257 109.622 19.9257C112.442 19.9257 113.853 18.1429 113.853 14.5774Z" transform="translate(107.979 111.79)" />
<path d="M122.154 14.5932C122.154 12.8999 122.577 11.3906 123.422 10.0654C124.266 8.74014 125.479 7.71467 127.06 6.98895C128.654 6.26323 130.5 5.90037 132.599 5.90037C135.583 5.90037 138.015 6.60506 139.896 8.01442C141.79 9.42379 142.846 11.338 143.064 13.7571L143.105 14.9245C143.105 17.5434 142.158 19.6469 140.264 21.2351C138.37 22.8127 135.828 23.6016 132.64 23.6016C129.451 23.6016 126.903 22.8127 124.995 21.2351C123.101 19.6575 122.154 17.5119 122.154 14.7983V14.5932ZM128.061 14.9245C128.061 16.5442 128.457 17.7853 129.247 18.6478C130.037 19.4997 131.168 19.9257 132.64 19.9257C134.071 19.9257 135.188 19.5049 135.992 18.6635C136.796 17.8116 137.198 16.4548 137.198 14.5932C137.198 13.005 136.796 11.7745 135.992 10.9015C135.188 10.0285 134.057 9.59207 132.599 9.59207C131.155 9.59207 130.037 10.0285 129.247 10.9015C128.457 11.764 128.061 13.105 128.061 14.9245Z" transform="translate(107.979 111.79)" />
<path d="M146.255 23.2861V6.21593H155.494C158.505 6.21593 160.815 6.62612 162.423 7.44649C164.031 8.26687 164.835 9.44484 164.835 10.9804C164.835 11.7692 164.494 12.4792 163.813 13.1102C163.145 13.7308 162.164 14.2093 160.869 14.5459C162.45 14.7773 163.69 15.2348 164.589 15.9185C165.502 16.5916 165.959 17.4225 165.959 18.4111C165.959 19.9993 165.182 21.2088 163.629 22.0397C162.089 22.8706 159.847 23.2861 156.904 23.2861H146.255ZM152.162 16.2024V19.6417H156.924C159.009 19.6417 160.052 19.079 160.052 17.9536C160.052 16.8072 159.057 16.2235 157.067 16.2024H152.162ZM152.162 13.1418H155.821C157.892 13.1208 158.927 12.6054 158.927 11.5957C158.927 10.9752 158.641 10.5334 158.069 10.2705C157.51 10.0075 156.652 9.87607 155.494 9.87607H152.162V13.1418Z" transform="translate(107.979 111.79)" />
<path d="M6.1319 22.9705H0V0H6.1319V22.9705Z" transform="translate(152.701 151.24)" />
<path d="M11.2229 22.9705V5.90037H20.4616C23.4731 5.90037 25.7827 6.31056 27.3907 7.13094C28.9986 7.95132 29.8025 9.12929 29.8025 10.6649C29.8025 11.4537 29.4619 12.1636 28.7806 12.7947C28.1129 13.4152 27.1318 13.8938 25.8372 14.2303C27.4179 14.4617 28.6579 14.9193 29.5573 15.6029C30.4702 16.276 30.9267 17.1069 30.9267 18.0956C30.9267 19.6837 30.15 20.8933 28.5966 21.7242C27.0568 22.5551 24.8153 22.9705 21.8719 22.9705H11.2229ZM17.1299 15.8869V19.3261H21.8924C23.9772 19.3261 25.0197 18.7635 25.0197 17.6381C25.0197 16.4916 24.0249 15.9079 22.0355 15.8869H17.1299ZM17.1299 12.8262H20.7886C22.8599 12.8052 23.8955 12.2898 23.8955 11.2802C23.8955 10.6596 23.6093 10.2179 23.037 9.95493C22.4783 9.69198 21.6199 9.56051 20.4616 9.56051H17.1299V12.8262Z" transform="translate(152.701 151.24)" />
<path d="M46.4426 22.9705C46.1701 22.5604 45.9725 22.0502 45.8499 21.4402C44.4191 22.6708 42.5591 23.2861 40.2699 23.2861C38.1032 23.2861 36.3046 22.8023 34.8738 21.8346C33.4566 20.867 32.7481 19.647 32.7481 18.1745C32.7481 16.3655 33.6133 14.9771 35.3439 14.0095C37.0881 13.0419 39.6022 12.5528 42.8861 12.5423H45.6046V11.5642C45.6046 10.7753 45.3389 10.1443 44.8075 9.67098C44.2897 9.19769 43.4653 8.96104 42.3343 8.96104C41.3395 8.96104 40.556 9.1451 39.9837 9.51321C39.425 9.88133 39.1457 10.3862 39.1457 11.0278H33.2386C33.2386 10.0391 33.6338 9.12406 34.4241 8.28265C35.2144 7.44124 36.3318 6.78389 37.7762 6.31059C39.2206 5.82678 40.8422 5.58487 42.6409 5.58487C45.3661 5.58487 47.5259 6.11602 49.1202 7.1783C50.7282 8.23006 51.5321 9.71305 51.5321 11.6273V19.0264C51.5457 20.6461 51.8387 21.8714 52.411 22.7023V22.9705H46.4426ZM41.5576 19.7995C42.4296 19.7995 43.2336 19.6522 43.9694 19.3577C44.7053 19.0527 45.2503 18.6478 45.6046 18.1429V15.2085H43.3971C40.4402 15.2085 38.8663 15.9973 38.6756 17.575L38.6551 17.8432C38.6551 18.4111 38.914 18.8792 39.4318 19.2473C39.9496 19.6154 40.6582 19.7995 41.5576 19.7995Z" transform="translate(152.701 151.24)" />
<path d="M74.7317 22.9705H68.8042V16.4075H61.4663V22.9705H55.5593V5.90037H61.4663V12.7474H68.8042V5.90037H74.7317V22.9705Z" transform="translate(152.701 151.24)" />
<path d="M6.1319 22.9705H0V0H6.1319V22.9705Z" transform="translate(106.687 190.804)" />
<path d="M11.2228 22.9706V5.90043H20.4616C23.473 5.90043 25.7827 6.31061 27.3906 7.13099C28.9985 7.95137 29.8025 9.12934 29.8025 10.6649C29.8025 11.4537 29.4618 12.1637 28.7805 12.7947C28.1128 13.4153 27.1317 13.8938 25.8372 14.2304C27.4179 14.4618 28.6579 14.9193 29.5572 15.603C30.4702 16.2761 30.9267 17.107 30.9267 18.0956C30.9267 19.6838 30.15 20.8933 28.5965 21.7242C27.0568 22.5551 24.8152 22.9706 21.8719 22.9706H11.2228ZM17.1299 15.8869V19.3262H21.8923C23.9772 19.3262 25.0196 18.7635 25.0196 17.6381C25.0196 16.4917 24.0249 15.908 22.0354 15.8869H17.1299ZM17.1299 12.8263H20.7886C22.8598 12.8053 23.8954 12.2899 23.8954 11.2802C23.8954 10.6597 23.6093 10.2179 23.037 9.95498C22.4783 9.69204 21.6198 9.56057 20.4616 9.56057H17.1299V12.8263Z" transform="translate(106.687 190.804)" />
<path d="M47.3027 22.9705C47.0302 22.5604 46.8326 22.0502 46.7099 21.4402C45.2792 22.6708 43.4191 23.2861 41.1299 23.2861C38.9633 23.2861 37.1646 22.8023 35.7338 21.8346C34.3167 20.867 33.6081 19.647 33.6081 18.1745C33.6081 16.3655 34.4734 14.9771 36.2039 14.0095C37.9481 13.0419 40.4622 12.5528 43.7462 12.5423H46.4647V11.5642C46.4647 10.7753 46.1989 10.1443 45.6675 9.67098C45.1497 9.19769 44.3253 8.96104 43.1943 8.96104C42.1996 8.96104 41.4161 9.1451 40.8437 9.51321C40.2851 9.88133 40.0057 10.3862 40.0057 11.0278H34.0987C34.0987 10.0391 34.4938 9.12406 35.2842 8.28265C36.0745 7.44124 37.1919 6.78389 38.6363 6.31059C40.0807 5.82678 41.7022 5.58487 43.5009 5.58487C46.2262 5.58487 48.386 6.11602 49.9803 7.1783C51.5882 8.23006 52.3922 9.71305 52.3922 11.6273V19.0264C52.4058 20.6461 52.6988 21.8714 53.2711 22.7023V22.9705H47.3027ZM42.4176 19.7995C43.2897 19.7995 44.0936 19.6522 44.8295 19.3577C45.5653 19.0527 46.1104 18.6478 46.4647 18.1429V15.2085H44.2572C41.3002 15.2085 39.7264 15.9973 39.5356 17.575L39.5152 17.8432C39.5152 18.4111 39.7741 18.8792 40.2919 19.2473C40.8097 19.6154 41.5183 19.7995 42.4176 19.7995Z" transform="translate(106.687 190.804)" />
<path d="M76.0218 22.9706H70.0943V16.4076H62.7565V22.9706H56.8494V5.90043H62.7565V12.7474H70.0943V5.90043H76.0218V22.9706Z" transform="translate(106.687 190.804)" />
<path d="M79.1521 14.2777C79.1521 12.5844 79.5745 11.0751 80.4194 9.74986C81.2642 8.42464 82.477 7.39917 84.0576 6.67345C85.6519 5.94773 87.4983 5.58487 89.5968 5.58487C92.581 5.58487 95.0133 6.28956 96.8938 7.69892C98.7878 9.10829 99.8439 11.0225 100.062 13.4416L100.103 14.609C100.103 17.2279 99.1557 19.3314 97.2617 20.9196C95.3676 22.4972 92.8263 23.2861 89.6377 23.2861C86.4491 23.2861 83.9009 22.4972 81.9932 20.9196C80.0992 19.342 79.1521 17.1964 79.1521 14.4828V14.2777ZM85.0592 14.609C85.0592 16.2287 85.4544 17.4698 86.2447 18.3323C87.035 19.1842 88.166 19.6102 89.6377 19.6102C91.0685 19.6102 92.1858 19.1894 92.9898 18.348C93.7937 17.4961 94.1957 16.1393 94.1957 14.2777C94.1957 12.6895 93.7937 11.459 92.9898 10.586C92.1858 9.71305 91.0548 9.27657 89.5968 9.27657C88.1524 9.27657 87.035 9.71305 86.2447 10.586C85.4544 11.4485 85.0592 12.7895 85.0592 14.609Z" transform="translate(106.687 190.804)" />
<path d="M104.113 22.9706V5.90043H113.351C116.363 5.90043 118.673 6.31061 120.281 7.13099C121.888 7.95137 122.692 9.12934 122.692 10.6649C122.692 11.4537 122.352 12.1637 121.67 12.7947C121.003 13.4153 120.022 13.8938 118.727 14.2304C120.308 14.4618 121.548 14.9193 122.447 15.603C123.36 16.2761 123.817 17.107 123.817 18.0956C123.817 19.6838 123.04 20.8933 121.486 21.7242C119.947 22.5551 117.705 22.9706 114.762 22.9706H104.113ZM110.02 15.8869V19.3262H114.782C116.867 19.3262 117.91 18.7635 117.91 17.6381C117.91 16.4917 116.915 15.908 114.925 15.8869H110.02ZM110.02 12.8263H113.678C115.75 12.8053 116.785 12.2899 116.785 11.2802C116.785 10.6597 116.499 10.2179 115.927 9.95498C115.368 9.69204 114.51 9.56057 113.351 9.56057H110.02V12.8263Z" transform="translate(106.687 190.804)" />
<path d="M140.274 5.90043H146.181V22.9706H140.274V12.4319L132.874 22.9706H126.947V5.90043H132.874V16.4233L140.274 5.90043Z" transform="translate(106.687 190.804)" />
<path d="M169.24 22.9706H163.333V17.6066C162.23 17.7643 161.201 17.8432 160.247 17.8432C156.908 17.8432 154.394 17.2963 152.705 16.2025C151.015 15.1086 150.157 13.5099 150.129 11.4064V5.90043H156.036V11.4064C156.05 12.3951 156.363 13.105 156.977 13.5362C157.59 13.9569 158.68 14.1673 160.247 14.1673C161.228 14.1673 162.257 14.0779 163.333 13.8991V5.90043H169.24V22.9706Z" transform="translate(106.687 190.804)" />
</g></svg>
