<!-- Generated by IcoMoon.io -->
<svg version="1.1" xmlns="http://www.w3.org/2000/svg" width="24" height="24" viewBox="0 0 24 24">
<title>messenger</title>
<path fill="#fff" d="M11.994 0c-2.479 0-4.66 0.655-6.544 1.964-1.785 1.244-3.057 2.865-3.818 4.862-0.727 1.964-0.826 3.929-0.297 5.893 0.562 2.128 1.818 3.928 3.768 5.402v3.879l3.718-2.063c2.314 0.622 4.578 0.573 6.792-0.147 2.181-0.72 3.933-1.932 5.255-3.634 1.421-1.768 2.132-3.765 2.132-5.991 0-1.833-0.496-3.519-1.487-5.058-0.991-1.571-2.33-2.815-4.016-3.732s-3.52-1.375-5.503-1.375zM13.134 13.652l-2.826-2.946-5.454 3.045 5.999-6.335 2.826 2.946 5.503-2.996-6.049 6.286z"></path>
</svg>
