<!-- Generated by IcoMoon.io -->
<svg version="1.1" xmlns="http://www.w3.org/2000/svg" width="24" height="24" viewBox="0 0 24 24">
<title>phone-outline</title>
<path fill="#fff" d="M3 17.893c0-0.094 0-0.188 0.040-0.281 0.094-0.281 0.75-0.576 1.018-0.71 0.763-0.429 1.54-0.844 2.29-1.286 0.348-0.214 0.777-0.616 1.192-0.616 0.817 0 2.009 2.424 2.732 2.424 0.362 0 0.83-0.335 1.152-0.522 2.437-1.353 4.125-3.040 5.478-5.478 0.188-0.321 0.522-0.79 0.522-1.152 0-0.723-2.424-1.915-2.424-2.732 0-0.415 0.402-0.844 0.616-1.192 0.442-0.75 0.857-1.527 1.286-2.29 0.134-0.268 0.429-0.924 0.71-1.018 0.094-0.040 0.188-0.040 0.281-0.040 0.482 0 1.42 0.214 1.862 0.415 0.656 0.281 1.085 1.031 1.42 1.634 0.429 0.79 0.683 1.594 0.683 2.491 0 1.246-0.509 2.371-0.924 3.509-0.295 0.817-0.656 1.607-1.112 2.344-1.406 2.277-4.152 5.022-6.429 6.429-0.737 0.455-1.527 0.817-2.344 1.112-1.138 0.415-2.263 0.924-3.509 0.924-0.897 0-1.701-0.254-2.491-0.683-0.603-0.335-1.353-0.763-1.634-1.42-0.201-0.442-0.415-1.38-0.415-1.862z"></path>
</svg>
