<!-- Generated by IcoMoon.io -->
<svg version="1.1" xmlns="http://www.w3.org/2000/svg" width="24" height="24" viewBox="0 0 24 24">
<title>viber</title>
<path fill="#fff" d="M21.402 2.344c-0.569-0.5-1.374-0.953-2.417-1.359-1.706-0.625-3.727-0.953-6.065-0.984h-1.042c-0.853 0-1.69 0.063-2.511 0.188-1.169 0.156-2.211 0.391-3.127 0.703-1.169 0.406-2.116 0.938-2.843 1.594-0.821 0.813-1.421 1.859-1.801 3.141-0.347 1.156-0.537 2.562-0.569 4.219-0.063 1.562-0.016 2.812 0.142 3.75 0.221 1.625 0.679 2.969 1.374 4.031 0.948 1.344 2.29 2.25 4.027 2.719v2.719c0.032 0.188 0.079 0.359 0.142 0.516 0.095 0.188 0.237 0.312 0.426 0.375 0.316 0.094 0.616 0.047 0.9-0.141 0.158-0.125 0.411-0.375 0.758-0.75l0.379-0.422c0.284-0.312 0.758-0.828 1.421-1.547 1.643 0.125 3.285 0.078 4.928-0.141 1.042-0.125 1.801-0.266 2.274-0.422l0.284-0.047c1.263-0.312 2.29-0.781 3.080-1.406 1.453-1.188 2.322-2.922 2.606-5.203 0.347-2.875 0.3-5.328-0.142-7.359-0.442-1.875-1.185-3.266-2.227-4.172zM22.065 13.453c-0.253 1.875-0.963 3.281-2.132 4.219-0.632 0.5-1.453 0.875-2.464 1.125l-0.284 0.047c-0.411 0.125-1.074 0.25-1.99 0.375-1.421 0.187-2.827 0.234-4.217 0.141l-1.327 1.594c-0.948 1.094-1.579 1.797-1.895 2.109-0.158 0.156-0.3 0.203-0.426 0.141-0.095-0.031-0.142-0.156-0.142-0.375l0.047-4.031c-1.421-0.406-2.511-1.141-3.269-2.203-0.569-0.875-0.948-1.969-1.137-3.281-0.095-0.75-0.126-1.797-0.095-3.141v-0.281c0.032-1.375 0.19-2.547 0.474-3.516 0.347-1.094 0.869-1.969 1.564-2.625 0.6-0.563 1.39-1.016 2.369-1.359 0.79-0.25 1.674-0.438 2.653-0.563 0.695-0.094 1.406-0.141 2.132-0.141h0.9c1.99 0.031 3.727 0.297 5.212 0.797 0.948 0.312 1.643 0.672 2.085 1.078 0.885 0.75 1.5 1.953 1.848 3.609 0.379 1.75 0.411 3.844 0.095 6.281zM15.479 9.656c0 0.219-0.111 0.328-0.332 0.328-0.19 0-0.284-0.094-0.284-0.281-0.063-1-0.584-1.531-1.564-1.594-0.189 0-0.284-0.094-0.284-0.281 0.032-0.219 0.142-0.328 0.332-0.328 1.358 0.063 2.069 0.781 2.132 2.156zM16.426 10.172c0.032-1-0.268-1.844-0.9-2.531s-1.532-1.078-2.701-1.172c-0.189 0-0.284-0.094-0.284-0.281 0.032-0.219 0.142-0.328 0.332-0.328 1.327 0.094 2.353 0.547 3.080 1.359 0.758 0.813 1.121 1.812 1.090 3 0 0.187-0.111 0.281-0.332 0.281-0.19 0-0.284-0.109-0.284-0.328zM18.653 10.828c0 0.188-0.111 0.281-0.332 0.281-0.189 0-0.284-0.094-0.284-0.281 0-1.844-0.569-3.312-1.706-4.406-1.042-1-2.369-1.5-3.98-1.5-0.221 0-0.332-0.094-0.332-0.281 0-0.219 0.111-0.328 0.332-0.328 1.8 0 3.285 0.578 4.454 1.734 1.232 1.188 1.848 2.781 1.848 4.781zM18.132 15.422c-0.316 0.531-0.663 0.937-1.043 1.219-0.505 0.375-0.979 0.484-1.421 0.328-0.537-0.156-1.279-0.484-2.227-0.984-1.042-0.563-1.927-1.125-2.653-1.688s-1.39-1.219-1.99-1.969c-0.505-0.656-0.979-1.359-1.421-2.109-0.442-0.781-0.774-1.469-0.995-2.063l-0.284-0.609c-0.126-0.438-0.016-0.906 0.332-1.406 0.316-0.375 0.742-0.719 1.279-1.031 0.442-0.219 0.821-0.156 1.137 0.188l0.853 1.031c0.221 0.312 0.458 0.687 0.711 1.125 0.126 0.25 0.158 0.5 0.095 0.75-0.032 0.219-0.126 0.391-0.284 0.516l-0.569 0.422c-0.126 0.094-0.205 0.234-0.237 0.422v0.234l0.19 0.516c0.158 0.406 0.363 0.797 0.616 1.172 0.347 0.531 0.758 0.969 1.232 1.313 0.569 0.469 1.216 0.797 1.943 0.984l0.237-0.047c0.189-0.031 0.332-0.109 0.426-0.234l0.474-0.563c0.126-0.156 0.3-0.25 0.521-0.281 0.253-0.062 0.49-0.016 0.711 0.141 0.885 0.469 1.611 0.969 2.18 1.5 0.348 0.312 0.411 0.687 0.19 1.125z"></path>
</svg>
