<svg width="375" height="375" viewBox="0 0 375 375" fill="none" xmlns="http://www.w3.org/2000/svg">
<g id="segment" class="segment"><path fill-rule="evenodd" clip-rule="evenodd" d="M135.548 0L151.079 8.40027L194.07 23.5392L203.35 38.5821L232.949 73.2277L233.437 90.9069L241.783 135.645L233.383 151.176L218.244 194.07L203.201 203.35L168.555 232.949L150.876 233.437L106.138 241.783L90.6072 233.383L47.7131 218.244L38.4339 203.202L8.83435 168.653L8.34596 150.973L0 106.235L8.40028 90.704L23.5392 47.7132L38.5816 38.4338L73.1305 8.83435L90.8102 8.34596L135.548 0ZM135.326 1.41593L90.9536 9.69368L73.6462 10.1718L39.3807 39.5285L24.6551 48.6125L9.63937 91.2532L1.41593 106.457L9.69368 150.83L10.1718 168.137L39.5285 202.403L48.6126 217.128L91.1567 232.144L106.36 240.367L150.733 232.09L168.041 231.611L202.403 202.254L217.128 193.171L232.144 150.626L240.367 135.423L232.09 91.0503L231.611 73.7423L202.254 39.3803L193.171 24.6551L150.53 9.63937L135.326 1.41593Z" transform="translate(66.6567 66.5601)" />
<path fill-rule="evenodd" clip-rule="evenodd" d="M134.075 0L134.323 0.130056C142.221 4.27137 150.121 8.41441 158.023 12.6534L195.612 21.1038L195.762 21.3447C198.128 25.1588 200.518 28.9491 202.909 32.7419L202.911 32.7451L202.911 32.7453C205.287 36.5128 207.664 40.2827 210.018 44.0767C214.678 48.4004 219.339 52.7004 224 57.0012L224.012 57.0129C228.7 61.3379 233.388 65.6636 238.076 70.0135L238.283 70.2053L238.292 70.487C238.437 74.9791 238.606 79.4715 238.775 83.9538L238.785 84.2197C238.95 88.5819 239.114 92.9344 239.256 97.2644C241.131 103.325 243.007 109.409 244.883 115.493L244.891 115.519C246.773 121.624 248.655 127.728 250.537 133.808L250.619 134.074L250.49 134.321C246.348 142.219 242.205 150.12 237.966 158.021C236.577 164.2 235.188 170.355 233.799 176.509L233.782 176.585C232.38 182.795 230.979 189.005 229.578 195.238L229.516 195.511L229.28 195.661C221.669 200.478 214.154 205.199 206.542 209.92C202.219 214.58 197.92 219.24 193.62 223.9L193.606 223.915C189.281 228.602 184.956 233.29 180.606 237.979L180.417 238.182L180.139 238.194C175.644 238.387 171.174 238.557 166.705 238.726L166.702 238.726C162.26 238.894 157.821 239.062 153.358 239.253C141.208 243.014 129.057 246.775 116.81 250.536L116.541 250.619L116.292 250.486C108.397 246.249 100.5 242.108 92.601 237.965C86.3945 236.57 80.2121 235.151 74.0314 233.732L74.0177 233.728C67.8123 232.304 61.6086 230.88 55.381 229.48L55.1067 229.418L54.9572 229.18C52.5928 225.416 50.2043 221.629 47.8154 217.84L47.8057 217.825C45.4296 214.057 43.0532 210.288 40.7004 206.543L12.4341 180.316L12.4249 180.035C12.136 171.176 11.7511 162.22 11.3658 153.26L0 116.54L0.133671 116.291C4.37039 108.395 8.51139 100.499 12.6538 92.5998C14.0491 86.394 15.4682 80.1884 16.887 73.9842L16.8874 73.9825C18.313 67.7484 19.7383 61.5158 21.1394 55.2833L21.2011 55.009L21.4392 54.8594C24.3419 53.0359 27.2572 51.2135 30.1805 49.3861C34.8294 46.4799 39.4988 43.561 44.1707 40.6045C52.7544 31.2497 61.4341 21.8952 70.1137 12.6369L70.302 12.436L70.5772 12.424C79.4386 12.0388 88.3999 11.6533 97.3623 11.3636L134.075 0ZM97.5879 12.7081L97.4969 12.7111C88.6054 12.9979 79.7133 13.3794 70.9111 13.762C62.277 22.973 53.6436 32.2786 45.1056 41.5841L45.045 41.6502L44.9691 41.6982C40.2696 44.6726 35.5676 47.6119 30.8901 50.5359C28.0477 52.3128 25.2143 54.084 22.396 55.854C21.0142 61.9973 19.6094 68.1404 18.2049 74.2821L18.2046 74.2837C16.7789 80.5178 15.3536 86.7505 13.9525 92.983L13.933 93.0698L13.8911 93.1498C9.77912 100.991 5.66548 108.836 1.45792 116.681L12.7082 153.028L12.712 153.117C13.0945 162.009 13.4771 170.906 13.7661 179.709L41.7498 205.673L41.7972 205.749C44.1615 209.512 46.55 213.3 48.9389 217.089L48.9486 217.104C51.2903 220.818 53.6323 224.532 55.9517 228.223C62.0952 229.605 68.2153 231.01 74.3337 232.415L74.3475 232.418C80.5529 233.842 86.7565 235.267 92.9841 236.667L93.0709 236.686L93.1497 236.727C100.992 240.84 108.837 244.954 116.683 249.162C128.865 245.42 140.953 241.679 153.042 237.937L153.126 237.911L153.213 237.907C157.708 237.714 162.179 237.545 166.647 237.376L166.651 237.376C171.029 237.21 175.405 237.044 179.804 236.856C184.084 232.242 188.342 227.628 192.6 223.013L192.613 222.998C196.938 218.311 201.264 213.623 205.614 208.935L205.676 208.868L205.753 208.82C213.307 204.134 220.767 199.449 228.321 194.669C229.696 188.552 231.071 182.458 232.446 176.364L232.464 176.288C233.865 170.078 235.266 163.869 236.668 157.635L236.688 157.545L236.732 157.464C240.938 149.624 245.051 141.784 249.163 133.941C247.306 127.94 245.449 121.915 243.592 115.891L243.584 115.865C241.702 109.761 239.82 103.657 237.938 97.5771L237.911 97.4902L237.908 97.3994C237.766 93.0386 237.6 88.6543 237.434 84.2561L237.425 84.0048C237.259 79.6165 237.094 75.2147 236.951 70.8123C232.338 66.5329 227.725 62.2764 223.111 58.0192L223.096 58.0059C218.409 53.681 213.721 49.3553 209.032 45.0053L208.966 44.9435L208.918 44.8662C206.551 41.051 204.161 37.2596 201.768 33.4658C199.427 29.7524 197.084 26.0366 194.763 22.2978L157.546 13.9312L157.465 13.8876C149.625 9.68094 141.785 5.56866 133.942 1.4557L97.5879 12.7081Z" transform="translate(62.1898 62.191)" fill="black"/>
<path fill-rule="evenodd" clip-rule="evenodd" d="M132.495 0L164.861 16.9122C175.442 17.5846 186.022 18.1618 196.607 18.7391L196.952 18.7579L197.138 19.0489C203.685 29.2545 210.136 39.4597 216.585 49.6628C220.991 52.5367 225.397 55.434 229.802 58.3305L229.808 58.3349C234.252 61.2572 238.695 64.1787 243.137 67.0759L243.427 67.2646L243.443 67.6096C243.727 73.5824 243.987 79.5055 244.247 85.4155C244.516 91.5468 244.785 97.6638 245.079 103.807C246.242 106.132 247.404 108.462 248.567 110.795C252.124 117.927 255.693 125.084 259.317 132.187L259.475 132.496L259.315 132.804C253.732 143.587 248.148 154.273 242.565 164.958C242.277 170.226 241.966 175.495 241.655 180.762L241.653 180.784C241.34 186.092 241.026 191.399 240.737 196.706L240.718 197.054L240.423 197.24C230.218 203.69 220.016 210.139 209.814 216.682C206.94 221.089 204.042 225.496 201.145 229.901L201.141 229.907C198.218 234.351 195.297 238.794 192.4 243.236L192.209 243.528L191.861 243.542C185.822 243.784 179.758 244.05 173.693 244.315L173.672 244.316C167.663 244.58 161.653 244.843 155.666 245.083C150.977 247.428 146.264 249.796 141.55 252.165L141.541 252.169C136.781 254.561 132.021 256.954 127.284 259.322L126.975 259.477L126.669 259.317C121.306 256.514 115.918 253.712 110.53 250.909L110.521 250.904C105.179 248.125 99.8369 245.346 94.5182 242.567C83.936 241.99 73.3502 241.412 62.764 240.739L62.42 240.717L62.2358 240.425C55.7865 230.222 49.3371 220.114 42.7918 209.911C38.3881 206.992 33.9841 204.095 29.5789 201.199L29.5749 201.196C25.1292 198.272 20.6822 195.348 16.2351 192.399L15.9472 192.209L15.9334 191.863C15.6918 185.824 15.4261 179.785 15.1603 173.744L15.1602 173.743C14.8966 167.751 14.6329 161.757 14.3927 155.764C12.0467 151.025 9.67706 146.31 7.30633 141.592L7.30605 141.591C4.91422 136.832 2.52132 132.07 0.152435 127.284L0 126.976L16.9083 94.6172C17.1961 89.3487 17.5074 84.0804 17.8187 78.8139L17.8187 78.8133C18.1328 73.4973 18.4468 68.1831 18.7367 62.8691L18.7555 62.524L19.0465 62.3373C29.2515 55.7907 39.361 49.3397 49.566 42.8889C52.4857 38.4847 55.3821 34.0803 58.2793 29.6747L58.2798 29.6739C61.2033 25.2282 64.1277 20.7813 67.0763 16.3341L67.2653 16.0491L67.607 16.0327C79.6424 15.455 91.6774 14.9732 103.709 14.4919C107.496 12.5799 111.279 10.6843 115.056 8.79232C120.786 5.92116 126.501 3.05825 132.184 0.158535L132.495 0ZM115.652 10.0046C111.833 11.9181 108.009 13.8342 104.187 15.7641L104.056 15.8303L103.91 15.8361C91.9422 16.3148 79.9776 16.7934 68.0134 17.3659C65.1307 21.7151 62.2706 26.0644 59.4096 30.415L59.4087 30.4163C56.4852 34.862 53.5608 39.309 50.6122 43.7561L50.5323 43.8766L50.4101 43.9538C40.2639 50.367 30.2121 56.7804 20.067 63.2879C19.7822 68.4902 19.4748 73.6921 19.1675 78.8924L19.1675 78.893C18.8534 84.2089 18.5393 89.5231 18.2495 94.8371L18.2415 94.9833L1.51585 126.993C3.8329 131.671 6.17274 136.327 8.51361 140.985L8.51385 140.986C10.9057 145.745 13.2986 150.507 15.6675 155.293L15.7313 155.422L15.7371 155.566C15.9786 161.605 16.2444 167.644 16.5102 173.685L16.5102 173.686C16.7709 179.611 17.0317 185.537 17.2696 191.464C21.6168 194.345 25.9641 197.204 30.3127 200.064L30.3173 200.067C34.7629 202.991 39.2099 205.915 43.657 208.864L43.7755 208.942L43.8523 209.062C50.3627 219.21 56.7786 229.265 63.1937 239.412C73.707 240.079 84.2207 240.653 94.738 241.226L94.8843 241.234L95.0141 241.302C100.377 244.105 105.765 246.907 111.153 249.71L111.163 249.715C116.445 252.463 121.728 255.211 126.989 257.959C131.619 255.643 136.272 253.305 140.925 250.967L140.935 250.962C145.694 248.57 150.455 246.178 155.192 243.809L155.322 243.744L155.467 243.739C161.506 243.497 167.569 243.231 173.634 242.966L173.656 242.965C179.597 242.704 185.539 242.444 191.459 242.206C194.296 237.856 197.157 233.507 200.016 229.158L200.021 229.152C202.943 224.708 205.864 220.265 208.762 215.823L208.841 215.702L208.963 215.623C219.112 209.113 229.26 202.697 239.406 196.284C239.691 191.083 239.999 185.881 240.306 180.682L240.307 180.66C240.621 175.351 240.934 170.044 241.224 164.738L241.232 164.591L241.301 164.458C246.853 153.833 252.405 143.209 257.956 132.491C254.382 125.482 250.86 118.42 247.353 111.388C246.17 109.016 244.988 106.647 243.807 104.284L243.743 104.157L243.736 104.014C243.441 97.8533 243.169 91.6651 242.897 85.4655C242.642 79.6556 242.386 73.8357 242.11 68.0189C237.759 65.1805 233.409 62.3196 229.059 59.4594L229.053 59.4551C224.609 56.5328 220.166 53.6113 215.724 50.7141L215.601 50.6336L215.522 50.5092C209.108 40.361 202.694 30.2151 196.188 20.0694C185.672 19.4958 175.152 18.921 164.633 18.2515L164.49 18.2424L132.487 1.52061C126.904 4.36741 121.284 7.18327 115.652 10.0046Z" transform="translate(57.8116 57.7126)" fill="black"/>
<path fill-rule="evenodd" clip-rule="evenodd" d="M131.002 0L171.791 21.0745L198.492 16.2994L223.258 55.0502L248.788 64.3073L250.925 110.243L268.368 130.902L247.293 171.789L252.068 198.491L213.317 223.257L204.06 248.788L158.124 250.827L137.466 268.368L96.5775 247.195L69.8765 251.97L45.1117 213.221L19.5798 204.06L17.5403 158.122L0 137.366L21.1722 96.5759L16.3973 69.8753L55.147 45.1105L64.3069 19.5796L110.246 17.4429L131.002 0ZM131.182 1.61377L110.765 18.7714L65.2732 20.8873L56.263 46.0007L17.8864 70.5271L22.5832 96.7904L1.61619 137.186L18.8697 157.602L20.8895 203.095L46.0019 212.105L70.5283 250.481L96.7913 245.784L137.282 266.751L157.603 249.498L203.098 247.478L212.203 222.365L250.579 197.839L245.882 171.577L266.754 131.085L249.596 110.765L247.48 65.2704L222.366 56.1641L197.84 17.7886L171.578 22.4852L131.182 1.61377Z" transform="translate(53.3157 53.3168)" />
<path d="M375 187.5H367.268L367.075 178.222L366.398 169.137L365.238 160.052L363.595 151.256L361.662 142.558L359.246 134.053L356.347 125.644L353.157 117.526L349.581 109.504L345.619 101.772L341.269 94.2332L336.63 86.9845L331.604 79.9291L326.289 73.1637L320.586 66.5915L314.691 60.4059L308.409 54.4137L301.836 48.808L295.071 43.3956L288.015 38.3698L280.767 33.7307L273.228 29.3814L265.496 25.4188L257.474 21.8428L249.356 18.6534L240.947 15.7539L232.442 13.3376L223.744 11.4046L214.948 9.7616L205.96 8.6018L196.778 7.92526L187.5 7.73196V0L197.165 0.193299L206.733 0.966495L216.108 2.12629L225.29 3.76933L234.375 5.89562L243.267 8.40851L251.965 11.308L260.47 14.6907L268.782 18.4601L276.901 22.616L284.729 27.1585L292.365 31.991L299.71 37.2101L306.765 42.8157L313.628 48.7113L320.103 54.8969L326.289 61.3724L332.184 68.2345L337.79 75.2899L343.009 82.6353L347.841 90.2706L352.384 98.0992L356.54 106.218L360.309 114.53L363.692 123.035L366.591 131.733L369.104 140.625L371.231 149.71L372.874 158.892L374.034 168.267L374.807 177.835L375 187.5ZM187.5 375V367.268L196.778 366.978L205.96 366.302L214.948 365.142L223.744 363.595L232.442 361.566L240.947 359.149L249.356 356.347L257.474 353.157L265.496 349.485L273.228 345.522L280.767 341.173L288.015 336.534L295.071 331.508L301.836 326.192L308.409 320.586L314.691 314.594L320.586 308.312L326.289 301.836L331.604 295.071L336.63 288.015L341.269 280.67L345.619 273.131L349.581 265.399L353.157 257.474L356.347 249.259L359.246 240.947L361.662 232.442L363.595 223.744L365.238 214.852L366.398 205.863L367.075 196.778L367.268 187.5H375L374.807 197.165L374.034 206.637L372.874 216.012L371.231 225.29L369.104 234.375L366.591 243.267L363.692 251.965L360.309 260.47L356.54 268.782L352.384 276.901L347.841 284.729L343.009 292.365L337.79 299.71L332.184 306.765L326.289 313.531L320.103 320.103L313.628 326.289L306.765 332.184L299.71 337.693L292.365 342.912L284.729 347.841L276.901 352.384L268.782 356.443L260.47 360.213L251.965 363.595L243.267 366.591L234.375 369.104L225.29 371.134L216.108 372.777L206.733 374.034L197.165 374.71L187.5 375ZM0 187.5H7.73196L8.02191 196.778L8.69845 205.863L9.85825 214.852L11.4046 223.744L13.4343 232.442L15.8505 240.947L18.6534 249.259L21.8428 257.474L25.5155 265.399L29.4781 273.131L33.8273 280.67L38.4665 288.015L43.4923 295.071L48.808 301.836L54.4137 308.312L60.4059 314.594L66.6881 320.586L73.1637 326.192L79.9291 331.508L86.9845 336.534L94.3299 341.173L101.869 345.522L109.601 349.485L117.526 353.157L125.741 356.347L134.053 359.149L142.558 361.566L151.256 363.595L160.148 365.142L169.137 366.302L178.318 366.978L187.5 367.268V375L177.835 374.71L168.363 374.034L158.988 372.777L149.71 371.134L140.625 369.104L131.733 366.591L123.035 363.595L114.53 360.213L106.218 356.443L98.1959 352.384L90.2706 347.841L82.732 342.912L75.3866 337.693L68.2345 332.184L61.4691 326.289L54.9936 320.103L48.7113 313.531L42.8157 306.765L37.3067 299.71L32.0876 292.365L27.1585 284.729L22.616 276.901L18.5567 268.782L14.7874 260.47L11.4046 251.965L8.50515 243.267L5.89562 234.375L3.86598 225.29L2.22294 216.012L0.966495 206.637L0.289948 197.165L0 187.5ZM187.5 0V7.73196L178.318 7.92526L169.137 8.6018L160.148 9.7616L151.256 11.4046L142.558 13.3376L134.053 15.7539L125.741 18.6534L117.526 21.8428L109.601 25.4188L101.869 29.3814L94.3299 33.7307L86.9845 38.3698L79.9291 43.3956L73.1637 48.808L66.6881 54.4137L60.4059 60.4059L54.4137 66.5915L48.808 73.1637L43.4923 79.9291L38.4665 86.9845L33.8273 94.2332L29.4781 101.772L25.5155 109.504L21.8428 117.526L18.6534 125.644L15.8505 134.053L13.4343 142.558L11.4046 151.256L9.85825 160.052L8.69845 169.137L8.02191 178.222L7.73196 187.5H0L0.289948 177.835L0.966495 168.267L2.22294 158.892L3.86598 149.71L5.89562 140.625L8.50515 131.733L11.4046 123.035L14.7874 114.53L18.5567 106.218L22.616 98.0992L27.1585 90.2706L32.0876 82.6353L37.3067 75.2899L42.8157 68.2345L48.7113 61.3724L54.9936 54.8969L61.4691 48.7113L68.2345 42.8157L75.3866 37.2101L82.732 31.991L90.2706 27.1585L98.1959 22.616L106.218 18.4601L114.53 14.6907L123.035 11.308L131.733 8.40851L140.625 5.89562L149.71 3.76933L158.988 2.12629L168.363 0.966495L177.835 0.193299L187.5 0Z" />
<path fill-rule="evenodd" clip-rule="evenodd" d="M173.776 3.86598C79.9372 3.86598 3.86598 79.9372 3.86598 173.776C3.86598 267.614 79.9372 343.686 173.776 343.686C267.614 343.686 343.686 267.614 343.686 173.776C343.686 79.9372 267.614 3.86598 173.776 3.86598ZM0 173.776C0 77.8021 77.8021 0 173.776 0C269.749 0 347.552 77.8021 347.552 173.776C347.552 269.749 269.749 347.552 173.776 347.552C77.8021 347.552 0 269.749 0 173.776Z" transform="translate(13.7242 13.7242)" />
<path d="M0 5.91913L0.926123 3.06023C3.06023 3.81187 4.61048 4.46284 5.57687 5.01314C5.32185 2.58375 5.18763 0.912701 5.17421 0H8.09351C8.05324 1.32879 7.89889 2.99312 7.63045 4.99301C9.01292 4.29506 10.5967 3.6508 12.3819 3.06023L13.308 5.91913C11.6034 6.48286 9.93233 6.85868 8.29484 7.04659C9.11359 7.75796 10.2679 9.02634 11.7577 10.8517L9.34176 12.5631C8.56328 11.5027 7.64387 10.0598 6.58353 8.23444C5.59029 10.127 4.71786 11.5698 3.96622 12.5631L1.59052 10.8517C3.14748 8.93239 4.26151 7.664 4.93261 7.04659C3.20116 6.71104 1.55696 6.33522 0 5.91913Z" transform="translate(114.658 38.6394)" />
<path d="M1.86064 19.7346H0L2.51734 1.02784H4.37798L1.86064 19.7346Z" transform="translate(84.6649 213.244)" />
<path d="M5.61702 17.8331C6.35332 16.9594 6.947 15.983 7.39806 14.9037C7.84912 13.8245 8.18079 12.5397 8.39306 11.0493L9.22885 5.83302H15.9749L14.363 17.7946H15.7063L14.8904 23.8203H13.0994L13.6466 19.7346H6.37322L5.82597 23.8203H4.02503L4.85087 17.7946L5.61702 17.8331ZM7.75626 17.8331L12.5621 17.7946L13.8755 8.03004H10.6815L10.0049 12.2057C9.55388 14.6297 8.80432 16.5055 7.75626 17.8331Z" transform="translate(84.6649 213.244)" />
<path d="M22.5054 19.9916C21.1655 19.9573 20.1174 19.3192 19.3612 18.0772C18.605 16.8352 18.2866 15.2464 18.406 13.3106L18.4558 12.7581C18.5686 11.3791 18.8836 10.12 19.401 8.98079C19.9251 7.8416 20.5619 6.98506 21.3114 6.41118C22.061 5.82874 22.8703 5.55036 23.7392 5.57606C24.847 5.61032 25.7159 6.0857 26.3461 7.00219C26.9763 7.91869 27.3212 9.16067 27.3809 10.7281C27.4008 11.2849 27.3875 11.8416 27.3411 12.3984L27.2317 13.4648H20.197C20.0776 14.7239 20.2368 15.7945 20.6746 16.6768C21.1191 17.559 21.7791 18.0173 22.6547 18.0515C23.716 18.0858 24.6977 17.4691 25.5999 16.2014L26.6347 17.332C26.1836 18.1714 25.5999 18.831 24.8835 19.3106C24.1737 19.7817 23.381 20.0087 22.5054 19.9916ZM23.6497 7.51611C22.9067 7.49042 22.2567 7.8159 21.6995 8.49257C21.1489 9.16923 20.7111 10.1757 20.3861 11.5119L25.6198 11.5247L25.6596 11.3191C25.7657 10.2399 25.6297 9.34482 25.2516 8.6339C24.8801 7.9144 24.3462 7.54181 23.6497 7.51611Z" transform="translate(84.6649 213.244)" />
<path d="M37.4139 19.7346H35.613L36.4189 13.7988H31.633L30.827 19.7346H29.0261L30.8967 5.83302H32.6976L31.8917 11.8588H36.6677L37.4836 5.83302H39.2845L37.4139 19.7346Z" transform="translate(84.6649 213.244)" />
<path d="M50.1376 7.76023H46.6352L45.0233 19.7346H43.2323L44.8343 7.76023H41.4015L41.6602 5.83302H50.3963L50.1376 7.76023Z" transform="translate(84.6649 213.244)" />
<path d="M59.3732 5.83302H61.2339L59.3633 19.7346H57.5623L58.9155 9.75168L52.8262 19.7346H50.9655L52.8361 5.83302H54.6271L53.2839 15.8288L59.3732 5.83302Z" transform="translate(84.6649 213.244)" />
<path d="M67.8682 5.55036C68.4121 5.56749 68.8997 5.70454 69.3308 5.9615L70.1965 0H71.9974L71.1119 6.03859C71.6226 5.7388 72.1467 5.59319 72.684 5.60175C74.0969 5.62745 75.0189 6.64673 75.45 8.65959C75.6358 9.54182 75.722 10.4797 75.7087 11.4733L75.6291 13.0151L75.6092 13.2207C75.3837 15.3534 74.8696 17.028 74.067 18.2442C73.271 19.4605 72.2627 20.0558 71.0422 20.0301C70.4651 20.013 69.9245 19.8631 69.4204 19.5804L68.6244 25.0794H66.8234L67.6294 19.619C67.1452 19.8674 66.6676 19.9873 66.1966 19.9787C65.2414 19.9787 64.4985 19.5248 63.9678 18.6168C63.4438 17.7003 63.1718 16.4498 63.1519 14.8652C63.1453 14.3598 63.1619 13.8716 63.2017 13.4005L63.3211 12.347C63.6196 10.1542 64.1569 8.47115 64.933 7.2977C65.7157 6.11568 66.6941 5.53323 67.8682 5.55036ZM73.8282 12.9637C73.9012 12.1072 73.9277 11.3748 73.9078 10.7667C73.8017 8.68529 73.198 7.61462 72.0969 7.55466C71.7586 7.53753 71.3872 7.61462 70.9825 7.78592L69.5696 17.8716C69.8615 18.0087 70.2031 18.0858 70.5945 18.1029C71.4369 18.12 72.1367 17.7046 72.6939 16.8567C73.2577 16.0001 73.6259 14.7924 73.7984 13.2335L73.8282 12.9637ZM65.0026 13.4005C64.9628 13.8545 64.9429 14.347 64.9429 14.8781L64.9628 15.4948C65.0888 17.1307 65.6726 17.9787 66.714 18.0387C67.0258 18.0558 67.374 17.9873 67.7587 17.8331L69.1716 7.72168C68.8267 7.56751 68.5149 7.49042 68.2363 7.49042C67.4072 7.47329 66.7239 7.90584 66.1866 8.78807C65.656 9.66174 65.2845 10.9851 65.0723 12.7581L65.0026 13.4005Z" transform="translate(84.6649 213.244)" />
<path d="M79.4318 19.7346H77.6408L79.5114 5.83301H81.3024L79.4318 19.7346ZM80.9143 0.758025C81.2195 0.740894 81.4715 0.86081 81.6705 1.11777C81.8761 1.36617 81.979 1.69593 81.979 2.10707C81.9723 2.50964 81.8695 2.83941 81.6705 3.09637C81.4782 3.35333 81.2261 3.49038 80.9143 3.50751C80.6026 3.52464 80.3472 3.40901 80.1482 3.16061C79.9492 2.91222 79.853 2.58673 79.8596 2.18416C79.8663 1.78159 79.9658 1.44754 80.1581 1.18201C80.3505 0.916484 80.6026 0.775156 80.9143 0.758025Z" transform="translate(84.6649 213.244)" />
<path d="M86.9265 13.8117H85.5634L84.7575 19.7346H82.9565L84.8271 5.83302H86.628L85.8321 11.7174H86.9265L91.2249 5.83302H93.5433L88.429 12.6296L91.8816 19.7346H89.7523L86.9265 13.8117Z" transform="translate(84.6649 213.244)" />
<path d="M100.595 19.7346C100.549 19.4862 100.526 19.2421 100.526 19.0023L100.556 18.2699C99.5673 19.452 98.5193 20.0258 97.4115 19.9916C96.463 19.9744 95.6902 19.589 95.0932 18.8353C94.5028 18.0729 94.2342 17.1222 94.2872 15.983C94.3536 14.5097 94.8511 13.362 95.7797 12.5397C96.715 11.7089 97.9422 11.2934 99.4612 11.2934L101.342 11.3063L101.461 10.2014C101.527 9.37052 101.401 8.71527 101.083 8.23561C100.771 7.74738 100.3 7.4947 99.6702 7.47757C99.0533 7.46044 98.506 7.65745 98.0284 8.06858C97.5575 8.47116 97.2689 9.00649 97.1628 9.67459L95.3519 9.68744C95.4116 8.87373 95.657 8.15424 96.0882 7.52897C96.5193 6.89513 97.0732 6.4069 97.7498 6.06429C98.4264 5.71311 99.1262 5.54608 99.8493 5.56321C100.97 5.59747 101.843 6.03859 102.466 6.88656C103.09 7.72597 103.352 8.84375 103.252 10.2399L102.377 17.1265L102.327 18.1158C102.314 18.5869 102.353 19.0537 102.446 19.5162L102.426 19.7346H100.595ZM97.7697 17.9359C98.3468 17.953 98.8907 17.7774 99.4015 17.4091C99.9189 17.0322 100.363 16.514 100.735 15.8545L101.123 12.9894L99.7597 12.9765C98.6254 12.9765 97.7565 13.2078 97.1528 13.6703C96.5492 14.1329 96.2076 14.7881 96.128 15.6361C96.0683 16.2871 96.1844 16.831 96.4762 17.2678C96.7747 17.6961 97.2059 17.9188 97.7697 17.9359Z" transform="translate(84.6649 213.244)" />
<path d="M107.25 5.83302H109.051L107.449 17.7946H112.235L113.847 5.83302H115.648L114.036 17.7946H115.289L114.294 23.8588H112.682L113.24 19.7346H105.379L107.25 5.83302Z" transform="translate(84.6649 213.244)" />
<path d="M119.445 19.7346H117.654L119.524 5.83301H121.315L119.445 19.7346ZM120.927 0.758025C121.232 0.740894 121.484 0.86081 121.683 1.11777C121.889 1.36617 121.992 1.69593 121.992 2.10707C121.985 2.50964 121.882 2.83941 121.683 3.09637C121.491 3.35333 121.239 3.49038 120.927 3.50751C120.615 3.52464 120.36 3.40901 120.161 3.16061C119.962 2.91222 119.866 2.58673 119.873 2.18416C119.879 1.78159 119.979 1.44754 120.171 1.18201C120.363 0.916484 120.615 0.775156 120.927 0.758025Z" transform="translate(84.6649 213.244)" />
<path d="M131.28 5.83303H133.141L131.271 19.7346H129.47L130.823 9.75169L124.733 19.7346H122.873L124.743 5.83303H126.534L125.191 15.8288L131.28 5.83303ZM132.445 0.770895C132.365 1.84157 132.04 2.69382 131.469 3.32766C130.906 3.95293 130.199 4.24844 129.35 4.21417C128.534 4.19704 127.881 3.87584 127.39 3.25057C126.906 2.6253 126.67 1.79446 126.684 0.758047L128.146 0.770895C128.1 2.02144 128.504 2.66384 129.36 2.6981C129.831 2.70667 130.203 2.53108 130.474 2.17133C130.746 1.80302 130.922 1.34049 131.002 0.783743L132.445 0.770895Z" transform="translate(84.6649 213.244)" />
<path d="M143.148 19.7346H141.347L142.153 13.7988H137.368L136.562 19.7346H134.761L136.631 5.83302H138.432L137.626 11.8588H142.402L143.218 5.83302H145.019L143.148 19.7346Z" transform="translate(84.6649 213.244)" />
<path d="M155.056 5.83302H156.917L155.046 19.7346H153.245L154.599 9.75168L148.509 19.7346H146.649L148.519 5.83302H150.31L148.967 15.8288L155.056 5.83302Z" transform="translate(84.6649 213.244)" />
<path d="M166.944 5.83303H168.805L166.934 19.7346H165.133L166.486 9.75169L160.397 19.7346H158.536L160.407 5.83303H162.198L160.855 15.8288L166.944 5.83303ZM168.108 0.770895C168.029 1.84157 167.704 2.69382 167.133 3.32766C166.569 3.95293 165.863 4.24844 165.014 4.21417C164.198 4.19704 163.545 3.87584 163.054 3.25057C162.569 2.6253 162.334 1.79446 162.347 0.758047L163.81 0.770895C163.763 2.02144 164.168 2.66384 165.024 2.6981C165.495 2.70667 165.866 2.53108 166.138 2.17133C166.41 1.80302 166.586 1.34049 166.666 0.783743L168.108 0.770895Z" transform="translate(84.6649 213.244)" />
<path d="M3.97003 8.23825H2.60689L1.80094 14.1612H0L1.87059 0.259604H3.67153L2.87553 6.14401H3.97003L8.26841 0.259604H10.5867L5.47247 7.05623L8.9251 14.1612H6.79581L3.97003 8.23825Z" transform="translate(259.023 218.818)" />
<path d="M15.7007 0.0026355C16.6028 0.0197662 17.3756 0.336685 18.019 0.953392C18.6625 1.5701 19.1367 2.42235 19.4419 3.51016C19.7536 4.58939 19.8598 5.77141 19.7603 7.05622L19.7404 7.33888C19.6143 8.69221 19.3026 9.91705 18.8051 11.0134C18.3076 12.1012 17.6642 12.9492 16.8748 13.5573C16.0854 14.1655 15.2198 14.4524 14.2779 14.4182C13.3824 14.401 12.6096 14.0841 11.9595 13.4674C11.3161 12.8507 10.8451 12.0113 10.5466 10.9492C10.2481 9.88707 10.142 8.7179 10.2282 7.44166C10.3277 6.00268 10.6295 4.70931 11.1337 3.56155C11.6378 2.41379 12.2845 1.52727 13.0739 0.902C13.8699 0.268162 14.7455 -0.031626 15.7007 0.0026355ZM12.0391 7.45451C11.9927 7.99413 11.9927 8.55516 12.0391 9.1376C12.1054 10.1483 12.3376 10.9535 12.7356 11.553C13.1402 12.1526 13.6775 12.4653 14.3475 12.4909C14.9445 12.5166 15.4951 12.3282 15.9992 11.9256C16.5033 11.5145 16.9279 10.8978 17.2728 10.0755C17.6177 9.25324 17.8399 8.34103 17.9394 7.33888C17.9925 6.55086 18.0025 5.88705 17.9693 5.34743C17.8897 4.31102 17.6476 3.49302 17.2429 2.89345C16.8383 2.29387 16.301 1.97695 15.631 1.94269C14.7024 1.917 13.913 2.38809 13.263 3.35598C12.6129 4.32387 12.2116 5.59154 12.059 7.159L12.0391 7.45451Z" transform="translate(259.023 218.818)" />
<path d="M20.9376 12.2597C21.6739 11.386 22.2676 10.4096 22.7187 9.33033C23.1698 8.2511 23.5014 6.96629 23.7137 5.47592L24.5495 0.259604H31.2955L29.6837 12.2211H31.0269L30.211 18.2469H28.42L28.9673 14.1612H21.6938L21.1466 18.2469H19.3457L20.1715 12.2211L20.9376 12.2597ZM23.0769 12.2597L27.8827 12.2211L29.1961 2.45662H26.0022L25.3256 6.63224C24.8745 9.05624 24.1249 10.9321 23.0769 12.2597Z" transform="translate(259.023 218.818)" />
<path d="M4.38589 23.4952C2.89409 23.4533 1.77524 22.7728 1.02934 21.4537C0.283442 20.1241 -0.0570776 18.2135 0.0077833 15.7218C0.0239985 14.9471 0.0685903 14.1829 0.141559 13.4291L0.57937 9.61312C0.968535 6.35723 1.71038 3.9284 2.80491 2.32663C3.89944 0.724853 5.34259 -0.0498608 7.13437 0.00248475C8.64239 0.0443612 9.76529 0.714384 10.5031 2.01255C11.249 3.30025 11.5936 5.17422 11.5368 7.63446C11.5125 8.41964 11.4638 9.18912 11.3909 9.9429L10.9652 13.6333C10.5355 17.0776 9.77745 19.5954 8.69103 21.1867C7.60461 22.778 6.16957 23.5475 4.38589 23.4952ZM9.26262 9.42468C9.37613 8.15792 9.42882 7.17382 9.42072 6.47239C9.38018 3.81324 8.58158 2.44702 7.02492 2.37374C5.88985 2.32139 4.96964 2.86578 4.26428 4.00692C3.56702 5.13758 3.08057 6.91733 2.80491 9.34616L2.28197 13.9002C2.16846 15.1146 2.11576 16.104 2.12387 16.8682C2.16441 19.6425 2.95895 21.0663 4.50751 21.1396C5.58582 21.2024 6.4736 20.6894 7.17085 19.6006C7.87622 18.5119 8.37889 16.7845 8.67887 14.4184L9.26262 9.42468Z" transform="translate(134.729 247.055)" />
<path d="M17.8586 23.4952C16.3668 23.4533 15.248 22.7728 14.5021 21.4537C13.7562 20.1241 13.4156 18.2135 13.4805 15.7218C13.4967 14.9471 13.5413 14.1829 13.6143 13.4291L14.0521 9.61312C14.4413 6.35723 15.1831 3.9284 16.2776 2.32663C17.3722 0.724853 18.8153 -0.0498608 20.6071 0.00248475C22.1151 0.0443612 23.238 0.714384 23.9758 2.01255C24.7217 3.30025 25.0663 5.17422 25.0095 7.63446C24.9852 8.41964 24.9366 9.18912 24.8636 9.9429L24.4379 13.6333C24.0082 17.0776 23.2502 19.5954 22.1638 21.1867C21.0773 22.778 19.6423 23.5475 17.8586 23.4952ZM22.7353 9.42468C22.8488 8.15792 22.9015 7.17382 22.8934 6.47239C22.8529 3.81324 22.0543 2.44702 20.4976 2.37374C19.3626 2.32139 18.4424 2.86578 17.737 4.00692C17.0397 5.13758 16.5533 6.91733 16.2776 9.34616L15.7547 13.9002C15.6412 15.1146 15.5885 16.104 15.5966 16.8682C15.6371 19.6425 16.4317 21.0663 17.9802 21.1396C19.0585 21.2024 19.9463 20.6894 20.6436 19.6006C21.3489 18.5119 21.8516 16.7845 22.1516 14.4184L22.7353 9.42468Z" transform="translate(134.729 247.055)" />
<path d="M31.2565 23.4952C29.7647 23.4533 28.6458 22.7728 27.8999 21.4537C27.154 20.1241 26.8135 18.2135 26.8784 15.7218C26.8946 14.9471 26.9392 14.1829 27.0122 13.4291L27.45 9.61312C27.8391 6.35723 28.581 3.9284 29.6755 2.32663C30.77 0.724853 32.2132 -0.0498608 34.005 0.00248475C35.513 0.0443612 36.6359 0.714384 37.3737 2.01255C38.1196 3.30025 38.4642 5.17422 38.4074 7.63446C38.3831 8.41964 38.3344 9.18912 38.2615 9.9429L37.8358 13.6333C37.4061 17.0776 36.648 19.5954 35.5616 21.1867C34.4752 22.778 33.0402 23.5475 31.2565 23.4952ZM36.1332 9.42468C36.2467 8.15792 36.2994 7.17382 36.2913 6.47239C36.2508 3.81324 35.4522 2.44702 33.8955 2.37374C32.7604 2.32139 31.8402 2.86578 31.1349 4.00692C30.4376 5.13758 29.9512 6.91733 29.6755 9.34616L29.1526 13.9002C29.0391 15.1146 28.9864 16.104 28.9945 16.8682C29.035 19.6425 29.8296 21.0663 31.3781 21.1396C32.4564 21.2024 33.3442 20.6894 34.0415 19.6006C34.7468 18.5119 35.2495 16.7845 35.5495 14.4184L36.1332 9.42468Z" transform="translate(134.729 247.055)" />
<path d="M44.7292 23.4952C43.2374 23.4533 42.1186 22.7728 41.3727 21.4537C40.6268 20.1241 40.2862 18.2135 40.3511 15.7218C40.3673 14.9471 40.4119 14.1829 40.4849 13.4291L40.9227 9.61312C41.3118 6.35723 42.0537 3.9284 43.1482 2.32663C44.2427 0.724853 45.6859 -0.0498608 47.4777 0.00248475C48.9857 0.0443612 50.1086 0.714384 50.8464 2.01255C51.5923 3.30025 51.9369 5.17422 51.8801 7.63446C51.8558 8.41964 51.8071 9.18912 51.7342 9.9429L51.3085 13.6333C50.8788 17.0776 50.1208 19.5954 49.0343 21.1867C47.9479 22.778 46.5129 23.5475 44.7292 23.4952ZM49.6059 9.42468C49.7194 8.15792 49.7721 7.17382 49.764 6.47239C49.7235 3.81324 48.9249 2.44702 47.3682 2.37374C46.2332 2.32139 45.313 2.86578 44.6076 4.00692C43.9103 5.13758 43.4239 6.91733 43.1482 9.34616L42.6253 13.9002C42.5118 15.1146 42.4591 16.104 42.4672 16.8682C42.5077 19.6425 43.3023 21.0663 44.8508 21.1396C45.9291 21.2024 46.8169 20.6894 47.5142 19.6006C48.2195 18.5119 48.7222 16.7845 49.0222 14.4184L49.6059 9.42468Z" transform="translate(134.729 247.055)" />
<path d="M58.2019 23.4952C56.7101 23.4533 55.5913 22.7728 54.8454 21.4537C54.0995 20.1241 53.759 18.2135 53.8238 15.7218C53.84 14.9471 53.8846 14.1829 53.9576 13.4291L54.3954 9.61312C54.7846 6.35723 55.5264 3.9284 56.6209 2.32663C57.7155 0.724853 59.1586 -0.0498608 60.9504 0.00248475C62.4584 0.0443612 63.5813 0.714384 64.3191 2.01255C65.065 3.30025 65.4096 5.17422 65.3528 7.63446C65.3285 8.41964 65.2799 9.18912 65.2069 9.9429L64.7813 13.6333C64.3516 17.0776 63.5935 19.5954 62.5071 21.1867C61.4207 22.778 59.9856 23.5475 58.2019 23.4952ZM63.0787 9.42468C63.1922 8.15792 63.2449 7.17382 63.2368 6.47239C63.1962 3.81324 62.3976 2.44702 60.841 2.37374C59.7059 2.32139 58.7857 2.86578 58.0803 4.00692C57.3831 5.13758 56.8966 6.91733 56.6209 9.34616L56.098 13.9002C55.9845 15.1146 55.9318 16.104 55.9399 16.8682C55.9805 19.6425 56.775 21.0663 58.3235 21.1396C59.4019 21.2024 60.2896 20.6894 60.9869 19.6006C61.6923 18.5119 62.1949 16.7845 62.4949 14.4184L63.0787 9.42468Z" transform="translate(134.729 247.055)" />
<path d="M71.5998 23.4952C70.108 23.4533 68.9892 22.7728 68.2433 21.4537C67.4974 20.1241 67.1568 18.2135 67.2217 15.7218C67.2379 14.9471 67.2825 14.1829 67.3555 13.4291L67.7933 9.61312C68.1824 6.35723 68.9243 3.9284 70.0188 2.32663C71.1133 0.724853 72.5565 -0.0498608 74.3483 0.00248475C75.8563 0.0443612 76.9792 0.714384 77.717 2.01255C78.4629 3.30025 78.8075 5.17422 78.7507 7.63446C78.7264 8.41964 78.6777 9.18912 78.6048 9.9429L78.1791 13.6333C77.7494 17.0776 76.9914 19.5954 75.9049 21.1867C74.8185 22.778 73.3835 23.5475 71.5998 23.4952ZM76.4765 9.42468C76.59 8.15792 76.6427 7.17382 76.6346 6.47239C76.5941 3.81324 75.7955 2.44702 74.2388 2.37374C73.1038 2.32139 72.1835 2.86578 71.4782 4.00692C70.7809 5.13758 70.2945 6.91733 70.0188 9.34616L69.4959 13.9002C69.3824 15.1146 69.3297 16.104 69.3378 16.8682C69.3783 19.6425 70.1729 21.0663 71.7214 21.1396C72.7997 21.2024 73.6875 20.6894 74.3848 19.6006C75.0901 18.5119 75.5928 16.7845 75.8928 14.4184L76.4765 9.42468Z" transform="translate(134.729 247.055)" />
<path d="M85.0725 23.4952C83.5807 23.4533 82.4619 22.7728 81.716 21.4537C80.9701 20.1241 80.6295 18.2135 80.6944 15.7218C80.7106 14.9471 80.7552 14.1829 80.8282 13.4291L81.266 9.61312C81.6552 6.35723 82.397 3.9284 83.4915 2.32663C84.5861 0.724853 86.0292 -0.0498608 87.821 0.00248475C89.329 0.0443612 90.4519 0.714384 91.1897 2.01255C91.9356 3.30025 92.2802 5.17422 92.2234 7.63446C92.1991 8.41964 92.1505 9.18912 92.0775 9.9429L91.6518 13.6333C91.2221 17.0776 90.4641 19.5954 89.3777 21.1867C88.2912 22.778 86.8562 23.5475 85.0725 23.4952ZM89.9492 9.42468C90.0628 8.15792 90.1155 7.17382 90.1073 6.47239C90.0668 3.81324 89.2682 2.44702 87.7115 2.37374C86.5765 2.32139 85.6563 2.86578 84.9509 4.00692C84.2536 5.13758 83.7672 6.91733 83.4915 9.34616L82.9686 13.9002C82.8551 15.1146 82.8024 16.104 82.8105 16.8682C82.851 19.6425 83.6456 21.0663 85.1941 21.1396C86.2724 21.2024 87.1602 20.6894 87.8575 19.6006C88.5628 18.5119 89.0655 16.7845 89.3655 14.4184L89.9492 9.42468Z" transform="translate(134.729 247.055)" />
<path d="M98.4704 23.4952C96.9786 23.4533 95.8598 22.7728 95.1139 21.4537C94.368 20.1241 94.0274 18.2135 94.0923 15.7218C94.1085 14.9471 94.1531 14.1829 94.2261 13.4291L94.6639 9.61312C95.053 6.35723 95.7949 3.9284 96.8894 2.32663C97.9839 0.724853 99.4271 -0.0498608 101.219 0.00248475C102.727 0.0443612 103.85 0.714384 104.588 2.01255C105.333 3.30025 105.678 5.17422 105.621 7.63446C105.597 8.41964 105.548 9.18912 105.475 9.9429L105.05 13.6333C104.62 17.0776 103.862 19.5954 102.776 21.1867C101.689 22.778 100.254 23.5475 98.4704 23.4952ZM103.347 9.42468C103.461 8.15792 103.513 7.17382 103.505 6.47239C103.465 3.81324 102.666 2.44702 101.109 2.37374C99.9744 2.32139 99.0541 2.86578 98.3488 4.00692C97.6515 5.13758 97.1651 6.91733 96.8894 9.34616L96.3665 13.9002C96.253 15.1146 96.2003 16.104 96.2084 16.8682C96.2489 19.6425 97.0435 21.0663 98.592 21.1396C99.6703 21.2024 100.558 20.6894 101.255 19.6006C101.961 18.5119 102.463 16.7845 102.763 14.4184L103.347 9.42468Z" transform="translate(134.729 247.055)" />
<path d="M2.78686 0L4.86935 2.07879C3.99143 4.46458 3.53717 6.88546 3.50654 9.34142V13.7358H0V9.78876C0 8.13975 0.265415 6.3855 0.796245 4.52598C1.33728 2.64893 2.00082 1.14027 2.78686 0ZM8.03901 0L10.1215 2.07879C9.24359 4.46458 8.78932 6.88546 8.7587 9.34142V13.7358H5.25216V9.78876C5.25216 8.13975 5.51757 6.3855 6.0484 4.52598C6.58944 2.64893 7.25298 1.14027 8.03901 0Z" transform="translate(79.8325 144.191)" />
<path d="M16.3396 2.99978V34.9711H22.5258V2.99978H27.1348V34.9711H33.2598V2.99978H37.8535V41.3128H11.7305V2.99978H16.3396Z" transform="translate(79.8325 144.191)" />
<path d="M56.9033 9.39405H50.074V41.3128H45.4803V9.39405H38.7428V2.99978H56.9033V9.39405Z" transform="translate(79.8325 144.191)" />
<path d="M69.032 33.4186H60.9777L59.4464 41.3128H54.5618L62.8611 2.99978H67.1179L75.4632 41.3128H70.5785L69.032 33.4186ZM62.218 27.0243H67.7917L64.9895 12.6833L62.218 27.0243Z" transform="translate(79.8325 144.191)" />
<path d="M82.2938 2.99978L88.0206 30.7872L93.7168 2.99978H99.7499V41.3128H95.1409V30.8398L95.6002 12.7622L89.5825 41.3128H86.4281L80.4257 12.7885L80.885 30.8398V41.3128H76.2913V2.99978H82.2938Z" transform="translate(79.8325 144.191)" />
<path d="M120.668 41.3128H116.059V9.39405H107.132V41.3128H102.538V2.99978H120.668V41.3128Z" transform="translate(79.8325 144.191)" />
<path d="M147.513 28.5505C147.339 32.673 146.451 35.9184 144.849 38.2867C143.256 40.6549 141.153 41.839 138.54 41.839C135.682 41.839 133.431 40.19 131.787 36.892C130.154 33.5765 129.337 29.033 129.337 23.2615V20.9195C129.337 17.2356 129.715 13.9902 130.47 11.1834C131.226 8.37658 132.303 6.22761 133.701 4.7365C135.11 3.22783 136.743 2.4735 138.601 2.4735C141.174 2.4735 143.246 3.65763 144.818 6.02587C146.39 8.39412 147.299 11.7184 147.544 15.9988H142.95C142.838 13.5253 142.434 11.736 141.74 10.6308C141.056 9.50808 140.01 8.94671 138.601 8.94671C137.07 8.94671 135.921 9.89401 135.156 11.7886C134.4 13.6657 134.013 16.5865 133.992 20.5511V23.4457C133.992 27.5857 134.355 30.6118 135.079 32.5239C135.814 34.4361 136.968 35.3921 138.54 35.3921C139.959 35.3921 141.015 34.8396 141.71 33.7344C142.414 32.6116 142.817 30.8837 142.919 28.5505H147.513Z" transform="translate(79.8325 144.191)" />
<path d="M165.598 9.39405H158.769V41.3128H154.175V9.39405H147.438V2.99978H165.598V9.39405Z" transform="translate(79.8325 144.191)" />
<path d="M184.862 23.0246C184.862 26.7963 184.474 30.1031 183.699 32.945C182.923 35.7869 181.81 37.9797 180.361 39.5234C178.921 41.0672 177.267 41.839 175.399 41.839C173.552 41.839 171.903 41.0759 170.453 39.5497C169.004 38.0235 167.881 35.8483 167.085 33.0239C166.288 30.182 165.885 26.9191 165.875 23.2351V21.3405C165.875 17.5689 166.268 14.2533 167.054 11.3939C167.85 8.51692 168.968 6.31533 170.407 4.78912C171.857 3.24538 173.511 2.4735 175.369 2.4735C177.227 2.4735 178.875 3.24538 180.315 4.78912C181.764 6.31533 182.882 8.51692 183.668 11.3939C184.464 14.2533 184.862 17.5601 184.862 21.3142V23.0246ZM180.207 21.2879C180.207 17.2707 179.789 14.2183 178.952 12.1307C178.115 10.0431 176.92 8.99934 175.369 8.99934C173.827 8.99934 172.638 10.0344 171.801 12.1044C170.964 14.1569 170.54 17.1742 170.53 21.1563V23.0246C170.53 26.9366 170.949 29.9715 171.786 32.1292C172.623 34.287 173.827 35.3658 175.399 35.3658C176.941 35.3658 178.125 34.3308 178.952 32.2608C179.779 30.1732 180.197 27.1384 180.207 23.1562V21.2879Z" transform="translate(79.8325 144.191)" />
<path d="M191.54 27.8137V41.3128H186.946V2.99978H195.644C197.318 2.99978 198.788 3.52606 200.054 4.57861C201.33 5.63117 202.31 7.13106 202.993 9.07828C203.677 11.008 204.019 13.2096 204.019 15.6831C204.019 19.4372 203.269 22.4019 201.768 24.5771C200.278 26.7349 198.211 27.8137 195.567 27.8137H191.54ZM191.54 21.4195H195.644C196.858 21.4195 197.782 20.9283 198.415 19.9459C199.058 18.9635 199.38 17.5601 199.38 15.7357C199.38 13.8586 199.058 12.3412 198.415 11.1834C197.772 10.0256 196.884 9.42913 195.751 9.39405H191.54V21.4195Z" transform="translate(79.8325 144.191)" />
<path d="M207.129 14.7621L205.047 12.6833C205.924 10.315 206.379 7.86784 206.409 5.34171V0.894671H209.931V4.97332C209.931 6.55215 209.676 8.26255 209.166 10.1045C208.655 11.9465 207.976 13.499 207.129 14.7621ZM212.442 14.7621L210.36 12.6833C211.238 10.315 211.692 7.86784 211.723 5.34171V0.894671H215.245V4.97332C215.245 6.55215 214.989 8.26255 214.479 10.1045C213.969 11.9465 213.29 13.499 212.442 14.7621Z" transform="translate(79.8325 144.191)" />
<path d="M114.336 8.69845L116.559 8.11856L124.388 17.2036L126.707 5.79897L128.93 5.21907L125.741 19.7165C125.258 21.5528 124.871 22.8093 124.485 23.3892C124.195 24.0657 123.518 24.4523 122.552 24.6456C121.972 24.8389 121.295 24.8389 120.425 24.7423L119.942 22.8093C120.619 23.0992 121.295 23.0992 121.972 22.9059C122.455 22.8093 122.938 22.5193 123.228 22.1327C123.518 21.6495 123.711 20.7796 123.905 19.4265L114.336 8.69845ZM132.506 4.44588L134.826 4.25258L135.793 11.6946C136.759 11.5979 137.436 11.308 137.822 10.8247C138.209 10.3415 138.595 9.375 139.079 7.73196C139.369 6.57217 139.659 5.70232 139.948 5.21907C140.142 4.73582 140.528 4.25258 141.108 3.86598C141.591 3.47938 142.171 3.18943 142.848 3.18943C143.718 2.99613 144.201 2.99613 144.201 2.99613L144.491 4.92912C144.394 4.92912 144.298 4.92912 144.008 5.02577C143.814 5.02577 143.621 5.02577 143.621 5.02577C142.848 5.12242 142.365 5.41237 142.075 5.79897C141.785 6.18557 141.398 6.95876 141.108 8.21521C140.722 9.66495 140.335 10.6314 140.045 11.1147C139.659 11.5013 139.272 11.8879 138.789 12.1778C139.852 12.3711 141.108 13.241 142.365 14.7874L146.617 20.1031L143.814 20.393L140.335 16.1405C139.465 14.9807 138.692 14.2075 138.112 13.7242C137.532 13.3376 136.759 13.1443 135.986 13.3376L136.952 21.2629L134.729 21.5528L132.506 4.44588ZM148.454 19.7165L148.067 2.51289L154.446 2.41624C155.606 2.31959 156.476 2.41624 157.055 2.51289C157.925 2.60954 158.602 2.80284 159.182 3.18943C159.762 3.57603 160.245 4.15593 160.631 4.83247C161.018 5.50902 161.211 6.28222 161.211 7.15206C161.211 8.6018 160.825 9.85825 159.955 10.9214C158.988 11.9845 157.345 12.4678 154.929 12.5644L150.58 12.6611L150.773 19.7165H148.454ZM150.483 10.6314L154.929 10.5348C156.379 10.5348 157.442 10.2448 158.022 9.66495C158.602 9.08505 158.892 8.31186 158.892 7.34536C158.892 6.57217 158.698 5.99227 158.312 5.50902C157.925 4.92912 157.442 4.63918 156.862 4.44588C156.476 4.34923 155.799 4.34923 154.736 4.34923L150.387 4.54253L150.483 10.6314ZM160.921 19.1366L168.75 2.51289L171.263 2.70619L176.869 20.393L174.356 20.1997L172.713 14.7874L165.561 14.3041L163.338 19.3299L160.921 19.1366ZM166.43 12.4678L172.229 12.951L170.78 8.02191C170.393 6.57217 170.006 5.31572 169.813 4.34923C169.523 5.41237 169.137 6.47552 168.653 7.53866L166.43 12.4678ZM178.995 20.7796L181.218 3.67268L183.441 3.96263L181.314 21.0696L178.995 20.7796ZM179.285 2.31959L179.575 0L181.798 0.289948L181.508 2.60954L179.285 2.31959ZM183.634 2.89948L183.924 0.483247L186.147 0.773196L185.76 3.18943L183.634 2.89948ZM185.374 21.5528L189.24 4.83247L191.463 5.31572L189.82 12.1778L198.421 14.2075L200.064 7.34536L202.287 7.82861L198.325 24.6456L196.198 24.0657L198.035 16.2371L189.433 14.2075L187.597 22.1327L185.374 21.5528ZM200.161 25.1289L211.952 10.9214L214.272 11.7912L215.335 30.3479L212.919 29.4781L212.726 23.8724L205.863 21.5528L202.481 25.9021L200.161 25.1289ZM207.12 20.0064L212.629 21.9394L212.532 16.817C212.436 15.2706 212.436 14.0142 212.532 13.0477C211.952 14.0142 211.276 14.9807 210.503 15.8505L207.12 20.0064ZM243.557 46.6817L252.448 34.3106L247.809 31.0245L249.066 29.3814L259.987 37.3067L258.827 38.9497L254.285 35.6637L245.393 48.0348L243.557 46.6817ZM256.314 45.5219C258.344 43.4923 260.374 42.4291 262.597 42.2358C264.82 42.1392 266.849 42.9124 268.589 44.6521C269.749 45.7152 270.425 46.9717 270.812 48.4214C271.198 49.8711 271.198 51.2242 270.715 52.674C270.329 54.1237 269.459 55.4768 268.299 56.7332C267.043 57.9897 265.689 58.8595 264.24 59.3428C262.79 59.9227 261.34 59.9227 259.987 59.5361C258.537 59.1495 257.281 58.4729 256.218 57.4098C255.058 56.3467 254.285 55.0902 253.898 53.6405C253.512 52.1907 253.608 50.741 254.091 49.2912C254.575 47.8415 255.251 46.5851 256.314 45.5219ZM257.957 47.1649C256.604 48.7113 255.831 50.2577 255.831 51.9008C255.735 53.4472 256.314 54.8969 257.571 56.0567C258.827 57.2165 260.18 57.7964 261.823 57.6031C263.466 57.5064 265.013 56.7332 266.559 55.0902C267.526 54.1237 268.202 53.0606 268.589 51.9974C268.976 50.9343 269.072 49.8711 268.782 48.808C268.589 47.7448 268.009 46.875 267.236 46.0052C266.076 44.942 264.723 44.3621 263.08 44.3621C261.534 44.3621 259.794 45.3286 257.957 47.1649ZM264.24 64.9485L277.287 53.7371L281.54 58.5696C282.313 59.5361 282.893 60.5026 283.183 61.2758C283.376 62.1456 283.376 62.9188 283.183 63.7887C282.893 64.5619 282.41 65.2384 281.83 65.7217C281.25 66.2049 280.67 66.4948 279.897 66.6881C279.124 66.7848 278.351 66.6881 277.481 66.3015C277.964 67.268 278.061 68.2345 277.867 69.1044C277.674 70.0709 277.191 70.8441 276.418 71.5206C275.838 72.0039 275.161 72.3905 274.388 72.5838C273.711 72.7771 273.035 72.7771 272.358 72.6804C271.778 72.4871 271.198 72.1972 270.522 71.8106C269.845 71.3273 269.265 70.7474 268.492 69.8776L264.24 64.9485ZM273.325 60.116L275.741 62.9188C276.418 63.692 276.901 64.1753 277.287 64.4652C277.771 64.7552 278.254 64.9485 278.737 64.8518C279.317 64.8518 279.704 64.6585 280.187 64.2719C280.67 63.8853 280.96 63.4021 281.057 62.9188C281.25 62.4356 281.25 61.9523 280.96 61.4691C280.767 60.9858 280.284 60.3093 279.51 59.3428L277.287 56.7332L273.325 60.116ZM267.236 65.3351L270.039 68.6211C270.522 69.1044 270.909 69.491 271.102 69.6843C271.488 70.0709 271.972 70.2642 272.358 70.3608C272.745 70.4575 273.131 70.4575 273.615 70.3608C274.098 70.2642 274.485 70.0709 274.968 69.6843C275.451 69.2977 275.741 68.8144 275.934 68.2345C276.031 67.6546 276.031 67.0747 275.741 66.5915C275.548 66.0116 275.064 65.3351 274.388 64.4652L271.778 61.4691L267.236 65.3351ZM272.938 75.0967L290.722 70.5541L292.171 72.5838L282.12 88.241L280.67 86.1147L283.763 81.4755L279.607 75.5799L274.291 77.1263L272.938 75.0967ZM281.54 75.0967L284.826 79.8325L287.726 75.5799C288.595 74.3235 289.369 73.357 289.948 72.5838C288.885 72.9704 287.822 73.357 286.759 73.6469L281.54 75.0967ZM282.99 89.7874L298.357 81.9588L301.256 87.7577C301.836 88.7242 302.126 89.5941 302.32 90.174C302.61 90.9472 302.61 91.7204 302.513 92.3969C302.416 93.0735 302.126 93.75 301.74 94.3299C301.256 95.0064 300.58 95.4897 299.807 95.8763C298.55 96.5528 297.197 96.6495 295.941 96.3595C294.588 95.9729 293.331 94.7165 292.268 92.5902L290.335 88.6276L284.053 91.817L282.99 89.7874ZM292.075 87.7577L294.104 91.6237C294.781 92.9768 295.457 93.75 296.231 94.04C297.004 94.3299 297.874 94.2333 298.744 93.8467C299.323 93.4601 299.807 93.0735 300.097 92.4936C300.387 91.9137 300.483 91.3338 300.387 90.7539C300.29 90.3673 300 89.6907 299.517 88.8209L297.584 84.9549L292.075 87.7577ZM306.282 97.8093L307.055 99.6456L294.298 104.671L310.341 108.151L311.115 110.277L295.071 116.463L294.394 114.626L307.055 109.601L291.012 106.121L290.238 103.995L306.282 97.8093ZM305.316 130.187V132.506C303.383 132.506 301.836 132.12 300.58 131.153C299.227 130.284 298.357 128.93 297.874 127.287C297.39 125.451 297.39 123.905 297.777 122.648C298.164 121.295 299.034 120.135 300.193 119.169C301.45 118.202 302.803 117.526 304.446 117.043C306.186 116.559 307.732 116.463 309.182 116.753C310.728 117.043 311.888 117.719 312.951 118.782C313.918 119.749 314.691 121.005 315.077 122.455C315.561 124.098 315.464 125.644 314.981 126.997C314.401 128.351 313.434 129.414 312.081 130.284L310.921 128.351C312.081 127.577 312.758 126.804 313.144 125.934C313.434 125.064 313.434 124.001 313.144 122.938C312.854 121.682 312.178 120.715 311.405 120.039C310.535 119.362 309.568 118.976 308.409 118.976C307.249 118.879 306.186 118.976 305.026 119.362C303.673 119.749 302.513 120.232 301.546 121.005C300.58 121.682 300 122.552 299.71 123.518C299.42 124.581 299.42 125.548 299.71 126.514C300.097 127.771 300.677 128.64 301.643 129.317C302.61 129.994 303.866 130.284 305.316 130.187ZM300.966 140.335L316.044 138.402L315.367 132.796L317.3 132.506L319.04 145.941L317.01 146.231L316.334 140.625L301.256 142.558L300.966 140.335ZM302.416 150.387L319.62 149.903L319.813 156.282C319.813 157.635 319.716 158.698 319.33 159.472C319.04 160.245 318.46 160.921 317.784 161.405C317.107 161.791 316.334 162.081 315.561 162.081C314.787 162.081 314.111 161.888 313.434 161.598C312.758 161.211 312.274 160.631 311.791 159.762C311.501 160.825 311.018 161.695 310.341 162.274C309.568 162.758 308.698 163.144 307.732 163.144C306.862 163.144 306.186 162.951 305.412 162.661C304.736 162.371 304.253 161.985 303.769 161.501C303.479 161.018 303.093 160.341 302.899 159.665C302.706 158.892 302.61 157.925 302.61 156.862L302.416 150.387ZM312.468 152.32L312.564 156.089C312.564 157.055 312.661 157.732 312.758 158.215C312.951 158.795 313.241 159.182 313.724 159.472C314.111 159.762 314.594 159.858 315.174 159.858C315.754 159.858 316.237 159.762 316.72 159.472C317.107 159.182 317.397 158.795 317.59 158.215C317.687 157.732 317.784 156.862 317.784 155.606L317.687 152.223L312.468 152.32ZM304.446 152.61L304.543 156.862C304.639 157.539 304.639 158.022 304.736 158.409C304.832 158.892 305.026 159.278 305.219 159.665C305.412 159.955 305.799 160.245 306.186 160.535C306.572 160.728 307.152 160.825 307.635 160.825C308.312 160.825 308.892 160.631 309.278 160.245C309.762 159.955 310.148 159.472 310.245 158.892C310.438 158.312 310.535 157.442 310.535 156.379L310.438 152.416L304.446 152.61ZM311.308 165.561C314.207 165.754 316.334 166.624 317.88 168.267C319.33 169.91 320.006 171.939 319.813 174.356C319.716 175.902 319.233 177.352 318.363 178.512C317.494 179.768 316.43 180.638 314.981 181.218C313.628 181.798 311.985 181.991 310.341 181.798C308.602 181.701 307.055 181.218 305.702 180.445C304.349 179.671 303.383 178.608 302.803 177.255C302.223 175.902 301.933 174.452 302.03 173.003C302.223 171.456 302.706 170.006 303.576 168.847C304.446 167.59 305.606 166.72 306.959 166.14C308.409 165.657 309.858 165.367 311.308 165.561ZM311.115 167.88C309.085 167.687 307.345 168.17 306.089 169.137C304.832 170.103 304.156 171.456 304.059 173.196C303.866 174.839 304.349 176.289 305.509 177.448C306.572 178.705 308.312 179.381 310.535 179.478C311.888 179.575 313.144 179.478 314.207 179.092C315.271 178.705 316.14 178.028 316.817 177.255C317.397 176.385 317.784 175.322 317.88 174.259C317.977 172.616 317.494 171.263 316.527 170.006C315.464 168.75 313.724 168.073 311.115 167.88ZM303.769 197.552L303.673 199.774C302.899 199.678 301.933 199.871 300.966 200.354C299.903 200.741 299.323 201.611 298.937 202.674C298.647 203.834 298.647 204.8 299.13 205.67C299.517 206.54 300.097 207.023 300.966 207.313C301.933 207.506 302.706 207.41 303.479 206.83C304.156 206.347 304.736 205.38 305.026 204.22L305.412 203.157L307.249 203.737C307.055 204.704 306.862 205.477 306.862 206.057C306.765 206.637 306.959 207.217 307.345 207.7C307.635 208.28 308.119 208.57 308.795 208.763C309.472 208.956 310.245 208.86 310.921 208.473C311.598 208.086 312.081 207.41 312.274 206.443C312.564 205.67 312.564 204.897 312.274 204.124C311.985 203.447 311.598 202.867 310.921 202.481C310.341 202.094 309.858 201.804 309.472 201.707L310.535 199.774C313.918 201.321 315.174 203.737 314.207 207.023C313.821 208.666 312.951 209.729 311.791 210.406C310.631 211.179 309.472 211.276 308.215 210.986C306.669 210.503 305.702 209.439 305.316 207.796C304.832 208.57 304.156 209.149 303.286 209.536C302.416 209.826 301.45 209.923 300.387 209.633C299.034 209.246 297.97 208.28 297.294 206.927C296.617 205.573 296.617 204.027 297.101 202.191C297.97 199.098 300.193 197.552 303.769 197.552ZM297.68 226.45C300.193 227.706 301.836 229.446 302.61 231.476C303.383 233.602 303.189 235.728 302.126 237.854C301.353 239.304 300.387 240.367 299.13 241.14C297.874 241.914 296.521 242.3 294.974 242.3C293.524 242.3 291.978 241.914 290.432 241.14C288.885 240.367 287.629 239.304 286.759 238.048C285.793 236.791 285.309 235.438 285.309 233.988C285.213 232.539 285.503 231.089 286.179 229.832C286.952 228.383 287.919 227.223 289.175 226.45C290.528 225.677 291.881 225.387 293.331 225.387C294.878 225.387 296.327 225.773 297.68 226.45ZM296.521 228.479C294.684 227.61 293.041 227.32 291.398 227.803C289.852 228.189 288.692 229.156 287.919 230.702C287.146 232.152 287.049 233.698 287.629 235.245C288.209 236.791 289.562 238.048 291.495 239.014C292.751 239.691 293.911 239.981 295.071 240.077C296.231 240.077 297.294 239.884 298.164 239.304C299.13 238.821 299.807 238.048 300.29 236.985C301.063 235.535 301.16 234.085 300.677 232.539C300.29 230.992 298.84 229.639 296.521 228.479ZM295.168 249.742L288.789 258.731L287.146 257.571L292.268 250.419L287.919 247.326L285.599 250.612C284.729 251.869 283.86 252.738 283.086 253.318C282.41 253.898 281.54 254.188 280.573 254.188C279.607 254.092 278.64 253.802 277.771 253.222C277.094 252.642 276.514 252.062 276.128 251.289C275.741 250.515 275.548 249.742 275.644 248.872C275.644 247.906 276.224 246.746 277.287 245.2L281.153 239.787L295.168 249.742ZM281.443 242.784L278.834 246.456C278.061 247.423 277.771 248.293 277.867 249.162C277.867 249.936 278.351 250.612 279.124 251.192C279.704 251.579 280.284 251.772 280.863 251.772C281.54 251.772 282.023 251.579 282.506 251.095C282.99 250.709 283.666 249.839 284.536 248.679L286.276 246.166L281.443 242.784ZM272.165 252.448L285.213 263.66L282.99 266.269L271.102 261.34C270.039 260.857 269.169 260.567 268.686 260.277C268.976 260.857 269.555 261.727 270.135 262.79L276.611 273.711L274.581 276.031L261.534 264.82L262.983 263.177L273.905 272.552L266.173 259.407L267.526 257.861L281.83 263.66L270.715 254.092L272.165 252.448ZM258.827 267.332L270.135 280.284L260.857 288.402L259.504 286.856L267.043 280.284L263.563 276.224L256.508 282.41L255.155 280.96L262.307 274.774L258.441 270.329L250.515 277.191L249.162 275.644L258.827 267.332ZM247.616 297.97L243.557 291.688C242.59 292.268 242.107 292.848 241.914 293.428C241.817 294.008 241.914 295.071 242.204 296.714C242.397 297.97 242.494 298.84 242.494 299.42C242.494 299.903 242.397 300.483 242.01 301.063C241.72 301.643 241.334 302.126 240.754 302.513C240.077 302.899 239.691 303.093 239.594 303.189L238.531 301.546C238.531 301.546 238.724 301.45 238.918 301.353C239.111 301.16 239.207 301.16 239.304 301.063C239.884 300.677 240.271 300.29 240.367 299.807C240.464 299.323 240.367 298.454 240.174 297.197C239.884 295.941 239.787 294.974 239.787 294.394C239.884 293.814 240.174 293.235 240.561 292.558C239.401 292.945 237.951 292.655 236.115 291.785L230.122 288.885L232.442 287.339L237.371 289.659C238.724 290.335 239.691 290.722 240.367 290.818C241.14 291.012 241.817 290.818 242.687 290.335L238.241 283.57L240.174 282.313L244.62 289.079C245.2 288.692 245.683 288.112 245.973 287.532C246.166 286.856 246.263 285.793 246.166 284.246V283.956L246.07 278.544L248.389 276.997L248.582 283.666C248.679 285.793 248.293 287.242 247.519 288.015C248.196 287.919 248.776 287.919 249.356 288.112C249.839 288.209 250.709 288.692 251.965 289.562C253.028 290.335 253.802 290.818 254.285 290.818C254.768 290.915 255.251 290.722 255.831 290.432L256.604 289.852L257.668 291.495C257.571 291.592 257.184 291.881 256.604 292.268C255.928 292.655 255.348 292.848 254.671 292.945C254.091 292.945 253.512 292.848 252.932 292.655C252.448 292.461 251.675 291.978 250.612 291.302C249.259 290.335 248.293 289.755 247.713 289.659C247.133 289.562 246.456 289.852 245.49 290.432L249.549 296.714L247.616 297.97ZM228.286 289.659L236.115 304.929L225.193 310.631L224.227 308.795L233.215 304.253L230.799 299.517L222.39 303.866L221.424 302.03L229.832 297.68L227.126 292.461L217.848 297.294L216.881 295.457L228.286 289.659ZM213.885 296.714L219.491 313.048L217.365 313.821L215.045 307.055L206.637 309.955L208.956 316.624L206.83 317.397L201.224 301.063L203.447 300.29L206.057 308.022L214.369 305.122L211.759 297.487L213.885 296.714ZM200.258 310.148C200.838 312.951 200.644 315.271 199.485 317.204C198.421 319.137 196.682 320.296 194.362 320.876C192.816 321.263 191.269 321.166 189.916 320.78C188.466 320.296 187.307 319.523 186.34 318.267C185.374 317.107 184.697 315.754 184.311 314.014C183.924 312.371 183.924 310.728 184.311 309.278C184.697 307.732 185.374 306.476 186.534 305.509C187.597 304.543 188.853 303.866 190.303 303.576C191.849 303.189 193.396 303.189 194.749 303.673C196.198 304.156 197.358 305.026 198.325 306.186C199.195 307.345 199.871 308.698 200.258 310.148ZM197.938 310.631C197.455 308.602 196.585 307.152 195.232 306.282C193.879 305.316 192.332 305.026 190.786 305.412C189.046 305.799 187.887 306.765 187.017 308.119C186.244 309.568 186.147 311.405 186.63 313.531C186.92 314.884 187.403 316.044 188.177 316.914C188.853 317.88 189.723 318.46 190.689 318.847C191.753 319.137 192.719 319.233 193.879 318.943C195.425 318.653 196.585 317.784 197.455 316.43C198.421 315.077 198.518 313.144 197.938 310.631ZM180.735 323.196L178.415 323.389L177.835 315.657L174.549 315.947C174.549 318.363 173.969 320.393 172.616 321.939C171.36 323.486 169.62 324.356 167.494 324.452C165.271 324.646 163.434 323.969 161.791 322.519C160.245 321.07 159.375 318.943 159.182 316.237C158.892 313.434 159.472 311.211 160.825 309.568C162.178 307.829 163.918 306.862 166.237 306.765C168.267 306.572 170.006 307.152 171.553 308.409C173.003 309.665 173.969 311.501 174.356 313.918L177.642 313.628L177.159 306.186L179.381 305.992L180.735 323.196ZM172.229 315.077C172.036 312.951 171.456 311.308 170.393 310.148C169.33 309.085 167.977 308.505 166.334 308.698C164.691 308.795 163.434 309.472 162.564 310.728C161.695 312.081 161.308 313.821 161.501 316.044C161.598 318.17 162.274 319.813 163.338 320.973C164.401 322.133 165.754 322.713 167.397 322.519C169.04 322.423 170.296 321.746 171.166 320.393C172.036 319.04 172.423 317.3 172.229 315.077ZM142.268 306.186L139.175 323.099L132.893 321.939C131.637 321.746 130.573 321.36 129.897 320.876C129.22 320.393 128.64 319.813 128.351 318.943C128.061 318.17 127.964 317.397 128.061 316.624C128.254 315.947 128.544 315.271 129.027 314.691C129.51 314.111 130.187 313.724 131.057 313.434C130.09 312.951 129.414 312.274 129.027 311.501C128.64 310.631 128.447 309.762 128.64 308.795C128.834 308.022 129.124 307.249 129.607 306.669C129.994 305.992 130.477 305.606 131.057 305.316C131.637 305.026 132.313 304.832 133.086 304.832C133.86 304.736 134.729 304.832 135.793 305.026L142.268 306.186ZM138.209 315.561L134.633 314.884C133.666 314.787 132.893 314.691 132.506 314.691C131.83 314.787 131.347 314.981 131.057 315.367C130.67 315.657 130.477 316.14 130.284 316.72C130.187 317.3 130.284 317.88 130.477 318.363C130.67 318.847 130.96 319.137 131.443 319.427C131.927 319.62 132.796 319.91 133.956 320.103L137.339 320.683L138.209 315.561ZM139.659 307.732L135.503 306.959C134.729 306.862 134.246 306.765 133.956 306.765C133.376 306.765 132.99 306.862 132.603 307.055C132.216 307.152 131.83 307.442 131.54 307.829C131.25 308.215 131.057 308.698 130.96 309.182C130.863 309.858 130.863 310.438 131.153 310.921C131.347 311.501 131.733 311.888 132.313 312.178C132.893 312.468 133.666 312.661 134.729 312.854L138.595 313.628L139.659 307.732ZM126.128 302.996L122.262 319.813L120.039 319.233L124.001 302.513L126.128 302.996ZM113.08 317.3L103.222 313.918L108.151 299.517L106.701 299.034L108.634 293.331L110.567 294.008L109.214 297.777L119.942 301.45L121.198 297.584L123.131 298.26L121.198 303.963L119.942 303.576C117.912 305.122 115.979 308.892 113.853 314.884L113.08 317.3ZM106.024 312.758L111.63 314.691L111.92 313.821C112.403 312.468 113.177 310.631 114.24 308.215C115.303 305.896 116.463 304.156 117.719 302.803L110.277 300.29L106.024 312.758ZM97.7126 311.598L85.5348 306.089L92.6869 290.432L94.7165 291.302L88.4343 305.219L96.5528 308.892L102.835 294.974L104.865 295.941L97.7126 311.598ZM85.5348 295.844C83.9884 298.26 82.0554 299.71 79.9291 300.29C77.8028 300.773 75.6765 300.387 73.6469 299.13C72.3905 298.26 71.3273 297.197 70.7474 295.844C70.0709 294.491 69.7809 293.138 69.9742 291.592C70.1675 290.142 70.7474 288.595 71.7139 287.146C72.5838 285.696 73.7436 284.633 75.0966 283.86C76.4497 283.086 77.8028 282.7 79.2526 282.796C80.7023 282.893 82.1521 283.376 83.3119 284.149C84.6649 285.019 85.7281 286.179 86.308 287.532C86.9845 288.885 87.1778 290.238 86.9845 291.785C86.7912 293.235 86.308 294.588 85.5348 295.844ZM83.6018 294.588C84.6649 292.848 85.1482 291.205 84.8582 289.562C84.5683 288.015 83.6985 286.759 82.3454 285.793C80.8956 284.923 79.3492 284.633 77.8028 285.019C76.2564 285.503 74.8067 286.566 73.6469 288.499C72.8737 289.659 72.3905 290.818 72.1972 291.881C72.1005 293.041 72.1972 294.104 72.6804 295.071C73.067 296.037 73.7436 296.811 74.7101 297.487C76.0631 298.357 77.5129 298.55 79.0593 298.26C80.7023 297.97 82.1521 296.714 83.6018 294.588ZM74.0335 278.351L62.6289 291.302L57.7964 287.146C56.8299 286.276 56.1533 285.406 55.8634 284.633C55.4768 283.86 55.3802 283.086 55.4768 282.217C55.5735 281.347 55.9601 280.67 56.4433 280.09C56.9265 279.51 57.6031 279.124 58.2796 278.93C59.0528 278.64 59.826 278.64 60.6959 278.834C60.116 277.964 59.826 277.094 59.9227 276.128C59.9227 275.258 60.3093 274.388 60.9858 273.615C61.5657 273.035 62.1456 272.552 62.8222 272.262C63.5954 271.972 64.2719 271.875 64.8518 271.875C65.4317 271.875 66.1082 272.068 66.7848 272.455C67.558 272.842 68.2345 273.325 69.1044 274.098L74.0335 278.351ZM65.7216 284.343L62.9188 281.927C62.1456 281.25 61.5657 280.863 61.1791 280.67C60.5992 280.477 60.116 280.38 59.6327 280.477C59.1495 280.573 58.7629 280.863 58.2796 281.347C57.893 281.733 57.6997 282.217 57.6031 282.7C57.5064 283.28 57.6031 283.763 57.893 284.149C58.183 284.633 58.7629 285.213 59.7294 286.082L62.3389 288.305L65.7216 284.343ZM70.9407 278.351L67.7513 275.548C67.1714 275.064 66.7848 274.774 66.4948 274.581C66.1082 274.388 65.625 274.195 65.2384 274.098C64.8518 274.098 64.3686 274.098 63.982 274.291C63.4987 274.485 63.1121 274.774 62.7255 275.161C62.3389 275.644 62.049 276.128 62.049 276.707C61.9523 277.287 62.049 277.867 62.3389 278.351C62.7255 278.93 63.3054 279.51 64.0786 280.284L67.0747 282.893L70.9407 278.351ZM61.759 267.429L49.7745 279.897L48.2281 278.254L60.116 265.883L61.759 267.429ZM43.1057 273.228L36.3402 265.303L47.8415 255.445L46.875 254.285L51.4175 250.322L52.7706 251.869L49.6778 254.478L57.1198 262.983L60.116 260.374L61.4691 261.92L56.8299 265.883L55.9601 264.916C53.5438 265.206 49.8711 267.429 45.0387 271.585L43.1057 273.228ZM39.3363 265.689L43.2023 270.232L43.8789 269.652C45.0387 268.686 46.5851 267.526 48.7113 266.076C50.8376 264.53 52.7706 263.563 54.5103 263.08L49.3879 257.088L39.3363 265.689ZM47.8415 252.352L29.9613 256.894L28.6082 254.865L38.6598 239.207L40.1095 241.334L37.0168 245.973L41.1727 251.869L46.4884 250.322L47.8415 252.352ZM39.2397 252.352L35.857 247.616L33.0541 251.869C32.1843 253.125 31.4111 254.092 30.7345 254.865C31.7977 254.478 32.9575 254.092 34.0206 253.802L39.2397 252.352ZM22.0361 244.523L16.817 235.342L31.701 226.74L32.8608 228.769L19.6198 236.308L22.7126 241.624L30.4446 237.178C31.991 236.308 33.1508 235.728 33.924 235.438C34.7938 235.148 35.567 235.148 36.1469 235.438C36.8235 235.631 37.4033 236.115 37.7899 236.791C38.0799 237.274 38.2732 237.854 38.4665 238.531L36.4369 239.207C36.4369 238.821 36.3402 238.434 36.2436 238.241C36.0503 237.758 35.6637 237.564 35.1804 237.564C34.6972 237.468 33.8273 237.854 32.5709 238.531L22.0361 244.523ZM14.1108 229.543L13.3376 227.416L20.1031 224.71L18.6534 220.941C17.9768 219.201 17.6869 217.848 17.7835 216.881C17.8802 215.915 18.2668 215.142 18.8466 214.465C19.4265 213.885 20.1031 213.402 20.7796 213.112C22.0361 212.629 23.2925 212.629 24.549 213.112C25.8054 213.499 26.9652 214.948 27.8351 217.171L30.1546 223.26L14.1108 229.543ZM27.5451 221.811L25.9987 218.041C25.4188 216.398 24.7423 215.528 23.9691 215.238C23.2925 215.045 22.5193 215.045 21.7461 215.335C21.0696 215.625 20.5863 216.012 20.2964 216.495C20.0064 217.075 19.8131 217.558 19.9098 218.235C20.0064 218.814 20.393 219.878 20.8763 221.231L21.9394 224.034L27.5451 221.811ZM24.549 208.666L7.92526 213.305L7.34536 211.082L14.2075 209.149L11.7912 200.644L4.92912 202.577L4.34923 200.451L20.9729 195.715L21.5528 197.938L13.7242 200.161L16.1405 208.666L23.9691 206.443L24.549 208.666ZM20.1997 191.656L3.28608 194.652L2.80284 192.429L19.8131 189.433L20.1997 191.656ZM11.5979 174.162L11.8879 171.843C13.8209 172.133 15.2706 172.809 16.4304 173.872C17.5902 174.936 18.2668 176.385 18.4601 178.125C18.6534 179.961 18.4601 181.508 17.8802 182.764C17.3003 184.021 16.3338 184.987 14.9807 185.76C13.6276 186.534 12.1778 187.017 10.5348 187.21C8.69845 187.5 7.15206 187.307 5.70232 186.823C4.34923 186.34 3.18943 185.47 2.31959 184.311C1.44974 183.151 0.966495 181.798 0.773196 180.348C0.579897 178.608 0.869845 177.159 1.54639 175.902C2.31959 174.646 3.38273 173.679 4.92912 173.003L5.70232 175.129C4.54253 175.709 3.67268 176.385 3.18943 177.255C2.70619 178.028 2.60954 178.995 2.70619 180.155C2.89948 181.411 3.38273 182.474 4.05928 183.247C4.83247 184.117 5.70232 184.601 6.86211 184.794C7.92526 184.987 9.08505 185.084 10.2448 184.89C11.6946 184.697 12.8544 184.407 13.9175 183.827C14.9807 183.247 15.6572 182.474 16.1405 181.508C16.5271 180.638 16.7204 179.575 16.5271 178.608C16.4304 177.352 15.8505 176.289 15.0773 175.515C14.2075 174.742 13.0477 174.356 11.5979 174.162ZM17.4936 164.787L2.22294 165.174L2.41624 170.78L0.386598 170.876L0 157.345L2.02964 157.249L2.22294 162.951L17.3969 162.564L17.4936 164.787ZM0.289948 152.32L0.579897 150L8.21521 150.966L8.69845 147.777C6.28222 147.294 4.44588 146.231 3.18943 144.684C1.93299 143.041 1.44974 141.205 1.64304 139.079C1.93299 136.952 2.99613 135.213 4.73582 133.956C6.47552 132.7 8.69845 132.216 11.4046 132.603C14.2075 132.893 16.2371 133.956 17.6869 135.599C19.0399 137.242 19.6198 139.175 19.3299 141.398C19.0399 143.428 18.1701 145.071 16.6237 146.231C15.0773 147.487 13.1443 148.067 10.7281 147.97L10.2448 151.256L17.6869 152.223L17.3969 154.446L0.289948 152.32ZM9.9549 145.651C12.0812 145.941 13.8209 145.651 15.174 144.781C16.4304 144.008 17.2036 142.751 17.3969 141.108C17.5902 139.562 17.2036 138.112 16.1405 137.049C15.0773 135.889 13.3376 135.213 11.1147 134.923C8.9884 134.633 7.24871 134.923 5.89562 135.696C4.54253 136.469 3.76933 137.726 3.57603 139.369C3.38273 141.012 3.86598 142.461 4.92912 143.524C6.08892 144.684 7.73196 145.361 9.9549 145.651ZM31.8943 99.4523L16.9137 90.9472L18.6534 87.951L31.2178 90.5606C32.3776 90.7539 33.2474 90.9472 33.8273 91.0438C33.4407 90.5606 32.7642 89.884 31.8943 88.9175L23.4858 79.4459L25.0322 76.7397L40.0129 85.3415L38.9497 87.1778L26.3853 80.0258L36.4369 91.5271L35.4704 93.2668L20.2964 90.3673L32.9575 97.616L31.8943 99.4523ZM42.3325 82.0554L40.3995 80.7023L41.7526 78.7693L43.6856 80.1224L42.3325 82.0554ZM32.3776 66.3015L33.8273 64.5619L39.7229 69.201C40.3995 68.3312 40.6894 67.6546 40.5928 67.0747C40.5928 66.4948 40.1095 65.5284 39.3363 64.0786C38.6598 63.0155 38.2732 62.1456 38.1765 61.6624C37.9832 61.0825 37.8866 60.5026 37.9832 59.9227C38.0799 59.2461 38.3698 58.6662 38.7564 58.0863C39.3363 57.4098 39.6263 57.0232 39.6263 57.0232L41.1727 58.2796C41.1727 58.2796 41.076 58.4729 40.8827 58.5696C40.7861 58.7629 40.6894 58.8595 40.5928 58.9562C40.2062 59.5361 40.0129 60.0193 40.0129 60.5026C40.1095 61.0825 40.4961 61.8557 41.076 62.9188C41.8492 64.2719 42.3325 65.2384 42.3325 65.7217C42.4291 66.3015 42.3325 66.8814 42.2358 67.4613C43.1057 66.7848 44.6521 66.4948 46.6817 66.7848L53.3505 67.4613L51.6108 69.6843L46.1985 69.1044C44.6521 68.9111 43.5889 68.9111 42.8157 69.0077C42.1392 69.1044 41.5593 69.491 41.076 70.1675L47.3582 75.0967L46.0052 76.933L32.3776 66.3015ZM42.7191 53.5438L44.1688 52.1907L53.6405 61.9523L50.741 45.8119L52.2874 44.2655L64.2719 56.7332L62.8222 58.0863L53.3505 48.3247L56.25 64.4652L54.607 66.0116L42.7191 53.5438ZM67.3647 54.0271L56.0567 41.076L57.6997 39.5296L69.1044 52.4807L67.3647 54.0271ZM53.7371 41.6559L52.1907 39.8196L53.8338 38.3698L55.3802 40.2062L53.7371 41.6559ZM57.0232 38.7564L55.4768 36.9201L57.1198 35.4704L58.6662 37.3067L57.0232 38.7564ZM72.0039 49.9678L61.9523 35.9536L67.1714 32.2809C68.2345 31.5077 69.201 31.0245 70.0709 30.8312C70.8441 30.6379 71.7139 30.7345 72.4871 31.0245C73.2603 31.4111 73.9369 31.8943 74.3235 32.4742C74.8067 33.1508 75 33.8273 75.0966 34.5039C75.0966 35.2771 75 36.0503 74.5168 36.9201C75.5799 36.5335 76.5464 36.4369 77.4162 36.7268C78.2861 37.0168 78.9626 37.5967 79.6392 38.3698C80.0258 39.0464 80.3157 39.7229 80.509 40.4961C80.6057 41.2693 80.6057 41.9459 80.4124 42.5258C80.2191 43.1057 79.8325 43.7822 79.3492 44.3621C78.866 44.942 78.1894 45.5219 77.3196 46.1985L72.0039 49.9678ZM68.0412 40.4961L71.0374 38.3698C71.8106 37.7899 72.3905 37.3067 72.6804 36.9201C73.067 36.5335 73.2603 35.9536 73.2603 35.4704C73.2603 34.9871 73.067 34.5039 72.6804 34.0206C72.3905 33.5374 72.0039 33.2474 71.5206 33.0541C71.0374 32.8608 70.5541 32.8608 69.9742 32.9575C69.491 33.1508 68.7178 33.634 67.7513 34.3106L64.9485 36.3402L68.0412 40.4961ZM72.6804 46.9717L76.1598 44.5554C76.7397 44.0722 77.1263 43.7822 77.3196 43.5889C77.7062 43.2023 77.9961 42.8157 78.0928 42.4291C78.2861 42.0425 78.2861 41.6559 78.2861 41.1727C78.1894 40.6894 77.9961 40.2062 77.7062 39.7229C77.3196 39.2397 76.8363 38.8531 76.3531 38.6598C75.7732 38.4665 75.1933 38.4665 74.6134 38.6598C74.0335 38.8531 73.2603 39.2397 72.3905 39.9162L69.201 42.1392L72.6804 46.9717Z" transform="translate(27.4485 25.5155)" />
<path d="M0 5.91913L0.926123 3.06023C3.06023 3.81187 4.61048 4.46284 5.57687 5.01314C5.32185 2.58375 5.18763 0.912701 5.17421 0H8.09351C8.05324 1.32879 7.89889 2.99312 7.63045 4.99301C9.01292 4.29506 10.5967 3.6508 12.3819 3.06023L13.308 5.91913C11.6034 6.48286 9.93233 6.85868 8.29484 7.04659C9.11359 7.75796 10.2679 9.02634 11.7577 10.8517L9.34176 12.5631C8.56328 11.5027 7.64387 10.0598 6.58353 8.23444C5.59029 10.127 4.71786 11.5698 3.96622 12.5631L1.59052 10.8517C3.14748 8.93239 4.26151 7.664 4.93261 7.04659C3.20116 6.71104 1.55696 6.33522 0 5.91913Z" transform="translate(36.8556 127.557)" />
<path d="M0 5.91913L0.926123 3.06023C3.06023 3.81187 4.61048 4.46284 5.57687 5.01314C5.32185 2.58375 5.18763 0.912701 5.17421 0H8.09351C8.05324 1.32879 7.89889 2.99312 7.63045 4.99301C9.01292 4.29506 10.5967 3.6508 12.3819 3.06023L13.308 5.91913C11.6034 6.48286 9.93233 6.85868 8.29484 7.04659C9.11359 7.75796 10.2679 9.02634 11.7577 10.8517L9.34176 12.5631C8.56328 11.5027 7.64387 10.0598 6.58353 8.23444C5.59029 10.127 4.71786 11.5698 3.96622 12.5631L1.59052 10.8517C3.14748 8.93239 4.26151 7.664 4.93261 7.04659C3.20116 6.71104 1.55696 6.33522 0 5.91913Z" transform="translate(250.161 44.7283)" />
</g></svg>
