<?xml version="1.0" encoding="UTF-8"?>
<!DOCTYPE svg PUBLIC "-//W3C//DTD SVG 1.1//EN" "http://www.w3.org/Graphics/SVG/1.1/DTD/svg11.dtd">
<!-- Creator: CorelDRAW X6 -->
<svg xmlns="http://www.w3.org/2000/svg" xml:space="preserve" width="23.1986mm" height="23.1986mm" version="1.1" style="shape-rendering:geometricPrecision; text-rendering:geometricPrecision; image-rendering:optimizeQuality; fill-rule:evenodd; clip-rule:evenodd"
viewBox="0 0 2320 2320"
 xmlns:xlink="http://www.w3.org/1999/xlink">
 <defs>
  <style type="text/css">
   <![CDATA[
    .str3 {stroke:#FEFEFE;stroke-width:1.41}
    .str1 {stroke:#0B1D75;stroke-width:7.62}
    .str4 {stroke:#0B1D75;stroke-width:13.98}
    .str0 {stroke:#0B1D75;stroke-width:40}
    .str2 {stroke:#0B1D75;stroke-width:92.1}
    .fil0 {fill:none}
    .fil2 {fill:#FEFEFE;fill-rule:nonzero}
    .fil1 {fill:#0B1D75;fill-rule:nonzero}
   ]]>
  </style>
 </defs>
 <g id="Слой_x0020_1">
  <metadata id="CorelCorpID_0Corel-Layer"/>
  <path class="fil0 str0" d="M1160 89c580,0 1049,470 1049,1050 0,579 -469,1049 -1049,1049 -579,0 -1049,-470 -1049,-1049 0,-580 470,-1050 1049,-1050z"/>
  <path class="fil0" d="M1160 269c481,0 871,393 871,878 0,485 -390,878 -871,878 -481,0 -871,-393 -871,-878 0,-485 390,-878 871,-878z"/>
  <path class="fil1" d="M715 290l6 -17c13,4 22,8 28,11 -2,-14 -3,-25 -3,-30l18 0c0,8 -1,18 -3,30 9,-4 18,-8 29,-11l6 17c-10,3 -21,6 -31,7 5,4 12,12 21,23l-14 10c-5,-6 -11,-15 -17,-26 -6,12 -11,20 -16,26l-14 -10c9,-12 16,-19 20,-23 -11,-2 -21,-5 -30,-7z"/>
  <g id="_1035613920">
   <path class="fil1" d="M575 1444c0,1 -1,1 -1,2 0,0 -1,0 -1,1 -1,0 -2,0 -3,0 -1,0 -2,0 -3,0 -2,0 -3,0 -4,0 -1,0 -2,0 -2,0 -1,-1 -1,-1 -1,-1 0,-1 0,-1 0,-2l14 -89c0,-1 0,-1 0,-2 1,0 1,0 2,-1 0,0 1,0 2,0 1,0 2,0 4,0 1,0 2,0 3,0 1,0 2,0 2,0 1,1 1,1 1,1 1,1 1,1 1,2l-14 89zm76 -61c0,2 0,5 0,8 -1,3 -1,6 -1,9 -1,4 -1,8 -2,11 -1,4 -2,8 -3,11 -1,4 -3,7 -5,10 -1,4 -3,6 -6,9 -2,2 -5,4 -8,6 -3,1 -7,2 -11,2 -3,0 -6,-1 -9,-2 -2,-1 -5,-3 -6,-5 -2,-2 -3,-5 -4,-8 -1,-3 -1,-7 -1,-11 0,-3 0,-7 0,-10 1,-3 2,-7 3,-10 1,-4 2,-7 3,-11 2,-3 3,-6 6,-8 2,-3 4,-5 7,-6 2,-2 5,-2 9,-2 1,0 3,0 5,0 1,1 3,2 4,2 1,1 2,2 3,4 1,1 2,2 2,4 0,0 0,-1 0,-1 0,-1 0,-1 0,-2 0,-3 0,-6 -1,-9 0,-3 -1,-5 -3,-7 -1,-2 -3,-4 -5,-5 -3,-1 -6,-2 -9,-2 -1,0 -2,0 -3,-1 0,0 0,-1 0,-2 0,0 0,0 0,-1 0,-1 0,-1 0,-2 0,-1 0,-2 0,-3 1,0 1,-1 1,-2 0,-1 0,-1 0,-2 1,-1 1,-1 1,-1 0,-1 1,-1 1,-1 0,0 1,0 2,0 5,0 9,0 13,2 3,1 6,3 9,7 2,3 4,7 6,11 1,5 2,11 2,18zm-18 24c0,-5 -1,-9 -2,-12 -2,-3 -4,-4 -7,-4 -2,0 -3,1 -5,2 -1,1 -3,2 -4,4 -1,1 -2,3 -2,5 -1,3 -2,5 -2,7 -1,2 -1,4 -1,6 0,2 0,4 0,6 0,4 0,7 1,9 2,2 4,3 6,3 2,0 4,0 5,-1 2,-1 3,-2 4,-3 1,-2 2,-3 3,-5 1,-2 2,-4 2,-6 1,-2 1,-4 2,-6 0,-2 0,-3 0,-5zm79 -13c0,3 0,6 -1,9 -2,3 -4,5 -6,7 -3,2 -6,4 -10,5 -4,1 -9,2 -14,2l-5 0c-1,1 -1,2 -1,3 0,1 0,2 0,3 0,4 1,7 2,9 2,2 5,3 8,3 3,0 5,0 7,-1 2,0 3,-1 5,-1 1,-1 3,-1 4,-2 1,0 1,-1 2,-1 0,0 1,1 1,1 0,0 0,1 0,1 0,1 0,2 0,3 0,1 0,2 -1,4 0,1 0,2 0,2 -1,1 -1,2 -1,3 -1,0 -2,1 -3,1 -1,1 -3,1 -4,2 -2,0 -4,1 -6,1 -2,1 -4,1 -7,1 -3,0 -6,-1 -9,-2 -3,-1 -5,-2 -7,-4 -2,-2 -3,-5 -4,-8 -1,-3 -1,-7 -1,-11 0,-3 0,-7 0,-10 1,-4 2,-8 3,-12 1,-3 2,-7 4,-10 2,-3 4,-6 6,-9 2,-2 5,-4 8,-6 3,-1 7,-2 11,-2 3,0 6,1 9,2 2,1 4,2 6,4 1,1 2,3 3,6 1,2 1,4 1,7zm-14 1c0,-2 0,-4 -1,-5 -2,-1 -3,-2 -6,-2 -1,0 -3,0 -5,1 -1,1 -2,2 -4,4 -1,1 -2,3 -3,5 0,2 -1,4 -1,7l4 0c3,0 6,-1 8,-1 2,-1 4,-1 5,-2 1,-1 2,-2 2,-3 1,-1 1,-3 1,-4zm71 50c0,0 0,0 0,1 -1,0 -1,0 -2,1 0,0 -1,0 -2,0 -1,0 -2,0 -4,0 -1,0 -2,0 -3,0 -1,0 -2,0 -2,0 -1,-1 -1,-1 -1,-1 0,-1 0,-1 0,-1l4 -26 -20 0 -4 26c0,0 0,0 -1,1 0,0 0,0 -1,1 -1,0 -1,0 -2,0 -1,0 -2,0 -4,0 -1,0 -2,0 -3,0 -1,0 -2,0 -2,0 -1,-1 -1,-1 -1,-1 0,-1 0,-1 0,-1l10 -66c0,0 0,-1 0,-1 1,-1 1,-1 2,-1 0,0 1,-1 2,-1 1,0 2,0 3,0 2,0 3,0 4,0 1,0 1,1 2,1 0,0 1,0 1,1 0,0 0,1 0,1l-4 25 20 0 4 -25c0,0 0,-1 0,-1 1,-1 1,-1 2,-1 0,0 1,-1 2,-1 1,0 2,0 3,0 2,0 3,0 4,0 1,0 1,1 2,1 0,0 1,0 1,1 0,0 0,1 0,1l-10 66zm98 0c0,0 -1,0 -1,1 0,0 -1,0 -1,1 -1,0 -2,0 -3,0 -1,0 -2,0 -3,0 -1,0 -3,0 -3,0 -1,0 -2,0 -3,0 0,-1 0,-1 0,-1 -1,-1 -1,-1 -1,-1l6 -40c1,-1 1,-2 1,-3 0,-1 0,-2 0,-3 0,-3 0,-5 -1,-6 -1,-1 -2,-2 -4,-2 -1,0 -3,1 -4,2 -2,1 -3,3 -5,5 -1,2 -3,5 -4,8 -1,3 -2,6 -2,9l-5 30c0,0 0,0 -1,1 0,0 0,0 -1,1 0,0 -1,0 -2,0 -1,0 -2,0 -4,0 -1,0 -2,0 -3,0 -1,0 -2,0 -2,0 -1,-1 -1,-1 -1,-1 0,-1 0,-1 0,-1l6 -40c0,-1 0,-2 0,-3 0,-1 0,-3 0,-4 0,-2 0,-4 -1,-5 0,-1 -1,-2 -3,-2 -2,0 -3,1 -5,2 -1,1 -3,3 -5,5 -1,2 -2,5 -3,8 -2,3 -2,6 -3,9l-5 30c0,0 0,0 0,1 0,0 -1,0 -1,1 -1,0 -2,0 -3,0 -1,0 -2,0 -3,0 -2,0 -3,0 -4,0 0,0 -1,0 -2,0 0,-1 0,-1 -1,-1 0,-1 0,-1 0,-1l10 -66c0,0 1,-1 1,-1 0,-1 0,-1 1,-1 0,0 1,-1 2,-1 1,0 2,0 3,0 1,0 2,0 3,0 0,0 1,1 1,1 1,0 1,0 1,1 0,0 0,1 0,1l-1 11c1,-2 2,-4 3,-5 1,-2 3,-4 4,-5 2,-2 4,-3 6,-4 2,-1 4,-1 6,-1 2,0 4,0 6,1 1,1 3,2 4,3 1,2 2,3 2,5 1,2 1,4 1,6 1,-2 2,-4 4,-5 1,-2 2,-4 4,-5 2,-2 4,-3 6,-4 1,-1 4,-1 6,-1 2,0 4,0 6,1 2,1 3,3 5,4 1,2 1,4 2,6 0,3 1,5 1,8 0,1 0,3 -1,5 0,2 0,3 0,5l-6 41zm64 0c0,0 0,1 0,1 0,0 -1,1 -1,1 -1,0 -1,0 -2,0 -1,0 -2,0 -3,0 -1,0 -2,0 -3,0 -1,0 -1,0 -2,0 0,0 -1,-1 -1,-1 0,0 0,-1 0,-1l2 -11c-1,2 -2,3 -3,5 -2,2 -3,3 -5,5 -2,1 -3,2 -5,3 -2,1 -4,2 -7,2 -2,0 -4,-1 -6,-2 -2,-1 -4,-2 -5,-4 -1,-1 -2,-3 -2,-6 -1,-2 -1,-4 -1,-7 0,-2 0,-3 0,-5 0,-2 1,-4 1,-5l6 -41c0,0 0,-1 1,-1 0,-1 0,-1 1,-1 1,0 1,-1 2,-1 1,0 2,0 4,0 1,0 2,0 3,0 1,0 2,1 2,1 1,0 1,0 1,1 0,0 1,1 0,1l-6 39c0,1 0,3 0,4 0,1 0,2 0,3 0,1 0,2 0,3 0,1 1,2 1,3 0,0 1,1 1,1 1,1 2,1 3,1 1,0 3,-1 4,-2 2,-1 4,-3 5,-6 2,-2 3,-4 4,-8 1,-3 2,-6 3,-10l4 -28c0,0 0,-1 1,-1 0,-1 0,-1 1,-1 1,0 1,-1 2,-1 1,0 2,0 4,0 1,0 2,0 3,0 1,0 2,1 2,1 1,0 1,0 1,1 0,0 1,1 0,1l-10 66zm98 -47c0,4 0,7 -1,11 0,4 -1,8 -2,11 -1,4 -2,8 -3,11 -2,4 -4,7 -6,9 -1,3 -4,5 -6,6 -3,2 -5,3 -8,3 -3,0 -5,-1 -6,-2 -2,-1 -4,-2 -5,-5l-4 28c0,1 0,1 -1,2 0,0 0,0 -1,1 0,0 -1,0 -2,0 -1,1 -2,1 -4,1 -1,0 -2,0 -3,-1 -1,0 -2,0 -2,0 -1,-1 -1,-1 -1,-1 0,-1 0,-1 0,-2l2 -14c0,-4 1,-7 2,-11 1,-4 3,-8 5,-12 -1,2 -2,4 -3,5 -1,2 -2,4 -4,5 -1,2 -3,3 -5,4 -1,1 -3,2 -6,2 -2,0 -5,-1 -7,-2 -1,-1 -3,-3 -4,-5 -1,-2 -2,-5 -3,-7 0,-3 0,-6 0,-10 0,-3 0,-6 0,-10 1,-3 1,-7 2,-11 1,-3 2,-7 4,-11 1,-3 3,-6 5,-9 2,-3 4,-5 7,-7 2,-1 5,-2 8,-2 3,0 5,1 6,2 2,1 3,2 5,4l5 -33c0,0 0,-1 0,-1 0,-1 1,-1 2,-1 0,-1 1,-1 2,-1 1,0 2,0 3,0 2,0 3,0 4,0 1,0 1,0 2,1 0,0 1,0 1,1 0,0 0,0 0,1l-3 19c0,2 -1,4 -1,6 -1,2 -1,3 -1,5 -1,2 -2,4 -2,6 -1,2 -2,4 -3,7 1,-2 2,-4 3,-6 1,-2 2,-3 4,-5 1,-1 3,-3 4,-4 2,-1 4,-1 7,-1 2,0 4,1 6,2 2,1 3,2 4,4 2,2 3,5 3,8 1,2 1,6 1,9zm-15 2c0,-3 0,-5 -1,-7 0,-2 -2,-2 -3,-2 -1,0 -3,0 -4,1 -1,1 -2,3 -4,5 -1,2 -2,4 -3,7 -1,3 -2,6 -2,10l-3 14c1,2 2,3 4,4 1,1 2,1 3,1 2,0 3,0 4,-2 2,-1 3,-2 4,-4 1,-1 1,-3 2,-6 1,-2 1,-4 2,-7 0,-2 1,-5 1,-7 0,-3 0,-5 0,-7zm-29 -4c-1,-2 -2,-3 -3,-4 -1,-1 -2,-1 -4,-1 -1,0 -2,0 -4,1 -1,1 -2,3 -3,4 -1,2 -2,4 -2,6 -1,3 -2,5 -2,8 -1,2 -1,5 -1,7 -1,2 -1,5 -1,7 0,3 1,5 1,7 1,1 2,2 4,2 1,0 3,0 4,-2 1,-1 2,-2 4,-4 1,-2 2,-5 3,-8 1,-3 2,-6 2,-10l2 -13zm83 -39c-1,2 -1,3 -2,5 0,1 -1,2 -1,3 -1,0 -2,1 -3,1 -1,1 -3,1 -4,1 -2,0 -3,0 -4,-1 -1,0 -2,-1 -2,-1 -1,-1 -1,-2 -1,-3 0,-2 0,-3 0,-5 0,-2 1,-3 1,-4 1,-2 1,-3 2,-3 1,-1 2,-2 3,-2 1,0 2,-1 4,-1 1,0 3,1 4,1 1,0 1,1 2,2 1,0 1,1 1,3 0,1 0,2 0,4zm-15 88c0,0 0,0 -1,1 0,0 0,0 -1,1 -1,0 -1,0 -2,0 -1,0 -2,0 -4,0 -1,0 -2,0 -3,0 -1,0 -2,0 -2,0 -1,-1 -1,-1 -1,-1 0,-1 0,-1 0,-1l10 -66c0,0 0,-1 0,-1 0,0 1,-1 1,-1 1,0 2,0 3,-1 1,0 2,0 3,0 2,0 3,0 4,0 1,1 1,1 2,1 0,0 1,1 1,1 0,0 0,1 0,1l-10 66zm65 -1c0,1 0,1 0,2 0,0 -1,0 -1,1 -1,0 -2,0 -3,0 0,0 -2,0 -3,0 -2,0 -3,0 -4,0 -1,0 -2,0 -2,0 -1,0 -1,-1 -1,-1 0,0 -1,-1 -1,-1l-2 -16c0,-2 -1,-4 -1,-5 -1,-2 -1,-3 -2,-4 -1,0 -1,-1 -2,-1 -1,-1 -3,-1 -4,-1l-3 0 -4 27c0,0 0,1 0,1 -1,0 -1,0 -2,1 0,0 -1,0 -2,0 -1,0 -2,0 -3,0 -2,0 -3,0 -4,0 -1,0 -1,0 -2,0 0,-1 -1,-1 -1,-1 0,0 0,-1 0,-1l10 -66c0,-1 0,-1 1,-1 0,-1 0,-1 1,-1 1,0 1,-1 2,-1 1,0 2,0 4,0 1,0 2,0 3,0 1,0 2,1 2,1 1,0 1,0 1,1 0,0 0,0 0,1l-4 25 3 0c1,0 2,0 3,0 1,-1 2,-1 3,-2 1,-1 2,-2 3,-4 1,-1 2,-3 3,-5l6 -14c0,-1 1,-1 1,-1 0,-1 1,-1 1,-1 1,0 2,-1 3,-1 1,0 2,0 4,0 1,0 2,0 3,0 1,0 2,1 2,1 1,0 1,0 1,0 0,1 0,1 0,1 0,1 0,1 0,2 0,1 -1,2 -1,3l-7 13c-1,2 -2,4 -3,6 -1,2 -2,3 -3,4 -1,2 -3,3 -4,3 -1,1 -2,2 -3,2l0 0c1,1 2,1 3,2 1,1 2,2 3,3 0,1 1,3 2,4 0,2 1,4 1,6l3 15c0,1 0,1 0,2 0,1 0,1 0,1zm59 1c0,1 0,1 -2,2 -1,0 -2,0 -5,0 -1,0 -2,0 -2,0 -1,0 -2,0 -2,0 -1,0 -1,-1 -1,-1 0,0 0,-1 0,-1l1 -11c0,2 -1,3 -2,5 -2,2 -3,3 -5,5 -1,1 -3,2 -5,3 -2,1 -5,2 -7,2 -3,0 -5,-1 -7,-2 -2,-2 -4,-4 -5,-6 -1,-2 -2,-5 -3,-8 0,-3 0,-6 0,-9 0,-3 0,-7 0,-10 1,-4 1,-8 2,-11 1,-4 2,-7 4,-11 1,-3 3,-6 5,-9 2,-2 5,-4 7,-6 3,-1 6,-2 9,-2 4,0 6,1 9,3 2,1 4,4 6,7l1 -6c0,-1 1,-2 2,-2 1,-1 3,-1 5,-1 1,0 2,0 3,0 0,0 1,1 1,1 1,0 1,0 1,1 0,0 0,1 0,1l-10 66zm-7 -46c-1,-3 -3,-5 -4,-6 -2,-2 -4,-2 -6,-2 -1,0 -3,0 -4,1 -1,1 -3,2 -4,4 -1,2 -2,4 -2,6 -1,2 -2,4 -2,6 -1,3 -1,5 -1,7 -1,3 -1,5 -1,7 0,1 0,3 0,4 1,2 1,3 1,4 1,1 1,2 2,2 1,1 2,1 3,1 2,0 4,-1 5,-2 2,-1 4,-3 5,-5 2,-2 3,-5 4,-8 1,-3 2,-6 3,-9l1 -10z"/>
   <path class="fil1" d="M1247 1469c0,0 0,1 0,1 -1,0 -1,0 -1,0 -1,1 -1,1 -2,1 -1,0 -2,0 -3,0 -1,0 -2,0 -3,0 -1,0 -1,0 -2,-1 0,0 -1,0 -1,0 0,-1 0,-1 0,-1l3 -22c-1,0 -2,0 -3,-1 -1,0 -2,-1 -3,-2 0,-2 -1,-3 -1,-5 0,-1 0,-3 1,-5l0 0c-1,2 -2,4 -4,5 -1,2 -2,4 -4,5 -2,2 -4,3 -6,3 -2,1 -4,2 -6,2 -2,0 -4,-1 -6,-2 -2,-1 -4,-2 -5,-4 -1,-1 -2,-3 -2,-6 -1,-2 -1,-4 -1,-7 0,-2 0,-3 0,-5 1,-2 1,-4 1,-5l6 -41c0,0 1,-1 1,-1 0,-1 1,-1 1,-1 1,0 1,-1 2,-1 1,0 2,0 4,0 1,0 2,0 3,0 1,0 2,1 2,1 1,0 1,0 1,1 1,0 1,1 1,1l-7 39c0,2 0,3 0,4 0,1 0,2 0,3 0,1 0,2 0,3 0,1 1,2 1,3 0,0 1,1 1,1 1,1 2,1 3,1 1,0 3,-1 4,-2 2,-2 4,-3 5,-6 2,-2 3,-5 4,-9 2,-3 3,-7 3,-11l4 -26c0,0 1,-1 1,-1 0,-1 1,-1 1,-1 1,0 1,-1 2,-1 1,0 2,0 4,0 1,0 2,0 3,0 1,0 2,1 2,1 1,0 1,0 1,1 1,0 1,1 1,1l-7 45c-1,2 -1,3 -1,4 0,1 0,2 1,2 0,1 1,1 1,1 1,1 2,1 3,1 1,0 2,0 2,1 1,0 1,1 0,3l-5 33zm46 -112c-1,2 -1,3 -1,5 -1,1 -1,2 -2,3 -1,0 -2,1 -3,1 -1,1 -2,1 -4,1 -2,0 -3,0 -4,-1 -1,0 -2,-1 -2,-1 -1,-1 -1,-2 -1,-3 0,-2 0,-3 0,-5 0,-2 1,-3 1,-4 1,-2 1,-3 2,-3 1,-1 2,-2 3,-2 1,0 2,-1 4,-1 2,0 3,1 4,1 1,0 2,1 2,2 1,0 1,1 1,3 0,1 0,2 0,4zm-15 88c0,0 0,0 -1,1 0,0 0,0 -1,1 0,0 -1,0 -2,0 -1,0 -2,0 -4,0 -1,0 -2,0 -3,0 -1,0 -2,0 -2,0 -1,-1 -1,-1 -1,-1 0,-1 0,-1 0,-1l10 -66c0,0 0,-1 0,-1 1,0 1,-1 2,-1 0,0 1,0 2,-1 1,0 2,0 3,0 2,0 3,0 4,0 1,1 1,1 2,1 0,0 1,1 1,1 0,0 0,1 0,1l-10 66zm65 0c0,0 0,1 0,1 -1,0 -1,1 -2,1 0,0 -1,0 -2,0 0,0 -1,0 -3,0 -1,0 -2,0 -2,0 -1,0 -2,0 -2,0 -1,0 -1,-1 -1,-1 0,0 0,-1 0,-1l2 -11c-1,2 -2,3 -4,5 -1,2 -2,3 -4,5 -2,1 -4,2 -6,3 -2,1 -4,2 -6,2 -3,0 -5,-1 -7,-2 -1,-1 -3,-2 -4,-4 -1,-1 -2,-3 -3,-6 0,-2 0,-4 0,-7 0,-2 0,-3 0,-5 0,-2 0,-4 1,-5l6 -41c0,0 0,-1 0,-1 1,-1 1,-1 2,-1 0,0 1,-1 2,-1 1,0 2,0 4,0 1,0 2,0 3,0 1,0 2,1 2,1 1,0 1,0 1,1 0,0 0,1 0,1l-6 39c0,1 0,3 0,4 0,1 0,2 0,3 0,1 0,2 0,3 0,1 0,2 1,3 0,0 0,1 1,1 1,1 1,1 2,1 2,0 3,-1 5,-2 2,-1 3,-3 5,-6 1,-2 3,-4 4,-8 1,-3 2,-6 3,-10l4 -28c0,0 0,-1 0,-1 1,-1 1,-1 2,-1 0,0 1,-1 2,-1 1,0 2,0 4,0 1,0 2,0 3,0 1,0 2,1 2,1 1,0 1,0 1,1 0,0 0,1 0,1l-10 66zm11 -98c0,1 0,2 -1,3 0,1 0,3 -1,5 0,1 -1,3 -2,5 -1,1 -3,3 -4,4 -2,2 -4,3 -7,4 -2,1 -5,1 -8,1 -4,0 -6,0 -9,-1 -2,-1 -4,-2 -6,-4 -1,-1 -2,-3 -3,-5 -1,-2 -1,-4 -1,-6 0,-1 0,-2 0,-2 0,-1 0,-2 0,-3 0,0 0,-1 1,-1 0,-1 0,-1 0,-2 1,0 1,0 2,-1 1,0 2,0 4,0 1,0 2,0 3,0 1,0 2,1 2,1 0,0 0,0 1,1 0,0 0,1 0,1 0,0 0,1 0,1 0,1 -1,1 -1,2 0,2 1,4 2,5 1,1 3,2 5,2 2,0 3,0 4,-1 1,0 2,-1 3,-1 0,-1 1,-2 2,-3 0,-1 1,-3 1,-4 0,-1 0,-2 0,-2 1,0 1,-1 1,-1 1,0 2,-1 2,-1 1,0 2,0 4,0 1,0 2,0 3,0 1,0 1,1 2,1 0,0 0,0 0,1 1,0 1,0 1,1zm56 98c0,0 -1,0 -1,1 0,0 -1,0 -1,1 -1,0 -2,0 -2,0 -1,0 -3,0 -4,0 -1,0 -2,0 -3,0 -1,0 -2,0 -2,0 -1,-1 -1,-1 -1,-1 -1,-1 -1,-1 0,-1l3 -26 -20 0 -4 26c0,0 0,0 0,1 0,0 -1,0 -1,1 -1,0 -2,0 -3,0 -1,0 -2,0 -3,0 -2,0 -3,0 -4,0 0,0 -1,0 -2,0 0,-1 0,-1 -1,-1 0,-1 0,-1 0,-1l10 -66c0,0 1,-1 1,-1 0,-1 1,-1 1,-1 1,0 2,-1 2,-1 1,0 2,0 4,0 1,0 2,0 3,0 1,0 2,1 2,1 1,0 1,0 1,1 1,0 1,1 1,1l-4 25 20 0 4 -25c0,0 0,-1 0,-1 0,-1 1,-1 1,-1 1,0 2,-1 3,-1 1,0 2,0 3,0 1,0 3,0 4,0 0,0 1,1 2,1 0,0 0,0 1,1 0,0 0,1 0,1l-10 66zm65 0c0,0 -1,1 -1,1 0,0 0,1 -1,1 0,0 -1,0 -2,0 -1,0 -2,0 -3,0 -1,0 -2,0 -3,0 0,0 -1,0 -1,0 -1,0 -1,-1 -1,-1 0,0 0,-1 0,-1l1 -11c0,2 -2,3 -3,5 -1,2 -3,3 -4,5 -2,1 -4,2 -6,3 -2,1 -4,2 -6,2 -3,0 -5,-1 -7,-2 -2,-1 -3,-2 -4,-4 -1,-1 -2,-3 -3,-6 0,-2 -1,-4 -1,-7 0,-2 1,-3 1,-5 0,-2 0,-4 0,-5l7 -41c0,0 0,-1 0,-1 0,-1 1,-1 1,-1 1,0 2,-1 3,-1 1,0 2,0 3,0 2,0 3,0 4,0 1,0 1,1 2,1 0,0 1,0 1,1 0,0 0,1 0,1l-6 39c0,1 -1,3 -1,4 0,1 0,2 0,3 0,1 0,2 1,3 0,1 0,2 0,3 1,0 1,1 2,1 0,1 1,1 2,1 1,0 3,-1 5,-2 1,-1 3,-3 5,-6 1,-2 2,-4 4,-8 1,-3 2,-6 2,-10l5 -28c0,0 0,-1 0,-1 0,-1 1,-1 1,-1 1,0 2,-1 3,-1 1,0 2,0 3,0 2,0 3,0 4,0 1,0 1,1 2,1 0,0 1,0 1,1 0,0 0,1 0,1l-10 66zm65 0c0,0 0,1 -1,1 0,0 0,1 -1,1 0,0 -1,0 -2,0 -1,0 -2,0 -3,0 -1,0 -2,0 -3,0 0,0 -1,0 -1,0 -1,0 -1,-1 -1,-1 0,0 0,-1 0,-1l1 -11c0,2 -1,3 -3,5 -1,2 -3,3 -4,5 -2,1 -4,2 -6,3 -2,1 -4,2 -6,2 -3,0 -5,-1 -7,-2 -2,-1 -3,-2 -4,-4 -1,-1 -2,-3 -3,-6 0,-2 0,-4 0,-7 0,-2 0,-3 0,-5 0,-2 0,-4 0,-5l7 -41c0,0 0,-1 0,-1 1,-1 1,-1 2,-1 0,0 1,-1 2,-1 1,0 2,0 3,0 2,0 3,0 4,0 1,0 1,1 2,1 0,0 1,0 1,1 0,0 0,1 0,1l-6 39c0,1 0,3 -1,4 0,1 0,2 0,3 0,1 0,2 1,3 0,1 0,2 0,3 1,0 1,1 2,1 0,1 1,1 2,1 2,0 3,-1 5,-2 2,-1 3,-3 5,-6 1,-2 3,-4 4,-8 1,-3 2,-6 2,-10l5 -28c0,0 0,-1 0,-1 1,-1 1,-1 2,-1 0,0 1,-1 2,-1 1,0 2,0 3,0 2,0 3,0 4,0 1,0 1,1 2,1 0,0 1,0 1,1 0,0 0,1 0,1l-10 66zm10 -98c0,1 0,2 0,3 0,1 0,3 -1,5 -1,1 -1,3 -2,5 -2,1 -3,3 -5,4 -1,2 -3,3 -6,4 -2,1 -5,1 -8,1 -4,0 -7,0 -9,-1 -2,-1 -4,-2 -6,-4 -1,-1 -2,-3 -3,-5 -1,-2 -1,-4 -1,-6 0,-1 0,-2 0,-2 0,-1 0,-2 0,-3 0,0 0,-1 0,-1 1,-1 1,-1 1,-2 0,0 1,0 2,-1 1,0 2,0 4,0 1,0 2,0 3,0 1,0 1,1 2,1 0,0 0,0 0,1 0,0 1,1 1,1 0,0 0,1 -1,1 0,1 0,1 0,2 0,2 1,4 2,5 1,1 3,2 5,2 1,0 3,0 4,-1 1,0 2,-1 2,-1 1,-1 2,-2 2,-3 1,-1 1,-3 2,-4 0,-1 0,-2 0,-2 0,0 1,-1 1,-1 1,0 1,-1 2,-1 1,0 2,0 4,0 1,0 2,0 3,0 1,0 1,1 1,1 1,0 1,0 1,1 0,0 0,0 0,1zm82 97c0,1 -1,1 -1,2 0,0 0,0 -1,1 -1,0 -1,0 -2,0 -1,0 -2,0 -4,0 -1,0 -3,0 -4,0 -1,0 -1,0 -2,0 0,0 -1,-1 -1,-1 0,0 0,-1 0,-1l-3 -16c0,-2 0,-4 -1,-5 0,-2 -1,-3 -2,-4 0,0 -1,-1 -2,-1 -1,-1 -2,-1 -4,-1l-2 0 -5 27c0,0 0,1 0,1 0,0 -1,0 -1,1 -1,0 -2,0 -3,0 -1,0 -2,0 -3,0 -1,0 -3,0 -3,0 -1,0 -2,0 -3,0 0,-1 0,-1 -1,-1 0,0 0,-1 0,-1l10 -66c0,-1 1,-1 1,-1 0,-1 1,-1 1,-1 1,0 2,-1 3,-1 1,0 2,0 3,0 1,0 2,0 3,0 1,0 2,1 2,1 1,0 1,0 1,1 1,0 1,0 1,1l-4 25 3 0c1,0 2,0 3,0 1,-1 2,-1 2,-2 1,-1 2,-2 3,-4 1,-1 2,-3 3,-5l6 -14c1,-1 1,-1 1,-1 1,-1 1,-1 2,-1 0,0 1,-1 2,-1 1,0 2,0 4,0 1,0 3,0 3,0 1,0 2,1 2,1 1,0 1,0 1,0 1,1 1,1 1,1 0,1 -1,1 -1,2 0,1 0,2 -1,3l-6 13c-2,2 -3,4 -4,6 -1,2 -2,3 -3,4 -1,2 -2,3 -3,3 -1,1 -2,2 -3,2l0 0c1,1 2,1 2,2 1,1 2,2 3,3 1,1 1,3 2,4 0,2 1,4 1,6l3 15c0,1 0,1 0,2 1,1 1,1 1,1zm68 -43c0,4 -1,7 -1,11 -1,4 -2,7 -3,11 -1,3 -2,7 -4,10 -2,3 -4,6 -6,8 -2,2 -5,4 -8,6 -3,1 -7,2 -11,2 -4,0 -7,-1 -10,-2 -2,-1 -5,-3 -7,-5 -2,-2 -3,-5 -4,-8 -1,-4 -1,-7 -1,-11 0,-4 0,-8 1,-11 0,-4 1,-8 2,-11 1,-4 3,-7 4,-10 2,-3 4,-6 6,-8 3,-3 6,-5 9,-6 3,-1 6,-2 10,-2 4,0 7,1 10,2 3,1 5,3 7,5 2,2 3,5 4,8 1,3 2,7 2,11zm-15 1c0,-2 0,-3 -1,-5 0,-2 -1,-3 -1,-4 -1,-1 -2,-2 -3,-3 -1,0 -3,0 -4,0 -2,0 -4,0 -5,1 -2,1 -3,2 -5,4 -1,1 -2,3 -3,5 0,3 -1,5 -2,7 0,2 -1,5 -1,7 0,3 0,5 0,7 0,2 0,4 0,6 0,1 1,3 2,4 0,1 1,2 3,2 1,1 2,1 4,1 2,0 3,0 5,-1 1,-1 3,-3 4,-4 1,-2 2,-4 3,-6 1,-2 2,-4 2,-7 1,-2 1,-4 1,-7 1,-2 1,-4 1,-7zm81 -19c0,2 0,5 0,8 0,3 -1,6 -1,9 -1,4 -1,8 -2,11 -1,4 -2,8 -3,11 -1,4 -3,7 -4,10 -2,4 -4,6 -7,9 -2,2 -5,4 -8,6 -3,1 -6,2 -10,2 -4,0 -7,-1 -10,-2 -2,-1 -4,-3 -6,-5 -2,-2 -3,-5 -4,-8 -1,-3 -1,-7 -1,-11 0,-3 0,-7 1,-10 0,-3 1,-7 2,-10 1,-4 2,-7 3,-11 2,-3 4,-6 6,-8 2,-3 4,-5 7,-6 3,-2 6,-2 9,-2 2,0 3,0 5,0 1,1 3,2 4,2 1,1 2,2 3,4 1,1 2,2 2,4 0,0 0,-1 0,-1 0,-1 0,-1 0,-2 0,-3 0,-6 -1,-9 0,-3 -1,-5 -3,-7 -1,-2 -3,-4 -5,-5 -3,-1 -5,-2 -9,-2 -1,0 -2,0 -2,-1 -1,0 -1,-1 -1,-2 0,0 0,0 0,-1 0,-1 0,-1 0,-2 0,-1 0,-2 1,-3 0,0 0,-1 0,-2 0,-1 0,-1 1,-2 0,-1 0,-1 0,-1 0,-1 1,-1 1,-1 1,0 1,0 2,0 5,0 9,0 13,2 3,1 7,3 9,7 3,3 5,7 6,11 1,5 2,11 2,18zm-18 24c0,-5 -1,-9 -2,-12 -2,-3 -4,-4 -7,-4 -1,0 -3,1 -5,2 -1,1 -2,2 -3,4 -2,1 -2,3 -3,5 -1,3 -2,5 -2,7 0,2 -1,4 -1,6 0,2 0,4 0,6 0,4 0,7 2,9 1,2 3,3 5,3 2,0 4,0 5,-1 2,-1 3,-2 4,-3 1,-2 2,-3 3,-5 1,-2 2,-4 2,-6 1,-2 1,-4 2,-6 0,-2 0,-3 0,-5z"/>
   <path class="fil1" d="M941 1579c0,3 0,7 0,11 0,4 -1,8 -2,12 0,5 -1,9 -2,14 -1,5 -2,9 -3,13 -2,5 -3,9 -5,13 -2,4 -4,7 -6,10 -3,4 -6,6 -10,9 -4,2 -9,3 -15,3 -4,0 -8,-1 -11,-2 -4,-2 -6,-4 -8,-7 -2,-3 -4,-7 -5,-11 -1,-5 -1,-10 -1,-15 0,-3 0,-7 0,-11 1,-4 1,-8 2,-12 0,-5 1,-9 2,-14 1,-4 2,-9 4,-13 1,-5 2,-9 4,-13 2,-4 4,-7 6,-10 2,-2 3,-3 5,-5 2,-1 3,-3 5,-4 3,-1 5,-2 7,-2 3,-1 5,-1 8,-1 5,0 9,1 12,3 3,1 6,4 8,7 2,3 3,6 4,11 1,4 1,9 1,14zm-18 0c0,-5 -1,-10 -2,-12 -2,-3 -4,-4 -8,-4 -2,0 -3,0 -5,1 -1,1 -3,2 -4,4 -1,2 -3,4 -4,7 -1,4 -2,7 -3,11 -1,4 -2,8 -3,12 0,5 -1,9 -2,13 0,3 0,7 -1,10 0,3 0,6 0,8 0,5 1,10 2,12 2,3 4,4 8,4 2,0 4,0 5,-1 2,-1 3,-2 4,-4 2,-2 3,-4 4,-7 1,-4 3,-7 3,-11 1,-4 2,-8 3,-12 1,-4 1,-8 2,-12 0,-4 1,-8 1,-11 0,-3 0,-6 0,-8zm95 0c0,3 0,7 -1,11 0,4 0,8 -1,12 0,5 -1,9 -2,14 -1,5 -2,9 -4,13 -1,5 -2,9 -4,13 -2,4 -4,7 -6,10 -3,4 -6,6 -10,9 -4,2 -9,3 -15,3 -5,0 -8,-1 -12,-2 -3,-2 -6,-4 -8,-7 -2,-3 -3,-7 -4,-11 -1,-5 -1,-10 -1,-15 0,-3 0,-7 0,-11 0,-4 1,-8 1,-12 1,-5 2,-9 3,-14 1,-4 2,-9 3,-13 2,-5 3,-9 5,-13 2,-4 4,-7 6,-10 1,-2 3,-3 4,-5 2,-1 4,-3 6,-4 2,-1 4,-2 7,-2 2,-1 5,-1 8,-1 4,0 8,1 12,3 3,1 5,4 7,7 2,3 4,6 5,11 0,4 1,9 1,14zm-18 0c0,-5 -1,-10 -2,-12 -2,-3 -4,-4 -8,-4 -2,0 -4,0 -5,1 -2,1 -3,2 -4,4 -2,2 -3,4 -4,7 -2,4 -3,7 -4,11 -1,4 -1,8 -2,12 -1,5 -1,9 -2,13 0,3 -1,7 -1,10 0,3 0,6 0,8 0,5 0,10 2,12 2,3 4,4 8,4 2,0 3,0 5,-1 1,-1 3,-2 4,-4 1,-2 3,-4 4,-7 1,-4 2,-7 3,-11 1,-4 2,-8 3,-12 0,-4 1,-8 1,-12 1,-4 1,-8 2,-11 0,-3 0,-6 0,-8zm95 0c0,3 -1,7 -1,11 0,4 -1,8 -1,12 -1,5 -2,9 -3,14 0,5 -2,9 -3,13 -1,5 -3,9 -5,13 -1,4 -3,7 -5,10 -3,4 -7,6 -11,9 -4,2 -9,3 -14,3 -5,0 -9,-1 -12,-2 -3,-2 -6,-4 -8,-7 -2,-3 -3,-7 -4,-11 -1,-5 -2,-10 -2,-15 0,-3 0,-7 1,-11 0,-4 0,-8 1,-12 1,-5 1,-9 2,-14 1,-4 2,-9 4,-13 1,-5 3,-9 5,-13 1,-4 3,-7 5,-10 2,-2 3,-3 5,-5 2,-1 4,-3 6,-4 2,-1 4,-2 6,-2 3,-1 5,-1 8,-1 5,0 9,1 12,3 3,1 6,4 8,7 2,3 3,6 4,11 1,4 2,9 2,14zm-18 0c0,-5 -1,-10 -3,-12 -1,-3 -4,-4 -7,-4 -2,0 -4,0 -6,1 -1,1 -2,2 -4,4 -1,2 -2,4 -4,7 -1,4 -2,7 -3,11 -1,4 -2,8 -2,12 -1,5 -2,9 -2,13 -1,3 -1,7 -1,10 -1,3 -1,6 -1,8 0,5 1,10 3,12 1,3 4,4 7,4 2,0 4,0 5,-1 2,-1 3,-2 5,-4 1,-2 2,-4 4,-7 1,-4 2,-7 3,-11 1,-4 2,-8 2,-12 1,-4 2,-8 2,-12 1,-4 1,-8 1,-11 0,-3 1,-6 1,-8zm94 0c0,3 0,7 0,11 0,4 -1,8 -2,12 0,5 -1,9 -2,14 -1,5 -2,9 -3,13 -2,5 -3,9 -5,13 -2,4 -4,7 -6,10 -3,4 -6,6 -10,9 -4,2 -9,3 -15,3 -4,0 -8,-1 -11,-2 -4,-2 -6,-4 -8,-7 -2,-3 -4,-7 -5,-11 -1,-5 -1,-10 -1,-15 0,-3 0,-7 0,-11 1,-4 1,-8 2,-12 0,-5 1,-9 2,-14 1,-4 2,-9 4,-13 1,-5 2,-9 4,-13 2,-4 4,-7 6,-10 1,-2 3,-3 5,-5 1,-1 3,-3 5,-4 2,-1 5,-2 7,-2 3,-1 5,-1 8,-1 5,0 9,1 12,3 3,1 6,4 8,7 2,3 3,6 4,11 1,4 1,9 1,14zm-18 0c0,-5 -1,-10 -2,-12 -2,-3 -4,-4 -8,-4 -2,0 -3,0 -5,1 -1,1 -3,2 -4,4 -1,2 -3,4 -4,7 -1,4 -2,7 -3,11 -1,4 -2,8 -3,12 0,5 -1,9 -2,13 0,3 0,7 -1,10 0,3 0,6 0,8 0,5 1,10 2,12 2,3 4,4 8,4 2,0 4,0 5,-1 2,-1 3,-2 4,-4 2,-2 3,-4 4,-7 1,-4 2,-7 3,-11 1,-4 2,-8 3,-12 1,-4 1,-8 2,-12 0,-4 1,-8 1,-11 0,-3 0,-6 0,-8zm95 0c0,3 0,7 -1,11 0,4 0,8 -1,12 -1,5 -1,9 -2,14 -1,5 -2,9 -4,13 -1,5 -3,9 -4,13 -2,4 -4,7 -6,10 -3,4 -6,6 -10,9 -4,2 -9,3 -15,3 -5,0 -8,-1 -12,-2 -3,-2 -6,-4 -8,-7 -2,-3 -3,-7 -4,-11 -1,-5 -1,-10 -1,-15 0,-3 0,-7 0,-11 0,-4 1,-8 1,-12 1,-5 2,-9 3,-14 1,-4 2,-9 3,-13 2,-5 3,-9 5,-13 2,-4 4,-7 6,-10 1,-2 3,-3 4,-5 2,-1 4,-3 6,-4 2,-1 4,-2 7,-2 2,-1 5,-1 8,-1 4,0 8,1 12,3 3,1 5,4 7,7 2,3 4,6 5,11 0,4 1,9 1,14zm-18 0c0,-5 -1,-10 -2,-12 -2,-3 -4,-4 -8,-4 -2,0 -4,0 -5,1 -2,1 -3,2 -4,4 -2,2 -3,4 -4,7 -2,4 -3,7 -4,11 -1,4 -1,8 -2,12 -1,5 -1,9 -2,13 0,3 -1,7 -1,10 0,3 0,6 0,8 0,5 0,10 2,12 2,3 4,4 8,4 1,0 3,0 5,-1 1,-1 3,-2 4,-4 1,-2 3,-4 4,-7 1,-4 2,-7 3,-11 1,-4 2,-8 3,-12 0,-4 1,-8 1,-12 1,-4 1,-8 1,-11 1,-3 1,-6 1,-8zm95 0c0,3 -1,7 -1,11 0,4 -1,8 -1,12 -1,5 -2,9 -3,14 -1,5 -2,9 -3,13 -1,5 -3,9 -5,13 -1,4 -3,7 -6,10 -2,4 -6,6 -10,9 -4,2 -9,3 -14,3 -5,0 -9,-1 -12,-2 -3,-2 -6,-4 -8,-7 -2,-3 -3,-7 -4,-11 -1,-5 -2,-10 -2,-15 0,-3 0,-7 1,-11 0,-4 0,-8 1,-12 1,-5 1,-9 2,-14 1,-4 2,-9 4,-13 1,-5 3,-9 4,-13 2,-4 4,-7 6,-10 2,-2 3,-3 5,-5 2,-1 4,-3 6,-4 2,-1 4,-2 6,-2 3,-1 5,-1 8,-1 5,0 9,1 12,3 3,1 6,4 8,7 2,3 3,6 4,11 1,4 2,9 2,14zm-18 0c0,-5 -1,-10 -3,-12 -1,-3 -4,-4 -7,-4 -2,0 -4,0 -6,1 -1,1 -2,2 -4,4 -1,2 -2,4 -4,7 -1,4 -2,7 -3,11 -1,4 -2,8 -2,12 -1,5 -2,9 -2,13 -1,3 -1,7 -1,10 -1,3 -1,6 -1,8 0,5 1,10 3,12 1,3 4,4 7,4 2,0 4,0 5,-1 2,-1 3,-2 5,-4 1,-2 2,-4 4,-7 1,-4 2,-7 3,-11 1,-4 2,-8 2,-12 1,-4 2,-8 2,-12 1,-4 1,-8 1,-11 0,-3 1,-6 1,-8zm94 0c0,3 0,7 0,11 0,4 -1,8 -2,12 0,5 -1,9 -2,14 -1,5 -2,9 -3,13 -2,5 -3,9 -5,13 -2,4 -4,7 -6,10 -3,4 -6,6 -10,9 -4,2 -9,3 -15,3 -4,0 -8,-1 -11,-2 -4,-2 -6,-4 -8,-7 -2,-3 -4,-7 -5,-11 -1,-5 -1,-10 -1,-15 0,-3 0,-7 0,-11 1,-4 1,-8 2,-12 0,-5 1,-9 2,-14 1,-4 2,-9 3,-13 2,-5 3,-9 5,-13 2,-4 4,-7 6,-10 1,-2 3,-3 5,-5 1,-1 3,-3 5,-4 2,-1 5,-2 7,-2 2,-1 5,-1 8,-1 5,0 9,1 12,3 3,1 6,4 8,7 2,3 3,6 4,11 1,4 1,9 1,14zm-18 0c0,-5 -1,-10 -2,-12 -2,-3 -4,-4 -8,-4 -2,0 -3,0 -5,1 -1,1 -3,2 -4,4 -2,2 -3,4 -4,7 -1,4 -2,7 -3,11 -1,4 -2,8 -3,12 -1,5 -1,9 -2,13 0,3 0,7 -1,10 0,3 0,6 0,8 0,5 1,10 2,12 2,3 4,4 8,4 2,0 4,0 5,-1 2,-1 3,-2 4,-4 2,-2 3,-4 4,-7 1,-4 2,-7 3,-11 1,-4 2,-8 3,-12 1,-4 1,-8 2,-12 0,-4 1,-8 1,-11 0,-3 0,-6 0,-8zm95 0c0,3 0,7 -1,11 0,4 0,8 -1,12 -1,5 -1,9 -2,14 -1,5 -2,9 -4,13 -1,5 -3,9 -4,13 -2,4 -4,7 -6,10 -3,4 -7,6 -11,9 -4,2 -8,3 -14,3 -5,0 -9,-1 -12,-2 -3,-2 -6,-4 -8,-7 -2,-3 -3,-7 -4,-11 -1,-5 -1,-10 -1,-15 0,-3 0,-7 0,-11 0,-4 1,-8 1,-12 1,-5 2,-9 3,-14 1,-4 2,-9 3,-13 2,-5 3,-9 5,-13 2,-4 3,-7 6,-10 1,-2 3,-3 4,-5 2,-1 4,-3 6,-4 2,-1 4,-2 7,-2 2,-1 5,-1 7,-1 5,0 9,1 12,3 4,1 6,4 8,7 2,3 4,6 5,11 0,4 1,9 1,14zm-18 0c0,-5 -1,-10 -2,-12 -2,-3 -5,-4 -8,-4 -2,0 -4,0 -5,1 -2,1 -3,2 -4,4 -2,2 -3,4 -4,7 -2,4 -3,7 -4,11 -1,4 -1,8 -2,12 -1,5 -1,9 -2,13 0,3 -1,7 -1,10 0,3 0,6 0,8 0,5 0,10 2,12 1,3 4,4 8,4 1,0 3,0 5,-1 1,-1 3,-2 4,-4 1,-2 3,-4 4,-7 1,-4 2,-7 3,-11 1,-4 2,-8 3,-12 0,-4 1,-8 1,-12 1,-4 1,-8 1,-11 1,-3 1,-6 1,-8z"/>
  </g>
  <path class="fil1 str1" d="M515 1057l10 5 -8 40 8 39 -10 5 -15 -44 15 -45zm29 0l10 5 -8 40 8 39 -10 5 -15 -44 15 -45zm194 104l-173 0 0 -23 4 0c4,0 6,-1 7,-3 1,-2 1,-6 1,-13l0 -91c0,-5 0,-9 -1,-11 -1,-2 -4,-3 -9,-3l-2 0 0 -23 51 0 0 23 -3 0c-4,0 -7,1 -8,3 -1,2 -1,6 -1,13l0 102 35 0 0 -104c0,-5 -1,-9 -2,-11 -1,-2 -3,-3 -8,-3l-2 0 0 -23 51 0 0 23 -3 0c-4,0 -7,1 -8,3 -1,2 -1,6 -1,13l0 102 34 0 0 -102c0,-7 -1,-11 -2,-13 -1,-2 -4,-3 -8,-3l-3 0 0 -23 52 0 0 23 -3 0c-4,0 -7,1 -8,3 -1,2 -2,6 -2,13l0 89c0,7 1,11 2,13 0,2 3,3 7,3l3 0 0 23zm20 -172l11 0 1 5 62 0 1 -5 11 0 13 58 -14 8c-4,-10 -6,-16 -7,-19 -3,-6 -6,-10 -10,-14 -3,-2 -5,-3 -8,-3 -1,0 -2,0 -3,1 0,1 0,3 0,6l0 96c0,6 0,9 0,11 0,1 1,2 1,3 1,1 2,1 3,2 1,0 4,0 9,0l0 23 -54 0 0 -23 4 0c3,0 5,0 6,-1 1,-1 2,-2 3,-4 0,-1 1,-5 1,-10l0 -98c0,-3 -1,-5 -1,-5 -1,-1 -1,-1 -3,-1 -3,0 -6,1 -9,4 -3,3 -6,8 -9,13 -1,3 -3,9 -7,19l-14 -8 13 -58zm146 5l24 0 33 129c2,7 4,11 5,13 1,1 4,2 8,2l0 23 -52 0 0 -23 3 0c3,0 5,-1 6,-2 1,-1 2,-2 2,-4 0,-1 -1,-4 -2,-9l-3 -15 -33 0 -5 17c0,3 -1,6 -1,7 0,1 0,2 1,3 1,1 2,2 3,3 1,0 3,0 8,0l0 23 -43 0 0 -23c3,0 5,0 6,-1 1,-1 2,-2 3,-3 1,-2 2,-4 3,-8l34 -132zm-4 90l22 0 -11 -45 -11 45zm80 -90l50 0 19 101 20 -101 50 0 0 23 -5 0c-3,0 -5,1 -6,3 -1,2 -2,6 -2,11l0 95c0,4 0,6 1,7 0,2 1,3 2,4 1,1 2,1 4,1l6 0 0 23 -52 0 0 -23 4 0c3,0 5,0 6,-1 1,-1 2,-2 2,-3 1,-2 1,-4 1,-8l0 -103 -27 138 -15 0 -26 -134 0 102c0,2 0,4 1,5 0,1 1,2 2,3 1,1 3,1 5,1l5 0 0 23 -45 0 0 -23 5 0c2,0 4,0 5,-1 1,-1 2,-2 3,-4 0,-1 0,-4 0,-9l0 -93c0,-4 0,-7 0,-9 -1,-1 -1,-3 -2,-3 -1,-1 -3,-2 -5,-2l-6 0 0 -23zm272 0l0 23 -4 0c-4,0 -7,1 -8,3 -1,2 -1,6 -1,12l0 91c0,7 0,11 1,13 2,1 4,2 9,2l3 0 0 23 -54 0 0 -23 4 0c4,0 7,-1 8,-3 1,-1 2,-6 2,-12l0 -103 -40 0 0 103c0,7 0,11 1,13 1,1 4,2 8,2l4 0 0 23 -54 0 0 -23 4 0c4,0 7,-1 8,-3 1,-1 1,-5 1,-11l0 -91c0,-7 0,-11 -1,-13 -1,-2 -3,-3 -7,-3l-5 0 0 -23 121 0zm152 0l11 0 11 60 -15 7c-5,-15 -10,-25 -14,-31 -6,-8 -12,-12 -19,-12 -5,0 -10,2 -15,7 -4,4 -8,10 -10,19 -3,8 -4,18 -4,29 0,17 3,32 9,44 6,12 14,18 23,18 6,0 12,-2 18,-8 7,-6 13,-15 18,-26l13 14c-8,16 -16,27 -22,34 -10,10 -22,15 -34,15 -10,0 -20,-4 -28,-11 -8,-8 -15,-18 -20,-32 -5,-14 -8,-28 -8,-44 0,-16 3,-31 8,-44 5,-13 11,-23 20,-30 8,-8 17,-11 27,-11 11,0 20,3 28,10l3 -8zm42 -5l10 0 1 5 62 0 2 -5 10 0 14 58 -15 8c-3,-10 -6,-16 -7,-19 -3,-6 -6,-10 -10,-14 -2,-2 -5,-3 -8,-3 -1,0 -2,0 -2,1 -1,1 -1,3 -1,6l0 96c0,6 0,9 0,11 1,1 1,2 2,3 0,1 1,1 2,2 1,0 4,0 9,0l0 23 -53 0 0 -23 3 0c3,0 6,0 7,-1 1,-1 2,-2 2,-4 1,-1 1,-5 1,-10l0 -98c0,-3 0,-5 -1,-5 0,-1 -1,-1 -2,-1 -3,0 -6,1 -10,4 -3,3 -6,8 -9,13 -1,3 -3,9 -6,19l-15 -8 14 -58zm164 3c17,0 31,8 42,24 11,16 16,37 16,62 0,17 -2,32 -7,45 -5,13 -12,23 -20,30 -9,7 -20,11 -32,11 -16,0 -29,-7 -40,-20 -12,-17 -18,-39 -18,-66 0,-25 5,-46 16,-62 11,-16 25,-24 43,-24zm0 26c-8,0 -15,5 -20,14 -6,12 -9,28 -9,47 0,18 3,33 9,44 5,10 11,14 19,14 9,0 15,-4 20,-14 6,-11 9,-26 9,-45 0,-13 -1,-24 -4,-33 -2,-9 -6,-16 -10,-20 -4,-5 -9,-7 -14,-7zm71 -24l58 0c7,0 13,2 18,4 5,2 9,6 13,10 3,5 6,10 8,17 1,6 2,13 2,20 0,14 -3,26 -10,36 -8,9 -18,14 -30,14l-19 0 0 31c0,4 0,7 0,8 1,1 2,2 3,3 1,1 2,1 5,1l5 0 0 23 -53 0 0 -23 3 0c4,0 6,0 7,-1 1,-1 2,-2 2,-3 1,-2 1,-5 1,-10l0 -92c0,-5 0,-8 -1,-10 0,-1 -1,-3 -2,-3 -1,-1 -3,-2 -5,-2l-5 0 0 -23zm40 28l0 47 9 0c6,0 10,-1 13,-3 3,-1 5,-4 6,-8 2,-4 3,-8 3,-13 0,-8 -2,-14 -6,-18 -3,-4 -7,-5 -13,-5l-12 0zm104 124l-10 -5 9 -39 -9 -40 10 -5 16 45 -16 44zm-29 0l-10 -5 9 -39 -9 -40 10 -5 16 45 -16 44z"/>
  <path class="fil1" d="M882 203l13 -4 48 56 14 -70 13 -3 -19 88c-2,11 -5,19 -7,23 -3,3 -6,6 -12,7 -4,1 -8,1 -13,1l-3 -12c4,2 8,2 12,1 3,-1 6,-3 8,-5 2,-3 3,-9 4,-17l-58 -65zm111 -26l13 -1 6 45c7,-1 11,-2 13,-5 2,-3 5,-9 7,-19 2,-7 4,-12 6,-15 1,-4 4,-6 7,-9 3,-2 7,-3 11,-4 5,-1 8,-1 8,-1l2 12c-1,0 -2,0 -3,0 -2,1 -3,1 -3,1 -4,0 -7,2 -9,4 -2,3 -4,7 -6,15 -2,9 -4,15 -7,18 -2,2 -4,4 -7,6 6,1 14,7 22,16l25 32 -17 2 -20 -26c-6,-7 -11,-12 -14,-14 -4,-3 -8,-4 -13,-3l6 49 -14 2 -13 -105zm97 94l-3 -106 40 -1c7,0 12,0 16,1 5,1 9,2 13,5 3,2 6,5 8,9 2,5 4,9 4,15 0,9 -3,16 -8,23 -6,6 -16,9 -30,10l-27 0 1 43 -14 1zm12 -56l27 -1c9,0 16,-2 19,-5 4,-4 6,-8 6,-14 -1,-5 -2,-9 -4,-12 -2,-3 -5,-5 -9,-6 -2,0 -7,0 -13,0l-27 0 1 38zm64 52l48 -102 15 1 34 108 -15 -1 -10 -33 -44 -3 -13 31 -15 -1zm33 -41l36 3 -9 -30c-2,-9 -4,-17 -6,-22 -2,6 -4,13 -7,19l-14 30zm78 51l13 -105 14 2 -14 105 -13 -2zm1 -113l2 -14 13 2 -2 14 -13 -2zm26 4l2 -15 14 2 -2 15 -14 -2zm11 114l24 -103 13 4 -10 42 53 12 10 -42 13 3 -24 102 -13 -3 11 -48 -52 -12 -12 48 -13 -3zm91 22l71 -87 15 5 6 113 -15 -5 -1 -34 -42 -14 -21 26 -13 -4zm42 -32l34 12 -1 -31c-1,-10 -1,-17 0,-23 -4,6 -8,11 -12,17l-21 25zm222 163l54 -75 -28 -20 8 -10 67 48 -8 10 -27 -20 -55 75 -11 -8zm78 -7c12,-12 25,-19 39,-19 13,-1 25,4 36,14 7,6 11,14 14,23 2,9 2,17 -1,26 -3,9 -8,17 -15,25 -7,7 -16,13 -25,16 -8,3 -17,3 -26,1 -8,-2 -16,-7 -23,-13 -7,-7 -11,-15 -14,-23 -2,-9 -2,-18 1,-27 3,-8 8,-16 14,-23zm10 10c-9,10 -13,19 -13,29 0,10 3,18 11,25 7,8 16,11 26,10 10,0 19,-6 29,-15 6,-6 10,-13 12,-19 2,-7 3,-13 1,-20 -1,-6 -5,-12 -9,-16 -8,-7 -16,-11 -26,-11 -9,0 -20,6 -31,17zm38 109l80 -69 26 30c5,6 8,12 10,17 1,5 1,10 0,15 -2,5 -5,9 -8,12 -4,3 -8,5 -12,5 -5,1 -10,0 -15,-2 3,6 4,12 3,18 -2,5 -4,10 -9,14 -4,3 -8,5 -13,6 -4,2 -8,2 -12,1 -4,-1 -7,-3 -11,-5 -4,-3 -8,-7 -13,-12l-26 -30zm56 -29l14 17c4,4 8,7 10,9 3,2 6,3 9,3 3,-1 6,-2 9,-4 2,-3 4,-5 5,-8 1,-3 1,-6 0,-9 -2,-3 -5,-8 -10,-13l-13 -16 -24 21zm-37 31l17 20c3,3 5,6 6,7 3,2 5,3 8,4 2,1 5,1 8,0 2,0 5,-2 8,-4 3,-3 5,-6 5,-9 1,-3 1,-7 0,-10 -2,-4 -5,-8 -9,-13l-16 -18 -27 23zm34 60l109 -28 9 13 -62 95 -9 -13 19 -28 -25 -36 -32 9 -9 -12zm53 0l20 29 18 -26c5,-8 10,-14 13,-19 -6,3 -13,5 -19,7l-32 9zm9 90l93 -48 18 35c3,6 6,11 7,15 1,5 2,9 1,13 -1,5 -2,9 -5,12 -3,4 -7,7 -12,10 -7,4 -15,5 -24,2 -8,-2 -15,-9 -22,-23l-12 -23 -38 19 -6 -12zm55 -13l12 24c4,8 9,13 13,15 5,1 10,1 16,-2 4,-2 6,-4 8,-8 2,-3 3,-7 2,-10 -1,-3 -2,-7 -5,-12l-12 -24 -34 17zm87 61l4 12 -77 30 98 22 5 12 -98 39 -5 -12 77 -30 -97 -22 -5 -12 98 -39zm-6 198l0 14c-12,1 -21,-2 -29,-8 -8,-5 -13,-13 -16,-24 -3,-11 -4,-20 -1,-28 2,-8 7,-15 15,-21 7,-6 16,-10 25,-13 11,-3 21,-3 30,-2 9,2 16,6 22,12 6,7 11,14 13,23 3,10 3,19 0,27 -4,9 -9,16 -18,21l-7 -12c7,-5 11,-10 13,-15 3,-5 3,-11 1,-18 -2,-8 -6,-14 -11,-18 -5,-4 -11,-6 -18,-6 -7,-1 -14,0 -21,2 -8,2 -15,6 -21,10 -6,4 -10,9 -11,16 -2,6 -2,12 0,18 2,7 6,13 12,17 5,4 13,6 22,5zm-27 62l92 -12 -4 -34 12 -1 10 82 -12 1 -4 -34 -92 12 -2 -14zm9 61l105 -2 1 39c0,8 -1,14 -3,19 -2,5 -5,9 -9,12 -5,2 -9,4 -14,4 -4,0 -9,-1 -13,-3 -4,-3 -7,-6 -10,-11 -1,6 -4,11 -9,15 -4,3 -9,5 -16,5 -5,0 -9,-1 -13,-3 -5,-1 -8,-4 -10,-7 -3,-3 -5,-7 -6,-11 -1,-5 -2,-10 -2,-17l-1 -40zm61 13l1 22c0,6 0,11 1,13 1,4 3,6 6,8 2,2 5,3 9,2 4,0 7,-1 9,-2 3,-2 5,-4 6,-8 0,-3 1,-8 1,-15l-1 -21 -32 1zm-48 1l0 26c0,4 1,7 1,9 1,3 2,6 3,8 1,2 3,4 6,5 3,1 6,2 9,2 4,0 7,-1 10,-3 3,-2 5,-5 6,-9 1,-3 2,-8 2,-15l-1 -24 -36 1zm41 79c18,1 31,7 40,17 9,10 13,22 12,37 0,9 -3,18 -9,25 -5,8 -12,13 -20,16 -9,4 -18,5 -29,4 -10,0 -20,-3 -28,-8 -8,-5 -14,-12 -18,-20 -3,-8 -5,-16 -4,-25 1,-10 4,-19 9,-26 5,-7 12,-13 21,-16 8,-4 17,-5 26,-4zm-1 14c-12,-1 -23,2 -30,8 -8,6 -12,14 -13,24 -1,11 2,20 9,27 7,7 17,11 30,12 9,1 16,0 23,-2 6,-3 12,-7 16,-12 4,-5 6,-11 6,-18 1,-10 -2,-18 -8,-26 -6,-7 -17,-12 -33,-13zm-45 181l0 14c-5,-1 -11,0 -17,3 -6,3 -10,8 -12,15 -2,7 -2,13 1,18 2,5 6,8 11,10 6,1 11,0 15,-3 5,-3 8,-9 10,-16l2 -6 12 3c-2,6 -3,11 -3,14 0,4 1,7 3,10 2,4 5,6 9,7 4,1 8,1 13,-2 4,-2 7,-7 8,-12 2,-5 2,-10 0,-14 -1,-5 -4,-8 -8,-11 -4,-2 -7,-4 -9,-4l7 -12c20,9 28,24 22,44 -3,10 -8,17 -15,21 -7,4 -14,5 -21,3 -10,-2 -16,-9 -19,-19 -2,5 -7,8 -12,10 -5,2 -11,3 -17,1 -9,-3 -15,-8 -19,-16 -4,-9 -5,-18 -1,-29 5,-19 18,-29 40,-29zm-37 177c15,8 25,18 30,31 5,12 4,25 -3,38 -4,9 -10,16 -18,21 -8,4 -16,7 -25,7 -10,-1 -19,-3 -28,-8 -10,-5 -17,-11 -23,-18 -5,-8 -8,-16 -9,-25 0,-9 2,-18 6,-26 5,-9 11,-15 18,-20 8,-5 17,-7 26,-7 9,0 18,2 26,7zm-7 12c-11,-5 -22,-7 -31,-4 -10,3 -17,8 -21,17 -5,10 -6,19 -2,28 3,10 11,17 23,23 8,4 15,6 22,7 7,0 13,-1 19,-5 6,-3 10,-8 13,-14 5,-9 5,-18 3,-27 -3,-9 -12,-18 -26,-25zm-8 130l-39 55 -10 -7 31 -44 -27 -19 -14 20c-5,8 -10,13 -15,17 -4,3 -10,5 -15,5 -6,0 -12,-2 -17,-6 -5,-3 -8,-7 -10,-12 -3,-4 -4,-9 -4,-15 1,-5 4,-12 10,-22l24 -33 86 61zm-84 -43l-16 23c-4,6 -6,11 -6,16 0,5 3,9 8,13 4,2 7,3 11,3 3,0 7,-1 10,-4 3,-2 7,-7 12,-15l11 -15 -30 -21zm-57 59l80 69 -13 16 -73 -30c-7,-3 -12,-5 -15,-7 2,4 5,9 9,16l39 66 -12 14 -80 -68 9 -10 67 57 -47 -80 8 -10 88 36 -68 -59 8 -10zm-81 91l69 79 -57 50 -8 -10 46 -40 -21 -24 -43 37 -8 -9 43 -38 -24 -27 -48 42 -8 -9 59 -51zm-68 188l-25 -39c-6,3 -9,7 -10,11 -1,3 0,10 1,20 2,7 2,12 2,16 0,3 -1,7 -2,10 -2,4 -5,7 -8,9 -4,2 -7,4 -8,4l-6 -10c0,0 1,-1 2,-1 1,-1 2,-1 3,-2 3,-2 5,-5 6,-8 1,-3 0,-8 -1,-15 -2,-8 -2,-14 -2,-18 0,-3 2,-7 4,-11 -6,2 -15,1 -26,-5l-38 -17 15 -10 30 15c8,4 14,6 18,7 5,1 9,0 14,-3l-26 -42 11 -7 27 41c4,-3 7,-6 8,-10 2,-4 2,-10 2,-19l0 -2 -1 -34 15 -9 0 41c1,13 -1,22 -6,27 4,-1 8,-1 11,0 3,1 9,4 16,9 7,5 11,7 14,8 3,0 6,-1 10,-3l4 -3 7 10c-1,0 -3,2 -7,4 -4,3 -8,4 -11,4 -4,1 -8,0 -11,-1 -3,-2 -8,-4 -14,-9 -8,-5 -14,-9 -18,-9 -3,-1 -8,0 -14,4l25 39 -11 8zm-119 -51l49 93 -67 35 -6 -11 55 -29 -15 -28 -51 26 -6 -11 51 -26 -16 -32 -57 29 -6 -11 69 -35zm-87 43l34 99 -13 5 -14 -41 -51 17 14 41 -13 5 -34 -100 13 -4 16 46 51 -17 -16 -47 13 -4zm-84 82c4,17 3,31 -4,43 -7,11 -17,19 -32,22 -9,2 -18,2 -27,-1 -8,-2 -15,-7 -21,-15 -6,-7 -10,-15 -13,-26 -2,-10 -2,-20 0,-29 2,-9 7,-17 13,-23 7,-6 15,-10 24,-12 9,-2 18,-2 27,1 9,3 16,8 21,15 6,8 10,16 12,25zm-14 3c-3,-13 -8,-22 -16,-27 -9,-6 -18,-7 -28,-5 -10,2 -17,8 -22,16 -5,9 -6,20 -3,33 2,8 5,15 10,21 4,6 9,9 15,12 6,2 13,2 19,0 10,-2 17,-7 23,-15 5,-8 6,-20 2,-35zm-105 76l-14 1 -3 -47 -20 2c0,15 -4,27 -12,36 -8,10 -19,15 -31,16 -14,1 -25,-3 -35,-12 -10,-9 -15,-21 -16,-38 -2,-17 2,-31 10,-41 8,-11 19,-16 33,-17 12,-1 23,2 32,10 9,8 15,19 18,33l20 -1 -4 -46 14 -1 8 105zm-51 -49c-1,-13 -5,-23 -12,-30 -6,-7 -15,-10 -24,-9 -10,0 -18,5 -24,12 -5,8 -7,19 -6,33 1,13 5,23 11,30 6,7 15,10 25,9 10,0 18,-5 23,-13 5,-8 8,-19 7,-32zm-184 -55l-18 104 -39 -7c-8,-2 -14,-4 -18,-7 -4,-3 -7,-6 -9,-11 -2,-5 -3,-10 -2,-15 1,-4 3,-8 6,-12 3,-3 7,-6 12,-7 -6,-3 -10,-7 -12,-12 -3,-5 -4,-11 -2,-17 0,-4 2,-9 5,-13 3,-3 6,-6 9,-8 4,-2 8,-3 12,-3 5,0 11,0 17,1l39 7zm-24 58l-22 -4c-6,-1 -11,-2 -13,-1 -4,0 -7,1 -9,3 -2,3 -4,5 -4,9 -1,4 -1,7 1,10 1,3 3,5 6,6 2,2 8,3 15,5l20 3 6 -31zm9 -48l-26 -5c-4,0 -7,-1 -9,-1 -3,0 -6,1 -9,2 -2,1 -4,2 -6,4 -2,3 -3,6 -3,9 -1,4 -1,7 1,10 1,4 4,6 7,8 3,2 8,3 14,4l24 5 7 -36zm-83 -29l-24 102 -13 -3 24 -102 13 3zm-80 87l-60 -20 30 -88 -9 -3 12 -35 12 4 -8 23 65 22 8 -23 12 4 -12 35 -8 -2c-12,9 -24,32 -37,69l-5 14zm-43 -27l35 11 1 -5c3,-8 8,-20 15,-34 6,-14 13,-25 21,-33l-46 -16 -26 77zm-50 -7l-75 -34 44 -96 12 6 -38 84 49 23 39 -85 12 6 -43 96zm-75 -96c-9,14 -21,23 -34,27 -13,3 -26,0 -38,-8 -8,-5 -14,-11 -18,-20 -4,-8 -6,-16 -5,-25 2,-10 5,-19 11,-27 5,-9 12,-16 21,-21 8,-5 16,-7 25,-6 9,0 17,3 25,8 8,6 14,12 18,21 4,8 5,16 4,25 -1,10 -4,18 -9,26zm-12 -8c7,-11 10,-21 8,-31 -2,-10 -7,-17 -15,-23 -9,-5 -18,-7 -28,-4 -10,2 -18,9 -25,20 -5,8 -8,15 -9,21 -1,7 0,14 3,20 2,6 7,11 12,14 9,6 17,7 27,5 10,-1 19,-9 27,-22zm-57 -101l-65 83 -31 -25c-6,-5 -11,-9 -13,-14 -2,-5 -3,-10 -3,-15 1,-5 3,-9 6,-13 2,-4 6,-6 10,-8 5,-1 10,-2 15,-1 -4,-5 -6,-10 -6,-16 1,-6 3,-11 6,-16 3,-4 7,-7 11,-9 5,-2 9,-3 12,-3 4,1 8,2 13,4 4,1 9,4 14,9l31 24zm-49 39l-17 -14c-5,-3 -9,-6 -11,-7 -4,-1 -7,-1 -10,-1 -3,1 -5,3 -8,6 -2,3 -3,6 -4,9 0,3 1,6 3,9 1,2 5,6 11,11l17 12 19 -25zm30 -38l-20 -16c-3,-3 -6,-4 -8,-5 -2,-2 -5,-3 -8,-3 -2,0 -5,0 -7,1 -3,2 -5,3 -8,6 -2,3 -3,6 -4,10 0,4 1,7 3,10 2,3 6,7 11,11l19 15 22 -29zm-57 -66l-73 76 -10 -10 73 -75 10 9zm-114 35l-41 -48 70 -60 -6 -7 28 -24 8 9 -18 16 45 52 18 -16 8 10 -28 24 -5 -6c-15,1 -38,15 -67,40l-12 10zm-23 -45l24 27 4 -3c7,-6 17,-13 30,-22 12,-9 24,-15 35,-18l-32 -37 -61 53zm52 -82l-109 28 -8 -13 61 -95 9 13 -19 28 25 36 33 -9 8 12zm-52 0l-21 -29 -17 26c-6,8 -10,14 -14,19 6,-3 13,-5 20,-7l32 -9zm-105 -47l-33 -57 92 -52 7 12 -81 46 19 32 47 -26c9,-6 16,-9 21,-11 5,-2 10,-2 14,0 4,1 7,4 10,8 1,3 3,7 4,11l-12 4c0,-3 -1,-5 -2,-6 -1,-3 -3,-4 -6,-4 -3,-1 -8,2 -16,6l-64 37zm-49 -92l-5 -13 42 -16 -9 -24c-4,-10 -6,-19 -5,-24 0,-6 2,-11 6,-15 3,-4 7,-7 12,-8 8,-3 15,-3 23,-1 8,3 14,12 20,26l14 37 -98 38zm82 -47l-9 -24c-4,-9 -8,-15 -12,-16 -5,-2 -10,-1 -14,0 -4,2 -7,4 -9,7 -2,4 -3,7 -2,11 0,4 2,10 5,18l7 17 34 -13zm-18 -81l-101 29 -4 -14 42 -11 -15 -52 -42 12 -3 -14 101 -28 3 13 -47 13 14 52 48 -13 4 13zm-27 -103l-103 18 -3 -14 104 -18 2 14zm-52 -107l1 -14c12,1 21,5 28,12 7,7 11,16 13,26 1,11 0,21 -4,28 -4,8 -10,14 -18,19 -8,5 -17,8 -27,9 -11,1 -21,0 -29,-3 -9,-3 -16,-8 -21,-15 -5,-7 -8,-15 -9,-24 -2,-11 0,-20 4,-27 5,-8 12,-14 21,-18l5 13c-7,3 -13,8 -15,13 -3,5 -4,11 -3,17 1,8 3,15 8,20 4,4 10,8 17,9 6,1 13,1 20,1 9,-2 17,-4 23,-7 6,-4 11,-8 13,-14 3,-6 4,-12 3,-18 -1,-8 -4,-14 -9,-19 -5,-4 -12,-7 -21,-8zm35 -57l-92 2 0 35 -12 0 -2 -83 12 0 1 34 93 -2 0 14zm-104 -77l1 -13 47 6 3 -20c-15,-3 -26,-9 -34,-19 -8,-10 -11,-21 -9,-34 2,-13 8,-24 19,-32 10,-7 24,-10 40,-8 17,2 30,8 39,18 8,10 12,22 10,36 -2,13 -7,22 -17,30 -9,7 -21,11 -36,10l-3 20 46 6 -2 14 -104 -14zm58 -40c13,2 24,0 32,-5 8,-5 13,-13 14,-23 1,-10 -1,-18 -8,-25 -6,-7 -17,-11 -30,-13 -13,-1 -24,0 -32,5 -8,5 -13,13 -14,23 -2,10 1,18 8,25 7,7 17,11 30,13zm134 -282l-91 -52 10 -18 77 15c7,2 13,3 16,4 -3,-3 -7,-8 -12,-13l-51 -58 9 -16 92 52 -7 11 -76 -43 61 70 -6 10 -93 -18 78 45 -7 11zm64 -106l-12 -9 8 -11 12 8 -8 12zm-61 -96l9 -11 36 28c4,-5 6,-9 5,-13 0,-3 -3,-9 -8,-18 -4,-7 -6,-12 -7,-15 -1,-3 -1,-7 -1,-11 1,-4 2,-7 5,-11 3,-4 5,-6 5,-6l10 7c0,1 -1,1 -2,2 -1,2 -2,2 -2,3 -2,3 -4,6 -3,9 0,3 2,8 6,15 5,8 8,14 8,17 0,3 0,7 -1,10 6,-4 15,-5 27,-4l41 5 -11 13 -33 -3c-9,-2 -16,-2 -20,-1 -4,1 -8,3 -11,7l39 30 -9 11 -83 -64zm63 -78l9 -9 57 60 -17 -99 10 -9 72 76 -9 9 -57 -60 18 98 -10 9 -73 -75zm150 2l-69 -79 11 -9 69 79 -11 9zm-83 -75l-9 -11 10 -9 9 11 -10 9zm20 -18l-9 -11 10 -9 9 11 -10 9zm92 69l-62 -86 32 -23c7,-4 12,-7 18,-8 5,-1 10,-1 15,1 4,2 8,5 11,9 3,4 4,8 4,12 1,5 0,10 -3,15 6,-3 12,-3 17,-1 6,2 10,5 14,10 3,4 5,8 5,13 1,5 1,9 0,12 -1,4 -3,8 -6,11 -3,4 -8,8 -13,11l-32 24zm-25 -58l19 -13c5,-4 8,-7 10,-9 2,-3 3,-6 3,-9 0,-3 -1,-6 -3,-9 -2,-3 -5,-5 -8,-6 -2,-1 -5,-1 -9,0 -3,1 -7,4 -13,8l-17 12 18 26zm29 40l21 -16c3,-2 6,-4 7,-6 2,-2 4,-4 5,-6 1,-3 1,-5 1,-8 -1,-3 -2,-6 -4,-9 -2,-3 -5,-5 -8,-6 -3,-2 -7,-2 -10,0 -4,1 -8,3 -14,7l-19 14 21 30z"/>
  <path class="fil1" d="M240 833l6 -17c13,4 22,8 28,12 -1,-15 -2,-25 -2,-31l18 0c-1,8 -2,18 -3,31 8,-5 18,-9 29,-12l5 17c-10,4 -20,6 -30,7 5,4 12,12 21,23l-15 11c-5,-7 -10,-15 -17,-27 -6,12 -11,21 -16,27l-14 -11c9,-11 16,-19 20,-23 -10,-2 -20,-4 -30,-7z"/>
  <path class="fil1" d="M1542 327l6 -17c13,5 22,9 28,12 -1,-15 -2,-25 -2,-31l18 0c-1,8 -2,19 -3,31 8,-5 18,-8 29,-12l5 17c-10,4 -20,6 -30,7 5,5 12,12 21,23l-15 11c-5,-7 -10,-15 -17,-27 -6,12 -11,21 -16,27l-14 -11c9,-11 16,-19 20,-23 -10,-2 -20,-4 -30,-7z"/>
  <path class="fil0 str2" d="M1155 54c603,0 1092,489 1092,1091 0,603 -489,1091 -1092,1091 -603,0 -1092,-488 -1092,-1091 0,-602 489,-1091 1092,-1091z"/>
  <path class="fil2 str3" d="M983 2247l-13 -2 -8 -32 -16 27 -13 -2 27 -40c3,-4 6,-7 9,-9 2,-2 5,-3 9,-3 3,1 6,2 8,2l-2 9c-1,0 -3,-1 -4,-1 -3,0 -5,0 -6,1 -1,0 -3,2 -5,5l14 45zm-74 -14l-12 -3 6 -24c-3,0 -5,0 -6,1 -1,1 -3,3 -6,8 -4,5 -7,8 -10,9 -2,1 -6,1 -12,0 0,0 0,0 -1,0l2 -9 1 1c3,0 4,0 6,0 1,0 2,-1 3,-2 1,-1 2,-3 4,-7 2,-2 3,-3 4,-4 1,-1 3,-2 5,-3 -2,-1 -4,-3 -5,-6 -1,-2 -3,-6 -4,-10l-4 -17 14 3 3 16c0,0 0,1 1,1 0,0 0,1 0,3 1,3 2,5 3,6 0,1 2,2 4,2l5 -24 12 2 -13 57zm-51 -73l-16 56 -18 -6c-7,-2 -11,-3 -13,-4 -3,-2 -5,-5 -6,-8 -2,-4 -2,-7 0,-12 1,-3 2,-6 4,-8 2,-2 4,-3 6,-4 3,-1 5,-1 7,-1 3,0 7,1 12,2l7 3 6 -21 11 3zm-24 43l4 -16 -6 -2c-4,-1 -7,-2 -9,-1 -2,0 -3,0 -4,1 -1,1 -2,3 -3,4 0,2 0,4 1,6 0,1 2,3 3,4 2,0 4,1 8,2l6 2zm-85 -81l12 4 0 14 22 9 9 -11 12 5 -43 46 -11 -5 -1 -62zm12 29l0 23 15 -17 -15 -6zm-32 -38l-24 53 -10 -5 23 -53 11 5zm-19 61l-4 8 -9 -4 4 -8 9 4zm-16 -7l-4 8 -8 -4 4 -8 8 4zm0 -70l-27 51 -10 -5 10 -20 -20 -11 -11 21 -10 -6 26 -51 11 5 -12 22 21 11 11 -23 11 6zm-112 -62l11 7 -2 14 20 11 11 -9 11 6 -49 40 -10 -7 8 -62zm8 31l-4 23 17 -15 -13 -8zm-139 -90l1 7c-2,0 -5,1 -8,1 -1,0 -2,0 -2,0 0,0 1,2 3,5 2,1 2,3 3,3l-7 4c-1,-3 -3,-6 -4,-9 -2,3 -4,6 -6,8l-5 -4c1,-2 4,-4 8,-8 -1,0 -2,0 -4,-1 -2,-1 -5,-1 -7,-2l4 -7c2,2 5,3 8,5l0 -7c0,-1 0,-2 0,-3l8 1 -2 10c3,-1 6,-2 10,-3zm-131 -91l-9 -10 14 -30 -30 11 -8 -9 46 -14c5,-2 9,-3 12,-3 4,0 7,2 9,4 2,3 4,5 5,7l-7 6c-1,-2 -2,-3 -3,-4 -2,-2 -3,-3 -5,-3 -1,0 -4,0 -7,1l-17 44zm-51 -60l-6 -10 20 -14c-2,-2 -4,-3 -5,-3 -1,0 -5,0 -10,2 -6,1 -11,2 -14,1 -2,-2 -5,-4 -8,-9 0,0 -1,0 -1,-1l7 -5 1 1c1,2 2,4 3,4 2,1 3,1 4,1 2,0 4,-1 8,-2 2,-1 4,-1 5,-1 2,0 4,0 6,1 -1,-2 -1,-5 0,-8 1,-2 2,-6 4,-10l9 -15 8 11 -8 14c0,0 -1,1 -1,1 0,1 0,2 -1,3 -2,3 -2,5 -2,6 0,1 0,3 1,4l21 -14 7 9 -48 34zm9 -87l-48 31 -11 -16c-3,-6 -6,-10 -6,-12 -1,-3 -1,-6 0,-10 1,-3 4,-6 8,-9 3,-2 5,-3 8,-3 3,0 5,0 8,1 2,1 4,2 5,4 2,2 5,5 7,9l5 7 18 -12 6 10zm-47 16l14 -9 -3 -5c-3,-4 -4,-7 -6,-8 -1,-1 -3,-1 -4,-1 -2,0 -3,0 -5,1 -2,1 -3,3 -3,5 -1,1 -1,3 0,5 1,1 2,4 4,7l3 5zm-12 -115l6 11 -9 11 12 20 13 -2 7 11 -62 9 -6 -11 39 -49zm-10 30l-14 18 22 -4 -8 -14zm0 -50l-52 27 -5 -11 52 -26 5 10zm-53 36l-8 4 -5 -8 9 -5 4 9zm-8 -15l-8 4 -4 -8 8 -5 4 9zm44 -56l-53 24 -5 -11 21 -9 -9 -21 -21 10 -5 -11 53 -24 5 11 -23 10 9 21 23 -11 5 11zm-46 -118l4 12 -11 9 8 22 14 0 4 12 -62 -3 -4 -12 47 -40zm-15 27l-18 15 23 1 -5 -16zm-49 -157l-3 7c-3,-1 -5,-3 -7,-5 -1,0 -2,-1 -2,-1 0,1 0,3 0,6 -1,2 -1,4 -1,4l-7 -1c1,-3 2,-7 3,-10 -4,2 -8,3 -10,3l-2 -7c2,0 6,0 11,0 0,-1 -1,-2 -2,-4 -1,-2 -3,-4 -4,-6l7 -3c1,3 2,6 3,10l5 -6c1,-1 2,-2 2,-2l5 5 -8 7c3,1 7,2 10,3zm-43 -153l0 -14 30 -14 -31 -11 0 -12 45 19c5,2 8,4 11,6 2,2 4,5 4,8 0,4 0,7 -1,9l-8 0c0,-2 0,-3 0,-5 0,-2 -1,-4 -2,-6 -1,-1 -3,-2 -7,-3l-41 23zm0 -79l0 -12 25 2c0,-2 0,-4 -1,-5 -2,-1 -4,-3 -9,-5 -6,-3 -10,-6 -11,-8 -2,-3 -2,-7 -2,-12 0,-1 0,-1 0,-2l9 1 0 1c0,3 0,5 0,6 1,1 2,2 3,3 1,0 3,2 7,3 2,1 4,2 5,3 1,1 2,2 3,5 1,-3 3,-5 5,-7 3,-1 6,-3 10,-4l17 -7 -1 14 -16 5c0,1 0,1 -1,1 0,0 -1,1 -3,1 -3,2 -5,3 -6,4 0,0 -1,2 -1,4l25 2 -1 11 -57 -4zm62 -61l-57 -7 2 -19c1,-7 2,-12 3,-14 1,-3 3,-5 6,-7 4,-2 7,-3 12,-2 3,0 6,1 9,3 2,1 4,3 5,5 1,3 1,5 2,7 0,3 0,7 -1,12l-1 8 22 2 -2 12zm-46 -18l16 2 1 -6c1,-5 1,-8 0,-9 0,-2 -1,-3 -2,-4 -1,-1 -3,-2 -4,-2 -3,0 -4,0 -6,1 -1,1 -2,2 -3,4 0,2 -1,4 -1,9l-1 5zm63 -96l-2 12 -14 3 -4 23 13 7 -3 12 -53 -32 2 -12 61 -13zm-26 17l-22 4 19 12 3 -16zm32 -39l-57 -13 3 -11 56 13 -2 11zm-64 -6l-9 -3 2 -9 9 2 -2 10zm4 -17l-9 -2 2 -10 9 3 -2 9zm69 -14l-56 -16 3 -12 22 7 7 -22 -22 -7 3 -11 56 16 -4 11 -24 -7 -6 22 24 7 -3 12zm41 -121l-5 12 -14 0 -9 21 11 10 -5 11 -46 -42 5 -11 63 -1zm-30 12l-23 -1 17 16 6 -15zm63 -152l-7 3c-1,-3 -2,-6 -3,-9 0,-1 0,-1 0,-2 0,1 -2,2 -4,5 -2,1 -3,2 -3,3l-5 -6c3,-2 6,-4 8,-5 -4,-2 -7,-3 -9,-5l3 -6c2,1 5,3 9,6 0,0 0,-1 0,-3 1,-3 1,-5 1,-7l7 1c0,3 -2,6 -3,10l7 -1c2,-1 3,-1 4,-1l0 7 -10 0c1,3 3,6 5,10zm80 -166l9 -10 31 10 -15 -29 8 -9 21 44c2,4 3,8 4,12 0,3 -1,6 -3,9 -2,2 -4,4 -6,5l-6 -5c1,-2 2,-3 3,-4 1,-2 2,-4 2,-5 0,-2 -1,-4 -2,-7l-46 -11zm50 -57l8 -8 18 17c2,-2 3,-4 2,-5 0,-2 -1,-5 -3,-10 -3,-6 -4,-10 -4,-13 1,-3 3,-6 7,-10 0,0 0,-1 1,-1l6 6 -1 1c-2,2 -3,3 -3,4 0,1 0,3 0,4 1,1 2,4 3,7 1,2 2,4 2,6 1,1 1,3 0,5 3,-1 5,-2 8,-1 3,0 6,1 11,2l17 6 -10 9 -16 -5c0,0 0,0 -1,0 0,0 -1,0 -3,-1 -3,-1 -5,-1 -6,-1 -1,0 -3,1 -4,2l18 18 -8 8 -42 -40zm88 -6l-40 -42 14 -13c5,-5 9,-8 10,-9 3,-2 7,-2 10,-2 4,1 7,3 11,6 2,3 4,5 4,8 1,3 1,5 1,7 -1,3 -1,5 -3,7 -1,2 -4,5 -8,9l-5 5 15 16 -9 8zm-25 -43l12 12 5 -5c3,-3 5,-5 6,-7 0,-1 0,-3 0,-4 0,-2 -1,-3 -2,-4 -1,-2 -3,-3 -5,-3 -2,0 -3,0 -5,1 -1,1 -3,3 -6,6l-5 4zm113 -32l-10 8 -12 -8 -18 15 4 13 -10 8 -18 -60 10 -7 54 31zm-31 -5l-20 -12 7 22 13 -10zm49 -8l-34 -48 10 -6 33 47 -9 7zm-43 -48l-6 -7 8 -6 6 8 -8 5zm14 -9l-6 -8 8 -6 6 8 -8 6zm61 34l-32 -49 10 -6 12 19 20 -12 -13 -19 10 -7 32 49 -10 6 -14 -21 -19 12 13 22 -9 6zm108 -65l-11 6 -10 -9 -21 12 3 13 -11 7 -9 -62 11 -6 48 39zm-30 -10l-17 -14 4 22 13 -8zm148 -74l-7 -3c1,-2 2,-5 4,-7 0,-1 1,-2 1,-2 -1,0 -3,0 -6,0 -2,0 -4,1 -5,1l0 -8c4,0 8,1 11,2 -2,-4 -4,-8 -5,-10l7 -2c1,2 1,5 2,10 1,0 2,-1 3,-2 2,-2 4,-4 5,-5l5 6c-3,1 -6,3 -9,5l6 4c1,0 2,1 3,1l-5 6 -7 -7c-1,4 -2,7 -3,11zm145 -68l13 -2 19 27 6 -32 12 -2 -12 47c-1,5 -2,9 -4,12 -2,3 -5,4 -8,5 -3,1 -6,1 -8,1l-2 -9c2,0 4,0 5,0 2,-1 4,-2 5,-3 1,-1 2,-3 3,-7l-29 -37zm75 -12l11 -2 4 25c2,-1 4,-2 5,-3 0,-1 1,-4 3,-9 1,-7 3,-11 5,-13 3,-2 6,-3 12,-4 0,0 1,0 1,0l2 9 -2 0c-2,0 -4,1 -5,1 -1,1 -2,2 -3,4 0,1 -1,3 -2,7 0,2 -1,4 -1,6 -1,1 -2,3 -4,4 3,0 5,2 7,4 2,2 4,4 7,8l9 15 -13 2 -9 -14c0,0 0,-1 -1,-1 0,0 -1,-1 -2,-3 -1,-2 -3,-4 -4,-5 -1,0 -2,0 -4,0l3 25 -12 1 -7 -57zm72 51l-4 -58 19 -1c7,-1 12,-1 14,-1 3,1 6,3 8,5 3,3 4,7 5,12 0,3 0,6 -2,9 -1,2 -2,4 -4,6 -2,1 -4,2 -6,3 -3,1 -7,1 -12,2l-8 0 2 22 -12 1zm8 -49l2 16 6 0c5,0 8,-1 9,-2 2,0 3,-1 4,-3 0,-1 1,-3 1,-4 -1,-3 -1,-4 -3,-5 -1,-2 -3,-3 -5,-3 -1,0 -4,0 -8,1l-6 0zm108 47l-13 0 -5 -13 -23 -1 -5 13 -12 0 23 -58 13 1 22 58zm-21 -23l-8 -22 -8 21 16 1zm43 24l4 -58 12 1 -4 58 -12 -1zm-3 -63l1 -10 9 1 0 9 -10 0zm17 1l1 -10 9 1 0 10 -10 -1zm25 65l7 -58 12 2 -3 22 23 3 2 -22 12 1 -7 58 -12 -2 3 -25 -22 -3 -4 25 -11 -1zm125 19l-12 -2 -3 -14 -23 -4 -7 12 -12 -2 32 -53 12 2 13 61zm-17 -26l-4 -23 -12 20 16 3zm162 36l-4 -6c3,-2 5,-3 8,-4 1,0 2,-1 2,-1 -1,0 -2,-1 -5,-3 -2,-1 -3,-2 -4,-3l5 -5c3,2 5,5 7,7 1,-4 2,-7 3,-10l6 3c0,2 -2,5 -4,9 0,0 1,0 3,0 3,0 5,0 7,0l0 7c-3,0 -7,-1 -10,-2l2 7c1,1 1,3 1,3l-7 2 -2 -10c-2,2 -5,4 -8,6zm155 40l12 7 -4 33 25 -21 11 7 -39 28c-4,3 -8,5 -11,6 -3,1 -6,1 -10,-1 -3,-2 -5,-3 -6,-5l4 -7c1,1 3,2 4,2 2,2 4,2 6,2 1,0 3,-2 6,-4l2 -47zm65 39l10 6 -13 21c2,1 4,1 5,1 2,0 4,-2 9,-5 5,-4 9,-6 12,-6 3,0 7,1 11,4 1,0 1,0 2,1l-5 7 -1 -1c-2,-1 -4,-2 -5,-2 -1,0 -3,0 -4,1 -1,1 -3,2 -7,5 -1,1 -3,2 -4,3 -2,0 -4,1 -6,1 2,2 3,4 3,7 0,3 0,6 0,11l-2 17 -12 -7 2 -16c0,-1 0,-1 0,-2 0,0 1,-1 1,-3 0,-3 0,-5 0,-6 -1,-1 -2,-2 -4,-4l-13 22 -10 -6 31 -49zm23 85l34 -47 15 11c6,4 10,7 11,8 2,3 3,6 4,10 0,4 -2,7 -4,11 -2,3 -5,5 -7,6 -2,1 -5,2 -7,2 -3,0 -5,0 -7,-1 -2,-1 -6,-4 -10,-7l-6 -4 -13 18 -10 -7zm38 -32l-10 13 5 4c4,2 7,4 8,4 2,1 4,1 5,0 2,0 3,-1 4,-3 1,-2 2,-3 1,-5 0,-2 -1,-4 -2,-5 -1,-1 -3,-3 -7,-5l-4 -3zm52 104l-9 -8 5 -13 -18 -16 -12 7 -10 -8 55 -29 10 8 -21 59zm-1 -31l8 -22 -20 11 12 11zm18 46l40 -42 8 8 -40 42 -8 -8zm38 -51l6 -7 7 7 -6 7 -7 -7zm12 12l7 -7 7 7 -7 6 -7 -6zm-22 66l42 -40 8 9 -17 15 16 17 17 -16 8 9 -42 40 -8 -9 18 -17 -16 -17 -18 18 -8 -9zm84 96l-8 -10 7 -13 -14 -18 -14 4 -7 -9 59 -18 8 9 -31 55zm4 -32l12 -19 -21 7 9 12zm101 131l1 -8c3,1 6,1 8,2 1,1 2,1 2,1 0,-1 0,-3 -1,-6 -1,-2 -1,-3 -2,-4l8 -2c0,4 0,8 0,11 4,-3 7,-5 9,-6l3 6c-1,1 -5,2 -9,4 0,0 1,1 3,2 2,2 4,3 5,5l-5 5c-2,-2 -4,-5 -7,-8l-2 7c0,1 -1,2 -1,3l-7 -3 6 -9c-4,0 -7,0 -11,0zm104 152l4 13 -24 22 32 1 4 12 -48 -5c-5,0 -9,-1 -12,-2 -3,-2 -6,-4 -7,-7 -1,-3 -1,-6 -2,-8l9 -3c0,2 0,3 1,4 1,3 2,5 3,5 1,1 4,2 7,2l33 -34zm24 72l3 11 -24 7c1,2 2,4 4,4 1,1 4,2 9,2 7,1 12,2 14,4 2,2 4,5 5,10 0,1 0,1 1,2l-9 2 0 -1c-1,-2 -1,-4 -2,-5 -1,-1 -2,-1 -4,-2 -1,0 -4,0 -8,-1 -2,0 -4,0 -5,-1 -2,0 -3,-1 -5,-3 0,3 -1,5 -3,8 -1,2 -4,5 -7,8l-13 12 -4 -14 12 -10c1,-1 1,-1 1,-1 0,-1 1,-1 3,-2 2,-3 3,-4 4,-5 0,-2 0,-3 0,-5l-25 7 -3 -11 56 -16zm-39 79l57 -13 4 18c1,7 2,12 2,14 0,3 -1,7 -4,9 -2,3 -5,5 -10,6 -3,1 -6,1 -9,0 -3,0 -5,-2 -7,-3 -1,-2 -3,-4 -4,-5 -1,-3 -2,-7 -3,-12l-2 -8 -21 5 -3 -11zm50 1l-16 3 1 6c1,5 2,8 3,9 1,2 2,3 4,3 1,1 3,1 4,0 2,0 4,-1 5,-3 1,-1 2,-3 1,-5 0,-1 0,-4 -1,-8l-1 -5zm-28 112l-2 -12 12 -7 -4 -23 -14 -3 -2 -12 61 12 2 12 -53 33zm19 -25l20 -12 -23 -4 3 16zm-17 47l58 -4 0 12 -57 4 -1 -12zm62 -12l10 -1 1 10 -10 1 -1 -10zm2 17l9 -1 1 10 -10 1 0 -10zm-60 34l58 -1 0 12 -23 0 1 23 22 -1 1 12 -58 2 0 -12 25 -1 -1 -23 -25 1 0 -12zm0 127l0 -12 14 -5 0 -23 -13 -6 1 -12 57 24 0 12 -59 22zm24 -21l21 -7 -21 -9 0 16zm-9 165l5 -6c2,3 4,5 5,7 1,1 1,2 1,2 1,0 1,-2 3,-5 1,-2 1,-4 2,-4l6 3c-2,3 -4,6 -6,9 4,0 8,0 10,0l-1 7c-2,0 -5,-1 -10,-3 0,1 0,2 1,4 1,3 1,5 1,7l-7 1c0,-3 0,-7 0,-11l-6 4c-1,1 -2,1 -3,2l-3 -7 10 -3c-3,-3 -6,-5 -8,-7zm-22 182l-5 13 -33 1 24 22 -5 11 -33 -34c-4,-4 -7,-7 -8,-10 -2,-3 -2,-6 -1,-9 2,-4 3,-6 4,-8l8 4c-1,1 -1,2 -2,4 -1,2 -1,4 0,6 0,1 2,3 4,5l47 -5zm-29 71l-5 10 -22 -10c-1,3 -1,4 0,6 0,1 2,4 6,7 5,5 7,9 8,12 0,3 -1,7 -3,11 0,1 0,1 -1,2l-8 -4 1 -1c1,-2 2,-4 2,-5 -1,-1 -1,-3 -2,-4 -1,-1 -3,-3 -5,-6 -2,-1 -3,-3 -4,-4 -1,-1 -1,-3 -2,-5 -1,2 -4,3 -6,4 -3,0 -7,1 -11,1l-18 0 6 -12 16 0c0,0 1,0 1,0 1,0 2,0 4,-1 3,0 5,0 6,-1 1,0 2,-1 3,-3l-23 -11 4 -10 53 24zm-81 35l52 26 -9 17c-3,6 -6,10 -7,12 -2,2 -5,4 -9,5 -4,0 -7,0 -12,-2 -3,-2 -5,-4 -7,-6 -1,-3 -2,-5 -3,-7 0,-3 0,-5 1,-7 1,-3 2,-6 5,-11l3 -7 -19 -10 5 -10zm38 32l-15 -7 -3 5c-2,4 -3,7 -4,9 0,2 1,3 1,4 1,2 2,3 4,4 2,1 3,1 5,0 2,0 4,-1 5,-3 1,-1 2,-3 4,-7l3 -5zm-96 67l6 -10 14 2 13 -19 -9 -11 7 -11 37 51 -7 10 -61 -12zm31 -5l22 4 -14 -18 -8 14zm-44 23l47 34 -7 10 -47 -34 7 -10zm56 31l8 5 -6 8 -8 -5 6 -8zm-10 14l8 5 -6 8 -8 -5 6 -8zm-69 -13l46 36 -7 9 -18 -14 -15 18 18 14 -7 9 -45 -36 7 -9 20 16 14 -18 -20 -16 7 -9zm-81 97l8 -9 13 5 16 -18 -7 -12 8 -10 29 55 -8 10 -59 -21zm31 -1l22 8 -11 -20 -11 12zm-115 119l7 0c0,3 0,5 -1,8 0,1 0,2 0,2 1,0 2,-1 5,-2 2,-1 4,-2 4,-2l3 7c-4,1 -7,2 -10,2 3,3 5,6 7,8l-5 4c-2,-1 -4,-4 -6,-9 0,1 -1,2 -2,3 -1,3 -2,5 -3,7l-6 -5c2,-2 4,-5 6,-7l-7 -2c-1,0 -2,0 -3,0l2 -7 10 3c-1,-3 -1,-6 -1,-10zm-115 111l-11 7 -27 -20 5 32 -11 6 -5 -48c0,-5 0,-9 1,-13 0,-3 2,-5 5,-7 3,-2 6,-3 8,-4l4 8c-1,1 -3,1 -4,2 -2,1 -4,3 -4,4 -1,2 -1,4 0,8l39 25zm-68 38l-11 5 -10 -23c-2,2 -4,3 -4,4 -1,2 -1,5 0,10 0,7 -1,12 -2,14 -2,2 -5,5 -10,7 0,0 -1,0 -2,1l-3 -8 1 -1c3,-1 4,-2 5,-3 1,-1 1,-2 1,-3 0,-2 0,-4 0,-8 0,-3 0,-4 0,-6 0,-2 1,-3 2,-5 -2,0 -5,0 -7,-2 -3,-1 -6,-3 -9,-6l-14 -11 13 -6 12 11c0,0 1,0 1,1 0,0 1,0 3,2 2,2 4,3 5,3 1,0 3,0 5,-1l-11 -23 11 -5 24 53zm-84 -26l21 54 -17 7c-7,3 -11,4 -13,4 -4,1 -7,0 -10,-2 -3,-2 -6,-5 -8,-9 -1,-3 -1,-6 -1,-9 0,-3 1,-5 2,-7 2,-2 3,-4 5,-5 2,-2 6,-3 11,-5l7 -3 -8 -20 11 -5zm7 49l-6 -15 -6 2c-4,2 -7,3 -8,5 -2,1 -2,2 -3,4 0,1 0,3 1,4 0,2 2,4 3,5 2,0 4,1 6,0 1,0 4,-1 8,-3l5 -2zm-115 -9l12 -4 9 11 22 -8 0 -14 12 -4 -3 62 -12 4 -40 -47zm27 15l15 17 0 -22 -15 5zm-49 -10l16 56 -11 3 -16 -55 11 -4zm25 59l3 9 -10 3 -2 -9 9 -3zm-17 5l3 9 -9 3 -3 -10 9 -2zm-46 -54l13 57 -11 2 -5 -22 -22 5 5 22 -12 3 -13 -57 12 -2 5 25 23 -6 -6 -24 11 -3zm-125 22l13 -2 7 13 23 -3 3 -14 12 -1 -15 60 -12 2 -31 -55zm25 20l10 20 5 -22 -15 2zm-164 18l6 5c-2,2 -4,4 -6,6 -1,1 -2,1 -2,1 1,0 3,1 6,2 2,0 4,1 4,1l-2 7c-4,-2 -7,-3 -9,-5 0,4 0,8 0,11l-7 -1c0,-1 1,-5 2,-10 -1,0 -2,1 -4,1 -2,1 -4,2 -6,3l-2 -7c3,-1 6,-1 10,-2l-5 -5c-1,-2 -1,-2 -2,-3l6 -4 5 9c2,-3 4,-6 6,-9z"/>
  <g id="_1035618880">
   <polygon class="fil0 str4" points="1344,452 1606,545 1663,636 1844,848 1847,955 1898,1228 1847,1323 1754,1585 1663,1641 1451,1822 1344,1825 1070,1876 976,1825 714,1733 657,1641 476,1430 473,1323 422,1049 473,955 566,692 657,636 869,455 976,452 1250,401 "/>
   <path class="fil0 str4" d="M1213 374c49,26 98,52 146,77 77,18 153,35 229,52 30,47 59,93 88,140 58,53 115,106 173,160 2,55 4,110 6,165 23,74 46,149 70,224 -26,49 -52,97 -77,146 -18,77 -35,153 -53,229 -46,30 -93,59 -139,88 -53,58 -107,115 -160,173 -55,2 -110,4 -165,6 -75,23 -150,46 -224,69 -49,-25 -98,-51 -146,-77 -77,-17 -153,-34 -229,-52 -30,-46 -59,-93 -88,-139 -58,-54 -115,-107 -173,-160 -2,-55 -4,-110 -6,-165 -23,-75 -46,-150 -70,-225 26,-48 52,-97 77,-146 18,-76 35,-152 52,-229 47,-29 94,-58 140,-88 53,-57 107,-115 160,-172 55,-2 110,-4 165,-6 75,-23 150,-47 224,-70"/>
   <path class="fil0 str4" d="M1177 347c66,35 132,69 198,103 65,4 130,8 196,12 39,62 79,125 119,188 55,36 109,72 164,108 3,74 6,148 10,223 29,58 58,116 88,175 -35,66 -69,132 -104,198 -3,65 -7,130 -11,195 -63,40 -125,80 -188,120 -36,55 -72,109 -108,164 -74,3 -148,6 -223,9 -58,30 -117,59 -175,88 -66,-34 -132,-68 -198,-103 -65,-4 -130,-7 -196,-11 -39,-63 -79,-126 -119,-188 -55,-36 -109,-72 -164,-108 -3,-74 -6,-149 -10,-223 -29,-58 -58,-117 -88,-175 35,-66 69,-132 104,-198 3,-65 7,-130 11,-196 63,-40 125,-80 188,-119 36,-55 72,-110 108,-164 74,-3 148,-7 223,-10 58,-29 117,-58 175,-88"/>
   <polygon class="fil0 str4" points="1390,449 1553,420 1704,657 1859,713 1872,993 1979,1119 1849,1369 1879,1531 1642,1683 1586,1838 1305,1851 1179,1957 930,1828 767,1857 616,1621 461,1565 448,1284 341,1158 471,909 441,746 678,595 734,440 1015,427 1141,320 "/>
  </g>
 </g>
</svg>
