<svg width="375" height="375" viewBox="0 0 375 375" fill="none" xmlns="http://www.w3.org/2000/svg">
<g id="segment" class="segment"><path fill-rule="evenodd" clip-rule="evenodd" d="M50.7248 97.8899C61.8486 98.3348 70.3027 101.894 71.6376 106.344H24.4725C25.3624 101.894 33.8165 98.3348 44.4954 97.8899V96.1101L44.0504 95.6651L42.7156 95.2202L41.8257 94.7752L41.3807 93.8853L40.4908 92.9954L40.0459 92.5504V92.1055L39.6009 91.6605V90.7706V89.8807V88.9908V88.5458V87.6559L40.0459 87.211V86.3211L40.9358 85.4312L41.3807 84.9862L41.8257 84.5413L42.7156 84.0963H43.1605L44.0504 83.6514L44.4954 83.2064V75.6422L42.2706 75.1972L40.0459 74.7523H39.156L38.266 74.3073L36.9312 73.8624L35.5963 73.4174L34.2615 72.5275L33.8165 72.0826L32.9266 71.1926L32.4816 70.3027L32.0367 69.4128L31.5917 68.5229L31.1468 67.1881V66.2981V64.9633V63.6284V63.1835L31.5917 62.7385L32.0367 61.8486L32.4816 61.4037L32.9266 60.5137L33.8165 60.0688L34.7064 59.6238L35.5963 59.1789L36.4862 58.7339H37.8211L40.0459 58.289H42.7156H44.4954V64.0734H43.1605H42.2706H40.0459L39.6009 64.5183L38.711 64.9633H38.266L37.8211 65.4082L37.3761 65.8532V66.7431V67.1881L37.8211 67.633V68.078L38.266 68.9679L39.6009 69.4128L40.0459 69.8578H40.9358L42.7156 70.3027L44.4954 70.7477V52.9495H41.3807L36.0413 52.5046H34.7064L32.9266 52.0596L31.1468 51.6147H29.8119L28.4771 50.7248L27.1422 50.2798L25.8073 49.8348L25.3624 49.3899L24.4725 48.9449L24.0275 48.055L23.5826 47.6101L23.1376 46.7202L22.6927 46.2752L22.2477 44.9404V44.4954V43.6055V42.2706V41.3807V40.4908V39.6009L22.6927 38.711V38.266L23.1376 37.3761L24.0275 36.4862L24.4725 35.5963L24.9174 35.1514L25.3624 34.7064C10.2339 31.1468 0 23.5826 0 15.1284H92.5504L92.9954 14.6835V14.2385L93.4403 13.7936V13.3486V12.9037V12.0138V11.5688L92.9954 10.6789L92.5504 10.2339L92.1055 9.78899L91.2156 9.34403L90.7706 8.89908L89.8807 8.45413L88.9908 8.00917H87.6559L85.4312 7.56422L84.5413 7.11926H83.2064L80.5367 6.67431H77.867L75.1972 6.22936L72.5275 6.67431H69.8578H68.5229H67.633H66.2981L65.4082 7.11926H64.5183H63.1835L61.8486 7.56422L57.844 8.89908L56.9541 9.34403H55.6193H53.3945H52.5046H51.6147H50.7248H49.8349L49.3899 8.89908H48.5L48.055 8.45413V8.00917L48.5 7.56422H49.3899L50.7248 7.11926H51.1697H51.6147L51.1697 6.67431H50.7248H50.2798H49.3899L47.1651 6.22936L45.8303 5.7844H45.3853L44.9404 5.33945H44.4954V4.89449V4.44954V4.00459L44.9404 3.55963V3.11468L45.8303 2.66972L48.9449 1.33486L49.8349 0.889908L50.7248 0.444954H52.0596L52.9495 0H54.2844H56.0642L57.3991 0.444954H59.1789H62.2936H64.9633H66.2981L68.9679 0.889908H72.0826H78.3119H81.8715L84.9862 1.33486H86.3211L88.1009 1.77982L89.4358 2.22477H90.7706L92.1055 2.66972L93.4403 3.11468L94.7752 4.00459L95.6651 4.44954L96.555 5.33945L97.4449 5.7844L98.3348 6.67431L99.2247 7.56422L99.6697 8.45413L100.115 9.78899V10.6789L100.56 12.0138V12.9037V14.6835V15.1284H101.005C101.005 27.5871 78.3119 37.8211 50.7248 37.8211V46.2752H51.6147L52.9495 46.7202H54.2844L56.0642 47.1651L57.3991 47.6101H58.7339L59.6238 48.055L60.9587 48.9449L61.8486 49.3899L62.7385 50.2798L63.1835 50.7248L63.6284 51.1697L64.0734 52.0596V52.5046L64.5183 52.9495V53.8394V54.2844V55.6193V56.5092L64.0734 57.3991V58.289L63.6284 58.7339V59.1789L62.7385 60.0688L62.2936 60.5137L61.4037 61.4037L60.5137 61.8486L59.1789 62.2936L58.289 62.7385H56.9541L56.0642 63.1835H54.7293H52.9495L50.7248 63.6284V71.1926L52.9495 71.6376L53.8394 72.0826H54.7293L55.6193 72.5275L56.5092 72.9725L57.3991 73.4174L57.844 73.8624L58.7339 74.3073L59.1789 74.7523L59.6238 75.1972L60.0688 76.0871V76.977L60.5137 77.867V78.7569L60.0688 79.6468V80.5367L59.6238 80.9816V81.8715L58.289 83.2064L57.844 83.6514L56.5092 84.0963L55.6193 84.5413L55.1743 84.9862L53.3945 85.4312L51.6147 85.8761H50.7248V95.2202H51.6147H53.8394L52.5046 95.6651L50.7248 96.1101V97.8899ZM44.4954 93.8853V87.6559V88.1009H44.0504L43.6055 88.5458L43.1605 88.9908V89.4358L42.7156 89.8807V90.7706V91.2156L43.1605 92.1055L43.6055 92.5504V92.9954L44.4954 93.4403V93.8853ZM50.7248 76.0871V81.4266H51.1697L52.5046 80.9816H53.3945L53.8394 80.5367V80.0917H54.2844V79.6468L54.7293 79.2018V78.7569L54.2844 78.3119V77.867L53.8394 77.422L53.3945 76.977H52.9495L52.0596 76.5321H51.6147L50.7248 76.0871ZM44.4954 46.2752V37.8211C44.0504 37.8211 43.1605 37.8211 42.2706 37.3761L40.4908 37.8211H38.711H36.9312L35.1514 38.266H33.8165L32.4816 38.711L31.5917 39.156L31.1468 39.6009L30.7018 40.0459H30.2569L29.8119 40.4908V40.9358L29.367 41.3807V41.8257V42.2706V43.1605L29.8119 43.6055L30.2569 44.0504L30.7018 44.4954L31.5917 44.9404L32.4816 45.3853L33.8165 45.8303H34.7064H36.0413H37.3761L38.711 46.2752H40.0459H43.6055H44.4954ZM50.7248 52.9495V57.844H52.0596H52.9495H53.8394L54.7293 57.3991H55.1743L56.0642 56.9541L56.5092 56.5092H56.9541V55.6193V55.1743V54.7293L56.5092 54.2844L56.0642 53.8394H55.1743L54.2844 53.3945H53.3945H52.0596L50.7248 52.9495Z" transform="translate(134.995 87.3853)" />
<path d="M356.408 178.427H342.17V169.972L341.28 161.518L340.39 153.064L339.055 145.055L336.83 137.491L334.605 129.482L332.381 121.917L329.266 114.353L326.151 107.234L322.592 100.115L318.587 93.4403L314.138 86.766L309.688 80.0917L304.794 73.8624L299.454 68.078L294.115 62.2936L288.33 56.9541L282.546 51.6147L276.316 46.7202L270.087 42.2706L263.413 38.266L256.294 34.2615L249.174 30.7018L242.055 27.1422L234.491 24.4725L226.927 21.8027L219.362 19.578L211.353 17.7982L203.344 16.0183L194.89 15.1284L186.881 14.6835L178.427 14.2385V0H187.326L196.67 0.889908L205.569 1.77982L214.023 3.55963L222.922 5.33945L231.376 8.00917L239.385 10.6789L247.839 13.7936L255.404 17.3532L263.413 21.3578L270.532 25.8073L278.096 30.2569L284.771 35.1514L291.89 40.4908L298.119 46.2752L304.349 52.0596L310.133 58.289L315.917 64.9633L321.257 71.6376L326.151 78.3119L330.601 85.8761L335.05 93.4403L339.055 101.005L342.615 109.014L345.729 117.023L348.399 125.032L351.069 133.486L352.849 142.385L354.628 151.284L355.518 160.183L356.408 169.083V178.427ZM178.427 356.408V342.17H186.881L194.89 341.28L203.344 340.39L211.353 338.61L219.362 336.83L226.927 334.605L234.491 332.381L242.055 329.266L249.174 326.151L256.294 322.592L263.413 318.587L270.087 314.138L276.316 309.688L282.546 304.794L288.33 299.454L294.115 294.115L299.454 288.33L304.794 282.546L309.688 276.316L314.138 270.087L318.587 263.413L322.592 256.294L326.151 249.174L329.266 242.055L332.381 234.491L334.605 226.927L336.83 219.362L339.055 211.353L340.39 203.344L341.28 194.89L342.17 186.881V178.427H356.408V187.326L355.518 196.67L354.628 205.569L352.849 214.023L351.069 222.922L348.399 231.376L345.729 239.385L342.615 247.839L339.055 255.404L335.05 263.413L330.601 270.532L326.151 278.096L321.257 284.771L315.917 291.89L310.133 298.119L304.349 304.349L298.119 310.133L291.89 315.917L284.771 321.257L278.096 326.151L270.532 330.601L263.413 335.05L255.404 339.055L247.839 342.615L239.385 345.729L231.376 348.399L222.922 351.069L214.023 352.849L205.569 354.628L196.67 355.518L187.326 356.408H178.427ZM0 178.427H14.2385L14.6835 186.881L15.1284 194.89L16.0183 203.344L17.7982 211.353L19.578 219.362L21.8027 226.927L24.4725 234.491L27.1422 242.055L30.7018 249.174L34.2615 256.294L38.266 263.413L42.2706 270.087L46.7202 276.316L51.6147 282.546L56.9541 288.33L62.2936 294.115L68.078 299.454L73.8624 304.794L80.0917 309.688L86.766 314.138L93.4403 318.587L100.115 322.592L107.234 326.151L114.353 329.266L121.917 332.381L129.482 334.605L137.491 336.83L145.055 338.61L153.064 340.39L161.518 341.28L169.972 342.17H178.427V356.408H169.083L160.183 355.518L151.284 354.628L142.385 352.849L133.486 351.069L125.032 348.399L117.023 345.729L109.014 342.615L101.005 339.055L93.4403 335.05L85.8761 330.601L78.7569 326.151L71.6376 321.257L64.9633 315.917L58.289 310.133L52.0596 304.349L46.2752 298.119L40.4908 291.89L35.1514 284.771L30.2569 278.096L25.8073 270.532L21.3578 263.413L17.3532 255.404L13.7936 247.839L10.6789 239.385L8.00917 231.376L5.33945 222.922L3.55963 214.023L1.77982 205.569L0.889908 196.67L0 187.326V178.427ZM178.427 0V14.2385L169.972 14.6835L161.518 15.1284L153.064 16.0183L145.055 17.7982L137.491 19.578L129.482 21.8027L121.917 24.4725L114.353 27.1422L107.234 30.7018L100.115 34.2615L93.4403 38.266L86.766 42.2706L80.0917 46.7202L73.8624 51.6147L68.078 56.9541L62.2936 62.2936L56.9541 68.078L51.6147 73.8624L46.7202 80.0917L42.2706 86.766L38.266 93.4403L34.2615 100.115L30.7018 107.234L27.1422 114.353L24.4725 121.917L21.8027 129.482L19.578 137.491L17.7982 145.055L16.0183 153.064L15.1284 161.518L14.6835 169.972L14.2385 178.427H0V169.083L0.889908 160.183L1.77982 151.284L3.55963 142.385L5.33945 133.486L8.00917 125.032L10.6789 117.023L13.7936 109.014L17.3532 101.005L21.3578 93.4403L25.8073 85.8761L30.2569 78.3119L35.1514 71.6376L40.4908 64.9633L46.2752 58.289L52.0596 52.0596L58.289 46.2752L64.9633 40.4908L71.6376 35.1514L78.7569 30.2569L85.8761 25.8073L93.4403 21.3578L101.005 17.3532L109.014 13.7936L117.023 10.6789L125.032 8.00917L133.486 5.33945L142.385 3.55963L151.284 1.77982L160.183 0.889908L169.083 0H178.427Z" transform="translate(9.07343 9.07343)" />
<path fill-rule="evenodd" clip-rule="evenodd" d="M187.5 3.90832C86.1051 3.90832 3.90832 86.1051 3.90832 187.5C3.90832 288.895 86.1051 371.092 187.5 371.092C288.895 371.092 371.092 288.895 371.092 187.5C371.092 86.1051 288.895 3.90832 187.5 3.90832ZM0 187.5C0 83.9466 83.9466 0 187.5 0C291.053 0 375 83.9466 375 187.5C375 291.053 291.053 375 187.5 375C83.9466 375 0 291.053 0 187.5Z" />
<path d="M147.725 349.734L145.945 349.289L144.61 344.394L141.94 348.844L140.161 348.399L144.165 342.17C144.61 341.28 145.055 340.835 145.5 340.39C145.945 340.39 146.39 339.945 147.28 340.39C147.725 340.39 148.17 340.39 148.17 340.39V341.725C147.725 341.725 147.725 341.725 147.28 341.725C146.835 341.725 146.835 341.725 146.39 341.725C146.39 342.17 145.945 342.17 145.945 342.615L147.725 349.734ZM136.156 347.509L134.376 347.064L135.266 343.505C134.821 343.06 134.821 343.06 134.376 343.505C134.376 343.505 133.931 343.949 133.486 344.839C133.041 345.729 132.596 346.174 132.151 346.174C131.706 346.174 130.816 346.174 129.927 346.174V344.839H130.372C130.816 344.839 131.261 344.839 131.261 344.839C131.261 344.839 131.706 344.839 131.706 344.394C131.706 344.394 132.151 343.949 132.596 343.505C132.596 343.06 133.041 343.06 133.041 342.615C133.041 342.615 133.486 342.615 133.931 342.17C133.486 342.17 133.041 341.725 133.041 341.28C132.596 341.28 132.596 340.39 132.596 339.945L131.706 337.275L133.931 337.72L134.376 339.945V340.39C134.376 340.39 134.376 340.39 134.821 340.835C134.821 341.28 134.821 341.725 134.821 341.725C135.266 341.725 135.266 342.17 135.711 342.17L136.601 338.165L138.381 338.61L136.156 347.509ZM128.147 335.94L125.477 344.839L122.807 343.949C121.472 343.505 121.027 343.06 120.583 343.06C120.138 342.615 119.693 342.17 119.693 341.725C119.693 341.28 119.693 340.39 119.693 339.945C120.138 339.5 120.138 339.055 120.583 338.61C120.583 338.165 121.027 338.165 121.472 338.165C121.917 337.72 122.362 337.72 122.362 337.72C122.807 338.165 123.697 338.165 124.587 338.61H125.477L126.812 335.495L128.147 335.94ZM124.142 342.615L125.032 340.39L124.142 339.945C123.252 339.5 122.807 339.5 122.807 339.5C122.362 339.5 122.362 339.5 121.917 339.945L121.472 340.39C121.472 340.835 121.472 341.28 121.472 341.28C121.472 341.725 121.917 341.725 121.917 342.17C122.362 342.17 122.807 342.17 123.252 342.615H124.142ZM111.239 330.156L113.018 330.601V332.826L116.578 334.16L117.913 332.826L119.693 333.271L113.018 340.39L111.239 339.945V330.156ZM113.018 334.605V338.165L115.243 335.495L113.018 334.605ZM108.124 328.821L104.564 336.83L102.784 336.385L106.344 327.931L108.124 328.821ZM105.009 338.165L104.564 339.5L103.229 339.055L103.674 337.72L105.009 338.165ZM102.784 337.275L101.894 338.61L100.56 337.72L101.45 336.385L102.784 337.275ZM102.784 326.151L98.3348 334.16L97 333.271L98.3348 330.156L95.2202 328.376L93.4403 331.491L92.1055 331.046L96.1101 322.592L97.8899 323.482L96.1101 327.041L99.2247 328.821L101.005 325.261L102.784 326.151ZM85.4312 316.362L86.766 317.252L86.3211 319.477L89.4358 321.702L91.2156 320.367L92.9954 321.257L84.9862 327.041L83.6514 325.706L85.4312 316.362ZM86.3211 321.257L85.4312 324.816L88.1009 322.592L86.3211 321.257ZM64.5183 307.018L64.9633 308.353C64.5183 308.353 64.0734 308.353 63.6284 308.353C63.1835 308.353 63.1835 308.353 63.1835 308.353C63.1835 308.353 63.6284 308.798 63.6284 309.243C64.0734 309.243 64.0734 309.688 64.0734 309.688L63.1835 310.133C62.7385 309.688 62.7385 309.243 62.2936 308.798C62.2936 309.243 61.8486 309.688 61.4037 310.133L60.5137 309.243C60.9587 309.243 61.4037 308.798 61.8486 308.353C61.8486 308.353 61.8486 308.353 61.4037 307.908C60.9587 307.908 60.5137 307.908 60.5137 307.908L60.9587 306.573C61.4037 307.018 61.8486 307.018 62.2936 307.463V306.128C62.2936 306.128 62.2936 306.128 62.2936 305.683L63.1835 306.128V307.463C63.6284 307.463 64.0734 307.018 64.5183 307.018ZM44.0504 292.78L42.7156 291L44.9404 286.55L40.0459 288.33L38.711 286.995L46.2752 284.771C46.7202 284.326 47.6101 284.326 48.055 284.326C48.5 284.326 48.9449 284.326 49.3899 284.771C49.8348 285.216 49.8348 285.66 50.2798 286.105L48.9449 286.995C48.9449 286.55 48.9449 286.55 48.5 286.105L48.055 285.66C47.6101 285.66 47.1651 285.66 46.7202 286.105L44.0504 292.78ZM36.0413 283.436L35.1514 281.656L38.266 279.431C37.8211 279.431 37.8211 278.986 37.3761 278.986C37.3761 278.986 36.9312 278.986 36.0413 279.431C35.1514 279.431 34.2615 279.876 33.8165 279.431C33.3716 279.431 32.9266 278.986 32.4816 278.096L33.3716 277.206V277.651C33.8165 277.651 33.8165 278.096 34.2615 278.096H34.7064C35.1514 278.096 35.5963 278.096 36.0413 277.651C36.4862 277.651 36.4862 277.651 36.9312 277.651C36.9312 277.651 37.3761 277.651 37.8211 278.096C37.3761 277.651 37.3761 277.206 37.8211 276.761C37.8211 276.316 38.266 275.872 38.266 274.982L39.6009 272.757L40.9358 274.537L39.6009 276.761V277.206C39.156 277.651 39.156 278.096 39.156 278.096C39.156 278.541 39.156 278.541 39.156 278.986L42.7156 276.761L43.6055 278.096L36.0413 283.436ZM37.8211 269.642L29.8119 274.537L28.4771 272.312C28.0321 271.422 27.5871 270.532 27.1422 270.087C27.1422 269.642 27.1422 269.197 27.5871 268.752C27.5871 268.307 28.0321 267.862 28.4771 267.417C28.922 266.972 29.367 266.972 29.8119 266.527C30.2569 266.527 30.7018 266.972 31.1468 266.972C31.5917 266.972 31.5917 267.417 32.0367 267.417C32.4816 267.862 32.4816 268.307 32.9266 269.197L33.8165 270.087L36.4862 268.307L37.8211 269.642ZM30.2569 272.312L32.4816 270.977L32.0367 270.087C31.5917 269.197 31.1468 269.197 31.1468 268.752C30.7018 268.752 30.7018 268.752 30.2569 268.752H29.8119C29.367 269.197 29.367 269.197 28.922 269.642C28.922 269.642 28.922 270.087 29.367 270.532C29.367 270.532 29.367 270.977 29.8119 271.422L30.2569 272.312ZM28.4771 254.069L29.367 255.849L28.0321 257.628L29.8119 260.743L32.0367 260.298L32.9266 262.078L23.1376 263.413L22.2477 262.078L28.4771 254.069ZM26.6972 258.963L24.4725 261.633L28.0321 261.188L26.6972 258.963ZM26.6972 250.954L18.6881 255.404L17.7982 253.624L25.8073 249.619L26.6972 250.954ZM18.6881 256.738L17.3532 257.183L16.4633 255.849L17.7982 255.404L18.6881 256.738ZM17.3532 254.514L16.0183 254.959L15.1284 253.624L16.4633 253.179L17.3532 254.514ZM24.0275 245.615L16.0183 249.174L15.1284 247.839L18.2431 246.06L16.9083 242.945L13.7936 244.28L12.9037 242.5L21.3578 238.94L21.8027 240.72L18.2431 242.5L19.578 245.615L23.5826 243.835L24.0275 245.615ZM16.9083 226.927L17.7982 228.706L16.0183 230.486L16.9083 233.601H19.133L20.0229 235.826L10.2339 235.381L9.78899 233.601L16.9083 226.927ZM14.6835 231.376L12.0138 233.601H15.5734L14.6835 231.376ZM7.11926 206.904L6.67431 207.794C6.22936 207.349 5.7844 207.349 5.33945 206.904C5.33945 206.904 5.33945 206.904 4.89449 206.904C4.89449 206.904 4.89449 207.349 4.89449 207.794C4.89449 208.238 4.89449 208.238 4.89449 208.683L4.00459 208.238C4.00459 207.794 4.00459 207.349 4.44954 206.904C3.55963 206.904 3.11468 206.904 2.66972 207.349V206.014C2.66972 206.014 3.55963 206.014 4.00459 206.014V205.569C3.55963 205.124 3.55963 204.679 3.11468 204.679L4.44954 204.234C4.44954 204.679 4.44954 205.124 4.89449 205.569L5.7844 204.679V204.234L6.67431 205.124L5.33945 206.014C5.7844 206.459 6.67431 206.459 7.11926 206.904ZM0.444954 182.431V180.651L4.89449 178.427L0 176.647V174.867L7.11926 177.537C8.00917 177.982 8.45413 178.427 8.89908 178.427C9.34403 178.872 9.34403 179.316 9.34403 179.761C9.34403 180.651 9.34403 181.096 9.34403 181.096H8.00917V180.651C8.00917 180.206 8.00917 179.761 8.00917 179.761C7.56422 179.316 7.11926 179.316 6.67431 179.316L0.444954 182.431ZM0.444954 170.417V168.638H4.44954C4.44954 168.193 4.00459 168.193 4.00459 167.748C4.00459 167.748 3.55963 167.303 2.66972 167.303C1.77982 166.858 0.889908 166.413 0.889908 165.968C0.889908 165.523 0.444954 165.078 0.444954 164.188L0.889908 163.743H2.22477V164.188C1.77982 164.633 2.22477 164.633 2.22477 165.078C2.22477 165.078 2.22477 165.078 2.66972 165.523C2.66972 165.523 3.11468 165.523 3.55963 165.968C4.00459 165.968 4.00459 166.413 4.44954 166.413C4.44954 166.413 4.89449 166.858 4.89449 167.303C4.89449 166.858 5.33945 166.413 5.7844 165.968C6.22936 165.968 6.67431 165.523 7.11926 165.523L9.78899 164.188V166.413L7.11926 167.303C7.11926 167.748 6.67431 167.748 6.67431 167.748C6.22936 167.748 5.7844 168.193 5.7844 168.193C5.7844 168.193 5.33945 168.638 5.33945 169.083H9.34403V170.862L0.444954 170.417ZM10.2339 160.628L0.889908 159.739L1.33486 156.624C1.33486 155.734 1.77982 154.844 1.77982 154.399C2.22477 153.954 2.22477 153.509 2.66972 153.509C3.55963 153.064 4.00459 153.064 4.89449 153.064C5.33945 153.064 5.7844 153.509 6.22936 153.509C6.22936 153.954 6.67431 153.954 6.67431 154.399C7.11926 154.844 7.11926 155.289 7.11926 155.289C7.11926 155.734 7.11926 156.624 7.11926 157.514L6.67431 158.404L10.2339 158.849V160.628ZM2.66972 157.959L5.33945 158.404V157.514C5.7844 156.624 5.7844 156.179 5.33945 155.734V155.289C4.89449 155.289 4.89449 154.844 4.44954 154.844C4.00459 154.844 4.00459 154.844 3.55963 155.289L3.11468 155.734C3.11468 156.179 3.11468 156.624 3.11468 157.069L2.66972 157.959ZM12.9037 142.83L12.4587 145.055H10.2339L9.78899 149.06L11.5688 149.95L11.1239 151.729L2.66972 146.835L3.11468 145.055L12.9037 142.83ZM8.45413 145.5L4.89449 146.39L8.00917 148.17L8.45413 145.5ZM13.7936 139.716L4.89449 137.491L5.33945 135.711L13.7936 137.936V139.716ZM3.55963 138.381L2.22477 137.936L2.66972 136.601L4.00459 137.046L3.55963 138.381ZM4.44954 135.711H2.66972L3.11468 133.931L4.44954 134.376V135.711ZM15.1284 133.486L6.22936 131.261L6.67431 129.482L10.2339 130.372L11.1239 126.812L7.56422 125.922L8.45413 124.142L16.9083 126.812L16.4633 128.592L12.9037 127.257L11.5688 130.816L15.5734 131.706L15.1284 133.486ZM21.3578 114.798L20.4679 116.578H18.2431L16.9083 120.138L18.6881 121.472L18.2431 123.252L10.6789 116.578L11.5688 114.798H21.3578ZM16.9083 116.578H13.3486L16.0183 118.803L16.9083 116.578ZM26.6972 92.5504L25.3624 92.9954C25.3624 92.5504 25.3624 92.1055 25.3624 91.6605C24.9174 91.6605 24.9174 91.6605 24.9174 91.6605C24.9174 91.6605 24.9174 91.6605 24.4725 92.1055C24.0275 92.5504 24.0275 92.5504 24.0275 92.5504L23.1376 91.6605C23.5826 91.6605 24.0275 91.2156 24.4725 90.7706C24.0275 90.7706 23.5826 90.3257 23.1376 90.3257L23.5826 89.4358C24.0275 89.4358 24.4725 89.8807 24.9174 90.3257V89.8807C24.9174 89.4358 24.9174 88.9908 24.9174 88.5459L26.2523 88.9908C26.2523 89.4358 25.8073 89.8807 25.8073 90.3257H26.6972C27.1422 90.3257 27.1422 90.3257 27.5871 89.8807V91.2156H25.8073C26.2523 91.6605 26.2523 92.1055 26.6972 92.5504ZM39.156 66.7431L40.4908 64.9633L45.3853 66.7431L43.1605 62.2936L44.4954 60.9587L47.6101 67.633C48.055 68.5229 48.055 68.9679 48.055 69.4128C48.5 69.8578 48.055 70.3027 47.6101 70.7477C47.6101 71.1926 47.1651 71.6376 46.7202 71.6376L45.8303 70.7477C45.8303 70.7477 46.2752 70.7477 46.2752 70.3027C46.7202 69.8578 46.7202 69.8578 46.7202 69.4128C46.7202 69.4128 46.7202 68.9679 46.2752 68.5229L39.156 66.7431ZM47.1651 57.844L48.5 56.5092L51.1697 59.1789C51.1697 58.7339 51.6147 58.7339 51.6147 58.289C51.6147 58.289 51.1697 57.844 50.7248 56.9541C50.2798 56.0642 50.2798 55.1743 50.2798 54.7293C50.2798 54.2844 50.7248 53.8394 51.1697 53.3945L51.6147 52.9495L52.5046 53.8394V54.2844C52.0596 54.2844 52.0596 54.7293 52.0596 54.7293C51.6147 55.1743 51.6147 55.1743 52.0596 55.6193C52.0596 55.6193 52.0596 56.0642 52.5046 56.5092C52.5046 56.9541 52.5046 57.3991 52.5046 57.3991C52.9495 57.844 52.9495 57.844 52.5046 58.289C52.9495 58.289 53.3945 57.844 53.8394 58.289C54.2844 58.289 54.7293 58.289 55.6193 58.289L58.289 59.1789L56.9541 60.9587L54.2844 60.0688C53.8394 60.0688 53.8394 60.0688 53.3945 60.0688C52.9495 59.6238 52.9495 59.6238 52.5046 59.6238C52.5046 59.6238 52.0596 59.6238 52.0596 60.0688L54.7293 62.7385L53.3945 64.0734L47.1651 57.844ZM60.9587 56.9541L54.7293 50.2798L56.5092 48.055C57.3991 47.6101 57.844 47.1651 58.289 46.7202C58.7339 46.7202 59.1789 46.2752 60.0688 46.7202C60.5137 46.7202 60.9587 47.1651 61.4037 47.6101C61.8486 48.055 62.2936 48.5 62.2936 48.5C62.2936 48.9449 62.2936 49.3899 62.2936 49.8349C62.2936 50.2798 62.2936 50.7248 61.8486 50.7248C61.8486 51.1697 61.4037 51.6147 60.5137 52.0596L59.6238 52.9495L62.2936 55.6193L60.9587 56.9541ZM56.9541 50.2798L58.7339 52.0596L59.6238 51.1697C60.0688 50.7248 60.5137 50.2798 60.5137 50.2798C60.5137 49.8349 60.5137 49.8349 60.5137 49.3899C60.5137 49.3899 60.5137 48.9449 60.0688 48.9449C60.0688 48.5 59.6238 48.5 59.6238 48.5C59.1789 48.5 58.7339 48.5 58.7339 48.5C58.289 48.9449 58.289 48.9449 57.3991 49.3899L56.9541 50.2798ZM74.7523 44.9404L72.9725 46.2752L71.1926 44.9404L68.078 47.6101L68.9679 49.3899L67.1881 50.7248L64.5183 41.3807L66.2981 40.0459L74.7523 44.9404ZM69.8578 44.4954L66.7431 42.2706L67.633 45.8303L69.8578 44.4954ZM77.422 43.1605L72.0826 35.5963L73.4174 34.7064L78.7569 41.8257L77.422 43.1605ZM70.7477 35.5963L69.8578 34.2615L71.1926 33.3716L72.0826 34.7064L70.7477 35.5963ZM72.9725 34.2615L72.0826 32.9266L72.9725 32.0367L73.8624 33.3716L72.9725 34.2615ZM82.3165 39.6009L77.422 32.0367L78.7569 30.7018L80.9816 33.8165L84.0963 32.0367L81.8715 28.922L83.6514 28.0321L88.5458 35.5963L86.766 36.4862L84.5413 33.3716L81.8715 35.1514L84.0963 38.266L82.3165 39.6009ZM99.2247 29.367L97.8899 30.2569L96.1101 28.922L92.9954 30.7018V32.9266L91.6605 33.8165L89.8807 24.0275L91.6605 23.1376L99.2247 29.367ZM94.7752 27.5872L92.1055 25.3624L92.5504 28.922L94.7752 27.5872ZM117.913 16.0183L116.578 15.5734C117.023 15.1284 117.023 14.6835 117.468 14.2385C117.468 14.2385 117.023 14.2385 116.578 14.2385C116.133 14.2385 116.133 14.2385 115.688 14.2385V12.9037C116.578 13.3486 117.023 13.3486 117.468 13.3486C117.023 12.9037 117.023 12.4587 116.578 12.0138L117.913 11.5688C117.913 11.5688 117.913 12.4587 118.358 12.9037C118.358 12.9037 118.358 12.9037 118.803 12.9037C118.803 12.4587 119.248 12.0138 119.248 12.0138L120.138 12.9037C119.693 13.3486 119.248 13.3486 118.803 13.7936L119.693 14.2385L120.138 14.6835L119.248 15.5734L118.358 14.2385C117.913 15.1284 117.913 15.5734 117.913 16.0183ZM140.605 5.33945L142.83 4.89449L145.5 9.34403L146.39 4.44954L148.17 4.00459L146.39 11.5688C146.39 12.0138 145.945 12.9037 145.945 13.3486C145.5 13.7936 145.055 13.7936 144.61 14.2385C144.165 14.2385 143.72 14.2385 143.275 14.2385V12.9037H143.72C144.165 12.4587 144.61 12.4587 144.61 12.4587C144.61 12.0138 145.055 11.5688 145.055 11.1239L140.605 5.33945ZM152.174 3.55963L153.954 3.11468L154.399 7.11926C154.844 7.11926 155.289 7.11926 155.289 6.67431C155.289 6.67431 155.734 6.22936 155.734 5.33945C156.179 4.00459 156.179 3.55963 156.624 3.11468C157.069 3.11468 157.514 2.66972 158.404 2.66972H158.849V4.00459C158.404 4.00459 157.959 4.00459 157.959 4.44954C157.959 4.44954 157.514 4.44954 157.514 4.89449C157.514 4.89449 157.514 5.33945 157.069 5.7844C157.069 6.22936 157.069 6.67431 157.069 6.67431C157.069 7.11926 156.624 7.11926 156.179 7.56422C156.624 7.56422 157.069 7.56422 157.514 8.00917C157.959 8.45413 157.959 8.89908 158.404 9.34403L160.183 11.5688L157.959 12.0138L156.624 9.78899C156.624 9.78899 156.624 9.78899 156.179 9.78899V9.34403C155.734 8.89908 155.734 8.45413 155.289 8.45413H154.844L155.289 12.4587H153.509L152.174 3.55963ZM163.743 11.5688L162.853 2.66972L165.968 2.22477C166.858 2.22477 167.748 2.22477 168.193 2.22477C168.638 2.22477 169.083 2.66972 169.527 3.11468C169.972 3.55963 169.972 4.00459 169.972 4.89449C169.972 5.33945 169.972 5.7844 169.972 6.22936C169.527 6.67431 169.527 6.67431 169.083 7.11926C169.083 7.11926 168.638 7.56422 168.193 7.56422C167.748 7.56422 167.303 8.00917 166.413 8.00917H165.078L165.523 11.5688H163.743ZM165.078 4.00459V6.22936H165.968C166.858 6.22936 167.303 6.22936 167.748 6.22936C167.748 5.7844 167.748 5.7844 168.193 5.7844C168.193 5.33945 168.193 5.33945 168.193 4.89449C168.193 4.44954 168.193 4.44954 167.748 4.00459L167.303 3.55963C166.858 3.55963 166.413 3.55963 165.968 3.55963L165.078 4.00459ZM181.541 11.1239H179.761L178.872 8.89908H175.312L174.422 11.1239H172.642L176.202 2.22477H178.427L181.541 11.1239ZM178.427 7.56422L177.092 4.00459L175.757 7.56422H178.427ZM185.101 11.5688L185.991 2.22477L187.771 2.66972L186.881 11.5688H185.101ZM184.656 1.33486V0H186.436V1.33486H184.656ZM187.326 1.77982V0L189.105 0.444954V1.77982H187.326ZM191.33 12.0138L192.22 2.66972L194.445 3.11468L194 6.67431L197.56 7.11926L198.005 3.55963H199.784L198.449 12.9037L196.67 12.4587L197.115 8.45413L193.555 8.00917L193.11 12.0138H191.33ZM210.908 14.6835H209.128L208.683 12.4587L205.124 11.5688L203.789 13.7936L202.009 13.3486L206.904 4.89449L209.128 5.33945L210.908 14.6835ZM208.238 10.6789L207.794 7.11926L206.014 10.2339L208.238 10.6789ZM233.601 16.4633L233.156 15.5734C233.601 15.1284 233.601 15.1284 234.046 14.6835C234.491 14.6835 234.491 14.6835 234.491 14.6835C234.491 14.6835 234.046 14.6835 233.601 14.2385C233.601 13.7936 233.156 13.7936 233.156 13.7936L234.046 12.9037C234.491 13.3486 234.936 13.7936 234.936 14.2385C235.381 13.3486 235.381 12.9037 235.381 12.4587L236.716 12.9037C236.271 13.3486 236.271 13.7936 235.826 14.2385C235.826 14.2385 235.826 14.2385 236.271 14.2385C236.716 14.2385 237.16 14.2385 237.605 14.2385L237.16 15.5734C236.716 15.5734 236.271 15.1284 235.826 15.1284L236.271 16.4633C236.271 16.4633 236.271 16.4633 236.271 16.9083H235.381L234.936 15.5734C234.491 15.5734 234.046 16.0183 233.601 16.4633ZM258.073 22.6927L259.853 23.5826L259.408 28.922L262.968 25.8073L264.748 26.6972L258.518 31.1468C258.073 31.5917 257.628 32.0367 256.738 32.0367C256.294 32.4816 255.849 32.0367 255.404 32.0367C254.959 31.5917 254.514 31.5917 254.514 31.1468L254.959 30.2569C255.404 30.2569 255.404 30.2569 255.849 30.2569C255.849 30.7018 256.294 30.7018 256.738 30.7018C256.738 30.7018 257.183 30.2569 257.628 30.2569L258.073 22.6927ZM268.307 28.922L269.642 29.8119L267.417 32.9266C267.862 33.3716 268.307 33.3716 268.307 33.3716C268.752 32.9266 269.197 32.9266 269.642 32.4816C270.532 31.5917 271.422 31.5917 271.867 31.5917C272.312 31.5917 272.757 31.5917 273.647 32.0367C273.647 32.0367 273.647 32.0367 273.647 32.4816L272.757 33.3716C272.312 32.9266 272.312 32.9266 271.867 32.9266H271.422C270.977 33.3716 270.977 33.3716 270.532 33.8165C270.087 33.8165 269.642 34.2615 269.642 34.2615C269.197 34.2615 269.197 34.2615 268.752 34.2615C269.197 34.7064 269.197 35.1514 269.197 35.5963C269.197 36.0413 269.197 36.4862 269.197 37.3761L268.752 40.0459L266.972 38.711L267.417 36.4862C267.417 36.0413 267.417 36.0413 267.417 36.0413C267.417 36.0413 267.417 36.0413 267.417 35.5963C267.417 35.1514 267.417 34.7064 267.417 34.7064C267.417 34.2615 266.972 34.2615 266.972 34.2615L264.748 37.3761L263.413 36.4862L268.307 28.922ZM271.867 42.2706L277.206 34.7064L279.431 36.4862C280.321 36.9312 280.766 37.3761 281.211 37.8211C281.656 38.266 281.656 38.711 281.656 39.156C281.656 40.0459 281.656 40.4908 281.211 40.9358C280.766 41.3807 280.321 41.8257 279.876 41.8257C279.431 42.2706 279.431 42.2706 278.986 42.2706C278.541 42.2706 278.096 42.2706 277.651 42.2706C277.206 41.8257 276.761 41.3807 276.316 40.9358L275.427 40.4908L273.202 43.1605L271.867 42.2706ZM277.651 36.9312L276.316 39.156L276.761 39.6009C277.651 40.0459 278.096 40.4908 278.096 40.4908C278.541 40.4908 278.541 40.4908 278.986 40.4908L279.431 40.0459C279.876 39.6009 279.876 39.6009 279.876 39.156C279.876 38.711 279.431 38.711 279.431 38.266C278.986 38.266 278.986 37.8211 278.541 37.3761L277.651 36.9312ZM285.66 53.3945L284.326 52.0596L285.216 50.2798L282.546 47.6101L280.321 48.9449L278.986 47.6101L287.44 42.7156L289.22 44.0505L285.66 53.3945ZM285.66 48.5L286.995 44.9404L283.881 46.7202L285.66 48.5ZM288.33 55.6193L294.56 49.3899L295.894 50.2798L289.665 56.9541L288.33 55.6193ZM294.56 47.6101L295.449 46.7202L296.339 47.6101L295.449 48.9449L294.56 47.6101ZM296.339 49.8349L297.229 48.5L298.564 49.3899L297.229 50.7248L296.339 49.8349ZM292.78 60.0688L299.454 53.8394L300.789 55.1743L298.119 57.3991L300.344 60.0688L303.014 57.844L304.349 59.1789L297.674 65.4082L296.339 64.0734L299.454 61.4037L296.784 58.7339L294.115 61.4037L292.78 60.0688ZM306.128 74.7523L304.794 73.4174L305.683 71.1926L303.459 68.5229L301.234 69.4128L299.899 68.078L309.243 64.5183L310.578 66.2982L306.128 74.7523ZM306.573 69.8578L308.353 66.7431L304.794 68.078L306.573 69.8578ZM322.592 90.3257V89.4358C323.037 89.4358 323.482 89.4358 323.927 89.8807H324.371C324.371 89.8807 323.927 89.4358 323.927 88.9908C323.927 88.5459 323.927 88.1009 323.927 88.1009H324.816C324.816 88.5459 324.816 88.9908 324.816 89.4358C325.706 88.9908 326.151 88.9908 326.151 88.5459L327.041 89.4358C326.596 89.8807 326.151 89.8807 325.261 90.3257C325.261 90.3257 325.706 90.3257 325.706 90.7706C326.151 90.7706 326.596 91.2156 326.596 91.2156L325.706 92.1055C325.706 91.6605 325.261 91.2156 324.816 90.7706L324.371 92.1055V92.5504L323.482 92.1055L323.927 90.7706C323.482 90.7706 323.037 90.7706 322.592 90.3257ZM338.61 114.353L339.5 116.578L335.495 119.693L340.835 120.138L341.28 121.917L333.716 121.027C332.826 121.027 332.381 121.027 331.936 120.583C331.491 120.583 331.046 120.138 330.601 119.693C330.601 119.248 330.601 118.803 330.601 118.358L331.936 117.913C331.936 118.358 331.936 118.358 331.936 118.803C331.936 119.248 332.381 119.248 332.381 119.693C332.826 119.693 333.271 119.693 333.716 119.693L338.61 114.353ZM342.615 125.477L343.06 127.257L339.055 128.592C339.5 129.037 339.5 129.037 339.945 129.037C339.945 129.482 340.39 129.482 341.28 129.482C342.17 129.482 343.06 129.927 343.504 129.927C343.504 130.372 343.949 130.816 344.394 131.706C344.394 131.706 344.394 131.706 344.394 132.151H343.06C342.615 131.706 342.615 131.706 342.615 131.261H342.17C341.725 130.816 341.28 130.816 340.835 130.816C340.39 130.816 340.39 130.816 339.945 130.816C339.5 130.816 339.5 130.372 339.055 130.372C339.055 130.816 339.055 131.261 338.61 131.261C338.61 131.706 338.165 132.151 337.72 132.596L335.495 134.376L335.05 132.596L336.83 130.816C337.275 130.816 337.275 130.372 337.275 130.372C337.72 129.927 338.165 129.927 338.165 129.482V129.037L334.16 129.927L333.716 128.147L342.615 125.477ZM336.385 137.936L345.284 136.156L345.729 138.826C346.174 140.161 346.174 140.605 346.174 141.05C346.174 141.495 346.174 141.94 345.729 142.385C345.284 142.83 344.839 143.275 343.949 143.275C343.504 143.72 343.06 143.72 342.615 143.275C342.17 143.275 341.725 143.275 341.725 142.83C341.28 142.83 341.28 142.385 340.835 141.94C340.835 141.495 340.39 141.05 340.39 140.161L339.945 139.271L336.83 139.716L336.385 137.936ZM343.949 137.936L341.725 138.826V139.716C342.17 140.605 342.17 141.05 342.17 141.05C342.615 141.495 342.615 141.495 343.06 141.495H343.504C343.949 141.495 344.394 141.495 344.394 141.05C344.394 141.05 344.394 140.605 344.394 140.161C344.394 140.161 344.394 139.716 344.394 138.826L343.949 137.936ZM339.945 155.734L339.5 153.954L341.28 152.619L340.835 149.06L338.61 148.615L338.165 146.835L347.954 148.615V150.839L339.945 155.734ZM342.615 151.729L345.729 149.95L342.17 149.505L342.615 151.729ZM339.945 159.294L349.289 158.404V160.628L340.39 161.073L339.945 159.294ZM349.734 157.514L351.514 157.069V158.849H350.179L349.734 157.514ZM350.179 160.183L351.514 159.739V161.518H350.179V160.183ZM340.835 165.523L349.734 165.078V166.858H346.174V170.862L349.734 170.417L350.179 172.197L340.835 172.642V170.862H344.839V167.303H340.835V165.523ZM340.835 185.101V183.321L343.06 182.431V178.872L340.835 177.982V176.202L350.179 179.761V181.986L340.835 185.101ZM344.394 181.986L347.954 180.651L344.394 179.316V181.986ZM343.06 207.794L343.949 206.904C344.394 207.349 344.394 207.794 344.839 208.238C344.839 208.238 345.284 207.794 345.284 207.349L345.729 206.904L346.619 207.349C346.174 207.794 346.174 208.238 345.729 208.683C346.174 208.683 347.064 208.683 347.509 208.683L347.064 210.018C346.619 210.018 346.174 209.573 345.284 209.573C345.729 209.573 345.729 209.573 345.729 210.018C345.729 210.463 345.729 210.908 345.729 210.908L344.839 211.353C344.839 210.908 344.839 210.018 344.839 209.573L343.949 210.018C343.504 210.463 343.504 210.463 343.06 210.463L342.615 209.573L344.394 208.683C343.949 208.683 343.504 208.238 343.06 207.794ZM339.945 236.271L339.055 238.495H333.716L337.72 242.055L336.83 243.835L331.491 238.495C331.046 237.605 330.601 237.161 330.156 236.716C330.156 236.271 330.156 235.826 330.156 235.381C330.601 234.936 330.601 234.491 331.046 234.046L331.936 234.491C331.936 234.936 331.936 234.936 331.936 235.381C331.491 235.826 331.491 236.271 331.491 236.271C331.936 236.716 331.936 236.716 332.381 237.161L339.945 236.271ZM335.495 247.394L334.605 249.174L331.046 247.394C331.046 247.839 331.046 248.284 331.046 248.284C331.046 248.729 331.491 249.174 331.936 249.619C332.826 250.509 333.271 250.954 333.271 251.399C333.271 251.844 333.271 252.289 332.826 253.179C332.826 253.179 332.826 253.179 332.826 253.624L331.491 252.734C331.491 252.289 331.936 251.844 331.491 251.844V251.399C331.491 250.954 331.046 250.954 330.601 250.509C330.156 250.064 330.156 250.064 330.156 249.619C329.711 249.619 329.711 249.174 329.711 248.729C329.711 249.174 329.266 249.174 328.821 249.619C328.376 249.619 327.931 249.619 327.041 249.619H324.371L325.261 247.839H327.931C327.931 247.839 327.931 247.839 328.376 247.839C328.821 247.839 329.266 247.394 329.266 247.394C329.711 247.394 329.711 247.394 329.711 246.949L326.151 245.17L327.041 243.835L335.495 247.394ZM322.592 252.734L330.601 257.183L329.266 259.853C328.821 260.743 328.376 261.188 328.376 261.633C327.931 262.078 327.486 262.078 326.596 262.523C326.151 262.523 325.706 262.523 324.816 262.078C324.371 261.633 323.927 261.633 323.927 261.188C323.482 260.743 323.482 260.298 323.482 259.853C323.482 259.408 323.482 259.408 323.482 258.963C323.482 258.518 323.927 258.073 324.371 257.183L324.816 256.294L321.702 254.514L322.592 252.734ZM328.376 258.073L326.151 256.738L325.706 257.628C325.261 258.518 325.261 258.963 325.261 258.963C325.261 259.408 325.261 259.408 325.261 259.853L325.706 260.298C326.151 260.298 326.596 260.298 326.596 260.298C327.041 260.298 327.041 260.298 327.486 259.853C327.486 259.853 327.931 259.408 327.931 258.963L328.376 258.073ZM313.248 268.307L314.582 266.972L316.807 267.417L318.587 264.303L317.252 262.523L318.142 260.743L323.927 268.752L323.037 270.532L313.248 268.307ZM318.142 267.417L321.702 268.307L319.477 265.638L318.142 267.417ZM311.468 271.422L319.032 276.761L317.697 278.096L310.578 272.757L311.468 271.422ZM320.367 276.316L321.257 277.206L320.812 278.096L319.477 277.206L320.367 276.316ZM318.587 278.541L319.922 278.986L319.032 280.321L317.697 279.431L318.587 278.541ZM307.908 276.316L315.027 282.101L313.693 283.436L311.023 281.211L308.798 283.881L311.468 286.105L310.578 287.885L303.459 282.101L304.349 280.766L307.463 282.991L309.688 280.321L306.573 277.651L307.908 276.316ZM295.005 291.445L296.339 290.11L298.564 291L300.789 288.33L299.899 286.105L301.234 284.771L305.683 293.225L304.349 295.005L295.005 291.445ZM299.899 291.445L303.459 292.78L301.679 289.665L299.899 291.445ZM282.101 310.133H282.991C282.991 310.578 282.991 311.023 282.991 311.468V311.913C282.991 311.468 283.436 311.468 283.881 311.468C284.326 311.023 284.326 311.023 284.326 311.023L284.771 312.358C284.326 312.358 283.881 312.358 283.436 312.358C283.881 312.803 284.326 313.248 284.326 313.693L283.436 314.583C283.436 314.138 282.991 313.693 282.546 312.803C282.546 313.248 282.546 313.248 282.546 313.248C282.101 313.693 282.101 314.138 281.656 314.583L280.766 313.693C281.211 313.248 281.656 312.803 282.101 312.358H280.766H280.321L280.766 311.023L282.101 311.913C282.101 311.023 282.101 310.578 282.101 310.133ZM264.303 327.486L262.523 328.376L258.073 325.706L258.963 330.601L257.183 331.491L256.294 323.927C256.294 323.037 256.294 322.592 256.738 322.147C256.738 321.257 256.738 321.257 257.183 320.812C258.073 320.367 258.073 320.367 258.518 320.367L259.408 321.257C258.963 321.702 258.963 321.702 258.518 321.702C258.073 322.147 258.073 322.147 258.073 322.592C258.073 322.592 258.073 323.037 258.073 323.482L264.303 327.486ZM253.179 333.716L251.844 334.16L250.064 330.601C249.619 331.046 249.619 331.046 249.619 331.491C249.619 331.491 249.619 331.936 249.619 332.826C249.619 334.16 249.619 334.605 249.174 335.05C248.729 335.495 248.284 335.94 247.839 336.385C247.394 336.385 247.394 336.385 247.394 336.385L246.949 335.05C247.394 334.605 247.839 334.605 247.839 334.605C247.839 334.16 247.839 334.16 247.839 334.16C247.839 333.716 247.839 333.271 247.839 332.826C247.839 332.381 247.839 331.936 247.839 331.936C247.839 331.491 248.284 331.491 248.284 331.046C247.839 331.046 247.394 331.046 246.949 330.601C246.949 330.601 246.06 330.156 245.615 329.711L243.39 327.931L245.615 327.041L247.394 328.821C247.394 328.821 247.394 328.821 247.839 328.821V329.266C248.284 329.711 248.729 329.711 248.729 329.711C249.174 329.711 249.174 329.711 249.619 329.711L247.839 326.151L249.619 325.261L253.179 333.716ZM240.275 329.711L243.835 338.165L240.72 339.055C239.83 339.5 239.385 339.5 238.94 339.5C238.495 339.945 237.605 339.5 237.16 339.5C236.716 339.055 236.271 338.61 236.271 337.72C235.826 337.275 235.826 336.83 235.826 336.385C235.826 335.94 236.271 335.495 236.271 335.495C236.716 335.05 236.716 334.605 237.16 334.605C237.605 334.605 238.05 334.16 238.94 333.716L239.83 333.271L238.495 330.156L240.275 329.711ZM241.165 337.275L240.275 334.605L239.385 335.05C238.94 335.495 238.495 335.495 238.05 335.94V336.385C237.605 336.83 237.605 336.83 238.05 337.275C238.05 337.72 238.05 337.72 238.495 337.72C238.94 338.165 238.94 338.165 239.385 338.165C239.385 337.72 239.83 337.72 240.72 337.72L241.165 337.275ZM223.367 335.495L225.147 335.05L226.482 336.83L230.041 335.495V333.271L231.821 332.826L231.376 342.615L229.596 343.06L223.367 335.495ZM227.816 338.165L230.041 340.835V337.275L227.816 338.165ZM219.807 336.385L222.477 345.284L220.697 345.729L218.027 337.275L219.807 336.385ZM223.812 345.729L224.257 347.064L222.922 347.509L222.477 346.174L223.812 345.729ZM221.142 346.619L221.587 347.954L220.252 348.399L219.807 347.064L221.142 346.619ZM214.023 338.165L216.248 347.064L214.468 347.509L213.578 343.949L210.018 344.839L210.908 348.399L209.128 348.844L206.904 339.945L208.683 339.5L209.573 343.06L213.133 342.615L212.243 338.61L214.023 338.165ZM194.445 341.725L196.225 341.28L197.56 343.505L201.119 343.06L201.564 340.835L203.344 340.39L201.119 349.734L199.339 350.179L194.445 341.725ZM198.449 344.839L199.784 347.954L200.674 344.394L198.449 344.839ZM172.642 347.509L173.532 348.399C173.087 348.844 173.087 348.844 172.642 349.289C172.642 349.289 172.197 349.289 172.197 349.734C172.642 349.734 172.642 349.734 173.087 349.734C173.532 349.734 173.977 349.734 173.977 349.734L173.532 351.069C173.087 350.624 172.642 350.624 172.197 350.179C172.197 351.069 172.197 351.514 172.197 351.959H171.307C171.307 351.514 171.307 351.069 171.307 350.179C171.307 350.179 170.862 350.179 170.862 350.624C170.417 350.624 169.972 350.624 169.527 351.069V349.734C169.972 349.734 170.417 349.734 170.862 349.289L170.417 348.844C169.972 348.399 169.972 348.399 169.972 348.399L170.862 347.509L171.752 348.844C172.197 348.399 172.197 347.954 172.642 347.509Z" transform="translate(12.1881 10.4083)" fill="#FEFEFE"/>
<path fill-rule="evenodd" clip-rule="evenodd" d="M122.982 3.90832C57.226 3.90832 3.90832 57.4117 3.90832 123.427C3.90832 189.442 57.226 242.945 122.982 242.945C188.737 242.945 242.055 189.442 242.055 123.427C242.055 57.4117 188.737 3.90832 122.982 3.90832ZM0 123.427C0 55.2667 55.054 0 122.982 0C190.909 0 245.963 55.2667 245.963 123.427C245.963 191.586 190.909 246.853 122.982 246.853C55.054 246.853 0 191.586 0 123.427Z" transform="translate(64.5183 64.9633)" />
<path d="M4.70914 0.0185624H22.2111V27.2349H18.5124V3.23031H8.40781V17.2469C8.40781 20.0935 8.268 22.179 7.98838 23.5033C7.72146 24.8276 7.1495 25.8611 6.2725 26.6037C5.39549 27.3339 4.28335 27.699 2.93606 27.699C2.12261 27.699 1.14392 27.5505 0 27.2534L0.629156 24.0603C1.23925 24.3078 1.76037 24.4316 2.19251 24.4316C3.03139 24.4316 3.66055 24.1283 4.07998 23.5219C4.49942 22.903 4.70914 21.455 4.70914 19.1777V0.0185624Z" transform="translate(129.01 209.055)" />
<path d="M31.6289 27.2349V0.0185624H35.3276V27.2349H31.6289Z" transform="translate(129.01 209.055)" />
<path d="M42.9375 0.0185654H46.6362V11.9373C48.3267 11.9373 49.5151 11.6217 50.2014 10.9905C50.8878 10.3469 51.7648 8.81219 52.8325 6.38636C53.6078 4.60412 54.2433 3.34789 54.739 2.61767C55.2474 1.87507 55.9655 1.25623 56.8934 0.761166C57.8212 0.253722 58.8444 0 59.9629 0C61.3864 0 62.1363 0.0123769 62.2126 0.0371303V3.15605C62.0855 3.15605 61.8377 3.14986 61.4691 3.13749C61.0623 3.12511 60.8145 3.11892 60.7255 3.11892C59.5435 3.11892 58.6665 3.3974 58.0945 3.95435C57.5098 4.5113 56.8425 5.69946 56.0926 7.51883C55.1521 9.82089 54.3577 11.2751 53.7095 11.8816C53.0612 12.4757 52.2859 12.9522 51.3835 13.3111C53.1883 13.7938 54.9678 15.4151 56.7218 18.1751L62.4795 27.2349H57.8848L53.2138 19.846C51.93 17.8038 50.856 16.4053 49.9917 15.6503C49.1274 14.883 48.0089 14.4993 46.6362 14.4993V27.2349H42.9375V0.0185654Z" transform="translate(129.01 209.055)" />
<path d="M64.9428 27.2349L75.6766 0.0185624H79.6613L91.1005 27.2349H86.887L83.6269 18.992H71.9398L68.8703 27.2349H64.9428ZM73.0075 16.0587H82.483L79.566 8.52134C78.6762 6.23165 78.0153 4.3504 77.5832 2.87757C77.2273 4.62269 76.7252 6.35542 76.077 8.07578L73.0075 16.0587Z" transform="translate(129.01 209.055)" />
<path d="M97.2569 27.2349V0.0185624H107.8C109.656 0.0185624 111.073 0.105199 112.052 0.278472C113.424 0.501252 114.575 0.928248 115.502 1.55946C116.43 2.17829 117.174 3.05085 117.733 4.17712C118.305 5.3034 118.591 6.54107 118.591 7.89013C118.591 10.2046 117.835 12.1663 116.322 13.7752C114.81 15.3718 112.077 16.1701 108.124 16.1701H100.956V27.2349H97.2569ZM100.956 12.9584H108.181C110.571 12.9584 112.268 12.5252 113.272 11.6588C114.276 10.7925 114.778 9.57335 114.778 8.00152C114.778 6.86286 114.479 5.89129 113.882 5.08681C113.297 4.26995 112.522 3.73156 111.556 3.47165C110.933 3.31076 109.783 3.23031 108.105 3.23031H100.956V12.9584Z" transform="translate(129.01 209.055)" />
<path d="M0 27.2163V0H10.4859C12.6213 0 14.3308 0.278475 15.6145 0.835425C16.911 1.38 17.9214 2.2278 18.6459 3.37883C19.3831 4.51749 19.7517 5.71183 19.7517 6.96188C19.7517 8.12529 19.4276 9.22062 18.7794 10.2479C18.1311 11.2751 17.1524 12.1044 15.8433 12.7356C17.5338 13.2183 18.8302 14.0413 19.7326 15.2047C20.6478 16.3682 21.1053 17.742 21.1053 19.3262C21.1053 20.601 20.8257 21.7891 20.2665 22.8907C19.7199 23.9798 19.0399 24.8214 18.2265 25.4155C17.413 26.0096 16.3898 26.4613 15.1569 26.7707C13.9368 27.0678 12.437 27.2163 10.6575 27.2163H0ZM3.69868 11.436H9.74239C11.382 11.436 12.5577 11.3308 13.2695 11.1204C14.21 10.8482 14.9155 10.3964 15.3857 9.7652C15.8687 9.13399 16.1102 8.34188 16.1102 7.38887C16.1102 6.48538 15.8878 5.69327 15.4429 5.01255C14.9981 4.31946 14.3626 3.84915 13.5364 3.60161C12.7102 3.3417 11.293 3.21175 9.28482 3.21175H3.69868V11.436ZM3.69868 24.0046H10.6575C11.8523 24.0046 12.6912 23.9612 13.1741 23.8746C14.0257 23.7261 14.7375 23.4786 15.3095 23.132C15.8814 22.7855 16.3517 22.2842 16.7203 21.6282C17.0889 20.9599 17.2732 20.1925 17.2732 19.3262C17.2732 18.3113 17.0063 17.4325 16.4725 16.6899C15.9386 15.935 15.1951 15.409 14.2418 15.1119C13.3013 14.8025 11.9413 14.6478 10.1618 14.6478H3.69868V24.0046Z" transform="translate(138.381 251.344)" />
<path d="M29.397 27.2163V0H39.9401C41.7958 0 43.213 0.0866364 44.1917 0.25991C45.5644 0.48269 46.7147 0.909686 47.6425 1.5409C48.5704 2.15973 49.3139 3.03229 49.8732 4.15856C50.4451 5.28484 50.7311 6.52251 50.7311 7.87156C50.7311 10.186 49.9749 12.1477 48.4623 13.7567C46.9498 15.3533 44.2171 16.1516 40.2642 16.1516H33.0957V27.2163H29.397ZM33.0957 12.9398H40.3214C42.711 12.9398 44.4078 12.5066 45.4119 11.6403C46.416 10.7739 46.918 9.55479 46.918 7.98295C46.918 6.8443 46.6194 5.87273 46.022 5.06825C45.4373 4.25139 44.662 3.713 43.696 3.45309C43.0732 3.2922 41.9229 3.21175 40.2452 3.21175H33.0957V12.9398Z" transform="translate(138.381 251.344)" />
<path d="M50.0887 27.2163L60.8225 0H64.8071L76.2463 27.2163H72.0329L68.7727 18.9734H57.0856L54.0161 27.2163H50.0887ZM58.1533 16.0402H67.6288L64.7118 8.50278C63.8221 6.21309 63.1611 4.33184 62.729 2.85901C62.3731 4.60412 61.871 6.33686 61.2228 8.05722L58.1533 16.0402Z" transform="translate(138.381 251.344)" />
<path d="M99.6034 27.2163H95.9047V16.2444C92.5873 17.4449 89.6831 18.0452 87.1919 18.0452C85.2472 18.0452 83.5313 17.6058 82.0442 16.7271C80.5571 15.836 79.5594 14.7097 79.051 13.3482C78.5553 11.9868 78.3074 10.2046 78.3074 8.00152V0H82.0061V7.66735C82.0061 10.6378 82.559 12.5933 83.6648 13.5339C84.7833 14.4621 86.1242 14.9263 87.6876 14.9263C90.2931 14.9263 93.0322 14.3631 95.9047 13.2369V0H99.6034V27.2163Z" transform="translate(138.381 251.344)" />
<path d="M19.578 126.367L0 121.917L0.444954 119.248L20.0229 123.697L19.578 126.367ZM21.3578 117.468L2.66972 110.794L4.89449 103.674C5.33945 102.339 6.22936 101.45 6.67431 100.56C7.56422 100.115 8.45413 99.2247 9.34403 99.2247C10.2339 98.7798 11.1239 99.2247 12.0138 99.2247C12.9037 99.6697 13.3486 100.115 13.7936 100.56C14.6835 101.45 15.1284 102.339 15.1284 103.229C15.5734 102.339 16.4633 101.45 17.7982 101.45C18.6881 101.005 19.578 101.005 20.9128 101.45C21.8027 101.894 22.2477 102.339 23.1376 102.784C23.5826 103.229 24.0275 104.119 24.4725 104.564C24.4725 105.454 24.4725 106.344 24.4725 107.234C24.4725 108.124 24.4725 109.014 24.0275 110.349L21.3578 117.468ZM11.1239 111.239L12.9037 107.234C12.9037 105.899 13.3486 105.009 13.3486 104.564C13.3486 104.119 13.3486 103.229 12.9037 102.784C12.4587 102.339 12.0138 101.894 11.5688 101.894C10.6789 101.45 10.2339 101.45 9.78899 101.894C8.89908 101.894 8.45413 102.339 8.00917 102.784C8.00917 103.229 7.56422 104.119 7.11926 105.454L5.7844 109.014L11.1239 111.239ZM20.0229 114.353L21.8027 109.459C21.8027 108.569 22.2477 108.124 22.2477 107.679C22.2477 107.234 22.2477 106.789 22.2477 106.344C21.8027 105.899 21.8027 105.454 21.3578 105.009C20.9128 104.564 20.4679 104.119 20.0229 104.119C19.133 103.674 18.6881 103.674 17.7982 103.674C17.3532 104.119 16.9083 104.564 16.4633 105.009C16.0183 105.454 15.5734 106.344 15.1284 107.679L13.3486 112.128L20.0229 114.353ZM27.1422 101.005L12.9037 84.9862L14.2385 82.3165L35.5963 84.5413L34.2615 87.211L28.0321 86.3211L24.0275 93.8853L28.4771 98.7798L27.1422 101.005ZM22.2477 92.1055L25.3624 86.3211L19.578 85.4312C17.7982 85.4312 16.4633 84.9862 15.5734 84.9862C16.4633 85.4312 17.3532 86.766 18.2431 87.6559L22.2477 92.1055ZM37.8211 81.4266L21.3578 69.8578L23.1376 67.633L29.8119 72.5275L35.5963 64.0734L28.922 59.1789L30.7018 56.9541L46.7202 68.5229L45.3853 70.7477L37.3761 65.4082L31.5917 73.8624L39.156 79.2018L37.8211 81.4266ZM43.6055 57.3991C41.3807 54.7293 40.0459 52.5046 40.0459 49.8349C40.0459 47.1651 41.3807 44.9404 43.1605 43.1605C44.4954 41.8257 46.2752 40.9358 47.6101 40.4908C49.3899 40.4908 51.1697 40.4908 52.5046 40.9358C54.2844 41.8257 55.6193 42.7156 57.3991 44.0504C58.7339 45.3853 59.6238 47.1651 60.0688 48.9449C60.5137 50.7248 60.5137 52.0596 60.0688 53.8394C59.6238 55.6193 58.7339 56.9541 57.3991 58.289C56.0642 59.1789 54.2844 60.0688 52.5046 60.5137C51.1697 60.9587 49.3899 60.9587 47.6101 60.0688C46.2752 59.6238 44.9404 58.7339 43.6055 57.3991ZM45.3853 55.6193C47.1651 57.3991 48.9449 58.289 50.7248 58.289C52.5046 58.289 54.2844 57.844 55.6193 56.5092C57.3991 55.1743 57.844 53.3945 57.844 51.6147C57.844 49.8349 56.9541 47.6101 55.1743 45.8303C54.2844 44.9404 52.9495 44.0504 51.6147 43.6055C50.2798 43.1605 49.3899 42.7156 48.055 43.1605C46.7202 43.1605 45.8303 44.0504 44.9404 44.9404C43.6055 45.8303 42.7156 47.6101 42.7156 49.3899C42.7156 51.1697 43.6055 53.3945 45.3853 55.6193ZM68.078 48.055L56.5092 31.5917L62.7385 27.5871C64.0734 26.6972 64.9633 26.2523 65.8532 25.8073C67.1881 25.8073 68.078 25.8073 68.9679 26.2523C69.8578 26.6972 70.3027 27.1422 70.7477 28.0321C71.6376 28.4771 71.6376 29.367 71.6376 30.2569C71.6376 31.1468 71.6376 32.0367 71.1926 32.9266C72.0826 32.4816 73.4174 32.4816 74.3073 32.9266C75.1972 33.3716 76.0871 33.8165 76.977 34.7064C77.422 35.5963 77.867 36.4862 77.867 37.3761C77.867 38.266 77.867 38.711 77.867 39.6009C77.422 40.4908 76.977 40.9358 76.5321 41.8257C76.0871 42.2706 75.1972 43.1605 74.3073 43.6055L68.078 48.055ZM63.6284 36.9312L67.1881 34.7064C68.078 33.8165 68.5229 33.3716 68.9679 32.9266C69.4128 32.4816 69.4128 32.0367 69.4128 31.5917C69.4128 30.7018 69.4128 30.2569 68.9679 29.8119C68.5229 28.922 68.078 28.922 67.633 28.4771C67.1881 28.4771 66.2982 28.0321 65.8532 28.4771C65.4082 28.4771 64.5183 28.922 63.1835 29.8119L60.0688 32.0367L63.6284 36.9312ZM68.5229 44.4954L72.9725 41.8257C73.4174 41.3807 73.8624 40.9358 74.3073 40.9358C74.7523 40.4908 74.7523 40.0459 75.1972 39.6009C75.1972 39.156 75.1972 38.711 75.1972 37.8211C75.1972 37.3761 75.1972 36.9312 74.7523 36.4862C74.3073 35.5963 73.8624 35.1514 72.9725 35.1514C72.5275 34.7064 71.6376 34.7064 71.1926 35.1514C70.3027 35.1514 69.4128 35.5963 68.5229 36.4862L64.9633 39.156L68.5229 44.4954ZM99.2247 29.8119L91.6605 11.5688L93.8853 10.6789L101.45 28.922L99.2247 29.8119ZM107.679 26.6972L101.894 7.56422L109.014 5.33945C110.349 4.89449 111.683 4.89449 112.573 4.89449C113.908 5.33945 114.798 5.7844 115.243 6.22936C116.133 7.11926 116.578 7.56422 117.023 8.45413C117.023 9.34403 117.023 10.2339 117.023 11.1239C116.578 12.0138 116.133 12.9037 115.243 13.3486C116.578 13.3486 117.468 13.7936 118.358 14.2385C119.248 15.1284 120.138 16.0183 120.138 16.9083C120.583 17.7982 120.583 18.6881 120.583 19.578C120.138 20.4679 120.138 21.3578 119.693 21.8027C119.248 22.2477 118.358 22.6927 117.913 23.5826C117.023 24.0275 116.133 24.0275 114.798 24.4725L107.679 26.6972ZM106.789 14.6835L110.794 13.7936C112.128 13.3486 113.018 12.9037 113.463 12.9037C113.908 12.4587 114.353 12.0138 114.353 11.5688C114.798 10.6789 114.798 10.2339 114.353 9.78899C114.353 8.89908 113.908 8.45413 113.463 8.00917C113.018 7.56422 112.573 7.56422 111.683 7.56422C111.239 7.56422 110.349 7.56422 109.014 8.00917L105.009 8.89908L106.789 14.6835ZM109.459 23.5826L113.908 22.2477C114.798 22.2477 115.688 21.8027 115.688 21.8027C116.133 21.3578 116.578 21.3578 117.023 20.9128C117.468 20.4679 117.468 20.0229 117.913 19.578C117.913 19.133 117.913 18.2431 117.468 17.7982C117.468 16.9083 117.023 16.4633 116.578 16.0183C116.133 15.5734 115.243 15.5734 114.798 15.5734C113.908 15.1284 113.018 15.5734 111.683 16.0183L107.234 17.3532L109.459 23.5826ZM124.142 22.2477L129.037 1.33486L131.706 0.889908L142.385 19.578L139.716 20.0229L136.601 14.2385L128.147 15.5734L126.812 21.8027L124.142 22.2477ZM128.592 13.3486L135.266 12.4587L132.596 7.11926C131.706 5.7844 131.261 4.44954 130.816 3.11468C130.372 4.44954 130.372 5.7844 129.927 7.11926L128.592 13.3486ZM146.39 19.578L146.835 0H149.505V8.00917H159.738V0H162.408L161.963 20.0229H159.294L159.738 10.6789L149.505 10.2339L149.06 19.578H146.39ZM183.766 23.5826L189.55 4.44954L192.22 5.33945L186.436 24.4725L183.766 23.5826ZM192.22 26.2523L199.339 7.56422L206.459 10.2339C207.794 10.6789 209.128 11.5688 209.573 12.0138C210.463 12.9037 210.908 13.7936 210.908 14.6835C211.353 15.5734 211.353 16.4633 210.908 17.3532C210.463 18.2431 210.018 18.6881 209.128 19.133C208.683 20.0229 207.794 20.0229 206.904 20.4679C207.794 20.9128 208.238 21.8027 208.683 23.1376C209.128 24.0275 209.128 24.9174 208.683 26.2523C208.238 27.1422 207.794 27.5871 206.904 28.4771C206.459 28.922 205.569 29.367 205.124 29.367C204.234 29.8119 203.344 29.8119 202.454 29.8119C201.564 29.367 200.674 29.367 199.339 28.922L192.22 26.2523ZM198.894 16.4633L202.899 17.7982C204.234 18.2431 205.124 18.6881 205.569 18.6881C206.014 18.6881 206.904 18.2431 207.349 18.2431C207.794 17.7982 208.238 17.3532 208.238 16.9083C208.683 16.0183 208.683 15.5734 208.683 14.6835C208.238 14.2385 208.238 13.7936 207.349 13.3486C206.904 12.9037 206.014 12.4587 204.679 12.0138L201.119 10.6789L198.894 16.4633ZM195.78 24.9174L200.229 26.6972C201.119 27.1422 201.564 27.1422 202.009 27.1422C202.454 27.1422 203.344 27.1422 203.789 27.1422C204.234 27.1422 204.679 27.1422 205.124 26.6972C205.569 26.2523 205.569 25.8073 206.014 25.3624C206.014 24.4725 206.459 23.5826 206.014 23.1376C206.014 22.6927 205.569 21.8027 205.124 21.3578C204.679 20.9128 203.789 20.4679 202.454 20.0229L198.005 18.6881L195.78 24.9174ZM208.683 32.4816L225.147 19.133L227.372 20.4679L224.702 41.8257L222.032 40.0459L222.922 33.8165L215.803 29.8119L210.908 33.8165L208.683 32.4816ZM217.583 28.0321L223.367 31.5917L224.257 25.8073C224.702 24.0275 225.147 22.6927 225.147 21.3578C224.257 22.2477 223.367 23.1376 222.477 24.0275L217.583 28.0321ZM227.816 44.0504L240.72 28.4771L242.5 30.2569L237.605 36.4862L245.615 42.7156L250.509 36.4862L252.734 38.266L240.275 53.8394L238.05 52.0596L243.835 44.4954L235.826 38.266L230.041 45.3853L227.816 44.0504ZM251.399 50.7248C253.624 48.5 256.294 47.6101 258.963 47.6101C261.188 47.6101 263.413 48.5 265.638 50.7248C266.527 52.0596 267.417 53.3945 267.862 55.1743C268.307 56.9541 267.862 58.7339 267.417 60.0688C266.527 61.8486 265.638 63.1835 264.303 64.5183C262.523 65.8532 261.188 66.7431 259.408 67.1881C257.628 68.078 255.849 67.633 254.514 67.1881C252.734 66.7431 251.399 65.8532 250.064 64.5183C249.174 63.1835 248.284 61.4037 247.839 60.0688C247.394 58.289 247.839 56.5092 248.284 54.7293C249.174 53.3945 250.064 52.0596 251.399 50.7248ZM253.179 52.9495C251.399 54.2844 250.509 56.0642 250.064 57.844C250.064 60.0688 250.509 61.4037 251.844 63.1835C253.179 64.5183 254.959 65.4082 256.738 65.4082C258.518 65.4082 260.298 64.5183 262.523 62.7385C263.413 61.4037 264.303 60.5137 264.748 59.1789C265.638 57.844 265.638 56.9541 265.638 55.6193C265.193 54.2844 264.748 53.3945 263.858 52.0596C262.523 50.7248 261.188 50.2798 258.963 49.8349C257.183 49.8349 255.404 50.7248 253.179 52.9495ZM259.853 75.6422L276.316 64.5183L280.321 70.7477C281.211 72.0826 281.656 73.4174 282.101 74.3073C282.101 75.1972 282.101 76.0871 281.656 76.977C281.211 77.867 280.766 78.7569 279.876 79.2018C278.986 79.6468 278.096 80.0917 277.651 80.0917C276.761 80.0917 275.871 79.6468 274.982 79.2018C274.982 80.5367 274.982 81.4266 274.982 82.3165C274.537 83.6514 273.647 84.0963 272.757 84.9862C271.867 85.4312 270.977 85.8761 270.087 85.8761C269.197 85.8761 268.752 85.8761 267.862 85.4312C267.417 85.4312 266.527 84.9862 266.083 84.5413C265.193 83.6514 264.748 82.7614 263.858 81.8715L259.853 75.6422ZM270.977 71.6376L273.202 75.1972C273.647 76.0871 274.537 76.5321 274.982 76.977C275.427 77.422 275.871 77.867 276.316 77.867C277.206 77.867 277.651 77.422 278.096 77.422C278.541 76.977 278.986 76.5321 279.431 75.6422C279.431 75.1972 279.431 74.7523 279.431 74.3073C279.431 73.4174 278.986 72.5275 278.096 71.6376L275.871 68.078L270.977 71.6376ZM262.968 76.5321L265.638 80.5367C266.527 81.4266 266.527 81.8715 266.972 81.8715C267.417 82.3165 267.862 82.7614 268.307 83.2064C268.752 83.2064 269.197 83.2064 269.642 83.2064C270.087 83.2064 270.977 83.2064 271.422 82.7614C271.867 82.3165 272.312 81.8715 272.757 80.9816C272.757 80.5367 272.757 79.6468 272.757 79.2018C272.312 78.3119 272.312 77.422 271.422 76.5321L268.752 72.5275L262.968 76.5321ZM288.775 84.5413L289.665 86.766L275.427 93.4403L294.115 96.555L295.005 98.7798L276.761 107.234L275.871 105.009L290.11 98.3348L271.422 95.2202L270.532 92.9954L288.775 84.5413ZM282.546 126.812L281.656 124.142L289.665 121.917C287.885 119.693 286.995 117.913 286.55 116.133C286.105 114.798 286.105 113.463 286.55 112.573C286.55 111.239 287.44 110.349 288.33 109.904C289.22 109.014 290.11 108.569 291.89 108.124L297.229 106.344L298.119 109.014L292.78 110.794C290.555 111.239 289.22 112.128 288.775 113.018C288.33 113.908 288.33 114.798 288.775 116.133C289.22 117.913 290.11 119.693 291.445 121.027L300.789 118.358L301.679 121.027L282.546 126.812Z" transform="translate(36.6606 33.5459)" />
<path d="M13.5443 6.05749C13.5443 6.47721 13.4252 6.78348 13.187 6.97633C12.9487 7.16917 12.6425 7.26559 12.2681 7.26559C12.0186 7.26559 11.4174 7.14648 10.4645 6.90826C9.52297 6.6587 8.46234 6.46586 7.2826 6.32974C7.79307 7.03304 8.2695 7.62291 8.7119 8.09934C9.1543 8.56443 9.52297 8.95579 9.8179 9.27341C10.1242 9.60237 10.3624 9.89164 10.5325 10.1412C10.7027 10.3908 10.7878 10.6573 10.7878 10.9409C10.7878 11.2472 10.6517 11.5138 10.3794 11.7406C10.1072 11.9675 9.8179 12.081 9.51162 12.081C9.30744 12.081 9.1146 12.0242 8.9331 11.9108C8.7516 11.786 8.59846 11.6159 8.47368 11.4003C8.29218 11.0714 8.11069 10.5439 7.92919 9.8179C7.75903 9.09191 7.37335 8.02561 6.77214 6.619C6.22765 7.96889 5.84764 9.04086 5.63211 9.83492C5.41658 10.6176 5.22941 11.1394 5.0706 11.4003C4.92313 11.6272 4.76999 11.7974 4.61118 11.9108C4.46371 12.0242 4.27087 12.081 4.03266 12.081C3.71504 12.081 3.4201 11.9732 3.14785 11.7577C2.88695 11.5421 2.7565 11.2699 2.7565 10.9409C2.7565 10.6687 2.8359 10.4134 2.99472 10.1752C3.15353 9.93701 3.39741 9.6364 3.72638 9.27341C4.00997 8.97847 4.38431 8.57578 4.8494 8.06531C5.32583 7.55485 5.79659 6.97633 6.26168 6.32974C5.15 6.44318 4.11206 6.63035 3.14785 6.89125C2.19499 7.14081 1.57109 7.26559 1.27616 7.26559C0.901818 7.26559 0.59554 7.17484 0.357324 6.99334C0.119108 6.8005 0 6.48855 0 6.05749C0 5.67181 0.119108 5.37688 0.357324 5.17269C0.59554 4.95716 0.901818 4.8494 1.27616 4.8494C1.61647 4.8494 2.21201 4.9685 3.06278 5.20672C3.92489 5.44494 4.99119 5.62644 6.26168 5.75121C5.81928 5.15 5.35419 4.58282 4.86641 4.04967C4.37864 3.50518 3.99863 3.09114 3.72638 2.80755C3.40876 2.46724 3.16487 2.17797 2.99472 1.93976C2.8359 1.6902 2.7565 1.42362 2.7565 1.14003C2.7565 0.833756 2.89262 0.56718 3.16487 0.340308C3.43712 0.113436 3.72638 0 4.03266 0C4.23684 0 4.42401 0.0567178 4.59417 0.170154C4.77566 0.28359 4.93447 0.453745 5.0706 0.680617C5.22941 0.952864 5.43927 1.56542 5.70017 2.51828C5.96107 3.4598 6.3184 4.44103 6.77214 5.46195C7.2826 4.3049 7.65127 3.29532 7.87814 2.43321C8.11636 1.55975 8.31487 0.975551 8.47368 0.680617C8.59846 0.465088 8.74593 0.300605 8.91608 0.187169C9.09758 0.0623895 9.2961 0 9.51162 0C9.82925 0 10.1185 0.107764 10.3794 0.323293C10.6517 0.538822 10.7878 0.811069 10.7878 1.14003C10.7878 1.60512 10.4702 2.14962 9.83492 2.77351C9.21102 3.39741 8.36025 4.38998 7.2826 5.75121C8.50771 5.61509 9.56834 5.43359 10.4645 5.20672C11.372 4.9685 11.9732 4.8494 12.2681 4.8494C12.6425 4.8494 12.9487 4.95149 13.187 5.15567C13.4252 5.35986 13.5443 5.66047 13.5443 6.05749Z" transform="translate(38.0584 173.988) scale(0.998452 1)" />
<path fill-rule="evenodd" clip-rule="evenodd" d="M117.913 1.95416H0V0H117.913V1.95416Z" transform="translate(126.986 246.147)" />
<path d="M13.5443 6.05749C13.5443 6.47721 13.4252 6.78348 13.187 6.97633C12.9487 7.16917 12.6425 7.26559 12.2681 7.26559C12.0186 7.26559 11.4174 7.14648 10.4645 6.90826C9.52297 6.6587 8.46234 6.46586 7.2826 6.32974C7.79307 7.03304 8.2695 7.62291 8.7119 8.09934C9.1543 8.56443 9.52297 8.95579 9.8179 9.27341C10.1242 9.60237 10.3624 9.89164 10.5325 10.1412C10.7027 10.3908 10.7878 10.6573 10.7878 10.9409C10.7878 11.2472 10.6517 11.5138 10.3794 11.7406C10.1072 11.9675 9.8179 12.081 9.51162 12.081C9.30744 12.081 9.1146 12.0242 8.9331 11.9108C8.7516 11.786 8.59846 11.6159 8.47368 11.4003C8.29218 11.0714 8.11069 10.5439 7.92919 9.8179C7.75903 9.09191 7.37335 8.02561 6.77214 6.619C6.22765 7.96889 5.84764 9.04086 5.63211 9.83492C5.41658 10.6176 5.22941 11.1394 5.0706 11.4003C4.92313 11.6272 4.76999 11.7974 4.61118 11.9108C4.46371 12.0242 4.27087 12.081 4.03266 12.081C3.71504 12.081 3.4201 11.9732 3.14785 11.7577C2.88695 11.5421 2.7565 11.2699 2.7565 10.9409C2.7565 10.6687 2.8359 10.4134 2.99472 10.1752C3.15353 9.93701 3.39741 9.6364 3.72638 9.27341C4.00997 8.97847 4.38431 8.57578 4.8494 8.06531C5.32583 7.55485 5.79659 6.97633 6.26168 6.32974C5.15 6.44318 4.11206 6.63035 3.14785 6.89125C2.19499 7.14081 1.57109 7.26559 1.27616 7.26559C0.901818 7.26559 0.59554 7.17484 0.357324 6.99334C0.119108 6.8005 0 6.48855 0 6.05749C0 5.67181 0.119108 5.37688 0.357324 5.17269C0.59554 4.95716 0.901818 4.8494 1.27616 4.8494C1.61647 4.8494 2.21201 4.9685 3.06278 5.20672C3.92489 5.44494 4.99119 5.62644 6.26168 5.75121C5.81928 5.15 5.35419 4.58282 4.86641 4.04967C4.37864 3.50518 3.99863 3.09114 3.72638 2.80755C3.40876 2.46724 3.16487 2.17797 2.99472 1.93976C2.8359 1.6902 2.7565 1.42362 2.7565 1.14003C2.7565 0.833756 2.89262 0.56718 3.16487 0.340308C3.43712 0.113436 3.72638 0 4.03266 0C4.23684 0 4.42401 0.0567178 4.59417 0.170154C4.77566 0.28359 4.93447 0.453745 5.0706 0.680617C5.22941 0.952864 5.43927 1.56542 5.70017 2.51828C5.96107 3.4598 6.3184 4.44103 6.77214 5.46195C7.2826 4.3049 7.65127 3.29532 7.87814 2.43321C8.11636 1.55975 8.31487 0.975551 8.47368 0.680617C8.59846 0.465088 8.74593 0.300605 8.91608 0.187169C9.09758 0.0623895 9.2961 0 9.51162 0C9.82925 0 10.1185 0.107764 10.3794 0.323293C10.6517 0.538822 10.7878 0.811069 10.7878 1.14003C10.7878 1.60512 10.4702 2.14962 9.83492 2.77351C9.21102 3.39741 8.36025 4.38998 7.2826 5.75121C8.50771 5.61509 9.56834 5.43359 10.4645 5.20672C11.372 4.9685 11.9732 4.8494 12.2681 4.8494C12.6425 4.8494 12.9487 4.95149 13.187 5.15567C13.4252 5.35986 13.5443 5.66047 13.5443 6.05749Z" transform="translate(324.195 172.029) scale(0.998452 1)" />
<path d="M19.133 3.11468L20.0229 5.33945L4.44954 8.89908L22.2477 16.0183L22.6927 18.2431L3.55963 22.6927L2.66972 20.4679L18.2431 16.9083L0.444954 10.2339L0 7.56422L19.133 3.11468ZM5.7844 30.2569L24.0275 22.6927L26.6972 29.8119C27.5871 31.1468 27.5871 32.4816 27.5871 33.3716C27.5871 34.2615 27.1422 35.1514 26.6972 36.0413C26.2523 36.9312 25.3624 37.3761 24.4725 37.8211C23.5826 37.8211 23.1376 38.266 22.2477 37.8211C21.3578 37.8211 20.4679 37.3761 19.578 36.9312C19.578 37.8211 19.578 39.156 19.133 40.0459C18.2431 40.9358 17.7982 41.3807 16.4633 41.8257C15.5734 42.2706 14.6835 42.2706 13.7936 42.2706C12.9037 42.2706 12.4587 42.2706 11.5688 41.8257C11.1239 41.3807 10.6789 40.9358 9.78899 40.0459C9.34403 39.156 8.89908 38.266 8.45413 37.3761L5.7844 30.2569ZM17.3532 28.4771L18.6881 32.4816C19.133 33.3716 19.578 34.2615 20.0229 34.7064C20.4679 35.1514 20.9128 35.5963 21.3578 35.5963C22.2477 35.5963 22.6927 35.5963 23.1376 35.5963C24.0275 35.1514 24.4725 34.7064 24.9174 34.2615C24.9174 33.8165 25.3624 33.3716 25.3624 32.4816C25.3624 32.0367 24.9174 31.1468 24.4725 29.8119L22.6927 26.2523L17.3532 28.4771ZM8.89908 31.5917L10.6789 36.4862C11.1239 36.9312 11.1239 37.8211 11.5688 37.8211C11.5688 38.711 12.0138 38.711 12.4587 39.156C12.9037 39.6009 13.3486 39.6009 13.7936 39.6009C14.2385 39.6009 15.1284 39.6009 15.5734 39.6009C16.0183 39.156 16.9083 38.711 16.9083 38.266C17.3532 37.8211 17.7982 36.9312 17.7982 36.4862C17.3532 35.5963 17.3532 34.7064 16.9083 33.3716L15.1284 29.367L8.89908 31.5917ZM12.9037 47.6101L33.8165 44.4954L35.1514 47.1651L21.8027 64.0734L20.4679 61.4037L24.4725 56.5092L20.4679 48.9449L14.2385 50.2798L12.9037 47.6101ZM22.6927 48.5L25.8073 54.7293L29.8119 49.8349C30.7018 48.5 32.0367 47.6101 32.4816 46.7202C31.5917 47.1651 30.2569 47.6101 28.922 47.6101L22.6927 48.5ZM24.9174 68.5229L40.9358 56.5092L42.2706 58.289L36.0413 63.6284L42.2706 71.6376L48.5 66.7431L50.2798 68.5229L34.7064 80.9816L32.9266 78.7569L40.4908 72.9725L34.2615 64.9633L26.6972 70.7477L24.9174 68.5229ZM45.8303 79.2018C48.055 76.5321 50.7248 75.6422 53.3945 75.1972C55.6193 75.1972 57.844 76.0871 60.0688 77.867C61.4037 79.2018 62.2936 80.5367 62.7385 82.3165C63.1835 84.0963 63.1835 85.8761 62.7385 87.211C62.2936 88.9908 61.4037 90.7706 60.0688 92.1055C58.289 93.4403 56.9541 94.3303 55.1743 95.2202C53.3945 95.6651 52.0596 95.6651 50.2798 95.2202C48.5 94.7752 47.1651 93.8853 45.8303 92.9954C44.4954 91.6605 43.6055 90.3257 43.1605 88.5458C42.7156 86.766 42.7156 84.9862 43.1605 83.6514C44.0504 81.8715 44.9404 80.5367 45.8303 79.2018ZM48.055 80.9816C46.2752 82.7614 45.3853 84.5413 45.3853 86.3211C45.3853 88.1009 45.8303 89.8807 47.6101 91.2156C48.9449 92.5504 50.7248 92.9954 52.5046 92.9954C54.2844 92.9954 56.0642 92.1055 57.844 90.3257C59.1789 88.9908 59.6238 87.6559 60.0688 86.3211C60.5137 85.4312 60.5137 84.0963 60.5137 82.7614C60.0688 81.4266 59.6238 80.5367 58.7339 79.6468C57.3991 78.3119 55.6193 77.867 53.8394 77.867C52.0596 77.867 49.8349 78.7569 48.055 80.9816ZM58.289 103.229L69.8578 86.766L76.0871 91.2156C77.422 92.1055 78.3119 92.9954 78.7569 93.8853C79.2018 94.7752 79.2018 95.6651 79.2018 96.555C79.2018 97.4449 79.2018 98.3348 78.3119 99.2247C77.867 99.6697 77.422 100.56 76.5321 100.56C75.6422 101.005 74.7523 101.005 73.8624 101.005C74.7523 101.894 74.7523 103.229 75.1972 104.119C75.1972 105.009 74.7523 106.344 73.8624 107.234C73.4174 107.679 72.9725 108.569 72.0826 109.014C71.1926 109.459 70.3027 109.459 69.8578 109.459C68.9679 109.459 68.078 109.459 67.633 109.014C66.7431 108.569 65.8532 108.124 64.5183 107.679L58.289 103.229ZM67.1881 95.2202L70.7477 97.8899C71.6376 98.3348 72.5275 98.7798 72.9725 99.2247C73.4174 99.2247 74.3073 99.2247 74.7523 99.2247C75.1972 98.7798 75.6422 98.3348 76.0871 97.8899C76.5321 97.4449 76.977 97 76.977 96.1101C76.977 95.6651 76.5321 95.2202 76.0871 94.7752C76.0871 94.3303 75.1972 93.4403 73.8624 92.5504L70.7477 90.3257L67.1881 95.2202ZM61.8486 102.784L65.8532 105.454C66.7431 105.899 67.1881 106.344 67.633 106.789C68.078 106.789 68.5229 106.789 68.9679 107.234C69.4128 107.234 69.8578 106.789 70.3027 106.789C71.1926 106.344 71.6376 105.899 71.6376 105.454C72.0826 105.009 72.5275 104.119 72.5275 103.674C72.5275 102.784 72.0826 102.339 71.6376 101.894C71.6376 101.005 70.7477 100.56 69.8578 99.6697L65.8532 97L61.8486 102.784ZM97.8899 103.229L100.115 104.119L94.3303 118.803L109.904 108.124L112.573 109.014L105.454 127.257L103.229 126.812L108.569 112.128L93.4403 122.807L90.7706 121.917L97.8899 103.229ZM112.573 129.482L117.023 109.904L124.587 111.683C125.922 111.683 127.257 112.573 127.702 113.018C128.592 113.463 129.482 114.353 129.482 115.243C129.927 116.133 129.927 117.023 129.927 117.913C129.482 118.803 129.037 119.693 128.592 120.138C128.147 120.583 127.257 121.027 125.922 121.472C127.257 121.917 128.147 122.807 128.592 123.697C129.037 125.032 129.037 125.922 128.592 126.812C128.592 127.702 128.147 128.592 127.702 129.482C126.812 129.927 126.367 130.372 125.922 130.816C125.032 131.261 124.142 131.261 123.252 131.261C122.362 131.261 121.472 131.261 120.138 130.816L112.573 129.482ZM117.913 118.803L121.917 119.693C123.252 119.693 124.142 120.138 124.587 120.138C125.477 119.693 125.922 119.693 126.367 119.248C126.812 118.803 126.812 118.358 127.257 117.913C127.257 117.023 127.257 116.578 127.257 115.688C126.812 115.243 126.367 114.798 125.922 114.798C125.477 114.353 124.587 113.908 123.252 113.463L119.248 112.573L117.913 118.803ZM115.688 127.702L120.583 128.592C121.472 129.037 121.917 129.037 122.362 129.037C123.252 129.037 123.697 129.037 124.142 128.592C124.587 128.592 125.032 128.147 125.477 128.147C125.477 127.702 125.922 126.812 125.922 126.367C126.367 125.477 126.367 125.032 125.922 124.587C125.477 123.697 125.032 123.252 124.587 122.807C124.142 122.362 123.252 122.362 121.917 121.917L117.468 121.027L115.688 127.702ZM131.261 133.041L140.605 113.463L143.275 113.908L149.95 134.376L146.835 133.931L145.055 127.702L136.601 127.257L133.931 133.041H131.261ZM137.491 125.032L144.61 125.922L142.83 120.138C142.385 118.358 141.94 117.023 141.495 115.688C141.495 117.023 141.05 118.358 140.161 119.693L137.491 125.032ZM155.734 133.931L153.954 114.353L156.624 113.908L157.069 122.362L167.303 121.472L166.858 113.018H169.527L170.862 133.041H168.193L167.748 123.697L157.514 124.587L157.959 133.931H155.734ZM187.326 109.014L189.995 108.124L194.89 123.252L199.784 105.009L202.454 104.119L208.683 122.807L206.459 123.697L201.119 109.014L196.225 127.257L193.555 127.702L187.326 109.014ZM215.358 119.693L206.459 102.339L212.688 98.7798C214.023 97.8899 215.358 97.4449 216.248 97.4449C217.583 97.4449 218.472 97.8899 219.362 98.3348C219.807 98.7798 220.697 99.2247 221.142 100.115C221.587 101.005 221.587 101.894 221.587 102.784C221.587 103.674 221.142 104.564 220.697 105.009C221.587 105.009 222.922 105.009 223.812 105.454C224.702 105.899 225.592 106.789 226.037 107.679C226.482 108.569 226.927 109.459 226.927 110.349C226.927 111.239 226.482 112.128 226.482 112.573C226.037 113.463 225.592 113.908 224.702 114.353C224.257 115.243 223.367 115.688 222.032 116.133L215.358 119.693ZM212.688 108.124L216.248 106.344C217.138 105.899 218.027 105.454 218.472 105.009C218.917 104.564 219.362 104.119 219.362 103.229C219.362 102.784 219.362 102.339 218.917 101.45C218.472 101.005 218.027 100.56 217.583 100.115C217.138 100.115 216.693 100.115 215.803 100.115C215.358 100.115 214.468 100.56 213.133 101.005L209.573 102.784L212.688 108.124ZM216.693 116.578L221.142 114.353C222.032 113.908 222.477 113.463 222.477 113.463C222.922 113.018 223.367 112.573 223.812 112.128C223.812 111.683 224.257 111.239 224.257 110.794C224.257 109.904 223.812 109.459 223.812 109.014C223.367 108.124 222.922 107.679 222.477 107.679C221.587 107.234 221.142 107.234 220.252 107.234C219.807 107.234 218.917 107.679 217.583 108.124L213.578 110.349L216.693 116.578ZM232.266 110.794L226.927 90.3257L229.151 88.5458L247.394 100.115L244.725 101.894L239.385 98.3348L232.711 102.784L234.491 109.014L232.266 110.794ZM232.266 101.005L237.605 97L232.711 93.4403C231.376 92.5504 230.041 91.6605 229.151 91.2156C229.596 92.1055 230.041 93.4403 230.486 94.7752L232.266 101.005ZM251.399 96.1101L237.605 81.8715L239.83 80.0917L245.17 85.8761L252.734 78.7569L246.949 72.9725L249.174 71.1926L262.523 85.4312L260.743 87.211L254.514 80.5367L246.949 87.6559L253.179 94.3303L251.399 96.1101ZM259.853 73.8624C257.183 72.0826 255.849 69.8578 255.404 67.1881C254.959 64.5183 255.849 62.2936 257.183 60.0688C258.518 58.7339 259.853 57.3991 261.633 56.9541C262.968 56.5092 264.748 56.0642 266.527 56.5092C268.307 56.9541 269.642 57.844 271.422 59.1789C272.757 60.5137 274.092 61.8486 274.982 63.6284C275.427 64.9633 275.871 66.7431 275.427 68.5229C274.982 69.8578 274.537 71.6376 273.202 72.9725C272.312 74.3073 270.977 75.1972 269.197 76.0871C267.417 76.5321 266.083 76.5321 264.303 76.0871C262.523 76.0871 261.188 75.1972 259.853 73.8624ZM261.188 72.0826C263.413 73.4174 265.193 74.3073 266.972 73.8624C268.752 73.8624 270.532 72.9725 271.867 71.6376C272.757 69.8578 273.202 68.078 273.202 66.2981C272.757 64.5183 271.867 62.7385 269.642 61.4037C268.307 60.0688 266.972 59.6238 265.638 59.1789C264.748 58.7339 263.413 58.7339 262.078 59.1789C261.188 59.6238 259.853 60.5137 258.963 61.4037C258.073 62.7385 257.628 64.5183 257.628 66.2981C257.628 68.078 258.963 70.3027 261.188 72.0826ZM282.546 59.1789L264.748 50.2798L268.307 43.6055C268.752 42.2706 269.642 41.3807 270.087 40.4908C270.977 40.0459 271.867 39.6009 272.757 39.6009C274.092 39.6009 274.982 39.6009 275.427 40.0459C276.316 40.4908 277.206 40.9358 277.651 41.8257C278.096 42.7156 278.096 43.6055 278.096 44.4954C278.986 43.6055 279.876 43.1605 280.766 42.7156C282.101 42.7156 282.991 42.7156 283.881 43.1605C284.771 43.6055 285.66 44.4954 286.105 44.9404C286.55 45.8303 286.995 46.7202 286.995 47.1651C287.44 48.055 286.995 48.9449 286.995 49.8349C286.995 50.7248 286.55 51.6147 285.66 52.5046L282.546 59.1789ZM273.202 51.6147L275.427 48.055C275.871 46.7202 276.316 46.2752 276.316 45.3853C276.316 44.9404 276.316 44.4954 275.871 43.6055C275.871 43.1605 275.427 42.7156 274.537 42.7156C274.092 42.2706 273.647 42.2706 272.757 42.2706C272.312 42.2706 271.867 42.2706 271.422 42.7156C270.977 43.1605 270.532 44.0504 269.642 45.3853L267.862 48.9449L273.202 51.6147ZM281.656 56.0642L283.881 51.6147C284.326 50.7248 284.326 50.2798 284.326 49.8349C284.771 49.3899 284.771 48.9449 284.771 48.5C284.771 48.055 284.326 47.1651 284.326 46.7202C283.881 46.2752 283.436 46.2752 282.991 45.8303C282.101 45.3853 281.656 45.3853 280.766 45.3853C280.321 45.3853 279.431 45.8303 278.986 46.2752C278.541 46.7202 278.096 47.6101 277.651 48.5L275.427 52.9495L281.656 56.0642ZM273.647 33.3716L274.092 31.1468L289.22 36.0413L277.651 20.9128L278.541 18.6881L297.229 24.9174L296.339 27.1422L281.656 22.2477L293.225 36.9312L292.335 39.6009L273.647 33.3716ZM302.124 3.55963L301.679 6.22936L293.67 4.89449C294.115 7.11926 294.115 9.34403 293.67 11.1239C293.67 12.4587 293.225 13.3486 292.335 14.6835C291.445 15.5734 290.555 16.0183 289.665 16.0183C288.33 16.4633 286.995 16.4633 285.66 16.0183L279.876 15.1284L280.321 12.4587L285.66 13.3486C287.885 13.7936 289.22 13.7936 290.11 12.9037C291 12.4587 291.445 11.5688 291.445 10.2339C291.89 8.45413 291.89 6.67431 291.445 4.44954L282.101 2.66972L282.546 0L302.124 3.55963Z" transform="translate(36.6606 206.188)" />
</g></svg>
