<svg width="375" height="375" viewBox="0 0 375 375" fill="none" xmlns="http://www.w3.org/2000/svg">
<g id="segment" class="segment"><path d="M375 187.5H367.41L366.999 178.269L366.384 169.242L365.153 160.216L363.717 151.395L361.666 142.574L359.204 134.163L356.332 125.752L353.255 117.546L349.562 109.546L345.665 101.751L341.357 94.3654L336.638 86.9803L331.51 80.0055L326.176 73.2358L320.637 66.6712L314.688 60.3118L308.329 54.3627L301.969 48.8239L295.2 43.4902L288.02 38.3616L280.84 33.8485L273.249 29.5405L265.454 25.4376L257.454 21.9502L249.248 18.6679L241.042 15.796L232.426 13.3342L223.81 11.488L214.989 9.84683L205.963 8.61597L196.731 8.00055L187.5 7.7954V0L197.142 0.205142L206.783 1.02571L216.015 2.25656L225.246 3.8977L234.478 5.94912L243.299 8.41083L251.915 11.2828L260.531 14.7702L268.736 18.4628L276.942 22.5656L284.737 27.0788L292.328 32.0022L299.713 37.3359L306.893 42.8747L313.662 48.6187L320.227 54.9781L326.381 61.3375L332.33 68.3124L337.869 75.2872L342.998 82.6723L347.921 90.2626L352.434 98.058L356.537 106.264L360.23 114.469L363.717 123.085L366.589 131.701L369.051 140.728L371.307 149.754L372.949 158.985L374.179 168.422L374.795 177.858L375 187.5ZM187.5 375V367.41L196.731 366.999L205.963 366.384L214.989 365.153L223.81 363.717L232.426 361.666L241.042 359.204L249.248 356.332L257.454 353.255L265.454 349.562L273.249 345.665L280.84 341.357L288.02 336.638L295.2 331.51L301.969 326.176L308.329 320.637L314.688 314.688L320.637 308.329L326.176 301.969L331.51 295.2L336.638 288.02L341.357 280.84L345.665 273.249L349.562 265.454L353.255 257.454L356.332 249.248L359.204 241.042L361.666 232.426L363.717 223.81L365.153 214.989L366.384 205.963L366.999 196.731L367.41 187.5H375L374.795 197.142L374.179 206.783L372.949 216.015L371.307 225.246L369.051 234.478L366.589 243.299L363.717 251.915L360.23 260.531L356.537 268.736L352.434 276.942L347.921 284.737L342.998 292.328L337.869 299.713L332.33 306.893L326.381 313.662L320.227 320.227L313.662 326.381L306.893 332.33L299.713 337.869L292.328 342.998L284.737 347.921L276.942 352.434L268.736 356.537L260.531 360.23L251.915 363.717L243.299 366.589L234.478 369.256L225.246 371.307L216.015 372.949L206.783 374.179L197.142 374.795L187.5 375ZM0 187.5H7.7954L8.00055 196.731L8.61597 205.963L9.84683 214.989L11.488 223.81L13.3342 232.426L15.796 241.042L18.6679 249.248L21.9502 257.454L25.4376 265.454L29.3353 273.249L33.8485 280.84L38.3616 288.02L43.4902 295.2L48.8239 301.969L54.3627 308.329L60.3118 314.688L66.6712 320.637L73.2358 326.176L80.0055 331.51L86.9803 336.638L94.3654 341.357L101.751 345.665L109.546 349.562L117.546 353.255L125.752 356.332L133.958 359.204L142.574 361.666L151.19 363.717L160.216 365.153L169.037 366.384L178.269 366.999L187.5 367.41V375L177.858 374.795L168.422 374.179L158.985 372.949L149.754 371.307L140.728 369.256L131.701 366.589L123.085 363.717L114.469 360.23L106.264 356.537L98.058 352.434L90.2626 347.921L82.6723 342.998L75.2872 337.869L68.3124 332.33L61.3375 326.381L54.9781 320.227L48.6187 313.662L42.8747 306.893L37.3359 299.713L32.0022 292.328L27.0788 284.737L22.5656 276.942L18.4628 268.736L14.7702 260.531L11.2828 251.915L8.41083 243.299L5.94912 234.478L3.8977 225.246L2.25656 216.015L1.02571 206.783L0.205142 197.142L0 187.5ZM187.5 0V7.7954L178.269 8.00055L169.037 8.61597L160.216 9.84683L151.19 11.488L142.574 13.3342L133.958 15.796L125.752 18.6679L117.546 21.9502L109.546 25.4376L101.751 29.5405L94.3654 33.8485L86.9803 38.3616L80.0055 43.4902L73.2358 48.8239L66.6712 54.3627L60.3118 60.3118L54.3627 66.6712L48.8239 73.2358L43.4902 80.0055L38.3616 86.9803L33.8485 94.3654L29.3353 101.751L25.4376 109.546L21.9502 117.546L18.6679 125.752L15.796 134.163L13.3342 142.574L11.488 151.395L9.84683 160.216L8.61597 169.242L8.00055 178.269L7.7954 187.5H0L0.205142 177.858L1.02571 168.422L2.25656 158.985L3.8977 149.754L5.94912 140.728L8.41083 131.701L11.2828 123.085L14.7702 114.469L18.4628 106.264L22.5656 98.058L27.0788 90.2626L32.0022 82.6723L37.3359 75.2872L42.8747 68.3124L48.6187 61.3375L54.9781 54.9781L61.3375 48.6187L68.3124 42.8747L75.2872 37.3359L82.6723 32.0022L90.2626 27.0788L98.058 22.5656L106.264 18.4628L114.469 14.7702L123.085 11.2828L131.701 8.41083L140.728 5.94912L149.754 3.8977L158.985 2.25656L168.422 1.02571L177.858 0.205142L187.5 0Z" />
<path fill-rule="evenodd" clip-rule="evenodd" d="M173.842 3.86656C79.9674 3.86656 3.86656 79.9674 3.86656 173.842C3.86656 267.718 79.9674 343.818 173.842 343.818C267.718 343.818 343.818 267.718 343.818 173.842C343.818 79.9674 267.718 3.86656 173.842 3.86656ZM0 173.842C0 77.8319 77.8319 0 173.842 0C269.853 0 347.685 77.8319 347.685 173.842C347.685 269.853 269.853 347.685 173.842 347.685C77.8319 347.685 0 269.853 0 173.842Z" transform="translate(13.6575 13.6575)" />
<path fill-rule="evenodd" clip-rule="evenodd" d="M132.609 3.86656C61.5065 3.86656 3.86656 61.5065 3.86656 132.609C3.86656 203.711 61.5065 261.351 132.609 261.351C203.711 261.351 261.351 203.711 261.351 132.609C261.351 61.5065 203.711 3.86656 132.609 3.86656ZM0 132.609C0 59.371 59.371 0 132.609 0C205.847 0 265.218 59.371 265.218 132.609C265.218 205.847 205.847 265.218 132.609 265.218C59.371 265.218 0 205.847 0 132.609Z" transform="translate(54.8911 54.8911)" />
<path d="M6.10276 9.55829L0 7.73959L0.929559 4.68821L7.03232 6.95149L6.85045 0H9.94224L9.74017 7.05253L15.7419 4.82967L16.6714 7.90125L10.4676 9.74016L14.4688 15.2165L11.963 17.116L8.20437 11.2962L4.56697 16.9746L2.04099 15.1357L6.10276 9.55829Z" transform="translate(29.696 157.515)" />
<path d="M0 10.052L26.6685 6.56455L27.0788 11.0777L0.615427 14.5651L0 10.052ZM3.69256 32.2073L1.436 21.9502L20.3091 17.6422L22.5656 26.8736C23.3862 30.361 22.1554 32.4125 18.8731 33.233C16.6165 33.8485 14.9754 33.233 13.9497 31.5919C13.5394 33.8485 12.3085 35.2845 9.84683 35.8999C8.41083 36.3102 7.17998 36.105 5.94912 35.2845C4.92341 34.669 4.10284 33.6433 3.69256 32.2073ZM18.2577 22.5656L13.5394 23.5914L14.1548 26.6685C14.7702 28.7199 15.796 29.7456 17.4371 29.3353C18.8731 28.9251 19.2834 27.6942 18.8731 25.4376L18.2577 22.5656ZM10.4623 24.2068L5.53884 25.4376L6.35941 28.9251C6.76969 30.9765 8.00055 31.797 9.43654 31.5919C10.2571 31.3868 10.8725 30.9765 11.0777 30.361C11.488 29.7456 11.488 28.5148 11.0777 26.8736L10.4623 24.2068ZM20.7194 42.2593L20.3091 38.3616C22.3605 38.1565 24.0016 38.3616 25.2325 39.1822C26.2582 40.0027 27.2839 41.2336 27.8993 43.0799C28.3096 44.9261 28.5148 46.157 28.3096 47.1827C28.3096 48.2084 27.6942 49.2341 27.0788 49.8496C26.4633 50.465 25.0274 51.0804 22.7708 51.901L17.0268 53.7473C15.5908 54.1575 14.36 54.773 13.5394 55.1833C12.924 55.3884 12.1034 56.0038 11.2828 56.6193L10.052 52.7216L11.8982 51.4907C10.8725 51.0804 10.052 50.465 9.2314 49.8496C8.61597 49.2341 8.20569 48.4136 7.79541 47.593C7.38512 46.157 7.38512 44.721 8.20569 43.4902C8.82112 42.2593 10.052 41.2336 11.6931 40.8233C12.7188 40.413 13.7445 40.2079 14.5651 40.413C15.3857 40.6182 16.2062 40.8233 17.0268 41.4387C17.6422 42.0542 18.4628 42.8747 19.2834 44.3107C20.3091 46.157 21.1297 47.1827 21.7451 47.7981C22.7708 47.593 23.3862 47.1827 23.7965 46.9776C24.0016 46.7724 24.2068 46.3621 24.2068 45.9519C24.4119 45.5416 24.2068 44.9261 24.0016 44.1056C23.7965 43.4902 23.3862 42.8747 22.9759 42.6696C22.5656 42.2593 21.7451 42.2593 20.7194 42.2593ZM18.6679 48.8239C18.2577 48.4136 17.6422 47.7981 17.0268 46.7724C16.4114 45.5416 15.796 44.9261 15.1805 44.721C14.7702 44.5159 14.1548 44.3107 13.5394 44.5159C12.7188 44.9261 12.3085 45.3364 11.8982 45.7467C11.488 46.3621 11.488 46.9776 11.6931 47.593C11.8982 48.2084 12.3085 48.8239 12.924 49.2341C13.3342 49.6444 13.9497 49.8496 14.5651 49.8496C15.1805 49.8496 16.2062 49.6444 17.6422 49.2341L18.6679 48.8239ZM14.1548 62.3632L31.5919 53.337L33.4382 57.2347L27.0788 60.517L29.9508 65.8507L36.3102 62.5684L38.1565 66.2609L20.9245 75.2872L18.8731 71.3895L26.2582 67.6969L23.3862 62.3632L16.2062 66.0558L14.1548 62.3632ZM32.4125 75.0821C34.0536 74.0563 35.6947 73.2358 37.3359 73.0306C39.1822 72.6203 40.6182 72.8255 42.0542 73.4409C43.285 73.8512 44.5159 74.8769 45.3364 76.1078C46.7724 78.1592 47.1827 80.4158 46.3621 82.6723C45.5416 85.134 44.1056 86.9803 41.849 88.6214C40.2079 89.8523 38.5667 90.4677 36.7205 90.878C35.0793 91.0831 33.4382 91.0831 32.0022 90.4677C30.7713 89.8523 29.5405 89.0317 28.7199 87.8009C27.2839 85.9546 26.8736 83.698 27.4891 81.4415C28.1045 79.1849 29.7456 76.9283 32.4125 75.0821ZM34.669 78.7746C33.233 79.8003 32.2073 81.0312 31.797 82.262C31.3868 83.4929 31.5919 84.5186 32.2073 85.3392C32.8228 86.3649 33.6433 86.7752 35.0793 86.7752C36.3102 86.7752 37.7462 86.3649 39.3873 85.134C40.8233 84.1083 41.849 82.8775 42.2593 81.6466C42.6696 80.4158 42.4644 79.39 41.849 78.5695C41.2336 77.5438 40.413 77.1335 38.977 77.1335C37.7462 77.1335 36.3102 77.5438 34.669 78.7746ZM45.3364 107.084L38.1565 99.494L52.3113 86.1597L58.6707 92.9294C61.1324 95.5963 61.1324 98.058 58.6707 100.315C57.0295 101.956 55.3884 102.366 53.7473 101.34C54.5678 103.597 54.1576 105.443 52.5164 107.084C51.2856 108.11 50.0547 108.725 48.8239 108.725C47.3879 108.725 46.3621 108.11 45.3364 107.084ZM52.7216 91.2883L49.2341 94.5706L51.4907 96.8271C52.9267 98.4683 54.3627 98.8786 55.5935 97.6477C56.6193 96.622 56.4141 95.186 54.9781 93.5449L52.7216 91.2883ZM46.9776 96.8271L43.285 100.315L45.9519 102.981C47.3879 104.417 48.6187 104.623 49.8496 103.597C50.465 102.981 50.6701 102.366 50.6701 101.751C50.6701 100.93 50.0547 99.9043 48.8239 98.6734L46.9776 96.8271ZM75.6975 98.8786L82.8775 104.007C84.9289 105.443 86.1597 106.674 86.7752 107.495C87.1855 108.52 87.3906 109.546 87.3906 110.982C87.3906 112.213 86.7752 113.444 85.9546 114.469C85.3392 115.7 84.3135 116.316 83.2877 116.931C82.262 117.546 81.2363 117.546 80.2106 117.546C80.826 118.572 81.2363 119.803 81.2363 121.239C81.2363 122.47 80.6209 123.906 79.8003 125.137C78.5695 126.778 77.3386 127.804 75.6975 128.419C74.2615 129.034 72.8255 129.034 71.5946 128.624C70.7741 128.214 68.9278 127.188 66.2609 125.137L60.1067 120.829L75.6975 98.8786ZM76.7232 105.238L73.2358 110.161L75.4923 112.008C76.9283 113.033 77.9541 113.649 78.3643 113.854C78.9798 114.059 79.5952 114.264 80.4158 114.059C81.0312 113.854 81.6466 113.444 82.0569 112.623C82.4672 112.008 82.6723 111.392 82.6723 110.777C82.8775 110.161 82.6723 109.751 82.262 109.341C81.8518 108.931 80.826 108.11 78.9798 106.674L76.7232 105.238ZM70.5689 113.854L66.4661 119.803L69.7484 122.06C71.3895 123.085 72.2101 123.701 72.8255 123.906C73.4409 124.111 73.8512 123.906 74.4666 123.701C75.0821 123.496 75.6975 123.085 76.1078 122.265C76.7232 121.649 76.9283 120.829 76.9283 120.213C76.9283 119.598 76.7232 118.982 76.5181 118.367C76.1078 117.957 75.0821 117.136 73.4409 115.905L70.5689 113.854ZM90.4677 124.521L87.3906 122.06C88.6214 120.418 90.0574 119.598 91.2883 119.188C92.7243 118.982 94.3654 119.188 96.0066 120.213C97.6477 121.034 98.6734 121.854 99.2888 122.675C99.9043 123.496 100.315 124.521 100.109 125.547C100.109 126.368 99.6991 127.804 98.6734 129.855L95.8014 135.189C94.9809 136.83 94.5706 137.856 94.1603 138.676C93.9551 139.497 93.75 140.317 93.75 141.343L90.0574 139.497L90.4677 137.24C89.442 137.65 88.4163 137.856 87.5957 138.061C86.57 138.061 85.7495 137.65 84.9289 137.24C83.4929 136.625 82.6723 135.599 82.262 134.163C81.8518 132.727 82.0569 131.291 82.8775 129.855C83.2877 128.829 83.9032 128.009 84.7237 127.598C85.3392 126.983 86.1597 126.573 87.1855 126.573C88.006 126.368 89.2369 126.573 90.878 126.983C92.7243 127.393 94.1603 127.804 94.9809 127.804C95.5963 126.778 95.8014 126.162 95.8014 125.752C95.8014 125.342 95.8014 124.932 95.3911 124.726C95.186 124.316 94.7757 123.906 94.1603 123.496C93.3397 123.29 92.7243 123.085 92.314 123.29C91.6986 123.29 91.0832 123.701 90.4677 124.521ZM93.5449 130.676C92.9294 130.676 92.1089 130.47 90.878 130.265C89.6472 129.855 88.6214 129.855 88.2112 130.06C87.5957 130.265 87.1855 130.676 86.7752 131.291C86.57 131.906 86.3649 132.522 86.57 133.137C86.7752 133.958 87.1855 134.368 87.8009 134.778C88.2112 134.984 88.8266 134.984 89.6472 134.984C90.2626 134.778 90.878 134.573 91.2883 134.163C91.6986 133.753 92.314 132.932 93.1346 131.701L93.5449 130.676ZM117.341 135.599L113.033 135.189C113.444 133.137 112.828 131.906 111.392 131.291C110.367 131.086 109.341 131.086 108.52 131.701C107.7 132.317 106.879 133.753 106.264 135.599C105.443 137.856 105.238 139.497 105.443 140.522C105.853 141.753 106.469 142.369 107.495 142.779C108.11 142.984 108.931 142.984 109.546 142.574C110.161 142.369 110.777 141.548 111.597 140.317L115.085 142.369C112.828 146.677 109.751 148.113 105.853 146.677C103.392 145.856 101.956 144.215 101.34 141.958C100.93 139.702 101.135 137.24 101.956 134.573C102.981 131.496 104.623 129.24 106.469 128.214C108.315 126.983 110.367 126.778 112.623 127.393C114.469 128.009 115.7 129.034 116.521 130.47C117.341 131.701 117.547 133.548 117.341 135.599ZM118.982 150.369L123.29 131.496L127.188 132.317L124.521 144.215L133.548 133.753L137.65 134.778L133.342 153.652L129.445 152.831L132.112 140.728L122.88 151.395L118.982 150.369ZM151.805 155.703L153.036 140.317L147.292 139.907L146.677 148.728C146.677 150.164 146.472 151.395 146.061 152.216C145.856 153.036 145.446 153.857 145.036 154.267C144.42 154.882 144.01 155.088 143.6 155.293C142.984 155.293 142.369 155.293 141.548 155.293C141.138 155.293 140.317 155.088 139.086 154.677L139.292 150.985C139.702 150.985 140.317 150.985 141.138 151.19C141.548 151.19 141.958 150.985 142.164 150.574C142.164 150.369 142.369 149.549 142.574 148.318L143.394 135.599L157.549 136.625L156.113 155.908L151.805 155.703ZM163.704 156.113L162.268 136.83L166.575 136.42L167.191 144.42L171.704 144.215C174.576 144.01 176.422 144.42 177.243 145.651C178.063 146.677 178.679 148.113 178.679 149.344C179.089 153.241 177.243 155.088 173.14 155.498L163.704 156.113ZM167.396 147.702L167.806 152.626L172.114 152.216C173.755 152.216 174.576 151.19 174.371 149.549C174.371 148.728 173.961 148.113 173.345 147.702C172.935 147.497 171.909 147.292 170.473 147.497L167.396 147.702ZM186.885 127.188L195.501 124.726C197.757 124.111 199.398 123.906 200.629 123.906C201.655 124.111 202.681 124.726 203.501 125.547C204.527 126.368 205.142 127.598 205.553 128.829C205.963 130.06 205.963 131.291 205.758 132.522C205.553 133.753 204.937 134.573 204.117 135.394C205.553 135.394 206.783 136.009 207.809 136.83C208.835 137.65 209.45 138.881 210.066 140.522C210.476 142.369 210.476 144.01 210.066 145.651C209.45 147.087 208.63 148.318 207.399 148.933C206.578 149.344 204.732 149.959 201.655 150.985L194.27 153.036L186.885 127.188ZM192.423 130.265L194.27 136.214L196.937 135.394C198.783 134.984 199.809 134.573 200.219 134.368C200.834 134.163 201.245 133.548 201.655 132.932C201.86 132.317 201.86 131.701 201.655 130.881C201.45 130.06 201.039 129.445 200.629 129.034C200.219 128.624 199.603 128.419 199.193 128.624C198.578 128.624 197.142 128.829 194.885 129.445L192.423 130.265ZM195.501 140.522L197.347 147.497L201.45 146.266C203.091 145.856 204.117 145.446 204.732 145.036C205.142 144.625 205.347 144.215 205.553 143.6C205.758 142.984 205.758 142.164 205.553 141.343C205.347 140.522 204.937 139.907 204.322 139.497C203.911 139.086 203.296 138.881 202.681 138.881C201.86 138.676 200.629 139.086 198.783 139.497L195.501 140.522ZM216.22 132.112L212.322 132.932C211.912 130.881 212.117 129.445 212.733 128.214C213.348 126.983 214.579 125.957 216.22 124.932C217.861 124.316 219.297 123.906 220.323 124.111C221.348 124.111 222.374 124.521 222.99 125.137C223.81 125.752 224.631 126.983 225.451 129.034L227.913 134.573C228.528 136.214 229.144 137.24 229.759 138.061C230.17 138.676 230.785 139.292 231.4 140.112L227.708 141.753L226.272 140.112C225.862 141.138 225.451 141.958 224.836 142.779C224.426 143.6 223.605 144.01 222.784 144.42C221.348 145.036 219.912 145.036 218.682 144.625C217.246 144.01 216.425 142.984 215.604 141.343C215.194 140.317 214.989 139.497 214.989 138.471C214.989 137.65 215.194 136.83 215.81 136.009C216.22 135.189 217.04 134.368 218.476 133.342C219.912 132.112 221.143 131.291 221.554 130.47C221.143 129.65 220.733 129.034 220.528 128.624C220.323 128.419 219.912 128.419 219.502 128.214C218.887 128.214 218.476 128.419 217.656 128.624C217.04 129.034 216.63 129.445 216.22 129.855C216.015 130.47 216.015 131.086 216.22 132.112ZM222.99 133.548C222.579 133.958 221.964 134.573 220.938 135.394C219.912 136.214 219.297 136.83 219.092 137.445C218.887 138.061 218.887 138.471 219.297 139.086C219.502 139.907 220.118 140.317 220.733 140.522C221.348 140.933 221.964 140.933 222.579 140.522C222.99 140.317 223.4 139.907 223.81 139.292C224.22 138.676 224.426 138.061 224.426 137.445C224.426 136.83 224.015 135.804 223.4 134.573L222.99 133.548ZM242.683 118.367L239.401 121.239C238.17 119.598 236.734 119.188 235.298 120.008C234.478 120.418 233.862 121.239 233.862 122.265C233.657 123.29 234.272 124.932 235.298 126.573C236.324 128.624 237.555 129.855 238.58 130.47C239.606 130.881 240.427 130.881 241.452 130.47C242.068 130.06 242.478 129.445 242.683 128.829C242.888 128.009 242.683 126.983 242.273 125.752L246.171 124.316C247.812 128.829 246.991 132.112 243.299 134.163C241.042 135.394 238.991 135.599 236.939 134.368C234.888 133.342 233.042 131.496 231.606 129.24C229.964 126.162 229.349 123.701 229.759 121.444C230.17 119.188 231.4 117.546 233.247 116.521C234.888 115.495 236.529 115.085 237.965 115.495C239.606 115.7 241.042 116.726 242.683 118.367ZM254.787 126.573L242.683 111.187L245.76 108.725L253.351 118.367L250.889 104.828L254.171 102.161L266.275 117.546L262.992 120.008L255.402 110.161L257.864 124.111L254.787 126.573ZM279.609 104.417L268.531 93.9551L264.633 98.058L270.993 104.212C272.019 105.033 272.839 106.059 273.455 106.879C273.865 107.495 274.275 108.315 274.275 108.931C274.275 109.751 274.275 110.367 274.07 110.777C273.865 111.187 273.455 111.597 272.839 112.213C272.429 112.623 271.813 113.033 270.788 113.854L268.121 111.187C268.326 110.982 268.736 110.572 269.352 109.956C269.557 109.751 269.762 109.341 269.557 108.931C269.352 108.52 268.941 107.905 268.121 107.084L258.684 98.2631L268.531 88.006L282.686 101.545L279.609 104.417ZM287.815 95.8014L271.813 84.5186L274.275 81.0312L280.84 85.7495L283.507 81.8517C285.148 79.5952 286.584 78.5695 288.225 78.5695C289.661 78.7746 290.892 79.1849 291.917 79.8003C295.2 82.0569 295.405 84.7237 293.148 88.006L287.815 95.8014ZM283.507 87.5957L287.609 90.4677L290.071 86.9803C290.892 85.5443 290.687 84.3135 289.456 83.4929C288.635 82.8775 288.02 82.6723 287.404 82.8775C286.789 83.0826 286.173 83.9032 285.148 84.9289L283.507 87.5957ZM290.892 73.4409C289.251 72.4152 288.02 71.1844 286.994 69.7484C285.968 68.3124 285.558 66.8764 285.353 65.4404C285.353 64.0044 285.763 62.5684 286.584 61.3375C287.815 59.081 289.661 57.8501 292.123 57.645C294.584 57.2347 297.046 57.8501 299.303 59.081C301.149 60.1067 302.38 61.3375 303.405 62.7735C304.431 64.2095 305.047 65.8507 305.047 67.2867C305.252 68.7226 304.841 70.1586 304.226 71.3895C302.995 73.4409 301.149 74.6718 298.892 75.0821C296.431 75.6975 293.969 75.0821 290.892 73.4409ZM293.353 69.7484C294.995 70.7741 296.636 71.1844 297.867 70.9792C299.097 70.7741 299.918 70.1586 300.533 69.3381C301.149 68.3124 301.149 67.2867 300.533 66.0558C300.123 65.0301 298.892 64.0044 297.251 62.9787C295.61 61.953 294.174 61.5427 292.738 61.7478C291.507 61.953 290.687 62.3632 290.071 63.3889C289.661 64.4147 289.661 65.4404 290.071 66.4661C290.481 67.6969 291.712 68.7226 293.353 69.7484ZM314.073 48.2084L310.38 57.8501L292.123 50.6701L295.61 41.849C297.046 38.5667 299.097 37.541 302.38 38.7719C304.431 39.5924 305.457 40.8233 305.457 42.8747C306.893 41.0284 308.944 40.6182 311.201 41.6439C312.637 42.0542 313.662 43.0799 314.073 44.3107C314.688 45.3364 314.688 46.7724 314.073 48.2084ZM296.841 48.0033L301.149 49.6444L302.38 46.7724C303.2 44.721 302.79 43.285 301.354 42.6696C299.918 42.2593 298.687 42.8747 297.867 45.1313L296.841 48.0033ZM304.226 50.8753L308.944 52.7216L310.175 49.2341C310.996 47.1827 310.585 45.9519 308.944 45.3364C308.329 45.1313 307.508 45.1313 306.893 45.5416C306.277 45.7467 305.662 46.7724 305.047 48.4136L304.226 50.8753ZM317.765 36.9256L298.687 32.6176L299.713 28.7199L311.611 31.3868L301.149 22.3605L301.969 18.2577L321.048 22.7708L320.022 26.6685L307.919 23.7965L318.586 33.0279L317.765 36.9256ZM307.713 14.5651L302.79 14.1548L302.995 9.84683L308.124 10.2571C310.585 10.4623 312.021 9.43654 312.226 7.38512C312.226 6.56455 312.226 5.74398 311.816 4.92341L303.611 4.30799L303.816 0L323.304 1.436L322.894 5.74398L315.098 5.12856C315.509 6.76969 315.714 8.00055 315.714 8.82112C315.509 10.8725 314.688 12.3085 313.457 13.3342C312.021 14.36 310.175 14.5651 307.713 14.5651Z" transform="translate(26.2582 193.654)" />
<path d="M17.4371 96.622C18.0525 96.8271 18.6679 97.2374 19.0782 97.6477C19.4885 98.058 19.8988 98.4683 20.1039 98.8786C20.5142 99.2888 20.7194 99.9043 20.7194 100.315C20.9245 100.93 20.9245 101.34 20.9245 101.956C20.9245 102.366 20.7194 102.981 20.7194 103.597C20.5142 104.007 20.3091 104.623 19.8988 105.238L18.0525 109.546C18.0525 109.751 17.8474 109.956 17.4371 109.956C17.2319 110.161 16.8217 110.161 16.4114 109.956L0.820569 102.571C0.410284 102.571 0.205142 102.161 0 101.956C0 101.751 0 101.545 0.205142 101.135L1.84628 97.2374C2.25656 96.2117 2.87199 95.5963 3.28228 94.9809C3.8977 94.3654 4.30799 93.9551 4.92341 93.75C5.53884 93.3397 6.15427 93.3397 6.76969 93.3397C7.59026 93.3397 8.20569 93.5449 9.02626 93.75C9.43654 93.9551 9.84683 94.3654 10.2571 94.5706C10.4623 94.7757 10.8725 95.186 11.0777 95.3911C11.2828 95.8014 11.488 96.2117 11.488 96.622C11.6931 96.8271 11.6931 97.2374 11.6931 97.6477C12.1034 97.2374 12.3085 97.0323 12.7188 96.622C13.1291 96.4168 13.5394 96.2117 14.1548 96.2117C14.5651 96.0066 15.1805 96.0066 15.796 96.0066C16.2062 96.2117 16.8217 96.4168 17.4371 96.622ZM8.00055 97.2374C7.59026 97.0323 7.38512 97.0323 6.97484 96.8271C6.56455 96.8271 6.35941 96.8271 5.94912 97.0323C5.74398 97.0323 5.53884 97.2374 5.3337 97.6477C5.12856 97.8528 4.71827 98.2631 4.51313 98.6734L3.8977 100.315L8.41083 102.366L9.2314 100.725C9.43654 100.109 9.64168 99.6991 9.64168 99.494C9.64168 99.0837 9.64168 98.8786 9.43654 98.4683C9.2314 98.2631 9.02626 98.058 8.82112 97.8528C8.61597 97.6477 8.41083 97.4426 8.00055 97.2374ZM16.0011 99.9043C15.5908 99.6991 15.1805 99.6991 14.9754 99.6991C14.5651 99.494 14.1548 99.6991 13.7445 99.6991C13.5394 99.9043 13.1291 100.109 12.924 100.52C12.5137 100.725 12.3085 101.135 12.1034 101.751L11.0777 103.597L16.2062 106.059L17.4371 103.802C17.6422 103.187 17.6422 102.776 17.6422 102.571C17.6422 102.161 17.6422 101.751 17.6422 101.545C17.4371 101.135 17.2319 100.93 17.0268 100.725C16.8217 100.315 16.4114 100.109 16.0011 99.9043ZM28.5148 85.5443C28.9251 85.5443 29.1302 85.7495 29.1302 85.9546C29.3353 85.9546 29.5405 86.1597 29.5405 86.1597C29.7456 86.3649 29.7456 86.3649 29.7456 86.57C29.7456 86.57 29.7456 86.57 29.7456 86.7752L25.4376 94.1603C25.2325 94.5706 25.0274 94.5706 24.8222 94.7757C24.6171 94.7757 24.2068 94.7757 23.7965 94.5706L8.82112 85.9546C8.41083 85.7495 8.20569 85.5443 8.20569 85.134C8.00055 84.9289 8.00055 84.7237 8.20569 84.5186L12.5137 76.9283C12.5137 76.9283 12.5137 76.9283 12.7188 76.7232H12.924C13.1291 76.7232 13.3342 76.9283 13.5394 76.9283C13.5394 76.9283 13.9497 77.1335 14.1548 77.3386C14.36 77.3386 14.5651 77.5438 14.7702 77.7489C14.9754 77.7489 14.9754 77.954 15.1805 77.954C15.1805 78.1592 15.1805 78.1592 15.1805 78.3643C15.3857 78.3643 15.1805 78.3643 15.1805 78.5695L12.1034 83.9032L16.4114 86.1597L18.8731 81.6466C19.0782 81.6466 19.0782 81.6466 19.0782 81.6466C19.2834 81.6466 19.2834 81.6466 19.4885 81.6466C19.4885 81.6466 19.6937 81.6466 19.8988 81.6466C20.1039 81.8517 20.3091 81.8517 20.5142 82.0569C20.7194 82.262 20.9245 82.262 21.1296 82.4672C21.3348 82.4672 21.5399 82.6723 21.5399 82.6723C21.5399 82.8775 21.7451 82.8775 21.7451 83.0826C21.7451 83.0826 21.7451 83.2877 21.5399 83.2877L19.0782 87.8009L23.7965 90.4677L26.8736 85.134C27.0788 85.134 27.0788 84.9289 27.0788 84.9289C27.2839 84.9289 27.2839 84.9289 27.4891 84.9289C27.4891 84.9289 27.6942 85.134 27.8993 85.134C28.1045 85.134 28.3096 85.3392 28.5148 85.5443ZM24.2068 62.5684C24.4119 62.7735 24.6171 62.9787 24.8222 63.1838L25.0274 63.3889C25.2325 63.5941 25.2325 63.5941 25.2325 63.7992V64.0044L22.7708 67.4918L35.8999 76.7232C35.8999 76.7232 35.8999 76.7232 36.105 76.9283V77.1335C35.8999 77.3386 35.8999 77.5438 35.8999 77.7489C35.6947 77.954 35.4896 78.1592 35.2845 78.3643C35.0793 78.7746 35.0793 78.9798 34.8742 79.1849C34.669 79.1849 34.4639 79.39 34.4639 79.39C34.2588 79.5952 34.2588 79.5952 34.0536 79.5952H33.8485L20.7194 70.3638L18.2577 74.0563H18.0525C18.0525 74.0563 17.8474 74.0563 17.6422 74.0563C17.6422 74.0563 17.4371 74.0563 17.2319 73.8512C17.0268 73.8512 16.8217 73.6461 16.6165 73.4409C16.4114 73.2358 16.2062 73.2358 16.0011 73.0306C15.796 72.8255 15.796 72.8255 15.5908 72.6203V72.4152C15.5908 72.2101 15.5908 72.2101 15.5908 72.2101L22.5656 62.1581V61.953C22.7708 61.953 22.7708 61.953 22.9759 61.953C23.1811 61.953 23.1811 62.1581 23.3862 62.1581C23.5914 62.3632 23.7965 62.5684 24.2068 62.5684ZM46.9776 61.5427C47.3879 61.7478 47.3879 61.953 47.593 61.953C47.7981 62.1581 47.7981 62.3632 48.0033 62.3632C48.0033 62.5684 48.0033 62.5684 48.0033 62.7735V62.9787L42.2593 69.5432C42.0542 69.7484 41.849 69.9535 41.6439 69.9535C41.2336 69.9535 41.0284 69.7484 40.6182 69.5432L27.4891 58.2604C27.2839 57.8501 27.0788 57.645 27.0788 57.4398C27.0788 57.0295 27.0788 56.8244 27.2839 56.6193L32.8228 50.0547C33.0279 50.0547 33.0279 50.0547 33.0279 50.0547C33.233 50.0547 33.233 50.0547 33.4382 50.0547C33.6433 50.0547 33.6433 50.0547 33.8485 50.2598C34.0536 50.465 34.2588 50.465 34.4639 50.6701C34.669 50.8753 34.8742 51.0804 35.0793 51.2856C35.0793 51.4907 35.2845 51.4907 35.2845 51.6958C35.2845 51.6958 35.2845 51.901 35.4896 51.901C35.4896 52.1061 35.2845 52.1061 35.2845 52.1061L31.3868 56.8244L34.8742 59.9015L38.3616 56.0038C38.3616 56.0038 38.3616 56.0038 38.5667 56.0038C38.5667 55.7987 38.7719 56.0038 38.7719 56.0038C38.977 56.0038 39.1822 56.0038 39.1822 56.209C39.3873 56.209 39.5924 56.4141 39.7976 56.6193C40.0027 56.8244 40.2079 57.0295 40.413 57.2347L40.6182 57.4398C40.8233 57.645 40.8233 57.645 40.8233 57.8501L40.6182 58.0553L37.3359 61.953L41.4387 65.6455L45.5416 60.9272L45.7467 60.7221C45.7467 60.7221 45.9519 60.7221 46.157 60.9272C46.157 60.9272 46.3621 60.9272 46.5673 61.1324C46.5673 61.1324 46.7724 61.3375 46.9776 61.5427ZM51.2856 41.2336C52.1061 42.0542 52.5164 42.8747 52.9267 43.6953C53.337 44.5159 53.337 45.3364 53.337 46.157C53.337 46.9776 53.1318 47.7981 52.7216 48.6187C52.3113 49.4393 51.6958 50.2598 50.8753 50.8753L49.8496 51.901L53.9524 56.6193C54.1575 56.6193 54.1575 56.8244 54.1575 56.8244C54.1575 57.0295 54.1575 57.0295 53.9524 57.2347C53.9524 57.4398 53.9524 57.4398 53.7473 57.645C53.5421 57.8501 53.337 58.0553 53.1318 58.2604C52.9267 58.4655 52.7216 58.6707 52.5164 58.8758C52.3113 58.8758 52.1061 59.081 51.901 59.081H51.6958C51.4907 59.081 51.4907 59.081 51.4907 58.8758L39.3873 45.7467C39.1822 45.3364 38.977 45.1313 38.977 44.721C38.977 44.5159 39.1822 44.1056 39.3873 43.9004L42.4644 41.2336C42.6696 40.8233 43.0799 40.6182 43.285 40.413C43.4902 40.2079 43.9004 40.0027 44.5159 39.7976C44.9261 39.3873 45.3364 39.1822 45.9519 39.1822C46.5673 38.977 47.1827 38.977 47.7981 39.1822C48.4136 39.1822 49.029 39.3873 49.6444 39.7976C50.2598 40.2079 50.6701 40.6182 51.2856 41.2336ZM48.8238 43.9004C48.2084 43.285 47.7981 43.0799 47.3879 42.8747C46.9776 42.6696 46.5673 42.6696 46.157 42.6696C45.7467 42.6696 45.3364 42.8747 45.1313 43.0799C44.721 43.0799 44.5159 43.4902 44.3107 43.6953L43.0799 44.721L47.593 49.6444L48.8238 48.6187C49.2341 48.2084 49.6444 47.7981 49.6444 47.3879C49.8496 46.9776 50.0547 46.5673 49.8496 46.3621C49.8496 45.9519 49.8496 45.5416 49.6444 45.1313C49.4393 44.721 49.029 44.3107 48.8238 43.9004ZM75.0821 40.2079C75.0821 40.413 75.2872 40.413 75.2872 40.6182L75.0821 40.8233C75.0821 41.0284 74.8769 41.0284 74.6718 41.2336C74.4666 41.4387 74.2615 41.6439 74.0563 41.849C73.6461 42.0542 73.4409 42.0542 73.2358 42.2593C73.0306 42.2593 73.0306 42.4644 72.8255 42.4644C72.6203 42.4644 72.6203 42.4644 72.4152 42.4644L72.2101 42.2593L66.2609 33.6433C66.0558 33.4382 65.8507 33.0279 65.6455 32.8228C65.4404 32.4125 65.2352 32.2073 65.0301 31.797V32.0022C65.0301 32.0022 65.0301 32.2073 65.0301 32.4125C65.2352 32.6176 65.2352 32.8228 65.2352 33.0279C65.2352 33.4382 65.2352 33.6433 65.2352 33.8485C65.2352 34.0536 65.2352 34.2588 65.4404 34.669L66.2609 46.3621C66.2609 46.5673 66.2609 46.7724 66.2609 46.7724C66.2609 46.9776 66.2609 46.9776 66.2609 47.1827C66.0558 47.1827 66.0558 47.3879 65.8507 47.3879C65.6455 47.593 65.6455 47.7981 65.2352 47.7981C65.0301 48.0033 64.8249 48.2084 64.6198 48.2084C64.4147 48.4136 64.2095 48.4136 64.2095 48.4136C64.0044 48.6187 64.0044 48.4136 63.7992 48.4136C63.7992 48.4136 63.5941 48.4136 63.5941 48.2084L52.9267 32.8228C52.9267 32.8228 52.7216 32.8228 52.7216 32.6176L52.9267 32.4125C52.9267 32.2073 53.1318 32.0022 53.337 32.0022C53.5421 31.797 53.7473 31.5919 53.9524 31.3868C54.1575 31.1816 54.5678 30.9765 54.773 30.9765C54.9781 30.7713 54.9781 30.7713 55.1833 30.7713C55.3884 30.7713 55.3884 30.7713 55.5935 30.7713C55.5935 30.7713 55.5935 30.7713 55.7987 30.9765L61.7478 39.5925C61.953 39.7976 62.1581 40.0027 62.3632 40.413C62.5684 40.6182 62.7735 41.0284 62.9787 41.2336C62.9787 41.0284 62.7735 40.6182 62.7735 40.0027C62.7735 39.5925 62.7735 38.977 62.5684 38.5667L61.7478 26.6685V26.4633C61.7478 26.2582 61.7478 26.2582 61.7478 26.0531C61.953 26.0531 61.953 25.8479 62.1581 25.8479C62.3632 25.6428 62.3632 25.4376 62.7735 25.4376C62.9787 25.2325 63.1838 25.0274 63.3889 24.8222C63.5941 24.8222 63.7992 24.8222 63.7992 24.6171C64.0044 24.6171 64.0044 24.6171 64.2095 24.6171C64.2095 24.8222 64.4147 24.8222 64.4147 24.8222L75.0821 40.2079ZM91.6986 31.1816C91.6986 31.3868 91.9037 31.3868 91.6986 31.5919V31.797C91.4934 32.0022 91.4934 32.0022 91.2883 32.2073C91.0831 32.4125 90.878 32.4125 90.4677 32.6176C90.2626 32.8228 89.8523 32.8228 89.6472 33.0279C89.442 33.0279 89.442 33.0279 89.2369 33.233C89.0317 33.233 89.0317 33.233 88.8266 33.0279C88.8266 33.0279 88.6214 33.0279 88.6214 32.8228L84.9289 25.8479L79.1849 28.9251L82.8775 35.8999C83.0826 36.105 83.0826 36.105 83.0826 36.3102L82.8775 36.5153C82.6723 36.7205 82.6723 36.7205 82.4672 36.9256C82.262 36.9256 82.0569 37.1307 81.6466 37.3359C81.4415 37.541 81.2363 37.541 81.0312 37.7462C80.826 37.7462 80.6209 37.7462 80.4158 37.7462C80.2106 37.9513 80.2106 37.7462 80.0055 37.7462C80.0055 37.7462 80.0055 37.7462 79.8003 37.541L70.9792 21.1296V20.9245C70.9792 20.7194 70.9792 20.7194 71.1844 20.5142C71.1844 20.5142 71.3895 20.3091 71.5946 20.1039C71.7998 20.1039 72.0049 19.8988 72.2101 19.6937C72.6203 19.4885 72.8255 19.4885 73.0306 19.2834C73.2358 19.2834 73.4409 19.2834 73.6461 19.2834H73.8512C74.0563 19.2834 74.0563 19.2834 74.0563 19.4885L77.5438 25.8479L83.2877 22.7708L79.8003 16.4114V16.2062C79.8003 16.0011 79.8003 16.0011 80.0055 15.796C80.0055 15.796 80.2106 15.5908 80.4158 15.3857C80.6209 15.3857 80.826 15.1805 81.0312 14.9754C81.4415 14.7702 81.6466 14.7702 81.8517 14.7702C82.0569 14.5651 82.262 14.5651 82.262 14.5651C82.4672 14.5651 82.6723 14.5651 82.6723 14.5651C82.8775 14.5651 82.8775 14.7702 82.8775 14.7702L91.6986 31.1816ZM109.956 23.7965C110.161 24.0016 110.367 24.4119 110.367 24.6171C110.572 24.8222 110.572 24.8222 110.367 25.0274C110.367 25.2325 110.161 25.2325 109.956 25.4376C109.751 25.4376 109.546 25.6428 109.136 25.6428C108.52 25.8479 108.315 26.0531 108.11 26.0531C107.7 26.0531 107.495 26.0531 107.495 26.0531C107.289 26.0531 107.289 26.0531 107.084 26.0531L106.879 25.8479L104.623 22.3605L98.4683 24.4119L98.6734 28.5148C98.6734 28.5148 98.6734 28.7199 98.4683 28.9251V29.1302C98.2631 29.1302 98.058 29.3353 97.8528 29.3353C97.6477 29.5405 97.4426 29.5405 97.0323 29.7456C96.622 29.9508 96.4168 29.9508 96.0066 29.9508C95.8014 29.9508 95.5963 29.9508 95.5963 29.9508C95.3911 29.9508 95.3911 29.7456 95.3911 29.5405C95.186 29.3353 95.186 28.9251 95.186 28.7199L94.7757 10.2571C94.7757 10.052 94.7757 10.052 94.7757 9.84683C94.7757 9.64168 94.9809 9.64168 94.9809 9.43654C95.186 9.43654 95.3911 9.2314 95.5963 9.2314C95.8014 9.02626 96.2117 9.02626 96.622 8.82112C97.0323 8.61597 97.4426 8.61597 97.8528 8.41083C98.058 8.41083 98.4683 8.41083 98.4683 8.41083C98.6734 8.41083 98.8786 8.41083 98.8786 8.41083C99.0837 8.61597 99.2888 8.61597 99.2888 8.82112L109.956 23.7965ZM97.8528 12.5137L98.2631 21.3348L102.776 19.6937L97.8528 12.5137ZM122.675 8.00055C122.88 9.2314 123.085 10.052 122.88 11.0777C122.88 11.8982 122.47 12.7188 122.06 13.5394C121.649 14.1548 121.034 14.7702 120.418 15.1805C119.598 15.796 118.572 16.0011 117.546 16.4114L116.111 16.6165L117.546 22.7708C117.546 22.9759 117.546 22.9759 117.546 23.1811C117.546 23.1811 117.341 23.1811 117.341 23.3862C117.136 23.3862 117.136 23.5914 116.726 23.5914C116.521 23.5914 116.316 23.7965 116.111 23.7965C115.7 24.0016 115.495 24.0016 115.085 24.0016C114.88 24.0016 114.675 24.0016 114.675 24.0016C114.469 24.0016 114.469 24.0016 114.264 23.7965C114.264 23.7965 114.264 23.7965 114.264 23.5914L110.161 6.15427C110.161 5.74398 110.161 5.3337 110.161 5.12856C110.367 4.92341 110.572 4.71827 110.982 4.51313L114.88 3.69256C115.29 3.48742 115.7 3.48742 116.111 3.48742C116.521 3.48742 116.931 3.48742 117.546 3.28228C117.957 3.48742 118.572 3.48742 119.188 3.69256C119.803 3.8977 120.213 4.10284 120.624 4.51313C121.239 4.92341 121.649 5.3337 121.854 5.94912C122.265 6.56455 122.47 7.17998 122.675 8.00055ZM119.188 9.2314C118.982 8.41083 118.777 8.00055 118.572 7.59026C118.162 7.17998 117.957 6.97484 117.546 6.76969C117.136 6.56455 116.726 6.56455 116.521 6.56455C116.111 6.56455 115.7 6.56455 115.495 6.76969L113.854 7.17998L115.495 13.7445L116.931 13.3342C117.546 13.1291 117.957 12.924 118.367 12.7188C118.572 12.5137 118.982 12.1034 118.982 11.8982C119.188 11.488 119.393 11.0777 119.393 10.6674C119.393 10.052 119.393 9.64168 119.188 9.2314ZM143.394 19.2834V19.4885L143.189 19.6937C142.984 19.6937 142.779 19.8988 142.574 19.8988C142.369 19.8988 142.164 19.8988 141.753 19.8988C141.343 19.8988 141.138 20.1039 140.933 19.8988C140.728 19.8988 140.522 19.8988 140.317 19.8988C140.317 19.8988 140.112 19.8988 140.112 19.6937L139.907 19.4885L139.292 11.488L132.932 11.8982L133.548 19.8988C133.548 20.1039 133.548 20.1039 133.548 20.3091C133.342 20.3091 133.342 20.3091 133.137 20.5142C133.137 20.5142 132.932 20.5142 132.727 20.7194C132.522 20.7194 132.112 20.7194 131.906 20.7194C131.496 20.7194 131.291 20.7194 131.086 20.7194C130.881 20.7194 130.676 20.7194 130.47 20.7194C130.265 20.7194 130.265 20.5142 130.265 20.5142C130.06 20.5142 130.06 20.3091 130.06 20.3091L128.624 1.64114C128.624 1.436 128.624 1.436 128.624 1.23085C128.829 1.23085 128.829 1.23085 129.034 1.02571C129.034 1.02571 129.24 1.02571 129.445 0.820569C129.65 0.820569 130.06 0.820569 130.265 0.820569C130.676 0.820569 130.881 0.820569 131.291 0.820569C131.496 0.820569 131.701 0.820569 131.701 0.820569C131.906 0.820569 131.906 1.02571 132.112 1.02571V1.23085L132.727 8.61597L139.086 8.00055L138.676 0.820569C138.471 0.820569 138.676 0.615427 138.676 0.615427C138.676 0.410284 138.881 0.410284 138.881 0.410284C139.086 0.205142 139.292 0.205142 139.497 0.205142C139.702 0.205142 139.907 0 140.317 0C140.522 0 140.933 0 141.138 0C141.343 0 141.548 0 141.548 0.205142C141.753 0.205142 141.958 0.205142 141.958 0.205142C141.958 0.410284 141.958 0.410284 141.958 0.615427L143.394 19.2834ZM163.088 18.4628C163.088 18.8731 163.293 19.0782 163.293 19.2834C163.293 19.4885 163.293 19.6937 163.088 19.6937C163.088 19.8988 162.883 19.8988 162.678 19.8988C162.268 19.8988 162.062 19.8988 161.652 19.8988C161.037 19.8988 160.832 19.8988 160.421 19.8988C160.216 19.8988 160.011 19.8988 160.011 19.8988C159.806 19.6937 159.806 19.6937 159.601 19.6937C159.601 19.4885 159.601 19.4885 159.601 19.2834L158.37 15.3857L152.01 15.1805L150.78 19.0782C150.78 19.2834 150.78 19.2834 150.574 19.4885C150.574 19.4885 150.574 19.6937 150.369 19.6937C150.164 19.6937 150.164 19.6937 149.754 19.6937C149.549 19.8988 149.344 19.8988 148.933 19.8988C148.523 19.8988 148.113 19.6937 147.908 19.6937C147.702 19.6937 147.497 19.6937 147.497 19.4885C147.292 19.4885 147.292 19.2834 147.292 19.0782C147.497 18.8731 147.497 18.4628 147.702 18.2577L153.241 0.615427C153.241 0.410284 153.241 0.410284 153.446 0.205142C153.446 0.205142 153.446 0 153.652 0C153.857 0 154.062 0 154.267 0C154.677 0 154.882 0 155.498 0C155.908 0 156.318 0 156.729 0C156.934 0 157.139 0 157.344 0C157.549 0.205142 157.754 0.205142 157.754 0.410284C157.754 0.410284 157.96 0.615427 157.96 0.820569L163.088 18.4628ZM155.293 3.69256L152.831 12.1034L157.549 12.3085L155.293 3.69256ZM198.783 27.4891L198.578 27.6942C198.578 27.6942 198.373 27.6942 198.167 27.6942C198.167 27.8993 197.962 27.6942 197.757 27.6942C197.552 27.6942 197.347 27.6942 196.937 27.4891C196.526 27.4891 196.321 27.4891 196.116 27.2839C195.911 27.2839 195.911 27.0788 195.706 27.0788C195.706 26.8736 195.501 26.8736 195.501 26.8736C195.501 26.6685 195.501 26.6685 195.501 26.4633L200.014 11.0777L190.782 25.0274C190.577 25.2325 190.577 25.2325 190.372 25.4376H190.167C189.962 25.4376 189.757 25.4376 189.551 25.4376C189.346 25.4376 189.141 25.2325 188.731 25.2325C188.526 25.0274 188.321 25.0274 188.115 25.0274C187.91 24.8222 187.705 24.8222 187.705 24.6171C187.5 24.6171 187.5 24.4119 187.295 24.4119C187.295 24.2068 187.295 24.2068 187.295 24.0016L187.09 7.38512V7.17998L182.577 22.7708V22.9759C182.371 22.9759 182.371 23.1811 182.166 23.1811C181.961 23.1811 181.756 23.1811 181.551 22.9759C181.346 22.9759 181.141 22.9759 180.935 22.9759C180.525 22.7708 180.32 22.7708 180.115 22.5656C179.91 22.5656 179.705 22.3605 179.705 22.3605C179.499 22.3605 179.499 22.1554 179.499 22.1554C179.499 21.9502 179.499 21.9502 179.499 21.7451L184.423 4.92341C184.423 4.30799 184.833 4.10284 185.038 3.8977C185.449 3.69256 185.654 3.69256 186.064 3.69256L188.321 4.30799C188.731 4.51313 188.936 4.51313 189.346 4.71827C189.551 4.92341 189.757 5.12856 189.962 5.3337C189.962 5.53884 190.167 5.74398 190.167 6.15427C190.167 6.56455 190.372 6.76969 190.167 7.38512L190.577 19.6937L197.552 9.43654C197.757 9.02626 197.962 8.82112 198.167 8.61597C198.373 8.20569 198.578 8.00055 198.988 8.00055C199.193 7.7954 199.398 7.7954 199.603 7.7954C199.809 7.7954 200.219 7.7954 200.424 8.00055L202.681 8.61597C203.091 8.61597 203.091 8.82112 203.296 8.82112C203.501 9.02626 203.501 9.02626 203.706 9.2314C203.706 9.43654 203.706 9.64168 203.706 9.84683C203.706 10.052 203.706 10.2571 203.706 10.4623L198.783 27.4891ZM213.553 33.0279C213.348 33.233 213.143 33.4382 213.143 33.6433C212.938 33.8485 212.938 33.8485 212.732 34.0536C212.732 34.0536 212.732 34.2588 212.527 34.2588H212.322L204.527 30.5662C204.117 30.3611 204.117 30.1559 203.911 29.9508C203.911 29.7456 203.911 29.3353 204.117 28.9251L211.296 13.3342C211.502 12.924 211.707 12.7188 211.912 12.5137C212.117 12.5137 212.527 12.5137 212.732 12.5137L220.528 16.2062C220.733 16.2062 220.733 16.2062 220.733 16.4114V16.6165C220.733 16.8217 220.733 17.0268 220.733 17.2319C220.528 17.2319 220.528 17.6422 220.323 17.8474C220.323 18.0525 220.118 18.2577 220.118 18.4628C219.912 18.6679 219.912 18.8731 219.707 18.8731C219.707 19.0782 219.502 19.0782 219.502 19.0782C219.297 19.0782 219.297 19.0782 219.297 19.0782L213.553 16.4114L211.707 20.9245L216.425 22.9759V23.1811C216.63 23.1811 216.63 23.3862 216.63 23.5914C216.63 23.5914 216.425 23.7965 216.425 24.0016C216.425 24.2068 216.22 24.4119 216.22 24.6171C216.015 24.8222 216.015 25.2325 215.81 25.2325C215.81 25.4376 215.604 25.6428 215.604 25.6428C215.399 25.8479 215.399 25.8479 215.194 25.8479C215.194 25.8479 215.194 25.8479 214.989 25.8479L210.271 23.5914L208.014 28.7199L213.553 31.3868C213.758 31.3868 213.758 31.3868 213.758 31.3868C213.758 31.5919 213.963 31.5919 213.758 31.797C213.758 32.0022 213.758 32.0022 213.758 32.2073C213.758 32.4125 213.553 32.6176 213.553 33.0279ZM227.913 48.8239C227.913 48.8239 227.913 48.8239 227.708 49.029C227.708 49.029 227.708 49.029 227.503 49.029C227.298 49.029 227.298 48.8239 227.092 48.8239C226.887 48.6187 226.682 48.6187 226.477 48.4136C226.067 48.2084 225.862 48.2084 225.862 48.0033C225.656 47.7981 225.451 47.7981 225.451 47.593L225.246 47.3879C225.246 47.3879 225.246 47.1827 225.451 47.1827L227.913 43.285L218.066 37.1307L215.604 41.0284C215.604 41.0284 215.604 41.2336 215.399 41.2336H215.194C214.989 41.2336 214.784 41.0284 214.784 41.0284C214.579 41.0284 214.374 40.8233 213.963 40.6182C213.758 40.6182 213.553 40.413 213.348 40.2079L213.143 40.0027C212.938 39.7976 212.938 39.7976 212.938 39.5925C212.938 39.5925 212.938 39.3873 213.143 39.3873L216.835 33.4382C217.04 33.0279 217.04 33.0279 217.246 32.8228C217.451 32.8228 217.656 32.8228 217.861 33.0279L218.476 33.4382C218.887 33.233 219.297 33.0279 219.502 32.8228C219.912 32.6176 220.323 32.4125 220.733 32.0022C221.143 31.5919 221.554 31.1816 222.169 30.7713C222.579 30.3611 223.195 29.7456 224.015 28.9251C224.631 28.1045 225.451 27.2839 226.272 26.0531C227.092 25.0274 228.118 23.7965 229.349 22.3605C229.554 21.9502 229.964 21.7451 230.17 21.5399C230.375 21.5399 230.58 21.5399 230.99 21.7451L238.375 26.4633C238.58 26.6685 238.786 26.8736 238.786 27.0788C238.786 27.2839 238.786 27.6942 238.58 28.1045L230.375 40.8233L231.606 41.6439C231.811 41.849 232.016 42.0542 232.016 42.0542C232.016 42.2593 231.811 42.4644 231.811 42.6696L227.913 48.8239ZM234.478 27.8993L231.195 25.6428C230.17 26.8736 229.349 27.8993 228.528 28.9251C227.708 29.7456 227.092 30.5662 226.477 31.1816C225.862 32.0022 225.246 32.4125 224.836 33.0279C224.426 33.4382 224.015 33.8485 223.605 34.0536C223.195 34.4639 222.784 34.669 222.579 34.8742C222.169 35.0793 221.759 35.2845 221.554 35.2845L227.503 38.977L234.478 27.8993ZM244.94 55.7987C244.735 55.7987 244.735 55.7987 244.735 56.0038C244.53 56.0038 244.53 56.0038 244.324 55.7987C244.119 55.7987 243.914 55.7987 243.914 55.5935C243.709 55.5935 243.504 55.3884 243.094 55.1833C242.888 54.9781 242.683 54.773 242.478 54.5678C242.273 54.3627 242.273 54.1575 242.273 54.1575C242.068 53.9524 242.068 53.9524 242.068 53.7473C242.068 53.7473 242.068 53.5421 242.273 53.5421L248.838 45.5416C249.043 45.1313 249.453 44.9261 249.658 44.5159C249.863 44.3107 250.068 44.1056 250.274 43.9004C250.068 43.9004 249.863 43.9004 249.658 44.1056C249.658 44.1056 249.248 44.3107 249.043 44.3107C248.838 44.3107 248.632 44.5159 248.427 44.5159C248.222 44.721 248.017 44.721 247.812 44.9261L236.529 48.8239C236.529 49.029 236.324 49.029 236.324 49.029C236.119 49.029 236.119 49.029 235.914 49.029C235.708 48.8239 235.708 48.8239 235.503 48.8239C235.298 48.6187 235.093 48.6187 234.888 48.4136C234.683 48.2084 234.478 48.0033 234.272 47.7981C234.272 47.593 234.067 47.3879 234.067 47.3879C234.067 47.1827 233.862 47.1827 234.067 46.9776C234.067 46.9776 234.067 46.9776 234.067 46.7724L245.966 32.4125C246.171 32.2073 246.171 32.2073 246.376 32.2073H246.581C246.786 32.4125 246.991 32.4125 247.196 32.6176C247.402 32.6176 247.607 32.8228 247.812 33.0279C248.017 33.233 248.222 33.4382 248.427 33.6433C248.632 33.8485 248.632 33.8485 248.838 34.0536V34.2588C248.838 34.4639 248.838 34.4639 248.838 34.669L242.068 42.6696C241.863 42.8747 241.658 43.285 241.452 43.4902C241.042 43.6953 240.837 44.1056 240.632 44.3107C241.042 44.1056 241.452 43.9004 241.863 43.9004C242.273 43.6953 242.683 43.4902 243.094 43.285L254.376 39.1822H254.582C254.787 39.1822 254.787 39.1822 254.992 39.1822C255.197 39.1822 255.197 39.3873 255.402 39.3873C255.607 39.3873 255.812 39.5925 256.017 39.7976C256.223 40.0027 256.428 40.2079 256.633 40.413C256.633 40.413 256.838 40.6182 256.838 40.8233C257.043 40.8233 257.043 41.0284 257.043 41.0284C257.043 41.2336 256.838 41.2336 256.838 41.2336L244.94 55.7987ZM255.812 74.2615C255.607 74.2615 255.607 74.4666 255.607 74.4666C255.402 74.4666 255.402 74.4666 255.197 74.2615C255.197 74.2615 254.992 74.2615 254.787 74.0563C254.787 73.8512 254.582 73.8512 254.376 73.6461C254.171 73.2358 253.966 73.2358 253.761 73.0306C253.761 72.8255 253.556 72.6203 253.556 72.6203C253.556 72.4152 253.556 72.4152 253.556 72.2101C253.556 72.2101 253.556 72.0049 253.761 72.0049L257.043 68.9278L249.248 60.517C249.043 60.3118 248.838 60.1067 249.043 59.6964C249.043 59.4912 249.043 59.2861 249.453 58.8758L262.582 46.5673H262.787C262.992 46.3621 262.992 46.5673 263.197 46.5673C263.197 46.5673 263.403 46.7724 263.608 46.7724C263.813 46.9776 264.018 47.1827 264.223 47.3879C264.428 47.593 264.633 48.0033 264.839 48.0033C264.839 48.2084 265.044 48.4136 265.044 48.6187V48.8239C265.044 49.029 265.044 49.029 265.044 49.029L253.351 60.1067L257.659 64.6198L269.352 53.7473H269.557C269.762 53.5421 269.762 53.7473 269.967 53.7473C269.967 53.7473 270.172 53.9524 270.377 53.9524C270.583 54.1575 270.788 54.3627 270.993 54.5678C271.198 54.9781 271.403 55.1833 271.608 55.1833C271.608 55.3884 271.813 55.5935 271.813 55.7987V56.0038C271.813 56.209 271.813 56.209 271.813 56.4141L260.12 67.2867L261.146 68.3124C261.351 68.5175 261.351 68.7226 261.351 68.7226C261.351 68.9278 261.146 69.1329 260.941 69.3381L255.812 74.2615ZM270.172 85.5443C269.967 85.5443 269.967 85.7495 269.762 85.5443H269.557C269.352 85.5443 269.147 85.3392 269.147 85.134C268.941 84.9289 268.736 84.7237 268.531 84.5186C268.326 84.1083 268.121 83.9032 268.121 83.698C267.916 83.4929 267.916 83.4929 267.916 83.2877C267.916 83.0826 267.916 83.0826 267.916 82.8775C267.916 82.8775 267.916 82.8775 268.121 82.6723L276.532 76.7232C276.942 76.5181 277.147 76.1078 277.557 75.9026C277.763 75.6975 278.173 75.4923 278.378 75.4923C278.173 75.4923 277.968 75.4923 277.763 75.4923C277.557 75.4923 277.352 75.4923 277.147 75.4923C276.942 75.6975 276.737 75.6975 276.327 75.6975C276.121 75.6975 275.916 75.6975 275.711 75.6975L263.813 76.7232C263.608 76.7232 263.608 76.7232 263.403 76.7232H263.197C262.992 76.5181 262.992 76.5181 262.787 76.3129C262.582 76.3129 262.582 76.1078 262.377 75.9026C262.172 75.4923 261.967 75.2872 261.967 75.0821C261.761 74.8769 261.761 74.8769 261.761 74.6718C261.761 74.4666 261.761 74.4666 261.761 74.2615C261.761 74.2615 261.761 74.2615 261.967 74.0563L277.147 63.1838C277.352 63.1838 277.352 63.1838 277.557 63.1838C277.557 63.1838 277.763 63.1838 277.763 63.3889C277.968 63.3889 277.968 63.5941 278.173 63.5941C278.378 63.7992 278.583 64.0044 278.788 64.4147C278.993 64.6198 278.993 64.8249 279.199 65.0301C279.199 65.2352 279.404 65.4404 279.404 65.4404C279.404 65.6455 279.404 65.8507 279.404 65.8507C279.404 66.0558 279.404 66.0558 279.199 66.0558L270.583 72.2101C270.377 72.4152 270.172 72.6203 269.762 72.8255C269.557 73.0306 269.147 73.2358 268.941 73.4409C269.352 73.4409 269.762 73.2358 270.172 73.2358C270.583 73.2358 271.198 73.0306 271.608 73.0306L283.507 72.0049H283.712C283.917 72.0049 283.917 72.0049 284.122 72.2101C284.122 72.2101 284.327 72.2101 284.532 72.4152C284.532 72.6203 284.737 72.8255 284.943 73.0306C285.148 73.2358 285.148 73.4409 285.353 73.6461C285.353 73.8512 285.558 74.0563 285.558 74.0563C285.558 74.2615 285.558 74.4666 285.558 74.4666L285.353 74.6718L270.172 85.5443ZM279.199 102.161C278.993 102.161 278.993 102.161 278.788 102.161H278.583C278.378 101.956 278.378 101.751 278.173 101.751C277.968 101.545 277.968 101.34 277.763 100.93C277.557 100.725 277.352 100.315 277.352 100.109C277.352 99.9043 277.147 99.6991 277.147 99.6991C277.147 99.494 277.147 99.494 277.352 99.2888C277.352 99.2888 277.352 99.0837 277.557 99.0837L284.532 95.3911L281.455 89.6472L274.48 93.3397C274.275 93.5449 274.275 93.5449 274.07 93.5449L273.865 93.3397C273.66 93.1346 273.66 93.1346 273.455 92.9294C273.249 92.7243 273.249 92.5191 273.044 92.1089C272.839 91.9037 272.839 91.6986 272.634 91.4934C272.634 91.2883 272.634 91.0832 272.429 90.878C272.429 90.6729 272.429 90.6729 272.634 90.4677C272.634 90.4677 272.634 90.4677 272.839 90.2626L289.251 81.4415H289.456C289.661 81.4415 289.661 81.4415 289.866 81.6466C289.866 81.6466 290.071 81.8517 290.276 82.0569C290.276 82.262 290.481 82.4672 290.687 82.6723C290.892 83.0826 290.892 83.2877 291.097 83.4929C291.097 83.698 291.097 83.9032 291.097 84.1083V84.3135C291.097 84.5186 290.892 84.5186 290.892 84.5186L284.532 88.006L287.609 93.75L293.969 90.2626H294.174C294.379 90.2626 294.379 90.2626 294.584 90.4677C294.584 90.4677 294.789 90.6729 294.995 90.878C294.995 90.878 295.2 91.2883 295.405 91.4934C295.405 91.9037 295.61 92.1089 295.61 92.314C295.815 92.5191 295.815 92.7243 295.815 92.7243C295.815 92.9294 295.815 93.1346 295.815 93.1346C295.815 93.3397 295.61 93.3397 295.61 93.3397L279.199 102.161ZM286.584 120.418C286.379 120.624 286.173 120.624 285.968 120.829C285.763 120.829 285.558 120.829 285.353 120.829C285.353 120.829 285.148 120.624 285.148 120.418C284.943 120.213 284.943 119.803 284.737 119.393C284.532 118.982 284.532 118.572 284.327 118.367C284.327 118.162 284.327 117.957 284.327 117.752V117.546C284.532 117.341 284.532 117.341 284.737 117.341L288.225 115.085L286.173 108.725L282.071 108.931C282.071 108.931 281.865 108.931 281.66 108.931C281.66 108.931 281.455 108.931 281.455 108.725C281.25 108.725 281.25 108.52 281.25 108.315C281.045 108.11 281.045 107.7 280.84 107.289C280.635 107.084 280.635 106.674 280.635 106.469C280.635 106.264 280.635 106.059 280.635 105.853C280.84 105.853 280.84 105.648 281.045 105.648C281.25 105.648 281.66 105.648 282.071 105.648L300.328 105.238C300.533 105.238 300.739 105.238 300.739 105.443C300.944 105.443 300.944 105.443 301.149 105.648C301.149 105.648 301.354 105.853 301.354 106.264C301.559 106.469 301.559 106.879 301.764 107.289C301.969 107.7 301.969 108.11 302.174 108.315C302.174 108.725 302.174 108.931 302.174 109.136C302.174 109.341 302.174 109.546 302.174 109.546C301.969 109.751 301.969 109.751 301.764 109.956L286.584 120.418ZM298.072 108.315L289.251 108.725L290.892 113.239L298.072 108.315Z" transform="translate(37.7462 26.6685)" />
<path d="M6.10276 9.55829L0 7.73959L0.929559 4.68821L7.03232 6.95149L6.85045 0H9.94224L9.74017 7.05253L15.7419 4.82967L16.6714 7.90125L10.4676 9.74016L14.4688 15.2165L11.963 17.116L8.20437 11.2962L4.56697 16.9746L2.04099 15.1357L6.10276 9.55829Z" transform="translate(328.793 158.541)" />
</g></svg>
