<!-- Generated by IcoMoon.io -->
<svg version="1.1" xmlns="http://www.w3.org/2000/svg" width="24" height="24" viewBox="0 0 24 24">
<title>telegram</title>
<path fill="#fff" d="M15.597 16.046c-0.135 0.602-0.491 0.749-0.994 0.466l-2.75-2.026-1.326 1.277c-0.147 0.147-0.27 0.27-0.552 0.27l0.196-2.799 5.095-4.604c0.221-0.196-0.049-0.307-0.344-0.11l-6.298 3.965-2.713-0.847c-0.589-0.184-0.602-0.589 0.123-0.872l10.607-4.088c0.491-0.184 0.921 0.11 0.761 0.859l-1.805 8.508zM23 11c0-6.077-4.923-11-11-11s-11 4.923-11 11c0 6.077 4.923 11 11 11s11-4.923 11-11z"></path>
</svg>
