<svg width="1440" height="525" viewBox="0 0 1440 525" fill="none" xmlns="http://www.w3.org/2000/svg">
<g clip-path="url(#clip0)">
<circle cx="12.5" cy="12.5" r="11" transform="translate(1 30.0234) rotate(-15)" stroke="#80E7FF" stroke-width="3"/>
<circle cx="12.5" cy="12.5" r="11" transform="translate(105 53.4707) rotate(-15)" stroke="#80E7FF" stroke-width="3"/>
<circle cx="12.5" cy="12.5" r="11" transform="translate(269 150.471) rotate(-15)" stroke="#80E7FF" stroke-width="3"/>
<rect x="1.5" y="1.5" width="42" height="22" transform="translate(69.5807 11.647) rotate(-15)" stroke="#0062FF" stroke-width="3"/>
<rect x="1.5" y="1.5" width="42" height="22" transform="translate(120 119.647) rotate(-15)" stroke="#0062FF" stroke-width="3"/>
<rect x="1.5" y="1.5" width="42" height="22" transform="translate(-11 209.647) rotate(-15)" stroke="#0062FF" stroke-width="3"/>
<rect x="1.5" y="1.5" width="35.8738" height="40.7247" transform="translate(22.9028 84.2695) rotate(-35.5949)" stroke="#0062FF" stroke-width="3"/>
<rect x="1.5" y="1.5" width="75.804" height="14.3202" transform="translate(94.823 234) rotate(23.1994)" stroke="#0062FF" stroke-width="3"/>
<rect x="1.5" y="1.5" width="27.421" height="25.4586" transform="translate(71.1719 285.984) scale(-1 1) rotate(-23.1994)" stroke="#0062FF" stroke-width="3"/>
<circle cx="12.5" cy="12.5" r="11" transform="translate(798 117.023) rotate(-15)" stroke="#80E7FF" stroke-width="3"/>
<circle cx="12.5" cy="12.5" r="11" transform="translate(902 140.471) rotate(-15)" stroke="#80E7FF" stroke-width="3"/>
<circle cx="12.5" cy="12.5" r="11" transform="translate(1066 237.471) rotate(-15)" stroke="#80E7FF" stroke-width="3"/>
<rect x="1.5" y="1.5" width="42" height="22" transform="translate(866.581 98.647) rotate(-15)" stroke="#0062FF" stroke-width="3"/>
<rect x="1.5" y="1.5" width="42" height="22" transform="translate(917 206.647) rotate(-15)" stroke="#0062FF" stroke-width="3"/>
<rect x="1.5" y="1.5" width="42" height="22" transform="translate(786 296.647) rotate(-15)" stroke="#0062FF" stroke-width="3"/>
<rect x="1.5" y="1.5" width="35.8738" height="40.7247" transform="translate(819.903 171.27) rotate(-35.5949)" stroke="#0062FF" stroke-width="3"/>
<rect x="1.5" y="1.5" width="75.804" height="14.3202" transform="translate(891.823 321) rotate(23.1994)" stroke="#0062FF" stroke-width="3"/>
<rect x="1.5" y="1.5" width="27.421" height="25.4586" transform="translate(868.172 372.984) scale(-1 1) rotate(-23.1994)" stroke="#0062FF" stroke-width="3"/>
<circle cx="12.5" cy="12.5" r="11" transform="translate(1440 33.0234) scale(-1 1) rotate(-15)" stroke="#80E7FF" stroke-width="3"/>
<circle cx="12.5" cy="12.5" r="11" transform="translate(1336 56.4707) scale(-1 1) rotate(-15)" stroke="#80E7FF" stroke-width="3"/>
<circle cx="12.5" cy="12.5" r="11" transform="translate(1172 153.471) scale(-1 1) rotate(-15)" stroke="#80E7FF" stroke-width="3"/>
<rect x="1.5" y="1.5" width="42" height="22" transform="translate(1371.42 14.647) scale(-1 1) rotate(-15)" stroke="#0062FF" stroke-width="3"/>
<rect x="1.5" y="1.5" width="42" height="22" transform="translate(1321 122.647) scale(-1 1) rotate(-15)" stroke="#0062FF" stroke-width="3"/>
<rect x="1.5" y="1.5" width="42" height="22" transform="translate(1452 212.647) scale(-1 1) rotate(-15)" stroke="#0062FF" stroke-width="3"/>
<rect x="1.5" y="1.5" width="35.8738" height="40.7247" transform="translate(1418.1 87.2695) scale(-1 1) rotate(-35.5949)" stroke="#0062FF" stroke-width="3"/>
<rect x="1.5" y="1.5" width="75.804" height="14.3202" transform="translate(1346.18 237) scale(-1 1) rotate(23.1994)" stroke="#0062FF" stroke-width="3"/>
<rect x="1.5" y="1.5" width="27.421" height="25.4586" transform="translate(1369.83 288.984) rotate(-23.1994)" stroke="#0062FF" stroke-width="3"/>
<circle cx="12.5" cy="12.5" r="11" transform="translate(109 243.023) rotate(-15)" stroke="#80E7FF" stroke-width="3"/>
<circle cx="12.5" cy="12.5" r="11" transform="translate(213 266.471) rotate(-15)" stroke="#80E7FF" stroke-width="3"/>
<circle cx="12.5" cy="12.5" r="11" transform="translate(377 363.471) rotate(-15)" stroke="#80E7FF" stroke-width="3"/>
<rect x="1.5" y="1.5" width="42" height="22" transform="translate(177.581 224.647) rotate(-15)" stroke="#0062FF" stroke-width="3"/>
<rect x="1.5" y="1.5" width="42" height="22" transform="translate(228 332.647) rotate(-15)" stroke="#0062FF" stroke-width="3"/>
<rect x="1.5" y="1.5" width="42" height="22" transform="translate(97 422.647) rotate(-15)" stroke="#0062FF" stroke-width="3"/>
<rect x="1.5" y="1.5" width="35.8738" height="40.7247" transform="translate(130.903 297.27) rotate(-35.5949)" stroke="#0062FF" stroke-width="3"/>
<rect x="1.5" y="1.5" width="75.804" height="14.3202" transform="translate(202.823 447) rotate(23.1994)" stroke="#0062FF" stroke-width="3"/>
<rect x="1.5" y="1.5" width="27.421" height="25.4586" transform="translate(179.172 498.984) scale(-1 1) rotate(-23.1994)" stroke="#0062FF" stroke-width="3"/>
<circle cx="12.5" cy="12.5" r="11" transform="translate(1440 196.023) scale(-1 1) rotate(-15)" stroke="#80E7FF" stroke-width="3"/>
<circle cx="12.5" cy="12.5" r="11" transform="translate(1336 219.471) scale(-1 1) rotate(-15)" stroke="#80E7FF" stroke-width="3"/>
<circle cx="12.5" cy="12.5" r="11" transform="translate(1172 316.471) scale(-1 1) rotate(-15)" stroke="#80E7FF" stroke-width="3"/>
<rect x="1.5" y="1.5" width="42" height="22" transform="translate(1371.42 177.647) scale(-1 1) rotate(-15)" stroke="#0062FF" stroke-width="3"/>
<rect x="1.5" y="1.5" width="42" height="22" transform="translate(1321 285.647) scale(-1 1) rotate(-15)" stroke="#0062FF" stroke-width="3"/>
<rect x="1.5" y="1.5" width="42" height="22" transform="translate(1452 375.647) scale(-1 1) rotate(-15)" stroke="#0062FF" stroke-width="3"/>
<rect x="1.5" y="1.5" width="35.8738" height="40.7247" transform="translate(1418.1 250.27) scale(-1 1) rotate(-35.5949)" stroke="#0062FF" stroke-width="3"/>
<rect x="1.5" y="1.5" width="75.804" height="14.3202" transform="translate(1346.18 400) scale(-1 1) rotate(23.1994)" stroke="#0062FF" stroke-width="3"/>
<rect x="1.5" y="1.5" width="27.421" height="25.4586" transform="translate(1369.83 451.984) rotate(-23.1994)" stroke="#0062FF" stroke-width="3"/>
</g>
<defs>
<clipPath id="clip0">
<rect width="1440" height="525" fill="white"/>
</clipPath>
</defs>
</svg>
